<?xml version="1.0" encoding="utf-8" ?>
<svg baseProfile="full" height="1024" version="1.1" viewBox="0 0 1024 1024" width="1024" xmlns="http://www.w3.org/2000/svg" xmlns:ev="http://www.w3.org/2001/xml-events" xmlns:xlink="http://www.w3.org/1999/xlink"><defs /><rect fill="#FAFAFA" height="1024" width="1024" x="0" y="0" /><polygon fill="white" points="97.4545454545455,968.0 926.5454545454545,968.0 926.5454545454545,56.0 97.4545454545455,56.0" stroke="#222" stroke-width="3" /><polygon fill="#F5F5F5" points="97.4545454545455,968.0 263.2727272727273,968.0 263.2727272727273,719.2727272727273 97.4545454545455,719.2727272727273" stroke="#888" stroke-width="1" /><text fill="#333" font-family="Arial, sans-serif" font-size="12" text-anchor="middle" x="180.3636363636364" y="843.6363636363636">Vorraum</text><text fill="#666" font-family="Arial, sans-serif" font-size="10" text-anchor="middle" x="180.3636363636364" y="857.6363636363636">6 m²</text><polygon fill="#D1ECF1" points="263.2727272727273,968.0 677.8181818181819,968.0 677.8181818181819,512.0 263.2727272727273,512.0" stroke="#888" stroke-width="1" /><text fill="#333" font-family="Arial, sans-serif" font-size="12" text-anchor="middle" x="470.5454545454546" y="740.0">Wohnzimmer</text><text fill="#666" font-family="Arial, sans-serif" font-size="10" text-anchor="middle" x="470.5454545454546" y="754.0">27.5 m²</text><polygon fill="#FFE5E5" points="677.8181818181819,968.0 926.5454545454545,968.0 926.5454545454545,512.0 677.8181818181819,512.0" stroke="#888" stroke-width="1" /><text fill="#333" font-family="Arial, sans-serif" font-size="12" text-anchor="middle" x="802.1818181818182" y="740.0">Esszimmer</text><text fill="#666" font-family="Arial, sans-serif" font-size="10" text-anchor="middle" x="802.1818181818182" y="754.0">16.5 m²</text><polygon fill="#FFF3CD" points="97.4545454545455,719.2727272727273 263.2727272727273,719.2727272727273 263.2727272727273,221.81818181818187 97.4545454545455,221.81818181818187" stroke="#888" stroke-width="1" /><text fill="#333" font-family="Arial, sans-serif" font-size="12" text-anchor="middle" x="180.3636363636364" y="470.54545454545456">Küche</text><text fill="#666" font-family="Arial, sans-serif" font-size="10" text-anchor="middle" x="180.3636363636364" y="484.54545454545456">12 m²</text><polygon fill="#D5C8E0" points="263.2727272727273,512.0 594.909090909091,512.0 594.909090909091,221.81818181818187 263.2727272727273,221.81818181818187" stroke="#888" stroke-width="1" /><text fill="#333" font-family="Arial, sans-serif" font-size="12" text-anchor="middle" x="429.0909090909091" y="366.90909090909093">Schlafzimmer 1</text><text fill="#666" font-family="Arial, sans-serif" font-size="10" text-anchor="middle" x="429.0909090909091" y="380.90909090909093">14 m²</text><polygon fill="#E2D5F0" points="594.909090909091,512.0 926.5454545454545,512.0 926.5454545454545,221.81818181818187 594.909090909091,221.81818181818187" stroke="#888" stroke-width="1" /><text fill="#333" font-family="Arial, sans-serif" font-size="12" text-anchor="middle" x="760.7272727272727" y="366.90909090909093">Schlafzimmer 2</text><text fill="#666" font-family="Arial, sans-serif" font-size="10" text-anchor="middle" x="760.7272727272727" y="380.90909090909093">14 m²</text><polygon fill="#E2D5F0" points="263.2727272727273,221.81818181818187 677.8181818181819,221.81818181818187 677.8181818181819,56.0 263.2727272727273,56.0" stroke="#888" stroke-width="1" /><text fill="#333" font-family="Arial, sans-serif" font-size="12" text-anchor="middle" x="470.5454545454546" y="138.90909090909093">Schlafzimmer 3</text><text fill="#666" font-family="Arial, sans-serif" font-size="10" text-anchor="middle" x="470.5454545454546" y="152.90909090909093">10 m²</text><polygon fill="#D4EDDA" points="677.8181818181819,221.81818181818187 926.5454545454545,221.81818181818187 926.5454545454545,56.0 677.8181818181819,56.0" stroke="#888" stroke-width="1" /><text fill="#333" font-family="Arial, sans-serif" font-size="12" text-anchor="middle" x="802.1818181818182" y="138.90909090909093">Bad</text><text fill="#666" font-family="Arial, sans-serif" font-size="10" text-anchor="middle" x="802.1818181818182" y="152.90909090909093">6 m²</text><polygon fill="#D4EDDA" points="97.4545454545455,221.81818181818187 263.2727272727273,221.81818181818187 263.2727272727273,138.909090909091 97.4545454545455,138.909090909091" stroke="#888" stroke-width="1" /><text fill="#333" font-family="Arial, sans-serif" font-size="12" text-anchor="middle" x="180.3636363636364" y="180.36363636363643">WC</text><text fill="#666" font-family="Arial, sans-serif" font-size="10" text-anchor="middle" x="180.3636363636364" y="194.36363636363643">2 m²</text><polygon fill="#EEE" points="97.4545454545455,138.909090909091 263.2727272727273,138.909090909091 263.2727272727273,56.0 97.4545454545455,56.0" stroke="#888" stroke-width="1" /><text fill="#333" font-family="Arial, sans-serif" font-size="12" text-anchor="middle" x="180.3636363636364" y="97.4545454545455">Kellerabteil</text><text fill="#666" font-family="Arial, sans-serif" font-size="10" text-anchor="middle" x="180.3636363636364" y="111.4545454545455">2 m²</text><rect fill="#E66" height="8" stroke="#A00" stroke-width="1" width="8" x="134.90909090909093" y="964.0" /><rect fill="#E66" height="8" stroke="#A00" stroke-width="1" width="8" x="259.2727272727273" y="839.6363636363636" /><rect fill="#E66" height="8" stroke="#A00" stroke-width="1" width="8" x="176.3636363636364" y="715.2727272727273" /><rect fill="#E66" height="8" stroke="#A00" stroke-width="1" width="8" x="673.8181818181819" y="736.0" /><rect fill="#E66" height="8" stroke="#A00" stroke-width="1" width="8" x="425.0909090909091" y="508.0" /><rect fill="#E66" height="8" stroke="#A00" stroke-width="1" width="8" x="756.7272727272727" y="508.0" /><rect fill="#E66" height="8" stroke="#A00" stroke-width="1" width="8" x="259.2727272727273" y="362.9090909090909" /><rect fill="#E66" height="8" stroke="#A00" stroke-width="1" width="8" x="590.909090909091" y="362.9090909090909" /><rect fill="#E66" height="8" stroke="#A00" stroke-width="1" width="8" x="425.0909090909091" y="217.81818181818187" /><rect fill="#E66" height="8" stroke="#A00" stroke-width="1" width="8" x="756.7272727272727" y="217.81818181818187" /><rect fill="#E66" height="8" stroke="#A00" stroke-width="1" width="8" x="673.8181818181819" y="134.909090909091" /><rect fill="#E66" height="8" stroke="#A00" stroke-width="1" width="8" x="176.3636363636364" y="217.81818181818187" /><rect fill="#E66" height="8" stroke="#A00" stroke-width="1" width="8" x="176.3636363636364" y="134.909090909091" /><rect fill="#69E" height="6" stroke="#04A" stroke-width="1" width="12" x="464.54545454545456" y="965.0" /><rect fill="#69E" height="6" stroke="#04A" stroke-width="1" width="12" x="796.1818181818182" y="965.0" /><rect fill="#69E" height="6" stroke="#04A" stroke-width="1" width="12" x="920.5454545454545" y="737.0" /><rect fill="#69E" height="6" stroke="#04A" stroke-width="1" width="12" x="91.4545454545455" y="467.54545454545456" /><rect fill="#69E" height="6" stroke="#04A" stroke-width="1" width="12" x="423.0909090909091" y="218.81818181818187" /><rect fill="#69E" height="6" stroke="#04A" stroke-width="1" width="12" x="754.7272727272727" y="218.81818181818187" /><rect fill="#69E" height="6" stroke="#04A" stroke-width="1" width="12" x="920.5454545454545" y="363.9090909090909" /><rect fill="#69E" height="6" stroke="#04A" stroke-width="1" width="12" x="464.54545454545456" y="53.0" /><rect fill="#69E" height="6" stroke="#04A" stroke-width="1" width="12" x="920.5454545454545" y="135.909090909091" /><rect fill="#69E" height="6" stroke="#04A" stroke-width="1" width="12" x="91.4545454545455" y="840.6363636363636" /><text fill="#444" font-family="Arial, sans-serif" font-size="12" x="40" y="24">eu_at_3zimmer_salzburg_buergerhaus</text></svg>