<?xml version="1.0" encoding="utf-8" ?>
<svg baseProfile="full" height="1024" version="1.1" viewBox="0 0 1024 1024" width="1024" xmlns="http://www.w3.org/2000/svg" xmlns:ev="http://www.w3.org/2001/xml-events" xmlns:xlink="http://www.w3.org/1999/xlink"><defs /><rect fill="#FAFAFA" height="1024" width="1024" x="0" y="0" /><polygon fill="white" points="113.0,968.0 911.0,968.0 911.0,56.0 113.0,56.0" stroke="#222" stroke-width="3" /><polygon fill="#F5F5F5" points="113.0,968.0 284.0,968.0 284.0,626.0 113.0,626.0" stroke="#888" stroke-width="1" /><text fill="#333" font-family="Arial, sans-serif" font-size="12" text-anchor="middle" x="198.5" y="797.0">Антре (Hall)</text><text fill="#666" font-family="Arial, sans-serif" font-size="10" text-anchor="middle" x="198.5" y="811.0">4.5 m²</text><polygon fill="#D1ECF1" points="284.0,968.0 683.0,968.0 683.0,512.0 284.0,512.0" stroke="#888" stroke-width="1" /><text fill="#333" font-family="Arial, sans-serif" font-size="12" text-anchor="middle" x="483.5" y="740.0">Хол</text><text fill="#666" font-family="Arial, sans-serif" font-size="10" text-anchor="middle" x="483.5" y="754.0">14 m²</text><polygon fill="#FFF3CD" points="683.0,968.0 911.0,968.0 911.0,626.0 683.0,626.0" stroke="#888" stroke-width="1" /><text fill="#333" font-family="Arial, sans-serif" font-size="12" text-anchor="middle" x="797.0" y="797.0">Кухня</text><text fill="#666" font-family="Arial, sans-serif" font-size="10" text-anchor="middle" x="797.0" y="811.0">6 m²</text><polygon fill="#D4EDDA" points="683.0,626.0 911.0,626.0 911.0,512.0 683.0,512.0" stroke="#888" stroke-width="1" /><text fill="#333" font-family="Arial, sans-serif" font-size="12" text-anchor="middle" x="797.0" y="569.0">WC</text><text fill="#666" font-family="Arial, sans-serif" font-size="10" text-anchor="middle" x="797.0" y="583.0">2 m²</text><polygon fill="#D4EDDA" points="113.0,626.0 284.0,626.0 284.0,398.0 113.0,398.0" stroke="#888" stroke-width="1" /><text fill="#333" font-family="Arial, sans-serif" font-size="12" text-anchor="middle" x="198.5" y="512.0">Баня</text><text fill="#666" font-family="Arial, sans-serif" font-size="10" text-anchor="middle" x="198.5" y="526.0">3 m²</text><polygon fill="#D5C8E0" points="284.0,512.0 683.0,512.0 683.0,170.0 284.0,170.0" stroke="#888" stroke-width="1" /><text fill="#333" font-family="Arial, sans-serif" font-size="12" text-anchor="middle" x="483.5" y="341.0">Спалня</text><text fill="#666" font-family="Arial, sans-serif" font-size="10" text-anchor="middle" x="483.5" y="355.0">10.5 m²</text><polygon fill="#EEE" points="683.0,512.0 911.0,512.0 911.0,170.0 683.0,170.0" stroke="#888" stroke-width="1" /><text fill="#333" font-family="Arial, sans-serif" font-size="12" text-anchor="middle" x="797.0" y="341.0">Storage</text><text fill="#666" font-family="Arial, sans-serif" font-size="10" text-anchor="middle" x="797.0" y="355.0">6 m²</text><polygon fill="#F8F9FA" points="113.0,170.0 911.0,170.0 911.0,56.0 113.0,56.0" stroke="#888" stroke-width="1" /><text fill="#333" font-family="Arial, sans-serif" font-size="12" text-anchor="middle" x="512.0" y="113.0">Балкон</text><text fill="#666" font-family="Arial, sans-serif" font-size="10" text-anchor="middle" x="512.0" y="127.0">7 m²</text><polygon fill="#F5F5F5" points="113.0,398.0 284.0,398.0 284.0,170.0 113.0,170.0" stroke="#888" stroke-width="1" /><text fill="#333" font-family="Arial, sans-serif" font-size="12" text-anchor="middle" x="198.5" y="284.0">Hall back</text><text fill="#666" font-family="Arial, sans-serif" font-size="10" text-anchor="middle" x="198.5" y="298.0">3 m²</text><rect fill="#E66" height="8" stroke="#A00" stroke-width="1" width="8" x="166.0" y="964.0" /><rect fill="#E66" height="8" stroke="#A00" stroke-width="1" width="8" x="280.0" y="793.0" /><rect fill="#E66" height="8" stroke="#A00" stroke-width="1" width="8" x="194.5" y="622.0" /><rect fill="#E66" height="8" stroke="#A00" stroke-width="1" width="8" x="679.0" y="793.0" /><rect fill="#E66" height="8" stroke="#A00" stroke-width="1" width="8" x="793.0" y="622.0" /><rect fill="#E66" height="8" stroke="#A00" stroke-width="1" width="8" x="479.5" y="508.0" /><rect fill="#E66" height="8" stroke="#A00" stroke-width="1" width="8" x="679.0" y="565.0" /><rect fill="#E66" height="8" stroke="#A00" stroke-width="1" width="8" x="679.0" y="337.0" /><rect fill="#E66" height="8" stroke="#A00" stroke-width="1" width="8" x="194.5" y="394.0" /><rect fill="#E66" height="8" stroke="#A00" stroke-width="1" width="8" x="194.5" y="166.0" /><rect fill="#E66" height="8" stroke="#A00" stroke-width="1" width="8" x="479.5" y="166.0" /><rect fill="#E66" height="8" stroke="#A00" stroke-width="1" width="8" x="793.0" y="166.0" /><rect fill="#69E" height="6" stroke="#04A" stroke-width="1" width="12" x="477.5" y="965.0" /><rect fill="#69E" height="6" stroke="#04A" stroke-width="1" width="12" x="791.0" y="965.0" /><rect fill="#69E" height="6" stroke="#04A" stroke-width="1" width="12" x="905.0" y="794.0" /><rect fill="#69E" height="6" stroke="#04A" stroke-width="1" width="12" x="477.5" y="167.0" /><rect fill="#69E" height="6" stroke="#04A" stroke-width="1" width="12" x="905.0" y="338.0" /><rect fill="#69E" height="6" stroke="#04A" stroke-width="1" width="12" x="506.0" y="53.0" /><rect fill="#69E" height="6" stroke="#04A" stroke-width="1" width="12" x="107.0" y="509.0" /><text fill="#444" font-family="Arial, sans-serif" font-size="12" x="40" y="24">eu_bg_1bed_sofia_panelka</text></svg>