<?xml version="1.0" encoding="utf-8" ?>
<svg baseProfile="full" height="1024" version="1.1" viewBox="0 0 1024 1024" width="1024" xmlns="http://www.w3.org/2000/svg" xmlns:ev="http://www.w3.org/2001/xml-events" xmlns:xlink="http://www.w3.org/1999/xlink"><defs /><rect fill="#FAFAFA" height="1024" width="1024" x="0" y="0" /><polygon fill="white" points="208.0,968.0 816.0,968.0 816.0,56.0 208.0,56.0" stroke="#222" stroke-width="3" /><polygon fill="#F5F5F5" points="208.0,968.0 360.0,968.0 360.0,664.0 208.0,664.0" stroke="#888" stroke-width="1" /><text fill="#333" font-family="Arial, sans-serif" font-size="12" text-anchor="middle" x="284.0" y="816.0">Hall</text><text fill="#666" font-family="Arial, sans-serif" font-size="10" text-anchor="middle" x="284.0" y="830.0">8 m²</text><polygon fill="#D1ECF1" points="360.0,968.0 664.0,968.0 664.0,550.0 360.0,550.0" stroke="#888" stroke-width="1" /><text fill="#333" font-family="Arial, sans-serif" font-size="12" text-anchor="middle" x="512.0" y="759.0">Salon</text><text fill="#666" font-family="Arial, sans-serif" font-size="10" text-anchor="middle" x="512.0" y="773.0">22 m²</text><polygon fill="#FFF3CD" points="664.0,968.0 816.0,968.0 816.0,588.0 664.0,588.0" stroke="#888" stroke-width="1" /><text fill="#333" font-family="Arial, sans-serif" font-size="12" text-anchor="middle" x="740.0" y="778.0">Cuisine</text><text fill="#666" font-family="Arial, sans-serif" font-size="10" text-anchor="middle" x="740.0" y="792.0">10 m²</text><polygon fill="#D4EDDA" points="208.0,664.0 360.0,664.0 360.0,588.0 208.0,588.0" stroke="#888" stroke-width="1" /><text fill="#333" font-family="Arial, sans-serif" font-size="12" text-anchor="middle" x="284.0" y="626.0">WC</text><text fill="#666" font-family="Arial, sans-serif" font-size="10" text-anchor="middle" x="284.0" y="640.0">2 m²</text><polygon fill="#D4EDDA" points="208.0,588.0 360.0,588.0 360.0,360.0 208.0,360.0" stroke="#888" stroke-width="1" /><text fill="#333" font-family="Arial, sans-serif" font-size="12" text-anchor="middle" x="284.0" y="474.0">Salle de Bains</text><text fill="#666" font-family="Arial, sans-serif" font-size="10" text-anchor="middle" x="284.0" y="488.0">6 m²</text><polygon fill="#FFE5E5" points="360.0,550.0 664.0,550.0 664.0,284.0 360.0,284.0" stroke="#888" stroke-width="1" /><text fill="#333" font-family="Arial, sans-serif" font-size="12" text-anchor="middle" x="512.0" y="417.0">Salle à manger</text><text fill="#666" font-family="Arial, sans-serif" font-size="10" text-anchor="middle" x="512.0" y="431.0">14 m²</text><polygon fill="#F8F9FA" points="664.0,588.0 816.0,588.0 816.0,284.0 664.0,284.0" stroke="#888" stroke-width="1" /><text fill="#333" font-family="Arial, sans-serif" font-size="12" text-anchor="middle" x="740.0" y="436.0">Veranda</text><text fill="#666" font-family="Arial, sans-serif" font-size="10" text-anchor="middle" x="740.0" y="450.0">8 m²</text><polygon fill="#D5C8E0" points="360.0,284.0 588.0,284.0 588.0,56.0 360.0,56.0" stroke="#888" stroke-width="1" /><text fill="#333" font-family="Arial, sans-serif" font-size="12" text-anchor="middle" x="474.0" y="170.0">Master Chambre</text><text fill="#666" font-family="Arial, sans-serif" font-size="10" text-anchor="middle" x="474.0" y="184.0">9 m²</text><polygon fill="#E2D5F0" points="588.0,284.0 816.0,284.0 816.0,56.0 588.0,56.0" stroke="#888" stroke-width="1" /><text fill="#333" font-family="Arial, sans-serif" font-size="12" text-anchor="middle" x="702.0" y="170.0">Chambre 2</text><text fill="#666" font-family="Arial, sans-serif" font-size="10" text-anchor="middle" x="702.0" y="184.0">9 m²</text><polygon fill="#F5F5F5" points="208.0,360.0 360.0,360.0 360.0,56.0 208.0,56.0" stroke="#888" stroke-width="1" /><text fill="#333" font-family="Arial, sans-serif" font-size="12" text-anchor="middle" x="284.0" y="208.0">Hall back</text><text fill="#666" font-family="Arial, sans-serif" font-size="10" text-anchor="middle" x="284.0" y="222.0">8 m²</text><rect fill="#E66" height="8" stroke="#A00" stroke-width="1" width="8" x="242.0" y="964.0" /><rect fill="#E66" height="8" stroke="#A00" stroke-width="1" width="8" x="356.0" y="812.0" /><rect fill="#E66" height="8" stroke="#A00" stroke-width="1" width="8" x="280.0" y="660.0" /><rect fill="#E66" height="8" stroke="#A00" stroke-width="1" width="8" x="280.0" y="584.0" /><rect fill="#E66" height="8" stroke="#A00" stroke-width="1" width="8" x="660.0" y="774.0" /><rect fill="#E66" height="8" stroke="#A00" stroke-width="1" width="8" x="508.0" y="546.0" /><rect fill="#E66" height="8" stroke="#A00" stroke-width="1" width="8" x="736.0" y="584.0" /><rect fill="#E66" height="8" stroke="#A00" stroke-width="1" width="8" x="660.0" y="432.0" /><rect fill="#E66" height="8" stroke="#A00" stroke-width="1" width="8" x="280.0" y="356.0" /><rect fill="#E66" height="8" stroke="#A00" stroke-width="1" width="8" x="470.0" y="280.0" /><rect fill="#E66" height="8" stroke="#A00" stroke-width="1" width="8" x="698.0" y="280.0" /><rect fill="#E66" height="8" stroke="#A00" stroke-width="1" width="8" x="356.0" y="166.0" /><rect fill="#E66" height="8" stroke="#A00" stroke-width="1" width="8" x="584.0" y="166.0" /><rect fill="#69E" height="6" stroke="#04A" stroke-width="1" width="12" x="506.0" y="965.0" /><rect fill="#69E" height="6" stroke="#04A" stroke-width="1" width="12" x="734.0" y="965.0" /><rect fill="#69E" height="6" stroke="#04A" stroke-width="1" width="12" x="810.0" y="775.0" /><rect fill="#69E" height="6" stroke="#04A" stroke-width="1" width="12" x="506.0" y="281.0" /><rect fill="#69E" height="6" stroke="#04A" stroke-width="1" width="12" x="468.0" y="53.0" /><rect fill="#69E" height="6" stroke="#04A" stroke-width="1" width="12" x="696.0" y="53.0" /><rect fill="#69E" height="6" stroke="#04A" stroke-width="1" width="12" x="810.0" y="167.0" /><rect fill="#69E" height="6" stroke="#04A" stroke-width="1" width="12" x="810.0" y="433.0" /><rect fill="#69E" height="6" stroke="#04A" stroke-width="1" width="12" x="202.0" y="205.0" /><rect fill="#69E" height="6" stroke="#04A" stroke-width="1" width="12" x="202.0" y="471.0" /><rect fill="#69E" height="6" stroke="#04A" stroke-width="1" width="12" x="202.0" y="813.0" /><text fill="#444" font-family="Arial, sans-serif" font-size="12" x="40" y="24">eu_be_2bed_brussels_maison_maitre</text></svg>