<?xml version="1.0" encoding="utf-8" ?>
<svg baseProfile="full" height="1024" version="1.1" viewBox="0 0 1024 1024" width="1024" xmlns="http://www.w3.org/2000/svg" xmlns:ev="http://www.w3.org/2001/xml-events" xmlns:xlink="http://www.w3.org/1999/xlink"><defs /><rect fill="#FAFAFA" height="1024" width="1024" x="0" y="0" /><polygon fill="white" points="106.66666666666669,968.0 917.3333333333333,968.0 917.3333333333333,56.0 106.66666666666669,56.0" stroke="#222" stroke-width="3" /><polygon fill="#F5F5F5" points="106.66666666666669,968.0 309.33333333333337,968.0 309.33333333333337,664.0 106.66666666666669,664.0" stroke="#888" stroke-width="1" /><text fill="#333" font-family="Arial, sans-serif" font-size="12" text-anchor="middle" x="208.00000000000003" y="816.0">Hala</text><text fill="#666" font-family="Arial, sans-serif" font-size="10" text-anchor="middle" x="208.00000000000003" y="830.0">6 m²</text><polygon fill="#D1ECF1" points="309.33333333333337,968.0 714.6666666666667,968.0 714.6666666666667,461.33333333333337 309.33333333333337,461.33333333333337" stroke="#888" stroke-width="1" /><text fill="#333" font-family="Arial, sans-serif" font-size="12" text-anchor="middle" x="512.0" y="714.6666666666667">Salon</text><text fill="#666" font-family="Arial, sans-serif" font-size="10" text-anchor="middle" x="512.0" y="728.6666666666667">20 m²</text><polygon fill="#FFF3CD" points="714.6666666666667,968.0 917.3333333333333,968.0 917.3333333333333,461.33333333333337 714.6666666666667,461.33333333333337" stroke="#888" stroke-width="1" /><text fill="#333" font-family="Arial, sans-serif" font-size="12" text-anchor="middle" x="816.0" y="714.6666666666667">Kuchyně</text><text fill="#666" font-family="Arial, sans-serif" font-size="10" text-anchor="middle" x="816.0" y="728.6666666666667">10 m²</text><polygon fill="#D4EDDA" points="106.66666666666669,664.0 309.33333333333337,664.0 309.33333333333337,512.0 106.66666666666669,512.0" stroke="#888" stroke-width="1" /><text fill="#333" font-family="Arial, sans-serif" font-size="12" text-anchor="middle" x="208.00000000000003" y="588.0">WC</text><text fill="#666" font-family="Arial, sans-serif" font-size="10" text-anchor="middle" x="208.00000000000003" y="602.0">3 m²</text><polygon fill="#D4EDDA" points="106.66666666666669,512.0 309.33333333333337,512.0 309.33333333333337,258.66666666666674 106.66666666666669,258.66666666666674" stroke="#888" stroke-width="1" /><text fill="#333" font-family="Arial, sans-serif" font-size="12" text-anchor="middle" x="208.00000000000003" y="385.33333333333337">Koupelna</text><text fill="#666" font-family="Arial, sans-serif" font-size="10" text-anchor="middle" x="208.00000000000003" y="399.33333333333337">5 m²</text><polygon fill="#D5C8E0" points="309.33333333333337,461.33333333333337 714.6666666666667,461.33333333333337 714.6666666666667,157.33333333333337 309.33333333333337,157.33333333333337" stroke="#888" stroke-width="1" /><text fill="#333" font-family="Arial, sans-serif" font-size="12" text-anchor="middle" x="512.0" y="309.33333333333337">Master Bedroom</text><text fill="#666" font-family="Arial, sans-serif" font-size="10" text-anchor="middle" x="512.0" y="323.33333333333337">12 m²</text><polygon fill="#E2D5F0" points="714.6666666666667,461.33333333333337 917.3333333333333,461.33333333333337 917.3333333333333,157.33333333333337 714.6666666666667,157.33333333333337" stroke="#888" stroke-width="1" /><text fill="#333" font-family="Arial, sans-serif" font-size="12" text-anchor="middle" x="816.0" y="309.33333333333337">Bedroom 2</text><text fill="#666" font-family="Arial, sans-serif" font-size="10" text-anchor="middle" x="816.0" y="323.33333333333337">6 m²</text><polygon fill="#F8F9FA" points="106.66666666666669,258.66666666666674 309.33333333333337,258.66666666666674 309.33333333333337,56.0 106.66666666666669,56.0" stroke="#888" stroke-width="1" /><text fill="#333" font-family="Arial, sans-serif" font-size="12" text-anchor="middle" x="208.00000000000003" y="157.33333333333337">Pavlač (gallery balcony)</text><text fill="#666" font-family="Arial, sans-serif" font-size="10" text-anchor="middle" x="208.00000000000003" y="171.33333333333337">4 m²</text><polygon fill="#EEE" points="309.33333333333337,157.33333333333337 714.6666666666667,157.33333333333337 714.6666666666667,56.0 309.33333333333337,56.0" stroke="#888" stroke-width="1" /><text fill="#333" font-family="Arial, sans-serif" font-size="12" text-anchor="middle" x="512.0" y="106.66666666666669">Storage back</text><text fill="#666" font-family="Arial, sans-serif" font-size="10" text-anchor="middle" x="512.0" y="120.66666666666669">4 m²</text><polygon fill="#EEE" points="714.6666666666667,157.33333333333337 917.3333333333333,157.33333333333337 917.3333333333333,56.0 714.6666666666667,56.0" stroke="#888" stroke-width="1" /><text fill="#333" font-family="Arial, sans-serif" font-size="12" text-anchor="middle" x="816.0" y="106.66666666666669">Bedroom storage</text><text fill="#666" font-family="Arial, sans-serif" font-size="10" text-anchor="middle" x="816.0" y="120.66666666666669">2 m²</text><rect fill="#E66" height="8" stroke="#A00" stroke-width="1" width="8" x="153.33333333333334" y="964.0" /><rect fill="#E66" height="8" stroke="#A00" stroke-width="1" width="8" x="305.33333333333337" y="812.0" /><rect fill="#E66" height="8" stroke="#A00" stroke-width="1" width="8" x="204.0" y="660.0" /><rect fill="#E66" height="8" stroke="#A00" stroke-width="1" width="8" x="204.0" y="508.0" /><rect fill="#E66" height="8" stroke="#A00" stroke-width="1" width="8" x="710.6666666666667" y="710.6666666666667" /><rect fill="#E66" height="8" stroke="#A00" stroke-width="1" width="8" x="508.0" y="457.33333333333337" /><rect fill="#E66" height="8" stroke="#A00" stroke-width="1" width="8" x="812.0" y="457.33333333333337" /><rect fill="#E66" height="8" stroke="#A00" stroke-width="1" width="8" x="710.6666666666667" y="305.33333333333337" /><rect fill="#E66" height="8" stroke="#A00" stroke-width="1" width="8" x="204.0" y="254.66666666666674" /><rect fill="#E66" height="8" stroke="#A00" stroke-width="1" width="8" x="508.0" y="153.33333333333337" /><rect fill="#E66" height="8" stroke="#A00" stroke-width="1" width="8" x="812.0" y="153.33333333333337" /><rect fill="#E66" height="8" stroke="#A00" stroke-width="1" width="8" x="710.6666666666667" y="102.66666666666674" /><rect fill="#69E" height="6" stroke="#04A" stroke-width="1" width="12" x="506.0" y="965.0" /><rect fill="#69E" height="6" stroke="#04A" stroke-width="1" width="12" x="810.0" y="965.0" /><rect fill="#69E" height="6" stroke="#04A" stroke-width="1" width="12" x="911.3333333333333" y="711.6666666666667" /><rect fill="#69E" height="6" stroke="#04A" stroke-width="1" width="12" x="506.0" y="154.33333333333337" /><rect fill="#69E" height="6" stroke="#04A" stroke-width="1" width="12" x="911.3333333333333" y="306.33333333333337" /><rect fill="#69E" height="6" stroke="#04A" stroke-width="1" width="12" x="202.0" y="53.0" /><rect fill="#69E" height="6" stroke="#04A" stroke-width="1" width="12" x="506.0" y="53.0" /><rect fill="#69E" height="6" stroke="#04A" stroke-width="1" width="12" x="810.0" y="53.0" /><rect fill="#69E" height="6" stroke="#04A" stroke-width="1" width="12" x="100.66666666666669" y="382.33333333333337" /><rect fill="#69E" height="6" stroke="#04A" stroke-width="1" width="12" x="100.66666666666669" y="813.0" /><text fill="#444" font-family="Arial, sans-serif" font-size="12" x="40" y="24">eu_cz_2bed_prague_pavlac</text></svg>