<?xml version="1.0" encoding="utf-8" ?>
<svg baseProfile="full" height="1024" version="1.1" viewBox="0 0 1024 1024" width="1024" xmlns="http://www.w3.org/2000/svg" xmlns:ev="http://www.w3.org/2001/xml-events" xmlns:xlink="http://www.w3.org/1999/xlink"><defs /><rect fill="#FAFAFA" height="1024" width="1024" x="0" y="0" /><polygon fill="white" points="56.0,922.4000000000001 968.0,922.4000000000001 968.0,101.60000000000002 56.0,101.60000000000002" stroke="#222" stroke-width="3" /><polygon fill="#F5F5F5" points="56.0,922.4000000000001 238.4,922.4000000000001 238.4,466.4000000000001 56.0,466.4000000000001" stroke="#888" stroke-width="1" /><text fill="#333" font-family="Arial, sans-serif" font-size="12" text-anchor="middle" x="147.2" y="694.4000000000001">Diele</text><text fill="#666" font-family="Arial, sans-serif" font-size="10" text-anchor="middle" x="147.2" y="708.4000000000001">10 m²</text><polygon fill="#D1ECF1" points="238.4,922.4000000000001 694.4,922.4000000000001 694.4,466.4000000000001 238.4,466.4000000000001" stroke="#888" stroke-width="1" /><text fill="#333" font-family="Arial, sans-serif" font-size="12" text-anchor="middle" x="466.4" y="694.4000000000001">Wohnzimmer</text><text fill="#666" font-family="Arial, sans-serif" font-size="10" text-anchor="middle" x="466.4" y="708.4000000000001">25 m²</text><polygon fill="#FFF3CD" points="694.4,922.4000000000001 968.0,922.4000000000001 968.0,557.6000000000001 694.4,557.6000000000001" stroke="#888" stroke-width="1" /><text fill="#333" font-family="Arial, sans-serif" font-size="12" text-anchor="middle" x="831.2" y="740.0000000000001">Küche</text><text fill="#666" font-family="Arial, sans-serif" font-size="10" text-anchor="middle" x="831.2" y="754.0000000000001">12 m²</text><polygon fill="#EEE" points="694.4,557.6000000000001 968.0,557.6000000000001 968.0,466.4000000000001 694.4,466.4000000000001" stroke="#888" stroke-width="1" /><text fill="#333" font-family="Arial, sans-serif" font-size="12" text-anchor="middle" x="831.2" y="512.0000000000001">Abstellraum</text><text fill="#666" font-family="Arial, sans-serif" font-size="10" text-anchor="middle" x="831.2" y="526.0000000000001">3 m²</text><polygon fill="#D4EDDA" points="56.0,466.4000000000001 238.4,466.4000000000001 238.4,192.80000000000007 56.0,192.80000000000007" stroke="#888" stroke-width="1" /><text fill="#333" font-family="Arial, sans-serif" font-size="12" text-anchor="middle" x="147.2" y="329.6000000000001">Bad</text><text fill="#666" font-family="Arial, sans-serif" font-size="10" text-anchor="middle" x="147.2" y="343.6000000000001">6 m²</text><polygon fill="#D5C8E0" points="238.4,466.4000000000001 603.2,466.4000000000001 603.2,101.60000000000002 238.4,101.60000000000002" stroke="#888" stroke-width="1" /><text fill="#333" font-family="Arial, sans-serif" font-size="12" text-anchor="middle" x="420.8" y="284.00000000000006">Schlafzimmer</text><text fill="#666" font-family="Arial, sans-serif" font-size="10" text-anchor="middle" x="420.8" y="298.00000000000006">16 m²</text><polygon fill="#E2D5F0" points="603.2,466.4000000000001 968.0,466.4000000000001 968.0,101.60000000000002 603.2,101.60000000000002" stroke="#888" stroke-width="1" /><text fill="#333" font-family="Arial, sans-serif" font-size="12" text-anchor="middle" x="785.6" y="284.00000000000006">Kinderzimmer</text><text fill="#666" font-family="Arial, sans-serif" font-size="10" text-anchor="middle" x="785.6" y="298.00000000000006">16 m²</text><polygon fill="#F5F5F5" points="56.0,192.80000000000007 238.4,192.80000000000007 238.4,101.60000000000002 56.0,101.60000000000002" stroke="#888" stroke-width="1" /><text fill="#333" font-family="Arial, sans-serif" font-size="12" text-anchor="middle" x="147.2" y="147.20000000000005">Flur back</text><text fill="#666" font-family="Arial, sans-serif" font-size="10" text-anchor="middle" x="147.2" y="161.20000000000005">2 m²</text><rect fill="#E66" height="8" stroke="#A00" stroke-width="1" width="8" x="52.0" y="690.4000000000001" /><rect fill="#E66" height="8" stroke="#A00" stroke-width="1" width="8" x="234.4" y="690.4000000000001" /><rect fill="#E66" height="8" stroke="#A00" stroke-width="1" width="8" x="143.2" y="462.4000000000001" /><rect fill="#E66" height="8" stroke="#A00" stroke-width="1" width="8" x="143.2" y="188.80000000000007" /><rect fill="#E66" height="8" stroke="#A00" stroke-width="1" width="8" x="234.4" y="143.20000000000005" /><rect fill="#E66" height="8" stroke="#A00" stroke-width="1" width="8" x="690.4" y="736.0000000000001" /><rect fill="#E66" height="8" stroke="#A00" stroke-width="1" width="8" x="690.4" y="508.0" /><rect fill="#E66" height="8" stroke="#A00" stroke-width="1" width="8" x="416.8" y="462.4000000000001" /><rect fill="#E66" height="8" stroke="#A00" stroke-width="1" width="8" x="644.8000000000001" y="462.4000000000001" /><rect fill="#E66" height="8" stroke="#A00" stroke-width="1" width="8" x="599.2" y="280.0000000000001" /><rect fill="#69E" height="6" stroke="#04A" stroke-width="1" width="12" x="460.40000000000003" y="919.4000000000001" /><rect fill="#69E" height="6" stroke="#04A" stroke-width="1" width="12" x="825.2" y="919.4000000000001" /><rect fill="#69E" height="6" stroke="#04A" stroke-width="1" width="12" x="962.0" y="737.0000000000001" /><rect fill="#69E" height="6" stroke="#04A" stroke-width="1" width="12" x="414.8" y="98.60000000000002" /><rect fill="#69E" height="6" stroke="#04A" stroke-width="1" width="12" x="779.6" y="98.60000000000002" /><rect fill="#69E" height="6" stroke="#04A" stroke-width="1" width="12" x="962.0" y="281.0000000000001" /><rect fill="#69E" height="6" stroke="#04A" stroke-width="1" width="12" x="50.0" y="326.6" /><rect fill="#69E" height="6" stroke="#04A" stroke-width="1" width="12" x="50.0" y="691.4000000000001" /><text fill="#444" font-family="Arial, sans-serif" font-size="12" x="40" y="24">eu_de_3zimmer_hamburg_eppendorf_altbau</text></svg>