<?xml version="1.0" encoding="utf-8" ?>
<svg baseProfile="full" height="1024" version="1.1" viewBox="0 0 1024 1024" width="1024" xmlns="http://www.w3.org/2000/svg" xmlns:ev="http://www.w3.org/2001/xml-events" xmlns:xlink="http://www.w3.org/1999/xlink"><defs /><rect fill="#FAFAFA" height="1024" width="1024" x="0" y="0" /><polygon fill="white" points="56.0,917.3333333333333 968.0,917.3333333333333 968.0,106.66666666666663 56.0,106.66666666666663" stroke="#222" stroke-width="3" /><polygon fill="#F5F5F5" points="56.0,917.3333333333333 258.66666666666663,917.3333333333333 258.66666666666663,461.33333333333326 56.0,461.33333333333326" stroke="#888" stroke-width="1" /><text fill="#333" font-family="Arial, sans-serif" font-size="12" text-anchor="middle" x="157.33333333333331" y="689.3333333333333">Diele</text><text fill="#666" font-family="Arial, sans-serif" font-size="10" text-anchor="middle" x="157.33333333333331" y="703.3333333333333">9 m²</text><polygon fill="#D1ECF1" points="258.66666666666663,917.3333333333333 765.3333333333333,917.3333333333333 765.3333333333333,410.66666666666663 258.66666666666663,410.66666666666663" stroke="#888" stroke-width="1" /><text fill="#333" font-family="Arial, sans-serif" font-size="12" text-anchor="middle" x="511.99999999999994" y="664.0">Wohnzimmer</text><text fill="#666" font-family="Arial, sans-serif" font-size="10" text-anchor="middle" x="511.99999999999994" y="678.0">25 m²</text><polygon fill="#FFF3CD" points="765.3333333333333,917.3333333333333 968.0,917.3333333333333 968.0,562.6666666666666 765.3333333333333,562.6666666666666" stroke="#888" stroke-width="1" /><text fill="#333" font-family="Arial, sans-serif" font-size="12" text-anchor="middle" x="866.6666666666666" y="740.0">Küche</text><text fill="#666" font-family="Arial, sans-serif" font-size="10" text-anchor="middle" x="866.6666666666666" y="754.0">7 m²</text><polygon fill="#EEE" points="765.3333333333333,562.6666666666666 968.0,562.6666666666666 968.0,410.66666666666663 765.3333333333333,410.66666666666663" stroke="#888" stroke-width="1" /><text fill="#333" font-family="Arial, sans-serif" font-size="12" text-anchor="middle" x="866.6666666666666" y="486.66666666666663">Abstellraum</text><text fill="#666" font-family="Arial, sans-serif" font-size="10" text-anchor="middle" x="866.6666666666666" y="500.66666666666663">3 m²</text><polygon fill="#D4EDDA" points="56.0,461.33333333333326 258.66666666666663,461.33333333333326 258.66666666666663,208.0 56.0,208.0" stroke="#888" stroke-width="1" /><text fill="#333" font-family="Arial, sans-serif" font-size="12" text-anchor="middle" x="157.33333333333331" y="334.66666666666663">Duschbad</text><text fill="#666" font-family="Arial, sans-serif" font-size="10" text-anchor="middle" x="157.33333333333331" y="348.66666666666663">5 m²</text><polygon fill="#D5C8E0" points="258.66666666666663,410.66666666666663 664.0,410.66666666666663 664.0,106.66666666666663 258.66666666666663,106.66666666666663" stroke="#888" stroke-width="1" /><text fill="#333" font-family="Arial, sans-serif" font-size="12" text-anchor="middle" x="461.3333333333333" y="258.66666666666663">Schlafzimmer</text><text fill="#666" font-family="Arial, sans-serif" font-size="10" text-anchor="middle" x="461.3333333333333" y="272.66666666666663">12 m²</text><polygon fill="#E5F0FF" points="664.0,410.66666666666663 968.0,410.66666666666663 968.0,106.66666666666663 664.0,106.66666666666663" stroke="#888" stroke-width="1" /><text fill="#333" font-family="Arial, sans-serif" font-size="12" text-anchor="middle" x="816.0" y="258.66666666666663">Arbeitszimmer</text><text fill="#666" font-family="Arial, sans-serif" font-size="10" text-anchor="middle" x="816.0" y="272.66666666666663">9 m²</text><polygon fill="#F5F5F5" points="56.0,208.0 258.66666666666663,208.0 258.66666666666663,106.66666666666663 56.0,106.66666666666663" stroke="#888" stroke-width="1" /><text fill="#333" font-family="Arial, sans-serif" font-size="12" text-anchor="middle" x="157.33333333333331" y="157.33333333333331">Flur (Garten)</text><text fill="#666" font-family="Arial, sans-serif" font-size="10" text-anchor="middle" x="157.33333333333331" y="171.33333333333331">2 m²</text><rect fill="#E66" height="8" stroke="#A00" stroke-width="1" width="8" x="52.0" y="685.3333333333333" /><rect fill="#E66" height="8" stroke="#A00" stroke-width="1" width="8" x="254.66666666666663" y="685.3333333333333" /><rect fill="#E66" height="8" stroke="#A00" stroke-width="1" width="8" x="153.33333333333331" y="457.33333333333326" /><rect fill="#E66" height="8" stroke="#A00" stroke-width="1" width="8" x="153.33333333333331" y="204.0" /><rect fill="#E66" height="8" stroke="#A00" stroke-width="1" width="8" x="254.66666666666663" y="153.33333333333326" /><rect fill="#E66" height="8" stroke="#A00" stroke-width="1" width="8" x="761.3333333333333" y="736.0" /><rect fill="#E66" height="8" stroke="#A00" stroke-width="1" width="8" x="761.3333333333333" y="482.66666666666663" /><rect fill="#E66" height="8" stroke="#A00" stroke-width="1" width="8" x="457.3333333333333" y="406.66666666666663" /><rect fill="#E66" height="8" stroke="#A00" stroke-width="1" width="8" x="710.6666666666666" y="406.66666666666663" /><rect fill="#E66" height="8" stroke="#A00" stroke-width="1" width="8" x="660.0" y="254.66666666666663" /><rect fill="#69E" height="6" stroke="#04A" stroke-width="1" width="12" x="506.0" y="914.3333333333333" /><rect fill="#69E" height="6" stroke="#04A" stroke-width="1" width="12" x="860.6666666666666" y="914.3333333333333" /><rect fill="#69E" height="6" stroke="#04A" stroke-width="1" width="12" x="962.0" y="737.0" /><rect fill="#69E" height="6" stroke="#04A" stroke-width="1" width="12" x="455.3333333333333" y="103.66666666666663" /><rect fill="#69E" height="6" stroke="#04A" stroke-width="1" width="12" x="810.0" y="103.66666666666663" /><rect fill="#69E" height="6" stroke="#04A" stroke-width="1" width="12" x="962.0" y="255.66666666666663" /><rect fill="#69E" height="6" stroke="#04A" stroke-width="1" width="12" x="50.0" y="331.66666666666663" /><rect fill="#69E" height="6" stroke="#04A" stroke-width="1" width="12" x="50.0" y="686.3333333333333" /><text fill="#444" font-family="Arial, sans-serif" font-size="12" x="40" y="24">eu_de_3zimmer_berlin_souterrain_garten</text></svg>