<?xml version="1.0" encoding="utf-8" ?>
<svg baseProfile="full" height="1024" version="1.1" viewBox="0 0 1024 1024" width="1024" xmlns="http://www.w3.org/2000/svg" xmlns:ev="http://www.w3.org/2001/xml-events" xmlns:xlink="http://www.w3.org/1999/xlink"><defs /><rect fill="#FAFAFA" height="1024" width="1024" x="0" y="0" /><polygon fill="white" points="56.0,926.5454545454545 968.0,926.5454545454545 968.0,97.4545454545455 56.0,97.4545454545455" stroke="#222" stroke-width="3" /><polygon fill="#F5F5F5" points="56.0,926.5454545454545 221.8181818181818,926.5454545454545 221.8181818181818,677.8181818181818 56.0,677.8181818181818" stroke="#888" stroke-width="1" /><text fill="#333" font-family="Arial, sans-serif" font-size="12" text-anchor="middle" x="138.9090909090909" y="802.1818181818181">Diele</text><text fill="#666" font-family="Arial, sans-serif" font-size="10" text-anchor="middle" x="138.9090909090909" y="816.1818181818181">6 m²</text><polygon fill="#D1ECF1" points="221.8181818181818,926.5454545454545 719.2727272727273,926.5454545454545 719.2727272727273,512.0 221.8181818181818,512.0" stroke="#888" stroke-width="1" /><text fill="#333" font-family="Arial, sans-serif" font-size="12" text-anchor="middle" x="470.5454545454545" y="719.2727272727273">Wohnen-Essen</text><text fill="#666" font-family="Arial, sans-serif" font-size="10" text-anchor="middle" x="470.5454545454545" y="733.2727272727273">30 m²</text><polygon fill="#FFF3CD" points="719.2727272727273,926.5454545454545 968.0,926.5454545454545 968.0,594.9090909090909 719.2727272727273,594.9090909090909" stroke="#888" stroke-width="1" /><text fill="#333" font-family="Arial, sans-serif" font-size="12" text-anchor="middle" x="843.6363636363636" y="760.7272727272727">Küche (offen)</text><text fill="#666" font-family="Arial, sans-serif" font-size="10" text-anchor="middle" x="843.6363636363636" y="774.7272727272727">12 m²</text><polygon fill="#F8F9FA" points="719.2727272727273,594.9090909090909 968.0,594.9090909090909 968.0,429.09090909090907 719.2727272727273,429.09090909090907" stroke="#888" stroke-width="1" /><text fill="#333" font-family="Arial, sans-serif" font-size="12" text-anchor="middle" x="843.6363636363636" y="512.0">Loggia</text><text fill="#666" font-family="Arial, sans-serif" font-size="10" text-anchor="middle" x="843.6363636363636" y="526.0">6 m²</text><polygon fill="#D4EDDA" points="56.0,677.8181818181818 221.8181818181818,677.8181818181818 221.8181818181818,553.4545454545455 56.0,553.4545454545455" stroke="#888" stroke-width="1" /><text fill="#333" font-family="Arial, sans-serif" font-size="12" text-anchor="middle" x="138.9090909090909" y="615.6363636363636">Gast-WC</text><text fill="#666" font-family="Arial, sans-serif" font-size="10" text-anchor="middle" x="138.9090909090909" y="629.6363636363636">3 m²</text><polygon fill="#D4EDDA" points="56.0,553.4545454545455 221.8181818181818,553.4545454545455 221.8181818181818,346.18181818181813 56.0,346.18181818181813" stroke="#888" stroke-width="1" /><text fill="#333" font-family="Arial, sans-serif" font-size="12" text-anchor="middle" x="138.9090909090909" y="449.8181818181818">Bad</text><text fill="#666" font-family="Arial, sans-serif" font-size="10" text-anchor="middle" x="138.9090909090909" y="463.8181818181818">5 m²</text><polygon fill="#D5C8E0" points="221.8181818181818,512.0 553.4545454545455,512.0 553.4545454545455,263.27272727272725 221.8181818181818,263.27272727272725" stroke="#888" stroke-width="1" /><text fill="#333" font-family="Arial, sans-serif" font-size="12" text-anchor="middle" x="387.6363636363636" y="387.6363636363636">Schlafen</text><text fill="#666" font-family="Arial, sans-serif" font-size="10" text-anchor="middle" x="387.6363636363636" y="401.6363636363636">12 m²</text><polygon fill="#E2D5F0" points="553.4545454545455,512.0 719.2727272727273,512.0 719.2727272727273,263.27272727272725 553.4545454545455,263.27272727272725" stroke="#888" stroke-width="1" /><text fill="#333" font-family="Arial, sans-serif" font-size="12" text-anchor="middle" x="636.3636363636364" y="387.6363636363636">Kinderzimmer 1</text><text fill="#666" font-family="Arial, sans-serif" font-size="10" text-anchor="middle" x="636.3636363636364" y="401.6363636363636">6 m²</text><polygon fill="#E2D5F0" points="719.2727272727273,429.09090909090907 968.0,429.09090909090907 968.0,97.4545454545455 719.2727272727273,97.4545454545455" stroke="#888" stroke-width="1" /><text fill="#333" font-family="Arial, sans-serif" font-size="12" text-anchor="middle" x="843.6363636363636" y="263.27272727272725">Kinderzimmer 2</text><text fill="#666" font-family="Arial, sans-serif" font-size="10" text-anchor="middle" x="843.6363636363636" y="277.27272727272725">12 m²</text><polygon fill="#F5F5F5" points="56.0,346.18181818181813 221.8181818181818,346.18181818181813 221.8181818181818,97.4545454545455 56.0,97.4545454545455" stroke="#888" stroke-width="1" /><text fill="#333" font-family="Arial, sans-serif" font-size="12" text-anchor="middle" x="138.9090909090909" y="221.8181818181818">Flur back</text><text fill="#666" font-family="Arial, sans-serif" font-size="10" text-anchor="middle" x="138.9090909090909" y="235.8181818181818">6 m²</text><polygon fill="#EEE" points="221.8181818181818,263.27272727272725 719.2727272727273,263.27272727272725 719.2727272727273,97.4545454545455 221.8181818181818,97.4545454545455" stroke="#888" stroke-width="1" /><text fill="#333" font-family="Arial, sans-serif" font-size="12" text-anchor="middle" x="470.5454545454545" y="180.36363636363637">Abstellraum</text><text fill="#666" font-family="Arial, sans-serif" font-size="10" text-anchor="middle" x="470.5454545454545" y="194.36363636363637">12 m²</text><rect fill="#E66" height="8" stroke="#A00" stroke-width="1" width="8" x="93.45454545454545" y="922.5454545454545" /><rect fill="#E66" height="8" stroke="#A00" stroke-width="1" width="8" x="217.8181818181818" y="798.1818181818181" /><rect fill="#E66" height="8" stroke="#A00" stroke-width="1" width="8" x="134.9090909090909" y="673.8181818181818" /><rect fill="#E66" height="8" stroke="#A00" stroke-width="1" width="8" x="134.9090909090909" y="549.4545454545455" /><rect fill="#E66" height="8" stroke="#A00" stroke-width="1" width="8" x="134.9090909090909" y="342.18181818181813" /><rect fill="#E66" height="8" stroke="#A00" stroke-width="1" width="8" x="217.8181818181818" y="217.81818181818176" /><rect fill="#E66" height="8" stroke="#A00" stroke-width="1" width="8" x="715.2727272727273" y="715.2727272727273" /><rect fill="#E66" height="8" stroke="#A00" stroke-width="1" width="8" x="839.6363636363636" y="590.9090909090909" /><rect fill="#E66" height="8" stroke="#A00" stroke-width="1" width="8" x="383.6363636363636" y="508.0" /><rect fill="#E66" height="8" stroke="#A00" stroke-width="1" width="8" x="632.3636363636364" y="508.0" /><rect fill="#E66" height="8" stroke="#A00" stroke-width="1" width="8" x="715.2727272727273" y="342.18181818181813" /><rect fill="#E66" height="8" stroke="#A00" stroke-width="1" width="8" x="839.6363636363636" y="425.09090909090907" /><rect fill="#E66" height="8" stroke="#A00" stroke-width="1" width="8" x="383.6363636363636" y="259.27272727272725" /><rect fill="#69E" height="6" stroke="#04A" stroke-width="1" width="12" x="464.5454545454545" y="923.5454545454545" /><rect fill="#69E" height="6" stroke="#04A" stroke-width="1" width="12" x="837.6363636363636" y="923.5454545454545" /><rect fill="#69E" height="6" stroke="#04A" stroke-width="1" width="12" x="962.0" y="757.7272727272727" /><rect fill="#69E" height="6" stroke="#04A" stroke-width="1" width="12" x="962.0" y="509.0" /><rect fill="#69E" height="6" stroke="#04A" stroke-width="1" width="12" x="381.6363636363636" y="260.27272727272725" /><rect fill="#69E" height="6" stroke="#04A" stroke-width="1" width="12" x="630.3636363636364" y="260.27272727272725" /><rect fill="#69E" height="6" stroke="#04A" stroke-width="1" width="12" x="837.6363636363636" y="94.4545454545455" /><rect fill="#69E" height="6" stroke="#04A" stroke-width="1" width="12" x="962.0" y="260.27272727272725" /><rect fill="#69E" height="6" stroke="#04A" stroke-width="1" width="12" x="50.0" y="446.8181818181818" /><rect fill="#69E" height="6" stroke="#04A" stroke-width="1" width="12" x="50.0" y="799.1818181818181" /><text fill="#444" font-family="Arial, sans-serif" font-size="12" x="40" y="24">eu_de_4zimmer_dusseldorf_pempelfort_neubau</text></svg>