<?xml version="1.0" encoding="utf-8" ?>
<svg baseProfile="full" height="1024" version="1.1" viewBox="0 0 1024 1024" width="1024" xmlns="http://www.w3.org/2000/svg" xmlns:ev="http://www.w3.org/2001/xml-events" xmlns:xlink="http://www.w3.org/1999/xlink"><defs /><rect fill="#FAFAFA" height="1024" width="1024" x="0" y="0" /><polygon fill="white" points="56.0,968.0 968.0,968.0 968.0,56.0 56.0,56.0" stroke="#222" stroke-width="3" /><polygon fill="#F5F5F5" points="56.0,968.0 284.0,968.0 284.0,512.0 56.0,512.0" stroke="#888" stroke-width="1" /><text fill="#333" font-family="Arial, sans-serif" font-size="12" text-anchor="middle" x="170.0" y="740.0">Flur</text><text fill="#666" font-family="Arial, sans-serif" font-size="10" text-anchor="middle" x="170.0" y="754.0">8 m²</text><polygon fill="#D1ECF1" points="284.0,968.0 854.0,968.0 854.0,398.0 284.0,398.0" stroke="#888" stroke-width="1" /><text fill="#333" font-family="Arial, sans-serif" font-size="12" text-anchor="middle" x="569.0" y="683.0">Wohnzimmer</text><text fill="#666" font-family="Arial, sans-serif" font-size="10" text-anchor="middle" x="569.0" y="697.0">25 m²</text><polygon fill="#FFF3CD" points="854.0,968.0 968.0,968.0 968.0,398.0 854.0,398.0" stroke="#888" stroke-width="1" /><text fill="#333" font-family="Arial, sans-serif" font-size="12" text-anchor="middle" x="911.0" y="683.0">Küche</text><text fill="#666" font-family="Arial, sans-serif" font-size="10" text-anchor="middle" x="911.0" y="697.0">5 m²</text><polygon fill="#D4EDDA" points="56.0,512.0 284.0,512.0 284.0,227.0 56.0,227.0" stroke="#888" stroke-width="1" /><text fill="#333" font-family="Arial, sans-serif" font-size="12" text-anchor="middle" x="170.0" y="369.5">Duschbad</text><text fill="#666" font-family="Arial, sans-serif" font-size="10" text-anchor="middle" x="170.0" y="383.5">5 m²</text><polygon fill="#D5C8E0" points="284.0,398.0 854.0,398.0 854.0,56.0 284.0,56.0" stroke="#888" stroke-width="1" /><text fill="#333" font-family="Arial, sans-serif" font-size="12" text-anchor="middle" x="569.0" y="227.0">Schlafzimmer</text><text fill="#666" font-family="Arial, sans-serif" font-size="10" text-anchor="middle" x="569.0" y="241.0">15 m²</text><polygon fill="#F8F9FA" points="854.0,398.0 968.0,398.0 968.0,56.0 854.0,56.0" stroke="#888" stroke-width="1" /><text fill="#333" font-family="Arial, sans-serif" font-size="12" text-anchor="middle" x="911.0" y="227.0">Balkon</text><text fill="#666" font-family="Arial, sans-serif" font-size="10" text-anchor="middle" x="911.0" y="241.0">3 m²</text><polygon fill="#F5F5F5" points="56.0,227.0 284.0,227.0 284.0,56.0 56.0,56.0" stroke="#888" stroke-width="1" /><text fill="#333" font-family="Arial, sans-serif" font-size="12" text-anchor="middle" x="170.0" y="141.5">Flur back</text><text fill="#666" font-family="Arial, sans-serif" font-size="10" text-anchor="middle" x="170.0" y="155.5">3 m²</text><rect fill="#E66" height="8" stroke="#A00" stroke-width="1" width="8" x="109.0" y="964.0" /><rect fill="#E66" height="8" stroke="#A00" stroke-width="1" width="8" x="280.0" y="736.0" /><rect fill="#E66" height="8" stroke="#A00" stroke-width="1" width="8" x="166.0" y="508.0" /><rect fill="#E66" height="8" stroke="#A00" stroke-width="1" width="8" x="166.0" y="223.0" /><rect fill="#E66" height="8" stroke="#A00" stroke-width="1" width="8" x="280.0" y="137.5" /><rect fill="#E66" height="8" stroke="#A00" stroke-width="1" width="8" x="850.0" y="679.0" /><rect fill="#E66" height="8" stroke="#A00" stroke-width="1" width="8" x="565.0" y="394.0" /><rect fill="#E66" height="8" stroke="#A00" stroke-width="1" width="8" x="850.0" y="223.0" /><rect fill="#69E" height="6" stroke="#04A" stroke-width="1" width="12" x="563.0" y="965.0" /><rect fill="#69E" height="6" stroke="#04A" stroke-width="1" width="12" x="905.0" y="965.0" /><rect fill="#69E" height="6" stroke="#04A" stroke-width="1" width="12" x="962.0" y="680.0" /><rect fill="#69E" height="6" stroke="#04A" stroke-width="1" width="12" x="563.0" y="53.0" /><rect fill="#69E" height="6" stroke="#04A" stroke-width="1" width="12" x="962.0" y="224.0" /><rect fill="#69E" height="6" stroke="#04A" stroke-width="1" width="12" x="50.0" y="366.5" /><rect fill="#69E" height="6" stroke="#04A" stroke-width="1" width="12" x="50.0" y="737.0" /><text fill="#444" font-family="Arial, sans-serif" font-size="12" x="40" y="24">eu_de_2zimmer_mannheim_quadrate</text></svg>