<?xml version="1.0" encoding="utf-8" ?>
<svg baseProfile="full" height="1024" version="1.1" viewBox="0 0 1024 1024" width="1024" xmlns="http://www.w3.org/2000/svg" xmlns:ev="http://www.w3.org/2001/xml-events" xmlns:xlink="http://www.w3.org/1999/xlink"><defs /><rect fill="#FAFAFA" height="1024" width="1024" x="0" y="0" /><polygon fill="white" points="202.0,490.0 822.0,490.0 822.0,56.0 202.0,56.0" stroke="#222" stroke-width="3" /><polygon fill="#F5F5F5" points="202.0,490.0 326.0,490.0 326.0,242.0 202.0,242.0" stroke="#888" stroke-width="1" /><text fill="#333" font-family="Arial, sans-serif" font-size="12" text-anchor="middle" x="264.0" y="366.0">Diele</text><text fill="#666" font-family="Arial, sans-serif" font-size="10" text-anchor="middle" x="264.0" y="380.0">8 m²</text><polygon fill="#D4EDDA" points="202.0,242.0 326.0,242.0 326.0,149.0 202.0,149.0" stroke="#888" stroke-width="1" /><text fill="#333" font-family="Arial, sans-serif" font-size="12" text-anchor="middle" x="264.0" y="195.5">Gast-WC</text><text fill="#666" font-family="Arial, sans-serif" font-size="10" text-anchor="middle" x="264.0" y="209.5">3 m²</text><polygon fill="#EFEFEF" points="202.0,149.0 326.0,149.0 326.0,56.0 202.0,56.0" stroke="#888" stroke-width="1" /><text fill="#333" font-family="Arial, sans-serif" font-size="12" text-anchor="middle" x="264.0" y="102.5">Treppe</text><text fill="#666" font-family="Arial, sans-serif" font-size="10" text-anchor="middle" x="264.0" y="116.5">3 m²</text><polygon fill="#D1ECF1" points="326.0,490.0 636.0,490.0 636.0,56.0 326.0,56.0" stroke="#888" stroke-width="1" /><text fill="#333" font-family="Arial, sans-serif" font-size="12" text-anchor="middle" x="481.0" y="273.0">Wohnen-Essen</text><text fill="#666" font-family="Arial, sans-serif" font-size="10" text-anchor="middle" x="481.0" y="287.0">35 m²</text><polygon fill="#FFF3CD" points="636.0,490.0 822.0,490.0 822.0,242.0 636.0,242.0" stroke="#888" stroke-width="1" /><text fill="#333" font-family="Arial, sans-serif" font-size="12" text-anchor="middle" x="729.0" y="366.0">Kueche</text><text fill="#666" font-family="Arial, sans-serif" font-size="10" text-anchor="middle" x="729.0" y="380.0">12 m²</text><polygon fill="#EEE" points="636.0,242.0 822.0,242.0 822.0,56.0 636.0,56.0" stroke="#888" stroke-width="1" /><text fill="#333" font-family="Arial, sans-serif" font-size="12" text-anchor="middle" x="729.0" y="149.0">Pantry</text><text fill="#666" font-family="Arial, sans-serif" font-size="10" text-anchor="middle" x="729.0" y="163.0">9 m²</text><rect fill="#E66" height="8" stroke="#A00" stroke-width="1" width="8" x="229.0" y="486.0" /><rect fill="#E66" height="8" stroke="#A00" stroke-width="1" width="8" x="322.0" y="362.0" /><rect fill="#E66" height="8" stroke="#A00" stroke-width="1" width="8" x="260.0" y="238.0" /><rect fill="#E66" height="8" stroke="#A00" stroke-width="1" width="8" x="260.0" y="145.0" /><rect fill="#E66" height="8" stroke="#A00" stroke-width="1" width="8" x="632.0" y="362.0" /><rect fill="#E66" height="8" stroke="#A00" stroke-width="1" width="8" x="632.0" y="145.0" /><rect fill="#E66" height="8" stroke="#A00" stroke-width="1" width="8" x="725.0" y="238.0" /><rect fill="#69E" height="6" stroke="#04A" stroke-width="1" width="12" x="475.0" y="487.0" /><rect fill="#69E" height="6" stroke="#04A" stroke-width="1" width="12" x="475.0" y="53.0" /><rect fill="#69E" height="6" stroke="#04A" stroke-width="1" width="12" x="723.0" y="487.0" /><rect fill="#69E" height="6" stroke="#04A" stroke-width="1" width="12" x="816.0" y="146.0" /><rect fill="#69E" height="6" stroke="#04A" stroke-width="1" width="12" x="196.0" y="363.0" /><text fill="#1f4ed8" font-family="Arial, sans-serif" font-size="11" font-weight="bold" x="48" y="58.0">EG</text><polygon fill="white" points="202.0,962.0 822.0,962.0 822.0,528.0 202.0,528.0" stroke="#222" stroke-width="3" /><polygon fill="#F5F5F5" points="326.0,838.0 636.0,838.0 636.0,652.0 326.0,652.0" stroke="#888" stroke-width="1" /><text fill="#333" font-family="Arial, sans-serif" font-size="12" text-anchor="middle" x="481.0" y="745.0">Galerie</text><text fill="#666" font-family="Arial, sans-serif" font-size="10" text-anchor="middle" x="481.0" y="759.0">15 m²</text><polygon fill="#F5F5F5" points="202.0,962.0 326.0,962.0 326.0,528.0 202.0,528.0" stroke="#888" stroke-width="1" /><text fill="#333" font-family="Arial, sans-serif" font-size="12" text-anchor="middle" x="264.0" y="745.0">Flur</text><text fill="#666" font-family="Arial, sans-serif" font-size="10" text-anchor="middle" x="264.0" y="759.0">14 m²</text><polygon fill="#D5C8E0" points="326.0,962.0 636.0,962.0 636.0,838.0 326.0,838.0" stroke="#888" stroke-width="1" /><text fill="#333" font-family="Arial, sans-serif" font-size="12" text-anchor="middle" x="481.0" y="900.0">Schlafzimmer</text><text fill="#666" font-family="Arial, sans-serif" font-size="10" text-anchor="middle" x="481.0" y="914.0">10 m²</text><polygon fill="#E2D5F0" points="326.0,652.0 636.0,652.0 636.0,528.0 326.0,528.0" stroke="#888" stroke-width="1" /><text fill="#333" font-family="Arial, sans-serif" font-size="12" text-anchor="middle" x="481.0" y="590.0">Kinderzimmer</text><text fill="#666" font-family="Arial, sans-serif" font-size="10" text-anchor="middle" x="481.0" y="604.0">10 m²</text><polygon fill="#D4EDDA" points="636.0,962.0 822.0,962.0 822.0,776.0 636.0,776.0" stroke="#888" stroke-width="1" /><text fill="#333" font-family="Arial, sans-serif" font-size="12" text-anchor="middle" x="729.0" y="869.0">Bad</text><text fill="#666" font-family="Arial, sans-serif" font-size="10" text-anchor="middle" x="729.0" y="883.0">9 m²</text><polygon fill="#F8F9FA" points="636.0,776.0 822.0,776.0 822.0,528.0 636.0,528.0" stroke="#888" stroke-width="1" /><text fill="#333" font-family="Arial, sans-serif" font-size="12" text-anchor="middle" x="729.0" y="652.0">Terrasse</text><text fill="#666" font-family="Arial, sans-serif" font-size="10" text-anchor="middle" x="729.0" y="666.0">12 m²</text><rect fill="#E66" height="8" stroke="#A00" stroke-width="1" width="8" x="322.0" y="741.0" /><rect fill="#E66" height="8" stroke="#A00" stroke-width="1" width="8" x="322.0" y="896.0" /><rect fill="#E66" height="8" stroke="#A00" stroke-width="1" width="8" x="322.0" y="586.0" /><rect fill="#E66" height="8" stroke="#A00" stroke-width="1" width="8" x="632.0" y="803.0" /><rect fill="#E66" height="8" stroke="#A00" stroke-width="1" width="8" x="632.0" y="710.0" /><rect fill="#69E" height="6" stroke="#04A" stroke-width="1" width="12" x="475.0" y="959.0" /><rect fill="#69E" height="6" stroke="#04A" stroke-width="1" width="12" x="475.0" y="525.0" /><rect fill="#69E" height="6" stroke="#04A" stroke-width="1" width="12" x="723.0" y="959.0" /><rect fill="#69E" height="6" stroke="#04A" stroke-width="1" width="12" x="196.0" y="742.0" /><text fill="#1f4ed8" font-family="Arial, sans-serif" font-size="11" font-weight="bold" x="48" y="530.0">OG</text><text fill="#444" font-family="Arial, sans-serif" font-size="12" x="40" y="24">eu_de_3zimmer_stuttgart_sued_maisonette</text></svg>