<?xml version="1.0" encoding="utf-8" ?>
<svg baseProfile="full" height="1024" version="1.1" viewBox="0 0 1024 1024" width="1024" xmlns="http://www.w3.org/2000/svg" xmlns:ev="http://www.w3.org/2001/xml-events" xmlns:xlink="http://www.w3.org/1999/xlink"><defs /><rect fill="#FAFAFA" height="1024" width="1024" x="0" y="0" /><polygon fill="white" points="113.0,968.0 911.0,968.0 911.0,56.0 113.0,56.0" stroke="#222" stroke-width="3" /><polygon fill="#F5F5F5" points="113.0,968.0 341.0,968.0 341.0,455.0 113.0,455.0" stroke="#888" stroke-width="1" /><text fill="#333" font-family="Arial, sans-serif" font-size="12" text-anchor="middle" x="227.0" y="711.5">Diele</text><text fill="#666" font-family="Arial, sans-serif" font-size="10" text-anchor="middle" x="227.0" y="725.5">9 m²</text><polygon fill="#D1ECF1" points="341.0,968.0 911.0,968.0 911.0,455.0 341.0,455.0" stroke="#888" stroke-width="1" /><text fill="#333" font-family="Arial, sans-serif" font-size="12" text-anchor="middle" x="626.0" y="711.5">Wohnzimmer</text><text fill="#666" font-family="Arial, sans-serif" font-size="10" text-anchor="middle" x="626.0" y="725.5">22.5 m²</text><polygon fill="#FFF3CD" points="683.0,455.0 911.0,455.0 911.0,56.0 683.0,56.0" stroke="#888" stroke-width="1" /><text fill="#333" font-family="Arial, sans-serif" font-size="12" text-anchor="middle" x="797.0" y="255.5">Küche (offen)</text><text fill="#666" font-family="Arial, sans-serif" font-size="10" text-anchor="middle" x="797.0" y="269.5">7 m²</text><polygon fill="#D4EDDA" points="113.0,455.0 341.0,455.0 341.0,170.0 113.0,170.0" stroke="#888" stroke-width="1" /><text fill="#333" font-family="Arial, sans-serif" font-size="12" text-anchor="middle" x="227.0" y="312.5">Duschbad</text><text fill="#666" font-family="Arial, sans-serif" font-size="10" text-anchor="middle" x="227.0" y="326.5">5 m²</text><polygon fill="#D5C8E0" points="341.0,455.0 683.0,455.0 683.0,56.0 341.0,56.0" stroke="#888" stroke-width="1" /><text fill="#333" font-family="Arial, sans-serif" font-size="12" text-anchor="middle" x="512.0" y="255.5">Schlafzimmer</text><text fill="#666" font-family="Arial, sans-serif" font-size="10" text-anchor="middle" x="512.0" y="269.5">10.5 m²</text><polygon fill="#F5F5F5" points="113.0,170.0 341.0,170.0 341.0,56.0 113.0,56.0" stroke="#888" stroke-width="1" /><text fill="#333" font-family="Arial, sans-serif" font-size="12" text-anchor="middle" x="227.0" y="113.0">Flur back</text><text fill="#666" font-family="Arial, sans-serif" font-size="10" text-anchor="middle" x="227.0" y="127.0">2 m²</text><rect fill="#E66" height="8" stroke="#A00" stroke-width="1" width="8" x="109.0" y="707.5" /><rect fill="#E66" height="8" stroke="#A00" stroke-width="1" width="8" x="337.0" y="707.5" /><rect fill="#E66" height="8" stroke="#A00" stroke-width="1" width="8" x="223.0" y="451.0" /><rect fill="#E66" height="8" stroke="#A00" stroke-width="1" width="8" x="223.0" y="166.0" /><rect fill="#E66" height="8" stroke="#A00" stroke-width="1" width="8" x="337.0" y="109.0" /><rect fill="#E66" height="8" stroke="#A00" stroke-width="1" width="8" x="793.0" y="451.0" /><rect fill="#E66" height="8" stroke="#A00" stroke-width="1" width="8" x="508.0" y="451.0" /><rect fill="#E66" height="8" stroke="#A00" stroke-width="1" width="8" x="679.0" y="251.5" /><rect fill="#69E" height="6" stroke="#04A" stroke-width="1" width="12" x="620.0" y="965.0" /><rect fill="#69E" height="6" stroke="#04A" stroke-width="1" width="12" x="791.0" y="53.0" /><rect fill="#69E" height="6" stroke="#04A" stroke-width="1" width="12" x="905.0" y="252.5" /><rect fill="#69E" height="6" stroke="#04A" stroke-width="1" width="12" x="506.0" y="53.0" /><rect fill="#69E" height="6" stroke="#04A" stroke-width="1" width="12" x="107.0" y="309.5" /><rect fill="#69E" height="6" stroke="#04A" stroke-width="1" width="12" x="107.0" y="708.5" /><text fill="#444" font-family="Arial, sans-serif" font-size="12" x="40" y="24">eu_de_2zimmer_hannover_list</text></svg>