<?xml version="1.0" encoding="utf-8" ?>
<svg baseProfile="full" height="1024" version="1.1" viewBox="0 0 1024 1024" width="1024" xmlns="http://www.w3.org/2000/svg" xmlns:ev="http://www.w3.org/2001/xml-events" xmlns:xlink="http://www.w3.org/1999/xlink"><defs /><rect fill="#FAFAFA" height="1024" width="1024" x="0" y="0" /><polygon fill="white" points="56.0,922.4000000000001 968.0,922.4000000000001 968.0,101.60000000000002 56.0,101.60000000000002" stroke="#222" stroke-width="3" /><polygon fill="#F5F5F5" points="56.0,922.4000000000001 238.4,922.4000000000001 238.4,466.4000000000001 56.0,466.4000000000001" stroke="#888" stroke-width="1" /><text fill="#333" font-family="Arial, sans-serif" font-size="12" text-anchor="middle" x="147.2" y="694.4000000000001">Diele</text><text fill="#666" font-family="Arial, sans-serif" font-size="10" text-anchor="middle" x="147.2" y="708.4000000000001">10 m²</text><polygon fill="#D1ECF1" points="238.4,922.4000000000001 785.6,922.4000000000001 785.6,466.4000000000001 238.4,466.4000000000001" stroke="#888" stroke-width="1" /><text fill="#333" font-family="Arial, sans-serif" font-size="12" text-anchor="middle" x="512.0" y="694.4000000000001">Wohn-Essbereich (open)</text><text fill="#666" font-family="Arial, sans-serif" font-size="10" text-anchor="middle" x="512.0" y="708.4000000000001">30 m²</text><polygon fill="#FFF3CD" points="785.6,922.4000000000001 968.0,922.4000000000001 968.0,466.4000000000001 785.6,466.4000000000001" stroke="#888" stroke-width="1" /><text fill="#333" font-family="Arial, sans-serif" font-size="12" text-anchor="middle" x="876.8" y="694.4000000000001">Küche (offen)</text><text fill="#666" font-family="Arial, sans-serif" font-size="10" text-anchor="middle" x="876.8" y="708.4000000000001">10 m²</text><polygon fill="#D4EDDA" points="56.0,466.4000000000001 238.4,466.4000000000001 238.4,101.60000000000002 56.0,101.60000000000002" stroke="#888" stroke-width="1" /><text fill="#333" font-family="Arial, sans-serif" font-size="12" text-anchor="middle" x="147.2" y="284.00000000000006">Bad</text><text fill="#666" font-family="Arial, sans-serif" font-size="10" text-anchor="middle" x="147.2" y="298.00000000000006">8 m²</text><polygon fill="#D5C8E0" points="238.4,466.4000000000001 603.2,466.4000000000001 603.2,101.60000000000002 238.4,101.60000000000002" stroke="#888" stroke-width="1" /><text fill="#333" font-family="Arial, sans-serif" font-size="12" text-anchor="middle" x="420.8" y="284.00000000000006">Schlafzimmer</text><text fill="#666" font-family="Arial, sans-serif" font-size="10" text-anchor="middle" x="420.8" y="298.00000000000006">16 m²</text><polygon fill="#E2D5F0" points="603.2,466.4000000000001 968.0,466.4000000000001 968.0,101.60000000000002 603.2,101.60000000000002" stroke="#888" stroke-width="1" /><text fill="#333" font-family="Arial, sans-serif" font-size="12" text-anchor="middle" x="785.6" y="284.00000000000006">Kinderzimmer</text><text fill="#666" font-family="Arial, sans-serif" font-size="10" text-anchor="middle" x="785.6" y="298.00000000000006">16 m²</text><rect fill="#E66" height="8" stroke="#A00" stroke-width="1" width="8" x="52.0" y="690.4000000000001" /><rect fill="#E66" height="8" stroke="#A00" stroke-width="1" width="8" x="234.4" y="690.4000000000001" /><rect fill="#E66" height="8" stroke="#A00" stroke-width="1" width="8" x="143.2" y="462.4000000000001" /><rect fill="#E66" height="8" stroke="#A00" stroke-width="1" width="8" x="781.6" y="690.4000000000001" /><rect fill="#E66" height="8" stroke="#A00" stroke-width="1" width="8" x="416.8" y="462.4000000000001" /><rect fill="#E66" height="8" stroke="#A00" stroke-width="1" width="8" x="690.4" y="462.4000000000001" /><rect fill="#E66" height="8" stroke="#A00" stroke-width="1" width="8" x="599.2" y="280.0000000000001" /><rect fill="#E66" height="8" stroke="#A00" stroke-width="1" width="8" x="234.4" y="280.0000000000001" /><rect fill="#69E" height="6" stroke="#04A" stroke-width="1" width="12" x="506.0" y="919.4000000000001" /><rect fill="#69E" height="6" stroke="#04A" stroke-width="1" width="12" x="870.8000000000001" y="919.4000000000001" /><rect fill="#69E" height="6" stroke="#04A" stroke-width="1" width="12" x="962.0" y="691.4000000000001" /><rect fill="#69E" height="6" stroke="#04A" stroke-width="1" width="12" x="414.8" y="98.60000000000002" /><rect fill="#69E" height="6" stroke="#04A" stroke-width="1" width="12" x="779.6" y="98.60000000000002" /><rect fill="#69E" height="6" stroke="#04A" stroke-width="1" width="12" x="962.0" y="281.0000000000001" /><rect fill="#69E" height="6" stroke="#04A" stroke-width="1" width="12" x="50.0" y="281.0000000000001" /><rect fill="#69E" height="6" stroke="#04A" stroke-width="1" width="12" x="50.0" y="691.4000000000001" /><text fill="#444" font-family="Arial, sans-serif" font-size="12" x="40" y="24">eu_de_3zimmer_bremen_tabakquartier_loft</text></svg>