<?xml version="1.0" encoding="utf-8" ?>
<svg baseProfile="full" height="1024" version="1.1" viewBox="0 0 1024 1024" width="1024" xmlns="http://www.w3.org/2000/svg" xmlns:ev="http://www.w3.org/2001/xml-events" xmlns:xlink="http://www.w3.org/1999/xlink"><defs /><rect fill="#FAFAFA" height="1024" width="1024" x="0" y="0" /><polygon fill="white" points="186.28571428571433,968.0 837.7142857142857,968.0 837.7142857142857,56.0 186.28571428571433,56.0" stroke="#222" stroke-width="3" /><polygon fill="#F5F5F5" points="186.28571428571433,968.0 316.5714285714286,968.0 316.5714285714286,707.4285714285714 186.28571428571433,707.4285714285714" stroke="#888" stroke-width="1" /><text fill="#333" font-family="Arial, sans-serif" font-size="12" text-anchor="middle" x="251.42857142857147" y="837.7142857142858">Eingang</text><text fill="#666" font-family="Arial, sans-serif" font-size="10" text-anchor="middle" x="251.42857142857147" y="851.7142857142858">2 m²</text><polygon fill="#D4EDDA" points="316.5714285714286,968.0 577.1428571428571,968.0 577.1428571428571,707.4285714285714 316.5714285714286,707.4285714285714" stroke="#888" stroke-width="1" /><text fill="#333" font-family="Arial, sans-serif" font-size="12" text-anchor="middle" x="446.8571428571429" y="837.7142857142858">Duschbad</text><text fill="#666" font-family="Arial, sans-serif" font-size="10" text-anchor="middle" x="446.8571428571429" y="851.7142857142858">4 m²</text><polygon fill="#FFF3CD" points="577.1428571428571,968.0 837.7142857142857,968.0 837.7142857142857,707.4285714285714 577.1428571428571,707.4285714285714" stroke="#888" stroke-width="1" /><text fill="#333" font-family="Arial, sans-serif" font-size="12" text-anchor="middle" x="707.4285714285713" y="837.7142857142858">Küchenzeile</text><text fill="#666" font-family="Arial, sans-serif" font-size="10" text-anchor="middle" x="707.4285714285713" y="851.7142857142858">4 m²</text><polygon fill="#D1ECF1" points="186.28571428571433,707.4285714285714 837.7142857142857,707.4285714285714 837.7142857142857,56.0 186.28571428571433,56.0" stroke="#888" stroke-width="1" /><text fill="#333" font-family="Arial, sans-serif" font-size="12" text-anchor="middle" x="512.0" y="381.7142857142857">Wohn-Schlafraum</text><text fill="#666" font-family="Arial, sans-serif" font-size="10" text-anchor="middle" x="512.0" y="395.7142857142857">25 m²</text><rect fill="#E66" height="8" stroke="#A00" stroke-width="1" width="8" x="247.42857142857147" y="964.0" /><rect fill="#E66" height="8" stroke="#A00" stroke-width="1" width="8" x="247.42857142857147" y="703.4285714285714" /><rect fill="#E66" height="8" stroke="#A00" stroke-width="1" width="8" x="442.8571428571429" y="703.4285714285714" /><rect fill="#E66" height="8" stroke="#A00" stroke-width="1" width="8" x="703.4285714285714" y="703.4285714285714" /><rect fill="#69E" height="6" stroke="#04A" stroke-width="1" width="12" x="506.0" y="53.0" /><rect fill="#69E" height="6" stroke="#04A" stroke-width="1" width="12" x="180.28571428571433" y="378.7142857142858" /><rect fill="#69E" height="6" stroke="#04A" stroke-width="1" width="12" x="831.7142857142857" y="378.7142857142858" /><rect fill="#69E" height="6" stroke="#04A" stroke-width="1" width="12" x="701.4285714285714" y="965.0" /><text fill="#444" font-family="Arial, sans-serif" font-size="12" x="40" y="24">eu_de_1zimmer_munich_schwabing_studio</text></svg>