<?xml version="1.0" encoding="utf-8" ?>
<svg baseProfile="full" height="1024" version="1.1" viewBox="0 0 1024 1024" width="1024" xmlns="http://www.w3.org/2000/svg" xmlns:ev="http://www.w3.org/2001/xml-events" xmlns:xlink="http://www.w3.org/1999/xlink"><defs /><rect fill="#FAFAFA" height="1024" width="1024" x="0" y="0" /><polygon fill="white" points="56.0,968.0 968.0,968.0 968.0,56.0 56.0,56.0" stroke="#222" stroke-width="3" /><polygon fill="#F5F5F5" points="56.0,968.0 238.4,968.0 238.4,694.4 56.0,694.4" stroke="#888" stroke-width="1" /><text fill="#333" font-family="Arial, sans-serif" font-size="12" text-anchor="middle" x="147.2" y="831.2">Diele</text><text fill="#666" font-family="Arial, sans-serif" font-size="10" text-anchor="middle" x="147.2" y="845.2">6 m²</text><polygon fill="#D1ECF1" points="238.4,968.0 694.4,968.0 694.4,512.0 238.4,512.0" stroke="#888" stroke-width="1" /><text fill="#333" font-family="Arial, sans-serif" font-size="12" text-anchor="middle" x="466.4" y="740.0">Wohnen-Essen</text><text fill="#666" font-family="Arial, sans-serif" font-size="10" text-anchor="middle" x="466.4" y="754.0">25 m²</text><polygon fill="#FFF3CD" points="694.4,968.0 968.0,968.0 968.0,603.2 694.4,603.2" stroke="#888" stroke-width="1" /><text fill="#333" font-family="Arial, sans-serif" font-size="12" text-anchor="middle" x="831.2" y="785.6">Küche</text><text fill="#666" font-family="Arial, sans-serif" font-size="10" text-anchor="middle" x="831.2" y="799.6">12 m²</text><polygon fill="#D4EDDA" points="56.0,694.4 238.4,694.4 238.4,603.2 56.0,603.2" stroke="#888" stroke-width="1" /><text fill="#333" font-family="Arial, sans-serif" font-size="12" text-anchor="middle" x="147.2" y="648.8">Gast-WC</text><text fill="#666" font-family="Arial, sans-serif" font-size="10" text-anchor="middle" x="147.2" y="662.8">2 m²</text><polygon fill="#E0E0E0" points="56.0,603.2 238.4,603.2 238.4,420.79999999999995 56.0,420.79999999999995" stroke="#888" stroke-width="1" /><text fill="#333" font-family="Arial, sans-serif" font-size="12" text-anchor="middle" x="147.2" y="512.0">Abstellraum</text><text fill="#666" font-family="Arial, sans-serif" font-size="10" text-anchor="middle" x="147.2" y="526.0">4 m²</text><polygon fill="#D4EDDA" points="694.4,603.2 968.0,603.2 968.0,329.6 694.4,329.6" stroke="#888" stroke-width="1" /><text fill="#333" font-family="Arial, sans-serif" font-size="12" text-anchor="middle" x="831.2" y="466.40000000000003">Bad</text><text fill="#666" font-family="Arial, sans-serif" font-size="10" text-anchor="middle" x="831.2" y="480.40000000000003">9 m²</text><polygon fill="#D5C8E0" points="238.4,512.0 694.4,512.0 694.4,238.39999999999998 238.4,238.39999999999998" stroke="#888" stroke-width="1" /><text fill="#333" font-family="Arial, sans-serif" font-size="12" text-anchor="middle" x="466.4" y="375.2">Schlafzimmer</text><text fill="#666" font-family="Arial, sans-serif" font-size="10" text-anchor="middle" x="466.4" y="389.2">15 m²</text><polygon fill="#E2D5F0" points="694.4,329.6 968.0,329.6 968.0,56.0 694.4,56.0" stroke="#888" stroke-width="1" /><text fill="#333" font-family="Arial, sans-serif" font-size="12" text-anchor="middle" x="831.2" y="192.8">Kinderzimmer 1</text><text fill="#666" font-family="Arial, sans-serif" font-size="10" text-anchor="middle" x="831.2" y="206.8">9 m²</text><polygon fill="#E2D5F0" points="238.4,238.39999999999998 694.4,238.39999999999998 694.4,56.0 238.4,56.0" stroke="#888" stroke-width="1" /><text fill="#333" font-family="Arial, sans-serif" font-size="12" text-anchor="middle" x="466.4" y="147.2">Kinderzimmer 2</text><text fill="#666" font-family="Arial, sans-serif" font-size="10" text-anchor="middle" x="466.4" y="161.2">10 m²</text><polygon fill="#F5F5F5" points="56.0,420.79999999999995 238.4,420.79999999999995 238.4,56.0 56.0,56.0" stroke="#888" stroke-width="1" /><text fill="#333" font-family="Arial, sans-serif" font-size="12" text-anchor="middle" x="147.2" y="238.39999999999998">Flur</text><text fill="#666" font-family="Arial, sans-serif" font-size="10" text-anchor="middle" x="147.2" y="252.39999999999998">8 m²</text><rect fill="#E66" height="8" stroke="#A00" stroke-width="1" width="8" x="97.6" y="964.0" /><rect fill="#E66" height="8" stroke="#A00" stroke-width="1" width="8" x="234.4" y="827.2" /><rect fill="#E66" height="8" stroke="#A00" stroke-width="1" width="8" x="143.2" y="690.4" /><rect fill="#E66" height="8" stroke="#A00" stroke-width="1" width="8" x="143.2" y="599.2" /><rect fill="#E66" height="8" stroke="#A00" stroke-width="1" width="8" x="143.2" y="416.79999999999995" /><rect fill="#E66" height="8" stroke="#A00" stroke-width="1" width="8" x="234.4" y="325.6" /><rect fill="#E66" height="8" stroke="#A00" stroke-width="1" width="8" x="234.4" y="143.19999999999993" /><rect fill="#E66" height="8" stroke="#A00" stroke-width="1" width="8" x="690.4" y="736.0" /><rect fill="#E66" height="8" stroke="#A00" stroke-width="1" width="8" x="827.2" y="599.2" /><rect fill="#E66" height="8" stroke="#A00" stroke-width="1" width="8" x="690.4" y="280.0" /><rect fill="#E66" height="8" stroke="#A00" stroke-width="1" width="8" x="462.40000000000003" y="234.39999999999998" /><rect fill="#E66" height="8" stroke="#A00" stroke-width="1" width="8" x="690.4" y="143.19999999999993" /><rect fill="#E66" height="8" stroke="#A00" stroke-width="1" width="8" x="827.2" y="325.6" /><rect fill="#69E" height="6" stroke="#04A" stroke-width="1" width="12" x="460.40000000000003" y="965.0" /><rect fill="#69E" height="6" stroke="#04A" stroke-width="1" width="12" x="232.4" y="965.0" /><rect fill="#69E" height="6" stroke="#04A" stroke-width="1" width="12" x="825.2" y="965.0" /><rect fill="#69E" height="6" stroke="#04A" stroke-width="1" width="12" x="962.0" y="782.6" /><rect fill="#69E" height="6" stroke="#04A" stroke-width="1" width="12" x="962.0" y="463.4" /><rect fill="#69E" height="6" stroke="#04A" stroke-width="1" width="12" x="460.40000000000003" y="235.39999999999998" /><rect fill="#69E" height="6" stroke="#04A" stroke-width="1" width="12" x="825.2" y="53.0" /><rect fill="#69E" height="6" stroke="#04A" stroke-width="1" width="12" x="962.0" y="189.79999999999995" /><rect fill="#69E" height="6" stroke="#04A" stroke-width="1" width="12" x="460.40000000000003" y="53.0" /><rect fill="#69E" height="6" stroke="#04A" stroke-width="1" width="12" x="50.0" y="828.2" /><text fill="#444" font-family="Arial, sans-serif" font-size="12" x="40" y="24">eu_de_4zimmer_coburg_neubau</text></svg>