<?xml version="1.0" encoding="utf-8" ?>
<svg baseProfile="full" height="1024" version="1.1" viewBox="0 0 1024 1024" width="1024" xmlns="http://www.w3.org/2000/svg" xmlns:ev="http://www.w3.org/2001/xml-events" xmlns:xlink="http://www.w3.org/1999/xlink"><defs /><rect fill="#FAFAFA" height="1024" width="1024" x="0" y="0" /><polygon fill="white" points="238.39999999999998,968.0 785.6,968.0 785.6,56.0 238.39999999999998,56.0" stroke="#222" stroke-width="3" /><polygon fill="#D1ECF1" points="238.39999999999998,968.0 785.6,968.0 785.6,630.56 238.39999999999998,630.56" stroke="#888" stroke-width="1" /><text fill="#333" font-family="Arial, sans-serif" font-size="12" text-anchor="middle" x="512.0" y="799.28">Wohnzimmer</text><text fill="#666" font-family="Arial, sans-serif" font-size="10" text-anchor="middle" x="512.0" y="813.28">22.2 m²</text><polygon fill="#D4EDDA" points="238.39999999999998,630.56 466.4,630.56 466.4,448.15999999999997 238.39999999999998,448.15999999999997" stroke="#888" stroke-width="1" /><text fill="#333" font-family="Arial, sans-serif" font-size="12" text-anchor="middle" x="352.4" y="539.3599999999999">Badezimmer</text><text fill="#666" font-family="Arial, sans-serif" font-size="10" text-anchor="middle" x="352.4" y="553.3599999999999">5 m²</text><polygon fill="#F5F5F5" points="466.4,630.56 557.5999999999999,630.56 557.5999999999999,284.0 466.4,284.0" stroke="#888" stroke-width="1" /><text fill="#333" font-family="Arial, sans-serif" font-size="12" text-anchor="middle" x="511.99999999999994" y="457.28">Flur</text><text fill="#666" font-family="Arial, sans-serif" font-size="10" text-anchor="middle" x="511.99999999999994" y="471.28">3.8 m²</text><polygon fill="#D5C8E0" points="557.5999999999999,630.56 785.6,630.56 785.6,56.0 557.5999999999999,56.0" stroke="#888" stroke-width="1" /><text fill="#333" font-family="Arial, sans-serif" font-size="12" text-anchor="middle" x="671.5999999999999" y="343.28">Schlafzimmer</text><text fill="#666" font-family="Arial, sans-serif" font-size="10" text-anchor="middle" x="671.5999999999999" y="357.28">15.75 m²</text><polygon fill="#E5F0FF" points="238.39999999999998,448.15999999999997 466.4,448.15999999999997 466.4,284.0 238.39999999999998,284.0" stroke="#888" stroke-width="1" /><text fill="#333" font-family="Arial, sans-serif" font-size="12" text-anchor="middle" x="352.4" y="366.08">Loggia / Arbeitszimmer</text><text fill="#666" font-family="Arial, sans-serif" font-size="10" text-anchor="middle" x="352.4" y="380.08">4.5 m²</text><polygon fill="#FFF3CD" points="238.39999999999998,284.0 557.5999999999999,284.0 557.5999999999999,56.0 238.39999999999998,56.0" stroke="#888" stroke-width="1" /><text fill="#333" font-family="Arial, sans-serif" font-size="12" text-anchor="middle" x="397.99999999999994" y="170.0">Kueche</text><text fill="#666" font-family="Arial, sans-serif" font-size="10" text-anchor="middle" x="397.99999999999994" y="184.0">8.75 m²</text><rect fill="#E66" height="8" stroke="#A00" stroke-width="1" width="8" x="280.0" y="964.0" /><rect fill="#E66" height="8" stroke="#A00" stroke-width="1" width="8" x="508.0" y="626.56" /><rect fill="#E66" height="8" stroke="#A00" stroke-width="1" width="8" x="348.4" y="626.56" /><rect fill="#E66" height="8" stroke="#A00" stroke-width="1" width="8" x="667.5999999999999" y="626.56" /><rect fill="#E66" height="8" stroke="#A00" stroke-width="1" width="8" x="462.4" y="371.19999999999993" /><rect fill="#E66" height="8" stroke="#A00" stroke-width="1" width="8" x="508.0" y="280.0" /><rect fill="#E66" height="8" stroke="#A00" stroke-width="1" width="8" x="553.5999999999999" y="371.19999999999993" /><rect fill="#69E" height="6" stroke="#04A" stroke-width="1" width="12" x="369.2" y="965.0" /><rect fill="#69E" height="6" stroke="#04A" stroke-width="1" width="12" x="642.8" y="965.0" /><rect fill="#69E" height="6" stroke="#04A" stroke-width="1" width="12" x="232.39999999999998" y="536.3599999999999" /><rect fill="#69E" height="6" stroke="#04A" stroke-width="1" width="12" x="232.39999999999998" y="363.08000000000004" /><rect fill="#69E" height="6" stroke="#04A" stroke-width="1" width="12" x="232.39999999999998" y="167.0" /><rect fill="#69E" height="6" stroke="#04A" stroke-width="1" width="12" x="392.0" y="53.0" /><rect fill="#69E" height="6" stroke="#04A" stroke-width="1" width="12" x="779.6" y="372.19999999999993" /><rect fill="#69E" height="6" stroke="#04A" stroke-width="1" width="12" x="665.5999999999999" y="53.0" /><text fill="#444" font-family="Arial, sans-serif" font-size="12" x="40" y="24">eu_de_2zimmer_berlin_altbau_real</text></svg>