<?xml version="1.0" encoding="utf-8" ?>
<svg baseProfile="full" height="1024" version="1.1" viewBox="0 0 1024 1024" width="1024" xmlns="http://www.w3.org/2000/svg" xmlns:ev="http://www.w3.org/2001/xml-events" xmlns:xlink="http://www.w3.org/1999/xlink"><defs /><rect fill="#FAFAFA" height="1024" width="1024" x="0" y="0" /><polygon fill="white" points="56.0,930.0 968.0,930.0 968.0,94.0 56.0,94.0" stroke="#222" stroke-width="3" /><polygon fill="#F5F5F5" points="56.0,930.0 208.0,930.0 208.0,550.0 56.0,550.0" stroke="#888" stroke-width="1" /><text fill="#333" font-family="Arial, sans-serif" font-size="12" text-anchor="middle" x="132.0" y="740.0">Diele</text><text fill="#666" font-family="Arial, sans-serif" font-size="10" text-anchor="middle" x="132.0" y="754.0">10 m²</text><polygon fill="#D1ECF1" points="208.0,930.0 664.0,930.0 664.0,512.0 208.0,512.0" stroke="#888" stroke-width="1" /><text fill="#333" font-family="Arial, sans-serif" font-size="12" text-anchor="middle" x="436.0" y="721.0">Wohnen-Essen</text><text fill="#666" font-family="Arial, sans-serif" font-size="10" text-anchor="middle" x="436.0" y="735.0">33 m²</text><polygon fill="#FFF3CD" points="664.0,930.0 968.0,930.0 968.0,626.0 664.0,626.0" stroke="#888" stroke-width="1" /><text fill="#333" font-family="Arial, sans-serif" font-size="12" text-anchor="middle" x="816.0" y="778.0">Küche</text><text fill="#666" font-family="Arial, sans-serif" font-size="10" text-anchor="middle" x="816.0" y="792.0">16 m²</text><polygon fill="#E0E0E0" points="664.0,626.0 968.0,626.0 968.0,512.0 664.0,512.0" stroke="#888" stroke-width="1" /><text fill="#333" font-family="Arial, sans-serif" font-size="12" text-anchor="middle" x="816.0" y="569.0">HWR</text><text fill="#666" font-family="Arial, sans-serif" font-size="10" text-anchor="middle" x="816.0" y="583.0">6 m²</text><polygon fill="#D4EDDA" points="56.0,550.0 208.0,550.0 208.0,436.0 56.0,436.0" stroke="#888" stroke-width="1" /><text fill="#333" font-family="Arial, sans-serif" font-size="12" text-anchor="middle" x="132.0" y="493.0">Gast-WC</text><text fill="#666" font-family="Arial, sans-serif" font-size="10" text-anchor="middle" x="132.0" y="507.0">3 m²</text><polygon fill="#E5F0FF" points="664.0,512.0 968.0,512.0 968.0,284.0 664.0,284.0" stroke="#888" stroke-width="1" /><text fill="#333" font-family="Arial, sans-serif" font-size="12" text-anchor="middle" x="816.0" y="398.0">Gast/Arbeitszimmer</text><text fill="#666" font-family="Arial, sans-serif" font-size="10" text-anchor="middle" x="816.0" y="412.0">12 m²</text><polygon fill="#D4EDDA" points="56.0,436.0 208.0,436.0 208.0,246.0 56.0,246.0" stroke="#888" stroke-width="1" /><text fill="#333" font-family="Arial, sans-serif" font-size="12" text-anchor="middle" x="132.0" y="341.0">Bad</text><text fill="#666" font-family="Arial, sans-serif" font-size="10" text-anchor="middle" x="132.0" y="355.0">5 m²</text><polygon fill="#D5C8E0" points="208.0,512.0 512.0,512.0 512.0,246.0 208.0,246.0" stroke="#888" stroke-width="1" /><text fill="#333" font-family="Arial, sans-serif" font-size="12" text-anchor="middle" x="360.0" y="379.0">Schlafzimmer</text><text fill="#666" font-family="Arial, sans-serif" font-size="10" text-anchor="middle" x="360.0" y="393.0">14 m²</text><polygon fill="#EEE" points="512.0,512.0 664.0,512.0 664.0,322.0 512.0,322.0" stroke="#888" stroke-width="1" /><text fill="#333" font-family="Arial, sans-serif" font-size="12" text-anchor="middle" x="588.0" y="417.0">Ankleide</text><text fill="#666" font-family="Arial, sans-serif" font-size="10" text-anchor="middle" x="588.0" y="431.0">5 m²</text><polygon fill="#E2D5F0" points="512.0,322.0 664.0,322.0 664.0,94.0 512.0,94.0" stroke="#888" stroke-width="1" /><text fill="#333" font-family="Arial, sans-serif" font-size="12" text-anchor="middle" x="588.0" y="208.0">Kinderzimmer 1</text><text fill="#666" font-family="Arial, sans-serif" font-size="10" text-anchor="middle" x="588.0" y="222.0">6 m²</text><polygon fill="#F5F5F5" points="208.0,246.0 512.0,246.0 512.0,94.0 208.0,94.0" stroke="#888" stroke-width="1" /><text fill="#333" font-family="Arial, sans-serif" font-size="12" text-anchor="middle" x="360.0" y="170.0">Flur</text><text fill="#666" font-family="Arial, sans-serif" font-size="10" text-anchor="middle" x="360.0" y="184.0">8 m²</text><polygon fill="#E2D5F0" points="664.0,284.0 968.0,284.0 968.0,94.0 664.0,94.0" stroke="#888" stroke-width="1" /><text fill="#333" font-family="Arial, sans-serif" font-size="12" text-anchor="middle" x="816.0" y="189.0">Kinderzimmer 2</text><text fill="#666" font-family="Arial, sans-serif" font-size="10" text-anchor="middle" x="816.0" y="203.0">10 m²</text><polygon fill="#F8F9FA" points="56.0,246.0 208.0,246.0 208.0,94.0 56.0,94.0" stroke="#888" stroke-width="1" /><text fill="#333" font-family="Arial, sans-serif" font-size="12" text-anchor="middle" x="132.0" y="170.0">Terrasse</text><text fill="#666" font-family="Arial, sans-serif" font-size="10" text-anchor="middle" x="132.0" y="184.0">4 m²</text><rect fill="#E66" height="8" stroke="#A00" stroke-width="1" width="8" x="128.0" y="926.0" /><rect fill="#E66" height="8" stroke="#A00" stroke-width="1" width="8" x="204.0" y="736.0" /><rect fill="#E66" height="8" stroke="#A00" stroke-width="1" width="8" x="128.0" y="546.0" /><rect fill="#E66" height="8" stroke="#A00" stroke-width="1" width="8" x="660.0" y="774.0" /><rect fill="#E66" height="8" stroke="#A00" stroke-width="1" width="8" x="812.0" y="622.0" /><rect fill="#E66" height="8" stroke="#A00" stroke-width="1" width="8" x="660.0" y="565.0" /><rect fill="#E66" height="8" stroke="#A00" stroke-width="1" width="8" x="812.0" y="508.0" /><rect fill="#E66" height="8" stroke="#A00" stroke-width="1" width="8" x="660.0" y="508.0" /><rect fill="#E66" height="8" stroke="#A00" stroke-width="1" width="8" x="128.0" y="432.0" /><rect fill="#E66" height="8" stroke="#A00" stroke-width="1" width="8" x="356.0" y="508.0" /><rect fill="#E66" height="8" stroke="#A00" stroke-width="1" width="8" x="584.0" y="508.0" /><rect fill="#E66" height="8" stroke="#A00" stroke-width="1" width="8" x="508.0" y="413.0" /><rect fill="#E66" height="8" stroke="#A00" stroke-width="1" width="8" x="204.0" y="356.0" /><rect fill="#E66" height="8" stroke="#A00" stroke-width="1" width="8" x="584.0" y="318.0" /><rect fill="#E66" height="8" stroke="#A00" stroke-width="1" width="8" x="812.0" y="280.0" /><rect fill="#E66" height="8" stroke="#A00" stroke-width="1" width="8" x="356.0" y="242.0" /><rect fill="#E66" height="8" stroke="#A00" stroke-width="1" width="8" x="508.0" y="166.0" /><rect fill="#E66" height="8" stroke="#A00" stroke-width="1" width="8" x="204.0" y="166.0" /><rect fill="#E66" height="8" stroke="#A00" stroke-width="1" width="8" x="660.0" y="204.0" /><rect fill="#E66" height="8" stroke="#A00" stroke-width="1" width="8" x="128.0" y="242.0" /><rect fill="#69E" height="6" stroke="#04A" stroke-width="1" width="12" x="430.0" y="927.0" /><rect fill="#69E" height="6" stroke="#04A" stroke-width="1" width="12" x="810.0" y="927.0" /><rect fill="#69E" height="6" stroke="#04A" stroke-width="1" width="12" x="962.0" y="775.0" /><rect fill="#69E" height="6" stroke="#04A" stroke-width="1" width="12" x="962.0" y="566.0" /><rect fill="#69E" height="6" stroke="#04A" stroke-width="1" width="12" x="962.0" y="395.0" /><rect fill="#69E" height="6" stroke="#04A" stroke-width="1" width="12" x="354.0" y="243.0" /><rect fill="#69E" height="6" stroke="#04A" stroke-width="1" width="12" x="582.0" y="91.0" /><rect fill="#69E" height="6" stroke="#04A" stroke-width="1" width="12" x="810.0" y="91.0" /><rect fill="#69E" height="6" stroke="#04A" stroke-width="1" width="12" x="962.0" y="205.0" /><rect fill="#69E" height="6" stroke="#04A" stroke-width="1" width="12" x="354.0" y="91.0" /><rect fill="#69E" height="6" stroke="#04A" stroke-width="1" width="12" x="126.0" y="91.0" /><rect fill="#69E" height="6" stroke="#04A" stroke-width="1" width="12" x="50.0" y="338.0" /><rect fill="#69E" height="6" stroke="#04A" stroke-width="1" width="12" x="50.0" y="737.0" /><text fill="#444" font-family="Arial, sans-serif" font-size="12" x="40" y="24">eu_de_5zimmer_nurda_stadthaus_s150</text></svg>