<?xml version="1.0" encoding="utf-8" ?>
<svg baseProfile="full" height="1024" version="1.1" viewBox="0 0 1024 1024" width="1024" xmlns="http://www.w3.org/2000/svg" xmlns:ev="http://www.w3.org/2001/xml-events" xmlns:xlink="http://www.w3.org/1999/xlink"><defs /><rect fill="#FAFAFA" height="1024" width="1024" x="0" y="0" /><polygon fill="white" points="56.0,902.8571428571429 968.0,902.8571428571429 968.0,121.14285714285722 56.0,121.14285714285722" stroke="#222" stroke-width="3" /><polygon fill="#F5F5F5" points="56.0,902.8571428571429 251.42857142857142,902.8571428571429 251.42857142857142,577.1428571428572 56.0,577.1428571428572" stroke="#888" stroke-width="1" /><text fill="#333" font-family="Arial, sans-serif" font-size="12" text-anchor="middle" x="153.71428571428572" y="740.0">Diele</text><text fill="#666" font-family="Arial, sans-serif" font-size="10" text-anchor="middle" x="153.71428571428572" y="754.0">15 m²</text><polygon fill="#D1ECF1" points="251.42857142857142,902.8571428571429 707.4285714285713,902.8571428571429 707.4285714285713,577.1428571428572 251.42857142857142,577.1428571428572" stroke="#888" stroke-width="1" /><text fill="#333" font-family="Arial, sans-serif" font-size="12" text-anchor="middle" x="479.4285714285714" y="740.0">Wohnen-Essen</text><text fill="#666" font-family="Arial, sans-serif" font-size="10" text-anchor="middle" x="479.4285714285714" y="754.0">35 m²</text><polygon fill="#FFF3CD" points="707.4285714285713,902.8571428571429 968.0,902.8571428571429 968.0,642.2857142857143 707.4285714285713,642.2857142857143" stroke="#888" stroke-width="1" /><text fill="#333" font-family="Arial, sans-serif" font-size="12" text-anchor="middle" x="837.7142857142857" y="772.5714285714287">Küche</text><text fill="#666" font-family="Arial, sans-serif" font-size="10" text-anchor="middle" x="837.7142857142857" y="786.5714285714287">16 m²</text><polygon fill="#D4EDDA" points="707.4285714285713,642.2857142857143 837.7142857142857,642.2857142857143 837.7142857142857,577.1428571428572 707.4285714285713,577.1428571428572" stroke="#888" stroke-width="1" /><text fill="#333" font-family="Arial, sans-serif" font-size="12" text-anchor="middle" x="772.5714285714284" y="609.7142857142858">WC</text><text fill="#666" font-family="Arial, sans-serif" font-size="10" text-anchor="middle" x="772.5714285714284" y="623.7142857142858">2 m²</text><polygon fill="#E0E0E0" points="837.7142857142857,642.2857142857143 968.0,642.2857142857143 968.0,544.5714285714287 837.7142857142857,544.5714285714287" stroke="#888" stroke-width="1" /><text fill="#333" font-family="Arial, sans-serif" font-size="12" text-anchor="middle" x="902.8571428571429" y="593.4285714285716">HWR</text><text fill="#666" font-family="Arial, sans-serif" font-size="10" text-anchor="middle" x="902.8571428571429" y="607.4285714285716">3 m²</text><polygon fill="#E5F0FF" points="707.4285714285713,577.1428571428572 837.7142857142857,577.1428571428572 837.7142857142857,381.7142857142858 707.4285714285713,381.7142857142858" stroke="#888" stroke-width="1" /><text fill="#333" font-family="Arial, sans-serif" font-size="12" text-anchor="middle" x="772.5714285714284" y="479.4285714285715">Gast/Büro</text><text fill="#666" font-family="Arial, sans-serif" font-size="10" text-anchor="middle" x="772.5714285714284" y="493.4285714285715">6 m²</text><polygon fill="#F5F5F5" points="837.7142857142857,544.5714285714287 968.0,544.5714285714287 968.0,381.7142857142858 837.7142857142857,381.7142857142858" stroke="#888" stroke-width="1" /><text fill="#333" font-family="Arial, sans-serif" font-size="12" text-anchor="middle" x="902.8571428571429" y="463.1428571428572">Galerie</text><text fill="#666" font-family="Arial, sans-serif" font-size="10" text-anchor="middle" x="902.8571428571429" y="477.1428571428572">5 m²</text><polygon fill="#D4EDDA" points="56.0,577.1428571428572 251.42857142857142,577.1428571428572 251.42857142857142,381.7142857142858 56.0,381.7142857142858" stroke="#888" stroke-width="1" /><text fill="#333" font-family="Arial, sans-serif" font-size="12" text-anchor="middle" x="153.71428571428572" y="479.4285714285715">Bad</text><text fill="#666" font-family="Arial, sans-serif" font-size="10" text-anchor="middle" x="153.71428571428572" y="493.4285714285715">9 m²</text><polygon fill="#D5C8E0" points="251.42857142857142,577.1428571428572 512.0,577.1428571428572 512.0,316.57142857142867 251.42857142857142,316.57142857142867" stroke="#888" stroke-width="1" /><text fill="#333" font-family="Arial, sans-serif" font-size="12" text-anchor="middle" x="381.7142857142857" y="446.85714285714295">Schlafzimmer</text><text fill="#666" font-family="Arial, sans-serif" font-size="10" text-anchor="middle" x="381.7142857142857" y="460.85714285714295">16 m²</text><polygon fill="#EEE" points="512.0,577.1428571428572 707.4285714285713,577.1428571428572 707.4285714285713,446.8571428571429 512.0,446.8571428571429" stroke="#888" stroke-width="1" /><text fill="#333" font-family="Arial, sans-serif" font-size="12" text-anchor="middle" x="609.7142857142857" y="512.0">Ankleide</text><text fill="#666" font-family="Arial, sans-serif" font-size="10" text-anchor="middle" x="609.7142857142857" y="526.0">6 m²</text><polygon fill="#E2D5F0" points="512.0,446.8571428571429 707.4285714285713,446.8571428571429 707.4285714285713,186.28571428571433 512.0,186.28571428571433" stroke="#888" stroke-width="1" /><text fill="#333" font-family="Arial, sans-serif" font-size="12" text-anchor="middle" x="609.7142857142857" y="316.5714285714286">Kinderzimmer 1</text><text fill="#666" font-family="Arial, sans-serif" font-size="10" text-anchor="middle" x="609.7142857142857" y="330.5714285714286">12 m²</text><polygon fill="#E2D5F0" points="707.4285714285713,381.7142857142858 968.0,381.7142857142858 968.0,121.14285714285722 707.4285714285713,121.14285714285722" stroke="#888" stroke-width="1" /><text fill="#333" font-family="Arial, sans-serif" font-size="12" text-anchor="middle" x="837.7142857142857" y="251.4285714285715">Kinderzimmer 2</text><text fill="#666" font-family="Arial, sans-serif" font-size="10" text-anchor="middle" x="837.7142857142857" y="265.4285714285715">16 m²</text><polygon fill="#E2D5F0" points="251.42857142857142,316.57142857142867 512.0,316.57142857142867 512.0,121.14285714285722 251.42857142857142,121.14285714285722" stroke="#888" stroke-width="1" /><text fill="#333" font-family="Arial, sans-serif" font-size="12" text-anchor="middle" x="381.7142857142857" y="218.85714285714295">Kinderzimmer 3</text><text fill="#666" font-family="Arial, sans-serif" font-size="10" text-anchor="middle" x="381.7142857142857" y="232.85714285714295">12 m²</text><polygon fill="#F5F5F5" points="56.0,381.7142857142858 251.42857142857142,381.7142857142858 251.42857142857142,121.14285714285722 56.0,121.14285714285722" stroke="#888" stroke-width="1" /><text fill="#333" font-family="Arial, sans-serif" font-size="12" text-anchor="middle" x="153.71428571428572" y="251.4285714285715">Flur back</text><text fill="#666" font-family="Arial, sans-serif" font-size="10" text-anchor="middle" x="153.71428571428572" y="265.4285714285715">12 m²</text><polygon fill="#F8F9FA" points="512.0,186.28571428571433 707.4285714285713,186.28571428571433 707.4285714285713,121.14285714285722 512.0,121.14285714285722" stroke="#888" stroke-width="1" /><text fill="#333" font-family="Arial, sans-serif" font-size="12" text-anchor="middle" x="609.7142857142857" y="153.71428571428578">Garden strip</text><text fill="#666" font-family="Arial, sans-serif" font-size="10" text-anchor="middle" x="609.7142857142857" y="167.71428571428578">3 m²</text><rect fill="#E66" height="8" stroke="#A00" stroke-width="1" width="8" x="117.14285714285714" y="898.8571428571429" /><rect fill="#E66" height="8" stroke="#A00" stroke-width="1" width="8" x="247.42857142857142" y="736.0" /><rect fill="#E66" height="8" stroke="#A00" stroke-width="1" width="8" x="149.71428571428572" y="573.1428571428572" /><rect fill="#E66" height="8" stroke="#A00" stroke-width="1" width="8" x="703.4285714285713" y="768.5714285714287" /><rect fill="#E66" height="8" stroke="#A00" stroke-width="1" width="8" x="768.5714285714286" y="638.2857142857143" /><rect fill="#E66" height="8" stroke="#A00" stroke-width="1" width="8" x="898.8571428571428" y="638.2857142857143" /><rect fill="#E66" height="8" stroke="#A00" stroke-width="1" width="8" x="768.5714285714286" y="573.1428571428572" /><rect fill="#E66" height="8" stroke="#A00" stroke-width="1" width="8" x="898.8571428571428" y="540.5714285714287" /><rect fill="#E66" height="8" stroke="#A00" stroke-width="1" width="8" x="833.7142857142857" y="475.4285714285715" /><rect fill="#E66" height="8" stroke="#A00" stroke-width="1" width="8" x="377.71428571428567" y="573.1428571428572" /><rect fill="#E66" height="8" stroke="#A00" stroke-width="1" width="8" x="605.7142857142857" y="573.1428571428572" /><rect fill="#E66" height="8" stroke="#A00" stroke-width="1" width="8" x="508.0" y="508.0" /><rect fill="#E66" height="8" stroke="#A00" stroke-width="1" width="8" x="605.7142857142857" y="442.8571428571429" /><rect fill="#E66" height="8" stroke="#A00" stroke-width="1" width="8" x="703.4285714285713" y="410.28571428571433" /><rect fill="#E66" height="8" stroke="#A00" stroke-width="1" width="8" x="898.8571428571428" y="377.7142857142858" /><rect fill="#E66" height="8" stroke="#A00" stroke-width="1" width="8" x="703.4285714285713" y="247.42857142857156" /><rect fill="#E66" height="8" stroke="#A00" stroke-width="1" width="8" x="377.71428571428567" y="312.57142857142867" /><rect fill="#E66" height="8" stroke="#A00" stroke-width="1" width="8" x="149.71428571428572" y="377.7142857142858" /><rect fill="#E66" height="8" stroke="#A00" stroke-width="1" width="8" x="247.42857142857142" y="214.8571428571429" /><rect fill="#E66" height="8" stroke="#A00" stroke-width="1" width="8" x="605.7142857142857" y="182.28571428571433" /><rect fill="#69E" height="6" stroke="#04A" stroke-width="1" width="12" x="473.4285714285714" y="899.8571428571429" /><rect fill="#69E" height="6" stroke="#04A" stroke-width="1" width="12" x="831.7142857142857" y="899.8571428571429" /><rect fill="#69E" height="6" stroke="#04A" stroke-width="1" width="12" x="962.0" y="769.5714285714287" /><rect fill="#69E" height="6" stroke="#04A" stroke-width="1" width="12" x="962.0" y="590.4285714285716" /><rect fill="#69E" height="6" stroke="#04A" stroke-width="1" width="12" x="962.0" y="460.1428571428572" /><rect fill="#69E" height="6" stroke="#04A" stroke-width="1" width="12" x="375.71428571428567" y="313.57142857142867" /><rect fill="#69E" height="6" stroke="#04A" stroke-width="1" width="12" x="603.7142857142857" y="183.28571428571433" /><rect fill="#69E" height="6" stroke="#04A" stroke-width="1" width="12" x="831.7142857142857" y="118.14285714285722" /><rect fill="#69E" height="6" stroke="#04A" stroke-width="1" width="12" x="962.0" y="248.42857142857156" /><rect fill="#69E" height="6" stroke="#04A" stroke-width="1" width="12" x="375.71428571428567" y="118.14285714285722" /><rect fill="#69E" height="6" stroke="#04A" stroke-width="1" width="12" x="603.7142857142857" y="118.14285714285722" /><rect fill="#69E" height="6" stroke="#04A" stroke-width="1" width="12" x="147.71428571428572" y="118.14285714285722" /><rect fill="#69E" height="6" stroke="#04A" stroke-width="1" width="12" x="50.0" y="248.42857142857156" /><rect fill="#69E" height="6" stroke="#04A" stroke-width="1" width="12" x="50.0" y="476.4285714285715" /><rect fill="#69E" height="6" stroke="#04A" stroke-width="1" width="12" x="50.0" y="737.0" /><text fill="#444" font-family="Arial, sans-serif" font-size="12" x="40" y="24">eu_de_6zimmer_nurda_stadthaus_s190</text></svg>