<?xml version="1.0" encoding="utf-8" ?>
<svg baseProfile="full" height="1024" version="1.1" viewBox="0 0 1024 1024" width="1024" xmlns="http://www.w3.org/2000/svg" xmlns:ev="http://www.w3.org/2001/xml-events" xmlns:xlink="http://www.w3.org/1999/xlink"><defs /><rect fill="#FAFAFA" height="1024" width="1024" x="0" y="0" /><polygon fill="white" points="56.0,968.0 968.0,968.0 968.0,56.0 56.0,56.0" stroke="#222" stroke-width="3" /><polygon fill="#D1ECF1" points="56.0,968.0 968.0,968.0 968.0,420.79999999999995 56.0,420.79999999999995" stroke="#888" stroke-width="1" /><text fill="#333" font-family="Arial, sans-serif" font-size="12" text-anchor="middle" x="512.0" y="694.4">Wohn-Schlafraum</text><text fill="#666" font-family="Arial, sans-serif" font-size="10" text-anchor="middle" x="512.0" y="708.4">15 m²</text><polygon fill="#FFF3CD" points="56.0,420.79999999999995 329.6,420.79999999999995 329.6,56.0 56.0,56.0" stroke="#888" stroke-width="1" /><text fill="#333" font-family="Arial, sans-serif" font-size="12" text-anchor="middle" x="192.8" y="238.39999999999998">Pantry</text><text fill="#666" font-family="Arial, sans-serif" font-size="10" text-anchor="middle" x="192.8" y="252.39999999999998">3 m²</text><polygon fill="#D4EDDA" points="329.6,420.79999999999995 603.2,420.79999999999995 603.2,56.0 329.6,56.0" stroke="#888" stroke-width="1" /><text fill="#333" font-family="Arial, sans-serif" font-size="12" text-anchor="middle" x="466.40000000000003" y="238.39999999999998">Duschbad</text><text fill="#666" font-family="Arial, sans-serif" font-size="10" text-anchor="middle" x="466.40000000000003" y="252.39999999999998">3 m²</text><polygon fill="#F8F9FA" points="603.2,420.79999999999995 968.0,420.79999999999995 968.0,56.0 603.2,56.0" stroke="#888" stroke-width="1" /><text fill="#333" font-family="Arial, sans-serif" font-size="12" text-anchor="middle" x="785.6" y="238.39999999999998">Loggia</text><text fill="#666" font-family="Arial, sans-serif" font-size="10" text-anchor="middle" x="785.6" y="252.39999999999998">4 m²</text><rect fill="#E66" height="8" stroke="#A00" stroke-width="1" width="8" x="143.2" y="964.0" /><rect fill="#E66" height="8" stroke="#A00" stroke-width="1" width="8" x="188.8" y="416.79999999999995" /><rect fill="#E66" height="8" stroke="#A00" stroke-width="1" width="8" x="462.40000000000003" y="416.79999999999995" /><rect fill="#E66" height="8" stroke="#A00" stroke-width="1" width="8" x="781.6" y="416.79999999999995" /><rect fill="#69E" height="6" stroke="#04A" stroke-width="1" width="12" x="506.0" y="965.0" /><rect fill="#69E" height="6" stroke="#04A" stroke-width="1" width="12" x="962.0" y="691.4" /><rect fill="#69E" height="6" stroke="#04A" stroke-width="1" width="12" x="779.6" y="53.0" /><rect fill="#69E" height="6" stroke="#04A" stroke-width="1" width="12" x="50.0" y="235.39999999999998" /><text fill="#444" font-family="Arial, sans-serif" font-size="12" x="40" y="24">eu_de_1zimmer_munich_laim_loggia</text></svg>