<?xml version="1.0" encoding="utf-8" ?>
<svg baseProfile="full" height="1024" version="1.1" viewBox="0 0 1024 1024" width="1024" xmlns="http://www.w3.org/2000/svg" xmlns:ev="http://www.w3.org/2001/xml-events" xmlns:xlink="http://www.w3.org/1999/xlink"><defs /><rect fill="#FAFAFA" height="1024" width="1024" x="0" y="0" /><polygon fill="white" points="56.0,968.0 968.0,968.0 968.0,56.0 56.0,56.0" stroke="#222" stroke-width="3" /><polygon fill="#F5F5F5" points="56.0,968.0 208.0,968.0 208.0,588.0 56.0,588.0" stroke="#888" stroke-width="1" /><text fill="#333" font-family="Arial, sans-serif" font-size="12" text-anchor="middle" x="132.0" y="778.0">Diele</text><text fill="#666" font-family="Arial, sans-serif" font-size="10" text-anchor="middle" x="132.0" y="792.0">10 m²</text><polygon fill="#D1ECF1" points="208.0,968.0 664.0,968.0 664.0,512.0 208.0,512.0" stroke="#888" stroke-width="1" /><text fill="#333" font-family="Arial, sans-serif" font-size="12" text-anchor="middle" x="436.0" y="740.0">Wohnen-Essen</text><text fill="#666" font-family="Arial, sans-serif" font-size="10" text-anchor="middle" x="436.0" y="754.0">36 m²</text><polygon fill="#FFF3CD" points="664.0,968.0 968.0,968.0 968.0,664.0 664.0,664.0" stroke="#888" stroke-width="1" /><text fill="#333" font-family="Arial, sans-serif" font-size="12" text-anchor="middle" x="816.0" y="816.0">Küche (offen)</text><text fill="#666" font-family="Arial, sans-serif" font-size="10" text-anchor="middle" x="816.0" y="830.0">16 m²</text><polygon fill="#E0E0E0" points="664.0,664.0 968.0,664.0 968.0,550.0 664.0,550.0" stroke="#888" stroke-width="1" /><text fill="#333" font-family="Arial, sans-serif" font-size="12" text-anchor="middle" x="816.0" y="607.0">HWR</text><text fill="#666" font-family="Arial, sans-serif" font-size="10" text-anchor="middle" x="816.0" y="621.0">6 m²</text><polygon fill="#D4EDDA" points="56.0,588.0 208.0,588.0 208.0,474.0 56.0,474.0" stroke="#888" stroke-width="1" /><text fill="#333" font-family="Arial, sans-serif" font-size="12" text-anchor="middle" x="132.0" y="531.0">WC</text><text fill="#666" font-family="Arial, sans-serif" font-size="10" text-anchor="middle" x="132.0" y="545.0">3 m²</text><polygon fill="#E5F0FF" points="664.0,550.0 968.0,550.0 968.0,322.0 664.0,322.0" stroke="#888" stroke-width="1" /><text fill="#333" font-family="Arial, sans-serif" font-size="12" text-anchor="middle" x="816.0" y="436.0">Gast/Büro</text><text fill="#666" font-family="Arial, sans-serif" font-size="10" text-anchor="middle" x="816.0" y="450.0">12 m²</text><polygon fill="#D4EDDA" points="56.0,474.0 208.0,474.0 208.0,284.0 56.0,284.0" stroke="#888" stroke-width="1" /><text fill="#333" font-family="Arial, sans-serif" font-size="12" text-anchor="middle" x="132.0" y="379.0">Bad</text><text fill="#666" font-family="Arial, sans-serif" font-size="10" text-anchor="middle" x="132.0" y="393.0">5 m²</text><polygon fill="#D5C8E0" points="208.0,512.0 512.0,512.0 512.0,208.0 208.0,208.0" stroke="#888" stroke-width="1" /><text fill="#333" font-family="Arial, sans-serif" font-size="12" text-anchor="middle" x="360.0" y="360.0">Schlafzimmer</text><text fill="#666" font-family="Arial, sans-serif" font-size="10" text-anchor="middle" x="360.0" y="374.0">16 m²</text><polygon fill="#E2D5F0" points="512.0,512.0 664.0,512.0 664.0,208.0 512.0,208.0" stroke="#888" stroke-width="1" /><text fill="#333" font-family="Arial, sans-serif" font-size="12" text-anchor="middle" x="588.0" y="360.0">Kinderzimmer 1</text><text fill="#666" font-family="Arial, sans-serif" font-size="10" text-anchor="middle" x="588.0" y="374.0">8 m²</text><polygon fill="#F5F5F5" points="208.0,208.0 664.0,208.0 664.0,56.0 208.0,56.0" stroke="#888" stroke-width="1" /><text fill="#333" font-family="Arial, sans-serif" font-size="12" text-anchor="middle" x="436.0" y="132.0">Flur</text><text fill="#666" font-family="Arial, sans-serif" font-size="10" text-anchor="middle" x="436.0" y="146.0">12 m²</text><polygon fill="#E2D5F0" points="664.0,322.0 968.0,322.0 968.0,56.0 664.0,56.0" stroke="#888" stroke-width="1" /><text fill="#333" font-family="Arial, sans-serif" font-size="12" text-anchor="middle" x="816.0" y="189.0">Kinderzimmer 2</text><text fill="#666" font-family="Arial, sans-serif" font-size="10" text-anchor="middle" x="816.0" y="203.0">14 m²</text><polygon fill="#F8F9FA" points="56.0,284.0 208.0,284.0 208.0,56.0 56.0,56.0" stroke="#888" stroke-width="1" /><text fill="#333" font-family="Arial, sans-serif" font-size="12" text-anchor="middle" x="132.0" y="170.0">Terrasse</text><text fill="#666" font-family="Arial, sans-serif" font-size="10" text-anchor="middle" x="132.0" y="184.0">6 m²</text><rect fill="#E66" height="8" stroke="#A00" stroke-width="1" width="8" x="128.0" y="964.0" /><rect fill="#E66" height="8" stroke="#A00" stroke-width="1" width="8" x="204.0" y="774.0" /><rect fill="#E66" height="8" stroke="#A00" stroke-width="1" width="8" x="128.0" y="584.0" /><rect fill="#E66" height="8" stroke="#A00" stroke-width="1" width="8" x="660.0" y="812.0" /><rect fill="#E66" height="8" stroke="#A00" stroke-width="1" width="8" x="812.0" y="660.0" /><rect fill="#E66" height="8" stroke="#A00" stroke-width="1" width="8" x="660.0" y="603.0" /><rect fill="#E66" height="8" stroke="#A00" stroke-width="1" width="8" x="812.0" y="546.0" /><rect fill="#E66" height="8" stroke="#A00" stroke-width="1" width="8" x="660.0" y="527.0" /><rect fill="#E66" height="8" stroke="#A00" stroke-width="1" width="8" x="128.0" y="470.0" /><rect fill="#E66" height="8" stroke="#A00" stroke-width="1" width="8" x="204.0" y="394.0" /><rect fill="#E66" height="8" stroke="#A00" stroke-width="1" width="8" x="356.0" y="508.0" /><rect fill="#E66" height="8" stroke="#A00" stroke-width="1" width="8" x="584.0" y="508.0" /><rect fill="#E66" height="8" stroke="#A00" stroke-width="1" width="8" x="812.0" y="318.0" /><rect fill="#E66" height="8" stroke="#A00" stroke-width="1" width="8" x="356.0" y="204.0" /><rect fill="#E66" height="8" stroke="#A00" stroke-width="1" width="8" x="584.0" y="204.0" /><rect fill="#E66" height="8" stroke="#A00" stroke-width="1" width="8" x="660.0" y="128.0" /><rect fill="#E66" height="8" stroke="#A00" stroke-width="1" width="8" x="128.0" y="280.0" /><rect fill="#69E" height="6" stroke="#04A" stroke-width="1" width="12" x="430.0" y="965.0" /><rect fill="#69E" height="6" stroke="#04A" stroke-width="1" width="12" x="810.0" y="965.0" /><rect fill="#69E" height="6" stroke="#04A" stroke-width="1" width="12" x="962.0" y="813.0" /><rect fill="#69E" height="6" stroke="#04A" stroke-width="1" width="12" x="962.0" y="604.0" /><rect fill="#69E" height="6" stroke="#04A" stroke-width="1" width="12" x="962.0" y="433.0" /><rect fill="#69E" height="6" stroke="#04A" stroke-width="1" width="12" x="354.0" y="205.0" /><rect fill="#69E" height="6" stroke="#04A" stroke-width="1" width="12" x="582.0" y="205.0" /><rect fill="#69E" height="6" stroke="#04A" stroke-width="1" width="12" x="810.0" y="53.0" /><rect fill="#69E" height="6" stroke="#04A" stroke-width="1" width="12" x="962.0" y="186.0" /><rect fill="#69E" height="6" stroke="#04A" stroke-width="1" width="12" x="430.0" y="53.0" /><rect fill="#69E" height="6" stroke="#04A" stroke-width="1" width="12" x="126.0" y="53.0" /><rect fill="#69E" height="6" stroke="#04A" stroke-width="1" width="12" x="50.0" y="376.0" /><rect fill="#69E" height="6" stroke="#04A" stroke-width="1" width="12" x="50.0" y="775.0" /><text fill="#444" font-family="Arial, sans-serif" font-size="12" x="40" y="24">eu_de_4zimmer_nurda_bauhaus_b140</text></svg>