<?xml version="1.0" encoding="utf-8" ?>
<svg baseProfile="full" height="1024" version="1.1" viewBox="0 0 1024 1024" width="1024" xmlns="http://www.w3.org/2000/svg" xmlns:ev="http://www.w3.org/2001/xml-events" xmlns:xlink="http://www.w3.org/1999/xlink"><defs /><rect fill="#FAFAFA" height="1024" width="1024" x="0" y="0" /><polygon fill="white" points="121.14285714285717,968.0 902.8571428571429,968.0 902.8571428571429,56.0 121.14285714285717,56.0" stroke="#222" stroke-width="3" /><polygon fill="#F5F5F5" points="121.14285714285717,968.0 316.57142857142856,968.0 316.57142857142856,642.2857142857143 121.14285714285717,642.2857142857143" stroke="#888" stroke-width="1" /><text fill="#333" font-family="Arial, sans-serif" font-size="12" text-anchor="middle" x="218.85714285714286" y="805.1428571428571">Diele</text><text fill="#666" font-family="Arial, sans-serif" font-size="10" text-anchor="middle" x="218.85714285714286" y="819.1428571428571">3.75 m²</text><polygon fill="#D4EDDA" points="316.57142857142856,968.0 577.1428571428571,968.0 577.1428571428571,642.2857142857143 316.57142857142856,642.2857142857143" stroke="#888" stroke-width="1" /><text fill="#333" font-family="Arial, sans-serif" font-size="12" text-anchor="middle" x="446.85714285714283" y="805.1428571428571">Wannenbad</text><text fill="#666" font-family="Arial, sans-serif" font-size="10" text-anchor="middle" x="446.85714285714283" y="819.1428571428571">5 m²</text><polygon fill="#FFF3CD" points="577.1428571428571,968.0 902.8571428571429,968.0 902.8571428571429,642.2857142857143 577.1428571428571,642.2857142857143" stroke="#888" stroke-width="1" /><text fill="#333" font-family="Arial, sans-serif" font-size="12" text-anchor="middle" x="740.0" y="805.1428571428571">Küchenzeile</text><text fill="#666" font-family="Arial, sans-serif" font-size="10" text-anchor="middle" x="740.0" y="819.1428571428571">6.25 m²</text><polygon fill="#D1ECF1" points="121.14285714285717,642.2857142857143 902.8571428571429,642.2857142857143 902.8571428571429,56.0 121.14285714285717,56.0" stroke="#888" stroke-width="1" /><text fill="#333" font-family="Arial, sans-serif" font-size="12" text-anchor="middle" x="512.0" y="349.14285714285717">Wohn-Schlafraum</text><text fill="#666" font-family="Arial, sans-serif" font-size="10" text-anchor="middle" x="512.0" y="363.14285714285717">27 m²</text><rect fill="#E66" height="8" stroke="#A00" stroke-width="1" width="8" x="182.2857142857143" y="964.0" /><rect fill="#E66" height="8" stroke="#A00" stroke-width="1" width="8" x="214.8571428571429" y="638.2857142857143" /><rect fill="#E66" height="8" stroke="#A00" stroke-width="1" width="8" x="442.85714285714283" y="638.2857142857143" /><rect fill="#E66" height="8" stroke="#A00" stroke-width="1" width="8" x="736.0" y="638.2857142857143" /><rect fill="#69E" height="6" stroke="#04A" stroke-width="1" width="12" x="506.0" y="53.0" /><rect fill="#69E" height="6" stroke="#04A" stroke-width="1" width="12" x="115.14285714285717" y="443.8571428571429" /><rect fill="#69E" height="6" stroke="#04A" stroke-width="1" width="12" x="896.8571428571429" y="443.8571428571429" /><rect fill="#69E" height="6" stroke="#04A" stroke-width="1" width="12" x="734.0" y="965.0" /><rect fill="#69E" height="6" stroke="#04A" stroke-width="1" width="12" x="440.85714285714283" y="965.0" /><text fill="#444" font-family="Arial, sans-serif" font-size="12" x="40" y="24">eu_de_1zimmer_hamburg_stpauli_loft</text></svg>