<?xml version="1.0" encoding="utf-8" ?>
<svg baseProfile="full" height="1024" version="1.1" viewBox="0 0 1024 1024" width="1024" xmlns="http://www.w3.org/2000/svg" xmlns:ev="http://www.w3.org/2001/xml-events" xmlns:xlink="http://www.w3.org/1999/xlink"><defs /><rect fill="#FAFAFA" height="1024" width="1024" x="0" y="0" /><polygon fill="white" points="56.0,968.0 968.0,968.0 968.0,56.0 56.0,56.0" stroke="#222" stroke-width="3" /><polygon fill="#F5F5F5" points="56.0,968.0 238.4,968.0 238.4,603.2 56.0,603.2" stroke="#888" stroke-width="1" /><text fill="#333" font-family="Arial, sans-serif" font-size="12" text-anchor="middle" x="147.2" y="785.6">Flur</text><text fill="#666" font-family="Arial, sans-serif" font-size="10" text-anchor="middle" x="147.2" y="799.6">2 m²</text><polygon fill="#D4EDDA" points="238.4,968.0 603.2,968.0 603.2,603.2 238.4,603.2" stroke="#888" stroke-width="1" /><text fill="#333" font-family="Arial, sans-serif" font-size="12" text-anchor="middle" x="420.8" y="785.6">Duschbad</text><text fill="#666" font-family="Arial, sans-serif" font-size="10" text-anchor="middle" x="420.8" y="799.6">4 m²</text><polygon fill="#FFF3CD" points="603.2,968.0 968.0,968.0 968.0,603.2 603.2,603.2" stroke="#888" stroke-width="1" /><text fill="#333" font-family="Arial, sans-serif" font-size="12" text-anchor="middle" x="785.6" y="785.6">Kochnische</text><text fill="#666" font-family="Arial, sans-serif" font-size="10" text-anchor="middle" x="785.6" y="799.6">4 m²</text><polygon fill="#D1ECF1" points="56.0,603.2 968.0,603.2 968.0,56.0 56.0,56.0" stroke="#888" stroke-width="1" /><text fill="#333" font-family="Arial, sans-serif" font-size="12" text-anchor="middle" x="512.0" y="329.6">Wohn-Schlafraum</text><text fill="#666" font-family="Arial, sans-serif" font-size="10" text-anchor="middle" x="512.0" y="343.6">15 m²</text><rect fill="#E66" height="8" stroke="#A00" stroke-width="1" width="8" x="143.2" y="964.0" /><rect fill="#E66" height="8" stroke="#A00" stroke-width="1" width="8" x="143.2" y="599.2" /><rect fill="#E66" height="8" stroke="#A00" stroke-width="1" width="8" x="416.8" y="599.2" /><rect fill="#E66" height="8" stroke="#A00" stroke-width="1" width="8" x="781.6" y="599.2" /><rect fill="#69E" height="6" stroke="#04A" stroke-width="1" width="12" x="506.0" y="53.0" /><rect fill="#69E" height="6" stroke="#04A" stroke-width="1" width="12" x="50.0" y="326.6" /><rect fill="#69E" height="6" stroke="#04A" stroke-width="1" width="12" x="962.0" y="326.6" /><text fill="#444" font-family="Arial, sans-serif" font-size="12" x="40" y="24">eu_de_1zimmer_stuttgart_mikroapartment</text></svg>