<?xml version="1.0" encoding="utf-8" ?>
<svg baseProfile="full" height="1024" version="1.1" viewBox="0 0 1024 1024" width="1024" xmlns="http://www.w3.org/2000/svg" xmlns:ev="http://www.w3.org/2001/xml-events" xmlns:xlink="http://www.w3.org/1999/xlink"><defs /><rect fill="#FAFAFA" height="1024" width="1024" x="0" y="0" /><polygon fill="white" points="56.0,968.0 968.0,968.0 968.0,56.0 56.0,56.0" stroke="#222" stroke-width="3" /><polygon fill="#F5F5F5" points="56.0,968.0 258.66666666666663,968.0 258.66666666666663,562.6666666666667 56.0,562.6666666666667" stroke="#888" stroke-width="1" /><text fill="#333" font-family="Arial, sans-serif" font-size="12" text-anchor="middle" x="157.33333333333331" y="765.3333333333334">Diele</text><text fill="#666" font-family="Arial, sans-serif" font-size="10" text-anchor="middle" x="157.33333333333331" y="779.3333333333334">8 m²</text><polygon fill="#D1ECF1" points="258.66666666666663,968.0 765.3333333333333,968.0 765.3333333333333,461.33333333333337 258.66666666666663,461.33333333333337" stroke="#888" stroke-width="1" /><text fill="#333" font-family="Arial, sans-serif" font-size="12" text-anchor="middle" x="511.99999999999994" y="714.6666666666667">Wohnzimmer</text><text fill="#666" font-family="Arial, sans-serif" font-size="10" text-anchor="middle" x="511.99999999999994" y="728.6666666666667">25 m²</text><polygon fill="#FFF3CD" points="765.3333333333333,968.0 968.0,968.0 968.0,562.6666666666667 765.3333333333333,562.6666666666667" stroke="#888" stroke-width="1" /><text fill="#333" font-family="Arial, sans-serif" font-size="12" text-anchor="middle" x="866.6666666666666" y="765.3333333333334">Küche</text><text fill="#666" font-family="Arial, sans-serif" font-size="10" text-anchor="middle" x="866.6666666666666" y="779.3333333333334">8 m²</text><polygon fill="#F8F9FA" points="765.3333333333333,562.6666666666667 968.0,562.6666666666667 968.0,258.66666666666674 765.3333333333333,258.66666666666674" stroke="#888" stroke-width="1" /><text fill="#333" font-family="Arial, sans-serif" font-size="12" text-anchor="middle" x="866.6666666666666" y="410.66666666666674">Loggia</text><text fill="#666" font-family="Arial, sans-serif" font-size="10" text-anchor="middle" x="866.6666666666666" y="424.66666666666674">6 m²</text><polygon fill="#D4EDDA" points="56.0,562.6666666666667 258.66666666666663,562.6666666666667 258.66666666666663,258.66666666666674 56.0,258.66666666666674" stroke="#888" stroke-width="1" /><text fill="#333" font-family="Arial, sans-serif" font-size="12" text-anchor="middle" x="157.33333333333331" y="410.66666666666674">Bad</text><text fill="#666" font-family="Arial, sans-serif" font-size="10" text-anchor="middle" x="157.33333333333331" y="424.66666666666674">6 m²</text><polygon fill="#D5C8E0" points="258.66666666666663,461.33333333333337 562.6666666666666,461.33333333333337 562.6666666666666,56.0 258.66666666666663,56.0" stroke="#888" stroke-width="1" /><text fill="#333" font-family="Arial, sans-serif" font-size="12" text-anchor="middle" x="410.66666666666663" y="258.6666666666667">Schlafzimmer</text><text fill="#666" font-family="Arial, sans-serif" font-size="10" text-anchor="middle" x="410.66666666666663" y="272.6666666666667">12 m²</text><polygon fill="#E2D5F0" points="562.6666666666666,461.33333333333337 765.3333333333333,461.33333333333337 765.3333333333333,56.0 562.6666666666666,56.0" stroke="#888" stroke-width="1" /><text fill="#333" font-family="Arial, sans-serif" font-size="12" text-anchor="middle" x="664.0" y="258.6666666666667">Kinderzimmer</text><text fill="#666" font-family="Arial, sans-serif" font-size="10" text-anchor="middle" x="664.0" y="272.6666666666667">8 m²</text><polygon fill="#F5F5F5" points="56.0,258.66666666666674 258.66666666666663,258.66666666666674 258.66666666666663,56.0 56.0,56.0" stroke="#888" stroke-width="1" /><text fill="#333" font-family="Arial, sans-serif" font-size="12" text-anchor="middle" x="157.33333333333331" y="157.33333333333337">Flur</text><text fill="#666" font-family="Arial, sans-serif" font-size="10" text-anchor="middle" x="157.33333333333331" y="171.33333333333337">4 m²</text><polygon fill="#EEE" points="765.3333333333333,258.66666666666674 968.0,258.66666666666674 968.0,56.0 765.3333333333333,56.0" stroke="#888" stroke-width="1" /><text fill="#333" font-family="Arial, sans-serif" font-size="12" text-anchor="middle" x="866.6666666666666" y="157.33333333333337">Abstellraum</text><text fill="#666" font-family="Arial, sans-serif" font-size="10" text-anchor="middle" x="866.6666666666666" y="171.33333333333337">4 m²</text><rect fill="#E66" height="8" stroke="#A00" stroke-width="1" width="8" x="102.66666666666666" y="964.0" /><rect fill="#E66" height="8" stroke="#A00" stroke-width="1" width="8" x="254.66666666666663" y="761.3333333333334" /><rect fill="#E66" height="8" stroke="#A00" stroke-width="1" width="8" x="153.33333333333331" y="558.6666666666667" /><rect fill="#E66" height="8" stroke="#A00" stroke-width="1" width="8" x="153.33333333333331" y="254.66666666666674" /><rect fill="#E66" height="8" stroke="#A00" stroke-width="1" width="8" x="254.66666666666663" y="153.33333333333337" /><rect fill="#E66" height="8" stroke="#A00" stroke-width="1" width="8" x="761.3333333333333" y="710.6666666666667" /><rect fill="#E66" height="8" stroke="#A00" stroke-width="1" width="8" x="761.3333333333333" y="508.0" /><rect fill="#E66" height="8" stroke="#A00" stroke-width="1" width="8" x="406.66666666666663" y="457.33333333333337" /><rect fill="#E66" height="8" stroke="#A00" stroke-width="1" width="8" x="660.0" y="457.33333333333337" /><rect fill="#E66" height="8" stroke="#A00" stroke-width="1" width="8" x="558.6666666666666" y="254.66666666666674" /><rect fill="#E66" height="8" stroke="#A00" stroke-width="1" width="8" x="761.3333333333333" y="153.33333333333337" /><rect fill="#69E" height="6" stroke="#04A" stroke-width="1" width="12" x="506.0" y="965.0" /><rect fill="#69E" height="6" stroke="#04A" stroke-width="1" width="12" x="860.6666666666666" y="965.0" /><rect fill="#69E" height="6" stroke="#04A" stroke-width="1" width="12" x="962.0" y="762.3333333333334" /><rect fill="#69E" height="6" stroke="#04A" stroke-width="1" width="12" x="962.0" y="407.66666666666674" /><rect fill="#69E" height="6" stroke="#04A" stroke-width="1" width="12" x="404.66666666666663" y="53.0" /><rect fill="#69E" height="6" stroke="#04A" stroke-width="1" width="12" x="658.0" y="53.0" /><rect fill="#69E" height="6" stroke="#04A" stroke-width="1" width="12" x="50.0" y="407.66666666666674" /><rect fill="#69E" height="6" stroke="#04A" stroke-width="1" width="12" x="50.0" y="762.3333333333334" /><text fill="#444" font-family="Arial, sans-serif" font-size="12" x="40" y="24">eu_de_3zimmer_koln_lindenthal</text></svg>