<?xml version="1.0" encoding="utf-8" ?>
<svg baseProfile="full" height="1024" version="1.1" viewBox="0 0 1024 1024" width="1024" xmlns="http://www.w3.org/2000/svg" xmlns:ev="http://www.w3.org/2001/xml-events" xmlns:xlink="http://www.w3.org/1999/xlink"><defs /><rect fill="#FAFAFA" height="1024" width="1024" x="0" y="0" /><polygon fill="white" points="56.0,968.0 968.0,968.0 968.0,56.0 56.0,56.0" stroke="#222" stroke-width="3" /><polygon fill="#F5F5F5" points="56.0,968.0 238.4,968.0 238.4,512.0 56.0,512.0" stroke="#888" stroke-width="1" /><text fill="#333" font-family="Arial, sans-serif" font-size="12" text-anchor="middle" x="147.2" y="740.0">Entré</text><text fill="#666" font-family="Arial, sans-serif" font-size="10" text-anchor="middle" x="147.2" y="754.0">10 m²</text><polygon fill="#D1ECF1" points="238.4,968.0 694.4,968.0 694.4,512.0 238.4,512.0" stroke="#888" stroke-width="1" /><text fill="#333" font-family="Arial, sans-serif" font-size="12" text-anchor="middle" x="466.4" y="740.0">Stue</text><text fill="#666" font-family="Arial, sans-serif" font-size="10" text-anchor="middle" x="466.4" y="754.0">25 m²</text><polygon fill="#FFE5E5" points="694.4,968.0 968.0,968.0 968.0,512.0 694.4,512.0" stroke="#888" stroke-width="1" /><text fill="#333" font-family="Arial, sans-serif" font-size="12" text-anchor="middle" x="831.2" y="740.0">Spisestue</text><text fill="#666" font-family="Arial, sans-serif" font-size="10" text-anchor="middle" x="831.2" y="754.0">15 m²</text><polygon fill="#FFF3CD" points="56.0,512.0 329.6,512.0 329.6,238.39999999999998 56.0,238.39999999999998" stroke="#888" stroke-width="1" /><text fill="#333" font-family="Arial, sans-serif" font-size="12" text-anchor="middle" x="192.8" y="375.2">Køkken</text><text fill="#666" font-family="Arial, sans-serif" font-size="10" text-anchor="middle" x="192.8" y="389.2">9 m²</text><polygon fill="#D5C8E0" points="329.6,512.0 694.4,512.0 694.4,147.19999999999993 329.6,147.19999999999993" stroke="#888" stroke-width="1" /><text fill="#333" font-family="Arial, sans-serif" font-size="12" text-anchor="middle" x="512.0" y="329.59999999999997">Soveværelse 1</text><text fill="#666" font-family="Arial, sans-serif" font-size="10" text-anchor="middle" x="512.0" y="343.59999999999997">16 m²</text><polygon fill="#E2D5F0" points="694.4,512.0 968.0,512.0 968.0,147.19999999999993 694.4,147.19999999999993" stroke="#888" stroke-width="1" /><text fill="#333" font-family="Arial, sans-serif" font-size="12" text-anchor="middle" x="831.2" y="329.59999999999997">Soveværelse 2</text><text fill="#666" font-family="Arial, sans-serif" font-size="10" text-anchor="middle" x="831.2" y="343.59999999999997">12 m²</text><polygon fill="#D4EDDA" points="56.0,238.39999999999998 329.6,238.39999999999998 329.6,56.0 56.0,56.0" stroke="#888" stroke-width="1" /><text fill="#333" font-family="Arial, sans-serif" font-size="12" text-anchor="middle" x="192.8" y="147.2">Badeværelse</text><text fill="#666" font-family="Arial, sans-serif" font-size="10" text-anchor="middle" x="192.8" y="161.2">6 m²</text><polygon fill="#D4EDDA" points="329.6,147.19999999999993 512.0,147.19999999999993 512.0,56.0 329.6,56.0" stroke="#888" stroke-width="1" /><text fill="#333" font-family="Arial, sans-serif" font-size="12" text-anchor="middle" x="420.8" y="101.59999999999997">Gæste-WC</text><text fill="#666" font-family="Arial, sans-serif" font-size="10" text-anchor="middle" x="420.8" y="115.59999999999997">2 m²</text><polygon fill="#F8F9FA" points="512.0,147.19999999999993 968.0,147.19999999999993 968.0,56.0 512.0,56.0" stroke="#888" stroke-width="1" /><text fill="#333" font-family="Arial, sans-serif" font-size="12" text-anchor="middle" x="740.0" y="101.59999999999997">Altan</text><text fill="#666" font-family="Arial, sans-serif" font-size="10" text-anchor="middle" x="740.0" y="115.59999999999997">5 m²</text><rect fill="#E66" height="8" stroke="#A00" stroke-width="1" width="8" x="97.6" y="964.0" /><rect fill="#E66" height="8" stroke="#A00" stroke-width="1" width="8" x="234.4" y="781.6" /><rect fill="#E66" height="8" stroke="#A00" stroke-width="1" width="8" x="143.2" y="508.0" /><rect fill="#E66" height="8" stroke="#A00" stroke-width="1" width="8" x="690.4" y="736.0" /><rect fill="#E66" height="8" stroke="#A00" stroke-width="1" width="8" x="508.0" y="508.0" /><rect fill="#E66" height="8" stroke="#A00" stroke-width="1" width="8" x="827.2" y="508.0" /><rect fill="#E66" height="8" stroke="#A00" stroke-width="1" width="8" x="325.6" y="371.19999999999993" /><rect fill="#E66" height="8" stroke="#A00" stroke-width="1" width="8" x="188.8" y="234.39999999999998" /><rect fill="#E66" height="8" stroke="#A00" stroke-width="1" width="8" x="690.4" y="325.6" /><rect fill="#E66" height="8" stroke="#A00" stroke-width="1" width="8" x="416.8" y="143.19999999999993" /><rect fill="#E66" height="8" stroke="#A00" stroke-width="1" width="8" x="325.6" y="97.60000000000002" /><rect fill="#E66" height="8" stroke="#A00" stroke-width="1" width="8" x="599.2" y="143.19999999999993" /><rect fill="#69E" height="6" stroke="#04A" stroke-width="1" width="12" x="460.40000000000003" y="965.0" /><rect fill="#69E" height="6" stroke="#04A" stroke-width="1" width="12" x="825.2" y="965.0" /><rect fill="#69E" height="6" stroke="#04A" stroke-width="1" width="12" x="962.0" y="737.0" /><rect fill="#69E" height="6" stroke="#04A" stroke-width="1" width="12" x="50.0" y="417.79999999999995" /><rect fill="#69E" height="6" stroke="#04A" stroke-width="1" width="12" x="506.0" y="144.19999999999993" /><rect fill="#69E" height="6" stroke="#04A" stroke-width="1" width="12" x="825.2" y="144.19999999999993" /><rect fill="#69E" height="6" stroke="#04A" stroke-width="1" width="12" x="962.0" y="326.6" /><rect fill="#69E" height="6" stroke="#04A" stroke-width="1" width="12" x="50.0" y="144.19999999999993" /><rect fill="#69E" height="6" stroke="#04A" stroke-width="1" width="12" x="50.0" y="782.6" /><text fill="#444" font-family="Arial, sans-serif" font-size="12" x="40" y="24">eu_dk_2bed_copenhagen_klassisk</text></svg>