<?xml version="1.0" encoding="utf-8" ?>
<svg baseProfile="full" height="1024" version="1.1" viewBox="0 0 1024 1024" width="1024" xmlns="http://www.w3.org/2000/svg" xmlns:ev="http://www.w3.org/2001/xml-events" xmlns:xlink="http://www.w3.org/1999/xlink"><defs /><rect fill="#FAFAFA" height="1024" width="1024" x="0" y="0" /><polygon fill="white" points="56.0,876.8 968.0,876.8 968.0,147.19999999999993 56.0,147.19999999999993" stroke="#222" stroke-width="3" /><polygon fill="#F5F5F5" points="56.0,876.8 238.4,876.8 238.4,375.19999999999993 56.0,375.19999999999993" stroke="#888" stroke-width="1" /><text fill="#333" font-family="Arial, sans-serif" font-size="12" text-anchor="middle" x="147.2" y="626.0">Flur</text><text fill="#666" font-family="Arial, sans-serif" font-size="10" text-anchor="middle" x="147.2" y="640.0">11 m²</text><polygon fill="#D1ECF1" points="238.4,876.8 694.4,876.8 694.4,420.79999999999995 238.4,420.79999999999995" stroke="#888" stroke-width="1" /><text fill="#333" font-family="Arial, sans-serif" font-size="12" text-anchor="middle" x="466.4" y="648.8">Wohnzimmer</text><text fill="#666" font-family="Arial, sans-serif" font-size="10" text-anchor="middle" x="466.4" y="662.8">25 m²</text><polygon fill="#FFF3CD" points="694.4,876.8 968.0,876.8 968.0,603.1999999999999 694.4,603.1999999999999" stroke="#888" stroke-width="1" /><text fill="#333" font-family="Arial, sans-serif" font-size="12" text-anchor="middle" x="831.2" y="740.0">Küche</text><text fill="#666" font-family="Arial, sans-serif" font-size="10" text-anchor="middle" x="831.2" y="754.0">9 m²</text><polygon fill="#D4EDDA" points="694.4,603.1999999999999 968.0,603.1999999999999 968.0,420.79999999999995 694.4,420.79999999999995" stroke="#888" stroke-width="1" /><text fill="#333" font-family="Arial, sans-serif" font-size="12" text-anchor="middle" x="831.2" y="511.99999999999994">Bad</text><text fill="#666" font-family="Arial, sans-serif" font-size="10" text-anchor="middle" x="831.2" y="526.0">6 m²</text><polygon fill="#D5C8E0" points="238.4,420.79999999999995 603.2,420.79999999999995 603.2,147.19999999999993 238.4,147.19999999999993" stroke="#888" stroke-width="1" /><text fill="#333" font-family="Arial, sans-serif" font-size="12" text-anchor="middle" x="420.8" y="283.99999999999994">Schlafzimmer 1</text><text fill="#666" font-family="Arial, sans-serif" font-size="10" text-anchor="middle" x="420.8" y="297.99999999999994">12 m²</text><polygon fill="#E2D5F0" points="603.2,420.79999999999995 968.0,420.79999999999995 968.0,147.19999999999993 603.2,147.19999999999993" stroke="#888" stroke-width="1" /><text fill="#333" font-family="Arial, sans-serif" font-size="12" text-anchor="middle" x="785.6" y="283.99999999999994">Schlafzimmer 2 (Durchgang)</text><text fill="#666" font-family="Arial, sans-serif" font-size="10" text-anchor="middle" x="785.6" y="297.99999999999994">12 m²</text><polygon fill="#EEE" points="56.0,375.19999999999993 238.4,375.19999999999993 238.4,147.19999999999993 56.0,147.19999999999993" stroke="#888" stroke-width="1" /><text fill="#333" font-family="Arial, sans-serif" font-size="12" text-anchor="middle" x="147.2" y="261.19999999999993">Speicher</text><text fill="#666" font-family="Arial, sans-serif" font-size="10" text-anchor="middle" x="147.2" y="275.19999999999993">5 m²</text><rect fill="#E66" height="8" stroke="#A00" stroke-width="1" width="8" x="52.0" y="622.0" /><rect fill="#E66" height="8" stroke="#A00" stroke-width="1" width="8" x="234.4" y="644.8" /><rect fill="#E66" height="8" stroke="#A00" stroke-width="1" width="8" x="143.2" y="371.19999999999993" /><rect fill="#E66" height="8" stroke="#A00" stroke-width="1" width="8" x="234.4" y="234.39999999999998" /><rect fill="#E66" height="8" stroke="#A00" stroke-width="1" width="8" x="690.4" y="736.0" /><rect fill="#E66" height="8" stroke="#A00" stroke-width="1" width="8" x="690.4" y="507.99999999999994" /><rect fill="#E66" height="8" stroke="#A00" stroke-width="1" width="8" x="827.2" y="599.1999999999999" /><rect fill="#E66" height="8" stroke="#A00" stroke-width="1" width="8" x="416.8" y="416.79999999999995" /><rect fill="#E66" height="8" stroke="#A00" stroke-width="1" width="8" x="644.8000000000001" y="416.79999999999995" /><rect fill="#E66" height="8" stroke="#A00" stroke-width="1" width="8" x="599.2" y="279.9999999999999" /><rect fill="#69E" height="6" stroke="#04A" stroke-width="1" width="12" x="460.40000000000003" y="873.8" /><rect fill="#69E" height="6" stroke="#04A" stroke-width="1" width="12" x="825.2" y="873.8" /><rect fill="#69E" height="6" stroke="#04A" stroke-width="1" width="12" x="962.0" y="737.0" /><rect fill="#69E" height="6" stroke="#04A" stroke-width="1" width="12" x="962.0" y="508.99999999999994" /><rect fill="#69E" height="6" stroke="#04A" stroke-width="1" width="12" x="414.8" y="144.19999999999993" /><rect fill="#69E" height="6" stroke="#04A" stroke-width="1" width="12" x="779.6" y="144.19999999999993" /><rect fill="#69E" height="6" stroke="#04A" stroke-width="1" width="12" x="962.0" y="280.9999999999999" /><rect fill="#69E" height="6" stroke="#04A" stroke-width="1" width="12" x="50.0" y="258.19999999999993" /><rect fill="#69E" height="6" stroke="#04A" stroke-width="1" width="12" x="50.0" y="623.0" /><text fill="#444" font-family="Arial, sans-serif" font-size="12" x="40" y="24">eu_de_3zimmer_berlin_prenzlauer_eisenbahnwohnung</text></svg>