<?xml version="1.0" encoding="utf-8" ?>
<svg baseProfile="full" height="1024" version="1.1" viewBox="0 0 1024 1024" width="1024" xmlns="http://www.w3.org/2000/svg" xmlns:ev="http://www.w3.org/2001/xml-events" xmlns:xlink="http://www.w3.org/1999/xlink"><defs /><rect fill="#FAFAFA" height="1024" width="1024" x="0" y="0" /><polygon fill="white" points="56.0,922.4000000000001 968.0,922.4000000000001 968.0,101.60000000000002 56.0,101.60000000000002" stroke="#222" stroke-width="3" /><polygon fill="#F5F5F5" points="56.0,922.4000000000001 238.4,922.4000000000001 238.4,466.4000000000001 56.0,466.4000000000001" stroke="#888" stroke-width="1" /><text fill="#333" font-family="Arial, sans-serif" font-size="12" text-anchor="middle" x="147.2" y="694.4000000000001">Flur</text><text fill="#666" font-family="Arial, sans-serif" font-size="10" text-anchor="middle" x="147.2" y="708.4000000000001">10 m²</text><polygon fill="#D1ECF1" points="238.4,922.4000000000001 694.4,922.4000000000001 694.4,466.4000000000001 238.4,466.4000000000001" stroke="#888" stroke-width="1" /><text fill="#333" font-family="Arial, sans-serif" font-size="12" text-anchor="middle" x="466.4" y="694.4000000000001">Wohnzimmer</text><text fill="#666" font-family="Arial, sans-serif" font-size="10" text-anchor="middle" x="466.4" y="708.4000000000001">25 m²</text><polygon fill="#FFF3CD" points="694.4,922.4000000000001 968.0,922.4000000000001 968.0,557.6000000000001 694.4,557.6000000000001" stroke="#888" stroke-width="1" /><text fill="#333" font-family="Arial, sans-serif" font-size="12" text-anchor="middle" x="831.2" y="740.0000000000001">Küche</text><text fill="#666" font-family="Arial, sans-serif" font-size="10" text-anchor="middle" x="831.2" y="754.0000000000001">12 m²</text><polygon fill="#D4EDDA" points="694.4,557.6000000000001 968.0,557.6000000000001 968.0,284.0000000000001 694.4,284.0000000000001" stroke="#888" stroke-width="1" /><text fill="#333" font-family="Arial, sans-serif" font-size="12" text-anchor="middle" x="831.2" y="420.8000000000001">Bad</text><text fill="#666" font-family="Arial, sans-serif" font-size="10" text-anchor="middle" x="831.2" y="434.8000000000001">9 m²</text><polygon fill="#D5C8E0" points="238.4,466.4000000000001 694.4,466.4000000000001 694.4,101.60000000000002 238.4,101.60000000000002" stroke="#888" stroke-width="1" /><text fill="#333" font-family="Arial, sans-serif" font-size="12" text-anchor="middle" x="466.4" y="284.00000000000006">Schlafzimmer</text><text fill="#666" font-family="Arial, sans-serif" font-size="10" text-anchor="middle" x="466.4" y="298.00000000000006">20 m²</text><polygon fill="#F8F9FA" points="694.4,284.0000000000001 968.0,284.0000000000001 968.0,101.60000000000002 694.4,101.60000000000002" stroke="#888" stroke-width="1" /><text fill="#333" font-family="Arial, sans-serif" font-size="12" text-anchor="middle" x="831.2" y="192.80000000000007">Balkon (Elbblick)</text><text fill="#666" font-family="Arial, sans-serif" font-size="10" text-anchor="middle" x="831.2" y="206.80000000000007">6 m²</text><polygon fill="#F5F5F5" points="56.0,466.4000000000001 238.4,466.4000000000001 238.4,101.60000000000002 56.0,101.60000000000002" stroke="#888" stroke-width="1" /><text fill="#333" font-family="Arial, sans-serif" font-size="12" text-anchor="middle" x="147.2" y="284.00000000000006">Flur (back)</text><text fill="#666" font-family="Arial, sans-serif" font-size="10" text-anchor="middle" x="147.2" y="298.00000000000006">8 m²</text><rect fill="#E66" height="8" stroke="#A00" stroke-width="1" width="8" x="52.0" y="690.4000000000001" /><rect fill="#E66" height="8" stroke="#A00" stroke-width="1" width="8" x="234.4" y="690.4000000000001" /><rect fill="#E66" height="8" stroke="#A00" stroke-width="1" width="8" x="143.2" y="462.4000000000001" /><rect fill="#E66" height="8" stroke="#A00" stroke-width="1" width="8" x="234.4" y="280.0000000000001" /><rect fill="#E66" height="8" stroke="#A00" stroke-width="1" width="8" x="690.4" y="736.0000000000001" /><rect fill="#E66" height="8" stroke="#A00" stroke-width="1" width="8" x="462.40000000000003" y="462.4000000000001" /><rect fill="#E66" height="8" stroke="#A00" stroke-width="1" width="8" x="827.2" y="553.6000000000001" /><rect fill="#E66" height="8" stroke="#A00" stroke-width="1" width="8" x="690.4" y="371.20000000000005" /><rect fill="#E66" height="8" stroke="#A00" stroke-width="1" width="8" x="690.4" y="188.80000000000007" /><rect fill="#69E" height="6" stroke="#04A" stroke-width="1" width="12" x="460.40000000000003" y="919.4000000000001" /><rect fill="#69E" height="6" stroke="#04A" stroke-width="1" width="12" x="825.2" y="919.4000000000001" /><rect fill="#69E" height="6" stroke="#04A" stroke-width="1" width="12" x="962.0" y="737.0000000000001" /><rect fill="#69E" height="6" stroke="#04A" stroke-width="1" width="12" x="962.0" y="417.80000000000007" /><rect fill="#69E" height="6" stroke="#04A" stroke-width="1" width="12" x="460.40000000000003" y="98.60000000000002" /><rect fill="#69E" height="6" stroke="#04A" stroke-width="1" width="12" x="962.0" y="189.80000000000007" /><rect fill="#69E" height="6" stroke="#04A" stroke-width="1" width="12" x="50.0" y="691.4000000000001" /><text fill="#444" font-family="Arial, sans-serif" font-size="12" x="40" y="24">eu_de_2zimmer_dresden_striesen_altbau</text></svg>