<?xml version="1.0" encoding="utf-8" ?>
<svg baseProfile="full" height="1024" version="1.1" viewBox="0 0 1024 1024" width="1024" xmlns="http://www.w3.org/2000/svg" xmlns:ev="http://www.w3.org/2001/xml-events" xmlns:xlink="http://www.w3.org/1999/xlink"><defs /><rect fill="#FAFAFA" height="1024" width="1024" x="0" y="0" /><polygon fill="white" points="147.2,968.0 876.8,968.0 876.8,56.0 147.2,56.0" stroke="#222" stroke-width="3" /><polygon fill="#F5F5F5" points="147.2,968.0 284.0,968.0 284.0,512.0 147.2,512.0" stroke="#888" stroke-width="1" /><text fill="#333" font-family="Arial, sans-serif" font-size="12" text-anchor="middle" x="215.6" y="740.0">Flur</text><text fill="#666" font-family="Arial, sans-serif" font-size="10" text-anchor="middle" x="215.6" y="754.0">7.5 m²</text><polygon fill="#D1ECF1" points="284.0,968.0 694.4000000000001,968.0 694.4000000000001,512.0 284.0,512.0" stroke="#888" stroke-width="1" /><text fill="#333" font-family="Arial, sans-serif" font-size="12" text-anchor="middle" x="489.20000000000005" y="740.0">Wohnzimmer</text><text fill="#666" font-family="Arial, sans-serif" font-size="10" text-anchor="middle" x="489.20000000000005" y="754.0">22.5 m²</text><polygon fill="#F8F9FA" points="694.4000000000001,968.0 876.8,968.0 876.8,740.0 694.4000000000001,740.0" stroke="#888" stroke-width="1" /><text fill="#333" font-family="Arial, sans-serif" font-size="12" text-anchor="middle" x="785.6" y="854.0">Loggia</text><text fill="#666" font-family="Arial, sans-serif" font-size="10" text-anchor="middle" x="785.6" y="868.0">5 m²</text><polygon fill="#FFF3CD" points="694.4000000000001,740.0 876.8,740.0 876.8,375.19999999999993 694.4000000000001,375.19999999999993" stroke="#888" stroke-width="1" /><text fill="#333" font-family="Arial, sans-serif" font-size="12" text-anchor="middle" x="785.6" y="557.5999999999999">Küche</text><text fill="#666" font-family="Arial, sans-serif" font-size="10" text-anchor="middle" x="785.6" y="571.5999999999999">8 m²</text><polygon fill="#D4EDDA" points="147.2,512.0 284.0,512.0 284.0,192.79999999999995 147.2,192.79999999999995" stroke="#888" stroke-width="1" /><text fill="#333" font-family="Arial, sans-serif" font-size="12" text-anchor="middle" x="215.6" y="352.4">Bad</text><text fill="#666" font-family="Arial, sans-serif" font-size="10" text-anchor="middle" x="215.6" y="366.4">5.25 m²</text><polygon fill="#D5C8E0" points="284.0,512.0 694.4000000000001,512.0 694.4000000000001,238.39999999999998 284.0,238.39999999999998" stroke="#888" stroke-width="1" /><text fill="#333" font-family="Arial, sans-serif" font-size="12" text-anchor="middle" x="489.20000000000005" y="375.2">Schlafzimmer</text><text fill="#666" font-family="Arial, sans-serif" font-size="10" text-anchor="middle" x="489.20000000000005" y="389.2">13.5 m²</text><polygon fill="#E2D5F0" points="284.0,238.39999999999998 694.4000000000001,238.39999999999998 694.4000000000001,56.0 284.0,56.0" stroke="#888" stroke-width="1" /><text fill="#333" font-family="Arial, sans-serif" font-size="12" text-anchor="middle" x="489.20000000000005" y="147.2">Kinderzimmer 1</text><text fill="#666" font-family="Arial, sans-serif" font-size="10" text-anchor="middle" x="489.20000000000005" y="161.2">9 m²</text><polygon fill="#E2D5F0" points="694.4000000000001,375.19999999999993 876.8,375.19999999999993 876.8,56.0 694.4000000000001,56.0" stroke="#888" stroke-width="1" /><text fill="#333" font-family="Arial, sans-serif" font-size="12" text-anchor="middle" x="785.6" y="215.59999999999997">Kinderzimmer 2</text><text fill="#666" font-family="Arial, sans-serif" font-size="10" text-anchor="middle" x="785.6" y="229.59999999999997">7 m²</text><polygon fill="#F5F5F5" points="147.2,192.79999999999995 284.0,192.79999999999995 284.0,56.0 147.2,56.0" stroke="#888" stroke-width="1" /><text fill="#333" font-family="Arial, sans-serif" font-size="12" text-anchor="middle" x="215.6" y="124.39999999999998">Flur back</text><text fill="#666" font-family="Arial, sans-serif" font-size="10" text-anchor="middle" x="215.6" y="138.39999999999998">2.25 m²</text><rect fill="#E66" height="8" stroke="#A00" stroke-width="1" width="8" x="143.2" y="736.0" /><rect fill="#E66" height="8" stroke="#A00" stroke-width="1" width="8" x="280.0" y="736.0" /><rect fill="#E66" height="8" stroke="#A00" stroke-width="1" width="8" x="211.6" y="508.0" /><rect fill="#E66" height="8" stroke="#A00" stroke-width="1" width="8" x="211.6" y="188.79999999999995" /><rect fill="#E66" height="8" stroke="#A00" stroke-width="1" width="8" x="280.0" y="143.19999999999993" /><rect fill="#E66" height="8" stroke="#A00" stroke-width="1" width="8" x="690.4000000000001" y="850.0" /><rect fill="#E66" height="8" stroke="#A00" stroke-width="1" width="8" x="690.4000000000001" y="644.8" /><rect fill="#E66" height="8" stroke="#A00" stroke-width="1" width="8" x="485.2" y="508.0" /><rect fill="#E66" height="8" stroke="#A00" stroke-width="1" width="8" x="781.5999999999999" y="371.19999999999993" /><rect fill="#E66" height="8" stroke="#A00" stroke-width="1" width="8" x="485.2" y="234.39999999999998" /><rect fill="#E66" height="8" stroke="#A00" stroke-width="1" width="8" x="690.4000000000001" y="371.19999999999993" /><rect fill="#E66" height="8" stroke="#A00" stroke-width="1" width="8" x="690.4000000000001" y="143.19999999999993" /><rect fill="#69E" height="6" stroke="#04A" stroke-width="1" width="12" x="483.2" y="965.0" /><rect fill="#69E" height="6" stroke="#04A" stroke-width="1" width="12" x="779.5999999999999" y="965.0" /><rect fill="#69E" height="6" stroke="#04A" stroke-width="1" width="12" x="870.8" y="554.5999999999999" /><rect fill="#69E" height="6" stroke="#04A" stroke-width="1" width="12" x="483.2" y="235.39999999999998" /><rect fill="#69E" height="6" stroke="#04A" stroke-width="1" width="12" x="483.2" y="53.0" /><rect fill="#69E" height="6" stroke="#04A" stroke-width="1" width="12" x="779.5999999999999" y="53.0" /><rect fill="#69E" height="6" stroke="#04A" stroke-width="1" width="12" x="870.8" y="212.60000000000002" /><rect fill="#69E" height="6" stroke="#04A" stroke-width="1" width="12" x="141.2" y="349.4" /><rect fill="#69E" height="6" stroke="#04A" stroke-width="1" width="12" x="141.2" y="737.0" /><text fill="#444" font-family="Arial, sans-serif" font-size="12" x="40" y="24">eu_de_4zimmer_rostock_wbr83_plattenbau</text></svg>