<?xml version="1.0" encoding="utf-8" ?>
<svg baseProfile="full" height="1024" version="1.1" viewBox="0 0 1024 1024" width="1024" xmlns="http://www.w3.org/2000/svg" xmlns:ev="http://www.w3.org/2001/xml-events" xmlns:xlink="http://www.w3.org/1999/xlink"><defs /><rect fill="#FAFAFA" height="1024" width="1024" x="0" y="0" /><polygon fill="white" points="56.0,968.0 968.0,968.0 968.0,56.0 56.0,56.0" stroke="#222" stroke-width="3" /><polygon fill="#F5F5F5" points="56.0,968.0 251.42857142857142,968.0 251.42857142857142,772.5714285714286 56.0,772.5714285714286" stroke="#888" stroke-width="1" /><text fill="#333" font-family="Arial, sans-serif" font-size="12" text-anchor="middle" x="153.71428571428572" y="870.2857142857142">Zaguán</text><text fill="#666" font-family="Arial, sans-serif" font-size="10" text-anchor="middle" x="153.71428571428572" y="884.2857142857142">9 m²</text><polygon fill="#D1ECF1" points="251.42857142857142,968.0 707.4285714285713,968.0 707.4285714285713,642.2857142857143 251.42857142857142,642.2857142857143" stroke="#888" stroke-width="1" /><text fill="#333" font-family="Arial, sans-serif" font-size="12" text-anchor="middle" x="479.4285714285714" y="805.1428571428571">Salón doble altura</text><text fill="#666" font-family="Arial, sans-serif" font-size="10" text-anchor="middle" x="479.4285714285714" y="819.1428571428571">35 m²</text><polygon fill="#EEE" points="707.4285714285713,968.0 968.0,968.0 968.0,707.4285714285714 707.4285714285713,707.4285714285714" stroke="#888" stroke-width="1" /><text fill="#333" font-family="Arial, sans-serif" font-size="12" text-anchor="middle" x="837.7142857142857" y="837.7142857142858">Capilla</text><text fill="#666" font-family="Arial, sans-serif" font-size="10" text-anchor="middle" x="837.7142857142857" y="851.7142857142858">16 m²</text><polygon fill="#D5C8E0" points="56.0,772.5714285714286 251.42857142857142,772.5714285714286 251.42857142857142,512.0 56.0,512.0" stroke="#888" stroke-width="1" /><text fill="#333" font-family="Arial, sans-serif" font-size="12" text-anchor="middle" x="153.71428571428572" y="642.2857142857142">Dormitorio principal</text><text fill="#666" font-family="Arial, sans-serif" font-size="10" text-anchor="middle" x="153.71428571428572" y="656.2857142857142">12 m²</text><polygon fill="#D4EDDA" points="707.4285714285713,707.4285714285714 837.7142857142857,707.4285714285714 837.7142857142857,512.0 707.4285714285713,512.0" stroke="#888" stroke-width="1" /><text fill="#333" font-family="Arial, sans-serif" font-size="12" text-anchor="middle" x="772.5714285714284" y="609.7142857142858">Baño 1</text><text fill="#666" font-family="Arial, sans-serif" font-size="10" text-anchor="middle" x="772.5714285714284" y="623.7142857142858">6 m²</text><polygon fill="#EEE" points="837.7142857142857,707.4285714285714 968.0,707.4285714285714 968.0,512.0 837.7142857142857,512.0" stroke="#888" stroke-width="1" /><text fill="#333" font-family="Arial, sans-serif" font-size="12" text-anchor="middle" x="902.8571428571429" y="609.7142857142858">Despensa</text><text fill="#666" font-family="Arial, sans-serif" font-size="10" text-anchor="middle" x="902.8571428571429" y="623.7142857142858">6 m²</text><polygon fill="#F8F9FA" points="251.42857142857142,642.2857142857143 707.4285714285713,642.2857142857143 707.4285714285713,316.57142857142867 251.42857142857142,316.57142857142867" stroke="#888" stroke-width="1" /><text fill="#333" font-family="Arial, sans-serif" font-size="12" text-anchor="middle" x="479.4285714285714" y="479.4285714285715">Patio Central</text><text fill="#666" font-family="Arial, sans-serif" font-size="10" text-anchor="middle" x="479.4285714285714" y="493.4285714285715">35 m²</text><polygon fill="#E2D5F0" points="56.0,512.0 251.42857142857142,512.0 251.42857142857142,251.42857142857144 56.0,251.42857142857144" stroke="#888" stroke-width="1" /><text fill="#333" font-family="Arial, sans-serif" font-size="12" text-anchor="middle" x="153.71428571428572" y="381.7142857142857">Dormitorio 2</text><text fill="#666" font-family="Arial, sans-serif" font-size="10" text-anchor="middle" x="153.71428571428572" y="395.7142857142857">12 m²</text><polygon fill="#D4EDDA" points="707.4285714285713,512.0 968.0,512.0 968.0,316.57142857142867 707.4285714285713,316.57142857142867" stroke="#888" stroke-width="1" /><text fill="#333" font-family="Arial, sans-serif" font-size="12" text-anchor="middle" x="837.7142857142857" y="414.28571428571433">Baño 2</text><text fill="#666" font-family="Arial, sans-serif" font-size="10" text-anchor="middle" x="837.7142857142857" y="428.28571428571433">12 m²</text><polygon fill="#E2D5F0" points="707.4285714285713,316.57142857142867 968.0,316.57142857142867 968.0,121.14285714285722 707.4285714285713,121.14285714285722" stroke="#888" stroke-width="1" /><text fill="#333" font-family="Arial, sans-serif" font-size="12" text-anchor="middle" x="837.7142857142857" y="218.85714285714295">Dormitorio 3</text><text fill="#666" font-family="Arial, sans-serif" font-size="10" text-anchor="middle" x="837.7142857142857" y="232.85714285714295">12 m²</text><polygon fill="#E0E0E0" points="56.0,251.42857142857144 251.42857142857142,251.42857142857144 251.42857142857142,56.0 56.0,56.0" stroke="#888" stroke-width="1" /><text fill="#333" font-family="Arial, sans-serif" font-size="12" text-anchor="middle" x="153.71428571428572" y="153.71428571428572">Lavadero</text><text fill="#666" font-family="Arial, sans-serif" font-size="10" text-anchor="middle" x="153.71428571428572" y="167.71428571428572">9 m²</text><polygon fill="#E2D5F0" points="251.42857142857142,316.57142857142867 577.1428571428571,316.57142857142867 577.1428571428571,121.14285714285722 251.42857142857142,121.14285714285722" stroke="#888" stroke-width="1" /><text fill="#333" font-family="Arial, sans-serif" font-size="12" text-anchor="middle" x="414.2857142857143" y="218.85714285714295">Dormitorio 4</text><text fill="#666" font-family="Arial, sans-serif" font-size="10" text-anchor="middle" x="414.2857142857143" y="232.85714285714295">15 m²</text><polygon fill="#D4EDDA" points="577.1428571428571,316.57142857142867 707.4285714285713,316.57142857142867 707.4285714285713,121.14285714285722 577.1428571428571,121.14285714285722" stroke="#888" stroke-width="1" /><text fill="#333" font-family="Arial, sans-serif" font-size="12" text-anchor="middle" x="642.2857142857142" y="218.85714285714295">Baño 3</text><text fill="#666" font-family="Arial, sans-serif" font-size="10" text-anchor="middle" x="642.2857142857142" y="232.85714285714295">6 m²</text><polygon fill="#FFF3CD" points="251.42857142857142,121.14285714285722 707.4285714285713,121.14285714285722 707.4285714285713,56.0 251.42857142857142,56.0" stroke="#888" stroke-width="1" /><text fill="#333" font-family="Arial, sans-serif" font-size="12" text-anchor="middle" x="479.4285714285714" y="88.57142857142861">Cocina-comedor</text><text fill="#666" font-family="Arial, sans-serif" font-size="10" text-anchor="middle" x="479.4285714285714" y="102.57142857142861">7 m²</text><polygon fill="#F8F9FA" points="707.4285714285713,121.14285714285722 968.0,121.14285714285722 968.0,56.0 707.4285714285713,56.0" stroke="#888" stroke-width="1" /><text fill="#333" font-family="Arial, sans-serif" font-size="12" text-anchor="middle" x="837.7142857142857" y="88.57142857142861">Terrace strip</text><text fill="#666" font-family="Arial, sans-serif" font-size="10" text-anchor="middle" x="837.7142857142857" y="102.57142857142861">4 m²</text><rect fill="#E66" height="8" stroke="#A00" stroke-width="1" width="8" x="117.14285714285714" y="964.0" /><rect fill="#E66" height="8" stroke="#A00" stroke-width="1" width="8" x="247.42857142857142" y="866.2857142857143" /><rect fill="#E66" height="8" stroke="#A00" stroke-width="1" width="8" x="149.71428571428572" y="768.5714285714286" /><rect fill="#E66" height="8" stroke="#A00" stroke-width="1" width="8" x="703.4285714285713" y="833.7142857142858" /><rect fill="#E66" height="8" stroke="#A00" stroke-width="1" width="8" x="475.4285714285714" y="638.2857142857143" /><rect fill="#E66" height="8" stroke="#A00" stroke-width="1" width="8" x="768.5714285714286" y="703.4285714285714" /><rect fill="#E66" height="8" stroke="#A00" stroke-width="1" width="8" x="833.7142857142857" y="605.7142857142858" /><rect fill="#E66" height="8" stroke="#A00" stroke-width="1" width="8" x="149.71428571428572" y="508.0" /><rect fill="#E66" height="8" stroke="#A00" stroke-width="1" width="8" x="247.42857142857142" y="377.7142857142858" /><rect fill="#E66" height="8" stroke="#A00" stroke-width="1" width="8" x="703.4285714285713" y="573.1428571428571" /><rect fill="#E66" height="8" stroke="#A00" stroke-width="1" width="8" x="703.4285714285713" y="410.28571428571433" /><rect fill="#E66" height="8" stroke="#A00" stroke-width="1" width="8" x="442.85714285714283" y="312.57142857142867" /><rect fill="#E66" height="8" stroke="#A00" stroke-width="1" width="8" x="833.7142857142857" y="312.57142857142867" /><rect fill="#E66" height="8" stroke="#A00" stroke-width="1" width="8" x="149.71428571428572" y="247.42857142857144" /><rect fill="#E66" height="8" stroke="#A00" stroke-width="1" width="8" x="573.1428571428571" y="214.8571428571429" /><rect fill="#E66" height="8" stroke="#A00" stroke-width="1" width="8" x="703.4285714285713" y="214.8571428571429" /><rect fill="#E66" height="8" stroke="#A00" stroke-width="1" width="8" x="247.42857142857142" y="84.57142857142867" /><rect fill="#E66" height="8" stroke="#A00" stroke-width="1" width="8" x="410.2857142857143" y="117.14285714285722" /><rect fill="#E66" height="8" stroke="#A00" stroke-width="1" width="8" x="833.7142857142857" y="117.14285714285722" /><rect fill="#69E" height="6" stroke="#04A" stroke-width="1" width="12" x="473.4285714285714" y="965.0" /><rect fill="#69E" height="6" stroke="#04A" stroke-width="1" width="12" x="831.7142857142857" y="965.0" /><rect fill="#69E" height="6" stroke="#04A" stroke-width="1" width="12" x="962.0" y="834.7142857142858" /><rect fill="#69E" height="6" stroke="#04A" stroke-width="1" width="12" x="50.0" y="639.2857142857143" /><rect fill="#69E" height="6" stroke="#04A" stroke-width="1" width="12" x="50.0" y="378.7142857142858" /><rect fill="#69E" height="6" stroke="#04A" stroke-width="1" width="12" x="50.0" y="150.71428571428578" /><rect fill="#69E" height="6" stroke="#04A" stroke-width="1" width="12" x="147.71428571428572" y="53.0" /><rect fill="#69E" height="6" stroke="#04A" stroke-width="1" width="12" x="473.4285714285714" y="53.0" /><rect fill="#69E" height="6" stroke="#04A" stroke-width="1" width="12" x="831.7142857142857" y="53.0" /><rect fill="#69E" height="6" stroke="#04A" stroke-width="1" width="12" x="962.0" y="215.8571428571429" /><rect fill="#69E" height="6" stroke="#04A" stroke-width="1" width="12" x="962.0" y="606.7142857142858" /><rect fill="#69E" height="6" stroke="#04A" stroke-width="1" width="12" x="473.4285714285714" y="639.2857142857143" /><text fill="#444" font-family="Arial, sans-serif" font-size="12" x="40" y="24">eu_es_4bed_andalucia_cortijo</text></svg>