<?xml version="1.0" encoding="utf-8" ?>
<svg baseProfile="full" height="1024" version="1.1" viewBox="0 0 1024 1024" width="1024" xmlns="http://www.w3.org/2000/svg" xmlns:ev="http://www.w3.org/2001/xml-events" xmlns:xlink="http://www.w3.org/1999/xlink"><defs /><rect fill="#FAFAFA" height="1024" width="1024" x="0" y="0" /><polygon fill="white" points="56.0,968.0 968.0,968.0 968.0,56.0 56.0,56.0" stroke="#222" stroke-width="3" /><polygon fill="#F5F5F5" points="56.0,968.0 227.0,968.0 227.0,740.0 56.0,740.0" stroke="#888" stroke-width="1" /><text fill="#333" font-family="Arial, sans-serif" font-size="12" text-anchor="middle" x="141.5" y="854.0">Distribuidor</text><text fill="#666" font-family="Arial, sans-serif" font-size="10" text-anchor="middle" x="141.5" y="868.0">3 m²</text><polygon fill="#D1ECF1" points="227.0,968.0 740.0,968.0 740.0,455.0 227.0,455.0" stroke="#888" stroke-width="1" /><text fill="#333" font-family="Arial, sans-serif" font-size="12" text-anchor="middle" x="483.5" y="711.5">Salón-comedor</text><text fill="#666" font-family="Arial, sans-serif" font-size="10" text-anchor="middle" x="483.5" y="725.5">20.25 m²</text><polygon fill="#FFF3CD" points="740.0,968.0 968.0,968.0 968.0,455.0 740.0,455.0" stroke="#888" stroke-width="1" /><text fill="#333" font-family="Arial, sans-serif" font-size="12" text-anchor="middle" x="854.0" y="711.5">Cocina</text><text fill="#666" font-family="Arial, sans-serif" font-size="10" text-anchor="middle" x="854.0" y="725.5">9 m²</text><polygon fill="#D4EDDA" points="56.0,740.0 227.0,740.0 227.0,398.0 56.0,398.0" stroke="#888" stroke-width="1" /><text fill="#333" font-family="Arial, sans-serif" font-size="12" text-anchor="middle" x="141.5" y="569.0">Baño</text><text fill="#666" font-family="Arial, sans-serif" font-size="10" text-anchor="middle" x="141.5" y="583.0">4.5 m²</text><polygon fill="#F8F9FA" points="56.0,398.0 227.0,398.0 227.0,56.0 56.0,56.0" stroke="#888" stroke-width="1" /><text fill="#333" font-family="Arial, sans-serif" font-size="12" text-anchor="middle" x="141.5" y="227.0">Galería corredor</text><text fill="#666" font-family="Arial, sans-serif" font-size="10" text-anchor="middle" x="141.5" y="241.0">4.5 m²</text><polygon fill="#D5C8E0" points="227.0,455.0 626.0,455.0 626.0,56.0 227.0,56.0" stroke="#888" stroke-width="1" /><text fill="#333" font-family="Arial, sans-serif" font-size="12" text-anchor="middle" x="426.5" y="255.5">Dormitorio principal</text><text fill="#666" font-family="Arial, sans-serif" font-size="10" text-anchor="middle" x="426.5" y="269.5">12.25 m²</text><polygon fill="#E2D5F0" points="626.0,455.0 968.0,455.0 968.0,56.0 626.0,56.0" stroke="#888" stroke-width="1" /><text fill="#333" font-family="Arial, sans-serif" font-size="12" text-anchor="middle" x="797.0" y="255.5">Dormitorio 2</text><text fill="#666" font-family="Arial, sans-serif" font-size="10" text-anchor="middle" x="797.0" y="269.5">10.5 m²</text><rect fill="#E66" height="8" stroke="#A00" stroke-width="1" width="8" x="109.0" y="964.0" /><rect fill="#E66" height="8" stroke="#A00" stroke-width="1" width="8" x="223.0" y="850.0" /><rect fill="#E66" height="8" stroke="#A00" stroke-width="1" width="8" x="137.5" y="736.0" /><rect fill="#E66" height="8" stroke="#A00" stroke-width="1" width="8" x="137.5" y="394.0" /><rect fill="#E66" height="8" stroke="#A00" stroke-width="1" width="8" x="736.0" y="707.5" /><rect fill="#E66" height="8" stroke="#A00" stroke-width="1" width="8" x="422.5" y="451.0" /><rect fill="#E66" height="8" stroke="#A00" stroke-width="1" width="8" x="679.0" y="451.0" /><rect fill="#E66" height="8" stroke="#A00" stroke-width="1" width="8" x="622.0" y="251.5" /><rect fill="#E66" height="8" stroke="#A00" stroke-width="1" width="8" x="223.0" y="223.0" /><rect fill="#69E" height="6" stroke="#04A" stroke-width="1" width="12" x="477.5" y="965.0" /><rect fill="#69E" height="6" stroke="#04A" stroke-width="1" width="12" x="848.0" y="965.0" /><rect fill="#69E" height="6" stroke="#04A" stroke-width="1" width="12" x="962.0" y="708.5" /><rect fill="#69E" height="6" stroke="#04A" stroke-width="1" width="12" x="420.5" y="53.0" /><rect fill="#69E" height="6" stroke="#04A" stroke-width="1" width="12" x="791.0" y="53.0" /><rect fill="#69E" height="6" stroke="#04A" stroke-width="1" width="12" x="962.0" y="252.5" /><rect fill="#69E" height="6" stroke="#04A" stroke-width="1" width="12" x="50.0" y="566.0" /><rect fill="#69E" height="6" stroke="#04A" stroke-width="1" width="12" x="50.0" y="224.0" /><text fill="#444" font-family="Arial, sans-serif" font-size="12" x="40" y="24">eu_es_2bed_madrid_lavapies_corrala</text></svg>