<?xml version="1.0" encoding="utf-8" ?>
<svg baseProfile="full" height="1024" version="1.1" viewBox="0 0 1024 1024" width="1024" xmlns="http://www.w3.org/2000/svg" xmlns:ev="http://www.w3.org/2001/xml-events" xmlns:xlink="http://www.w3.org/1999/xlink"><defs /><rect fill="#FAFAFA" height="1024" width="1024" x="0" y="0" /><polygon fill="white" points="322.0,968.0 702.0,968.0 702.0,56.0 322.0,56.0" stroke="#222" stroke-width="3" /><polygon fill="#D1ECF1" points="322.0,968.0 626.0,968.0 626.0,664.0 322.0,664.0" stroke="#888" stroke-width="1" /><text fill="#333" font-family="Arial, sans-serif" font-size="12" text-anchor="middle" x="474.0" y="816.0">Salon</text><text fill="#666" font-family="Arial, sans-serif" font-size="10" text-anchor="middle" x="474.0" y="830.0">16 m²</text><polygon fill="#F5F5F5" points="626.0,968.0 702.0,968.0 702.0,360.0 626.0,360.0" stroke="#888" stroke-width="1" /><text fill="#333" font-family="Arial, sans-serif" font-size="12" text-anchor="middle" x="664.0" y="664.0">Couloir lateral</text><text fill="#666" font-family="Arial, sans-serif" font-size="10" text-anchor="middle" x="664.0" y="678.0">8 m²</text><polygon fill="#D5C8E0" points="322.0,664.0 626.0,664.0 626.0,398.0 322.0,398.0" stroke="#888" stroke-width="1" /><text fill="#333" font-family="Arial, sans-serif" font-size="12" text-anchor="middle" x="474.0" y="531.0">Chambre principale</text><text fill="#666" font-family="Arial, sans-serif" font-size="10" text-anchor="middle" x="474.0" y="545.0">14 m²</text><polygon fill="#E2D5F0" points="322.0,398.0 626.0,398.0 626.0,170.0 322.0,170.0" stroke="#888" stroke-width="1" /><text fill="#333" font-family="Arial, sans-serif" font-size="12" text-anchor="middle" x="474.0" y="284.0">Chambre 2</text><text fill="#666" font-family="Arial, sans-serif" font-size="10" text-anchor="middle" x="474.0" y="298.0">12 m²</text><polygon fill="#D4EDDA" points="626.0,360.0 702.0,360.0 702.0,56.0 626.0,56.0" stroke="#888" stroke-width="1" /><text fill="#333" font-family="Arial, sans-serif" font-size="12" text-anchor="middle" x="664.0" y="208.0">Salle de bains</text><text fill="#666" font-family="Arial, sans-serif" font-size="10" text-anchor="middle" x="664.0" y="222.0">4 m²</text><polygon fill="#FFF3CD" points="322.0,170.0 626.0,170.0 626.0,56.0 322.0,56.0" stroke="#888" stroke-width="1" /><text fill="#333" font-family="Arial, sans-serif" font-size="12" text-anchor="middle" x="474.0" y="113.0">Cuisine</text><text fill="#666" font-family="Arial, sans-serif" font-size="10" text-anchor="middle" x="474.0" y="127.0">6 m²</text><rect fill="#E66" height="8" stroke="#A00" stroke-width="1" width="8" x="356.0" y="964.0" /><rect fill="#E66" height="8" stroke="#A00" stroke-width="1" width="8" x="622.0" y="812.0" /><rect fill="#E66" height="8" stroke="#A00" stroke-width="1" width="8" x="622.0" y="527.0" /><rect fill="#E66" height="8" stroke="#A00" stroke-width="1" width="8" x="660.0" y="356.0" /><rect fill="#E66" height="8" stroke="#A00" stroke-width="1" width="8" x="470.0" y="660.0" /><rect fill="#E66" height="8" stroke="#A00" stroke-width="1" width="8" x="470.0" y="394.0" /><rect fill="#E66" height="8" stroke="#A00" stroke-width="1" width="8" x="470.0" y="166.0" /><rect fill="#E66" height="8" stroke="#A00" stroke-width="1" width="8" x="622.0" y="128.0" /><rect fill="#69E" height="6" stroke="#04A" stroke-width="1" width="12" x="468.0" y="965.0" /><rect fill="#69E" height="6" stroke="#04A" stroke-width="1" width="12" x="316.0" y="813.0" /><rect fill="#69E" height="6" stroke="#04A" stroke-width="1" width="12" x="316.0" y="528.0" /><rect fill="#69E" height="6" stroke="#04A" stroke-width="1" width="12" x="316.0" y="281.0" /><rect fill="#69E" height="6" stroke="#04A" stroke-width="1" width="12" x="468.0" y="53.0" /><rect fill="#69E" height="6" stroke="#04A" stroke-width="1" width="12" x="316.0" y="110.0" /><rect fill="#69E" height="6" stroke="#04A" stroke-width="1" width="12" x="696.0" y="205.0" /><text fill="#444" font-family="Arial, sans-serif" font-size="12" x="40" y="24">eu_fr_2pieces_bordeaux_echoppe</text></svg>