<?xml version="1.0" encoding="utf-8" ?>
<svg baseProfile="full" height="1024" version="1.1" viewBox="0 0 1024 1024" width="1024" xmlns="http://www.w3.org/2000/svg" xmlns:ev="http://www.w3.org/2001/xml-events" xmlns:xlink="http://www.w3.org/1999/xlink"><defs /><rect fill="#FAFAFA" height="1024" width="1024" x="0" y="0" /><polygon fill="white" points="56.0,930.0 968.0,930.0 968.0,94.0 56.0,94.0" stroke="#222" stroke-width="3" /><polygon fill="#F5F5F5" points="56.0,930.0 208.0,930.0 208.0,702.0 56.0,702.0" stroke="#888" stroke-width="1" /><text fill="#333" font-family="Arial, sans-serif" font-size="12" text-anchor="middle" x="132.0" y="816.0">Entrée</text><text fill="#666" font-family="Arial, sans-serif" font-size="10" text-anchor="middle" x="132.0" y="830.0">6 m²</text><polygon fill="#D1ECF1" points="208.0,930.0 512.0,930.0 512.0,550.0 208.0,550.0" stroke="#888" stroke-width="1" /><text fill="#333" font-family="Arial, sans-serif" font-size="12" text-anchor="middle" x="360.0" y="740.0">Salon (rue)</text><text fill="#666" font-family="Arial, sans-serif" font-size="10" text-anchor="middle" x="360.0" y="754.0">20 m²</text><polygon fill="#FFE5E5" points="512.0,930.0 740.0,930.0 740.0,550.0 512.0,550.0" stroke="#888" stroke-width="1" /><text fill="#333" font-family="Arial, sans-serif" font-size="12" text-anchor="middle" x="626.0" y="740.0">Salle à manger</text><text fill="#666" font-family="Arial, sans-serif" font-size="10" text-anchor="middle" x="626.0" y="754.0">15 m²</text><polygon fill="#FFF3CD" points="740.0,930.0 968.0,930.0 968.0,550.0 740.0,550.0" stroke="#888" stroke-width="1" /><text fill="#333" font-family="Arial, sans-serif" font-size="12" text-anchor="middle" x="854.0" y="740.0">Cuisine (cour)</text><text fill="#666" font-family="Arial, sans-serif" font-size="10" text-anchor="middle" x="854.0" y="754.0">15 m²</text><polygon fill="#D4EDDA" points="56.0,702.0 208.0,702.0 208.0,550.0 56.0,550.0" stroke="#888" stroke-width="1" /><text fill="#333" font-family="Arial, sans-serif" font-size="12" text-anchor="middle" x="132.0" y="626.0">WC</text><text fill="#666" font-family="Arial, sans-serif" font-size="10" text-anchor="middle" x="132.0" y="640.0">4 m²</text><polygon fill="#F5F5F5" points="56.0,550.0 208.0,550.0 208.0,322.0 56.0,322.0" stroke="#888" stroke-width="1" /><text fill="#333" font-family="Arial, sans-serif" font-size="12" text-anchor="middle" x="132.0" y="436.0">Hall</text><text fill="#666" font-family="Arial, sans-serif" font-size="10" text-anchor="middle" x="132.0" y="450.0">6 m²</text><polygon fill="#D5C8E0" points="208.0,550.0 512.0,550.0 512.0,246.0 208.0,246.0" stroke="#888" stroke-width="1" /><text fill="#333" font-family="Arial, sans-serif" font-size="12" text-anchor="middle" x="360.0" y="398.0">Master sous-comble</text><text fill="#666" font-family="Arial, sans-serif" font-size="10" text-anchor="middle" x="360.0" y="412.0">16 m²</text><polygon fill="#D4EDDA" points="512.0,550.0 740.0,550.0 740.0,398.0 512.0,398.0" stroke="#888" stroke-width="1" /><text fill="#333" font-family="Arial, sans-serif" font-size="12" text-anchor="middle" x="626.0" y="474.0">Salle de Bains</text><text fill="#666" font-family="Arial, sans-serif" font-size="10" text-anchor="middle" x="626.0" y="488.0">6 m²</text><polygon fill="#E2D5F0" points="740.0,550.0 968.0,550.0 968.0,246.0 740.0,246.0" stroke="#888" stroke-width="1" /><text fill="#333" font-family="Arial, sans-serif" font-size="12" text-anchor="middle" x="854.0" y="398.0">Chambre 1</text><text fill="#666" font-family="Arial, sans-serif" font-size="10" text-anchor="middle" x="854.0" y="412.0">12 m²</text><polygon fill="#E2D5F0" points="512.0,398.0 740.0,398.0 740.0,94.0 512.0,94.0" stroke="#888" stroke-width="1" /><text fill="#333" font-family="Arial, sans-serif" font-size="12" text-anchor="middle" x="626.0" y="246.0">Chambre 2</text><text fill="#666" font-family="Arial, sans-serif" font-size="10" text-anchor="middle" x="626.0" y="260.0">12 m²</text><polygon fill="#E2D5F0" points="208.0,246.0 512.0,246.0 512.0,94.0 208.0,94.0" stroke="#888" stroke-width="1" /><text fill="#333" font-family="Arial, sans-serif" font-size="12" text-anchor="middle" x="360.0" y="170.0">Chambre 3 (sous-comble)</text><text fill="#666" font-family="Arial, sans-serif" font-size="10" text-anchor="middle" x="360.0" y="184.0">8 m²</text><polygon fill="#D4EDDA" points="740.0,246.0 968.0,246.0 968.0,94.0 740.0,94.0" stroke="#888" stroke-width="1" /><text fill="#333" font-family="Arial, sans-serif" font-size="12" text-anchor="middle" x="854.0" y="170.0">Salle de Douche</text><text fill="#666" font-family="Arial, sans-serif" font-size="10" text-anchor="middle" x="854.0" y="184.0">6 m²</text><polygon fill="#F8F9FA" points="56.0,322.0 208.0,322.0 208.0,94.0 56.0,94.0" stroke="#888" stroke-width="1" /><text fill="#333" font-family="Arial, sans-serif" font-size="12" text-anchor="middle" x="132.0" y="208.0">Jardinet</text><text fill="#666" font-family="Arial, sans-serif" font-size="10" text-anchor="middle" x="132.0" y="222.0">6 m²</text><rect fill="#E66" height="8" stroke="#A00" stroke-width="1" width="8" x="90.0" y="926.0" /><rect fill="#E66" height="8" stroke="#A00" stroke-width="1" width="8" x="204.0" y="812.0" /><rect fill="#E66" height="8" stroke="#A00" stroke-width="1" width="8" x="128.0" y="698.0" /><rect fill="#E66" height="8" stroke="#A00" stroke-width="1" width="8" x="508.0" y="736.0" /><rect fill="#E66" height="8" stroke="#A00" stroke-width="1" width="8" x="736.0" y="736.0" /><rect fill="#E66" height="8" stroke="#A00" stroke-width="1" width="8" x="128.0" y="546.0" /><rect fill="#E66" height="8" stroke="#A00" stroke-width="1" width="8" x="204.0" y="432.0" /><rect fill="#E66" height="8" stroke="#A00" stroke-width="1" width="8" x="356.0" y="546.0" /><rect fill="#E66" height="8" stroke="#A00" stroke-width="1" width="8" x="622.0" y="546.0" /><rect fill="#E66" height="8" stroke="#A00" stroke-width="1" width="8" x="850.0" y="546.0" /><rect fill="#E66" height="8" stroke="#A00" stroke-width="1" width="8" x="508.0" y="470.0" /><rect fill="#E66" height="8" stroke="#A00" stroke-width="1" width="8" x="622.0" y="394.0" /><rect fill="#E66" height="8" stroke="#A00" stroke-width="1" width="8" x="736.0" y="318.0" /><rect fill="#E66" height="8" stroke="#A00" stroke-width="1" width="8" x="850.0" y="242.0" /><rect fill="#E66" height="8" stroke="#A00" stroke-width="1" width="8" x="736.0" y="166.0" /><rect fill="#E66" height="8" stroke="#A00" stroke-width="1" width="8" x="356.0" y="242.0" /><rect fill="#E66" height="8" stroke="#A00" stroke-width="1" width="8" x="128.0" y="318.0" /><rect fill="#69E" height="6" stroke="#04A" stroke-width="1" width="12" x="354.0" y="927.0" /><rect fill="#69E" height="6" stroke="#04A" stroke-width="1" width="12" x="620.0" y="927.0" /><rect fill="#69E" height="6" stroke="#04A" stroke-width="1" width="12" x="848.0" y="927.0" /><rect fill="#69E" height="6" stroke="#04A" stroke-width="1" width="12" x="962.0" y="737.0" /><rect fill="#69E" height="6" stroke="#04A" stroke-width="1" width="12" x="354.0" y="243.0" /><rect fill="#69E" height="6" stroke="#04A" stroke-width="1" width="12" x="848.0" y="243.0" /><rect fill="#69E" height="6" stroke="#04A" stroke-width="1" width="12" x="962.0" y="395.0" /><rect fill="#69E" height="6" stroke="#04A" stroke-width="1" width="12" x="620.0" y="91.0" /><rect fill="#69E" height="6" stroke="#04A" stroke-width="1" width="12" x="354.0" y="91.0" /><rect fill="#69E" height="6" stroke="#04A" stroke-width="1" width="12" x="848.0" y="91.0" /><rect fill="#69E" height="6" stroke="#04A" stroke-width="1" width="12" x="962.0" y="167.0" /><rect fill="#69E" height="6" stroke="#04A" stroke-width="1" width="12" x="126.0" y="91.0" /><rect fill="#69E" height="6" stroke="#04A" stroke-width="1" width="12" x="50.0" y="813.0" /><text fill="#444" font-family="Arial, sans-serif" font-size="12" x="40" y="24">eu_fr_4bed_lille_maison_ville</text></svg>