<?xml version="1.0" encoding="utf-8" ?>
<svg baseProfile="full" height="1024" version="1.1" viewBox="0 0 1024 1024" width="1024" xmlns="http://www.w3.org/2000/svg" xmlns:ev="http://www.w3.org/2001/xml-events" xmlns:xlink="http://www.w3.org/1999/xlink"><defs /><rect fill="#FAFAFA" height="1024" width="1024" x="0" y="0" /><polygon fill="white" points="56.0,968.0 968.0,968.0 968.0,56.0 56.0,56.0" stroke="#222" stroke-width="3" /><polygon fill="#F5F5F5" points="56.0,968.0 186.28571428571428,968.0 186.28571428571428,707.4285714285714 56.0,707.4285714285714" stroke="#888" stroke-width="1" /><text fill="#333" font-family="Arial, sans-serif" font-size="12" text-anchor="middle" x="121.14285714285714" y="837.7142857142858">Entrée</text><text fill="#666" font-family="Arial, sans-serif" font-size="10" text-anchor="middle" x="121.14285714285714" y="851.7142857142858">8 m²</text><polygon fill="#FFF3CD" points="186.28571428571428,968.0 512.0,968.0 512.0,642.2857142857143 186.28571428571428,642.2857142857143" stroke="#888" stroke-width="1" /><text fill="#333" font-family="Arial, sans-serif" font-size="12" text-anchor="middle" x="349.1428571428571" y="805.1428571428571">Cuisine voutée</text><text fill="#666" font-family="Arial, sans-serif" font-size="10" text-anchor="middle" x="349.1428571428571" y="819.1428571428571">25 m²</text><polygon fill="#FFE5E5" points="512.0,968.0 837.7142857142857,968.0 837.7142857142857,642.2857142857143 512.0,642.2857142857143" stroke="#888" stroke-width="1" /><text fill="#333" font-family="Arial, sans-serif" font-size="12" text-anchor="middle" x="674.8571428571429" y="805.1428571428571">Salle à manger</text><text fill="#666" font-family="Arial, sans-serif" font-size="10" text-anchor="middle" x="674.8571428571429" y="819.1428571428571">25 m²</text><polygon fill="#E0E0E0" points="837.7142857142857,968.0 968.0,968.0 968.0,707.4285714285714 837.7142857142857,707.4285714285714" stroke="#888" stroke-width="1" /><text fill="#333" font-family="Arial, sans-serif" font-size="12" text-anchor="middle" x="902.8571428571429" y="837.7142857142858">Buanderie</text><text fill="#666" font-family="Arial, sans-serif" font-size="10" text-anchor="middle" x="902.8571428571429" y="851.7142857142858">8 m²</text><polygon fill="#D4EDDA" points="837.7142857142857,707.4285714285714 968.0,707.4285714285714 968.0,642.2857142857143 837.7142857142857,642.2857142857143" stroke="#888" stroke-width="1" /><text fill="#333" font-family="Arial, sans-serif" font-size="12" text-anchor="middle" x="902.8571428571429" y="674.8571428571429">WC</text><text fill="#666" font-family="Arial, sans-serif" font-size="10" text-anchor="middle" x="902.8571428571429" y="688.8571428571429">2 m²</text><polygon fill="#D1ECF1" points="186.28571428571428,642.2857142857143 577.1428571428571,642.2857142857143 577.1428571428571,381.7142857142858 186.28571428571428,381.7142857142858" stroke="#888" stroke-width="1" /><text fill="#333" font-family="Arial, sans-serif" font-size="12" text-anchor="middle" x="381.71428571428567" y="512.0">Salon (cheminée)</text><text fill="#666" font-family="Arial, sans-serif" font-size="10" text-anchor="middle" x="381.71428571428567" y="526.0">24 m²</text><polygon fill="#D4EDDA" points="56.0,707.4285714285714 186.28571428571428,707.4285714285714 186.28571428571428,446.8571428571429 56.0,446.8571428571429" stroke="#888" stroke-width="1" /><text fill="#333" font-family="Arial, sans-serif" font-size="12" text-anchor="middle" x="121.14285714285714" y="577.1428571428571">Bagno principale</text><text fill="#666" font-family="Arial, sans-serif" font-size="10" text-anchor="middle" x="121.14285714285714" y="591.1428571428571">8 m²</text><polygon fill="#D5C8E0" points="577.1428571428571,642.2857142857143 837.7142857142857,642.2857142857143 837.7142857142857,381.7142857142858 577.1428571428571,381.7142857142858" stroke="#888" stroke-width="1" /><text fill="#333" font-family="Arial, sans-serif" font-size="12" text-anchor="middle" x="707.4285714285713" y="512.0">Master Suite</text><text fill="#666" font-family="Arial, sans-serif" font-size="10" text-anchor="middle" x="707.4285714285713" y="526.0">16 m²</text><polygon fill="#D4EDDA" points="837.7142857142857,642.2857142857143 968.0,642.2857142857143 968.0,381.7142857142858 837.7142857142857,381.7142857142858" stroke="#888" stroke-width="1" /><text fill="#333" font-family="Arial, sans-serif" font-size="12" text-anchor="middle" x="902.8571428571429" y="512.0">Master Bath</text><text fill="#666" font-family="Arial, sans-serif" font-size="10" text-anchor="middle" x="902.8571428571429" y="526.0">8 m²</text><polygon fill="#F5F5F5" points="56.0,446.8571428571429 186.28571428571428,446.8571428571429 186.28571428571428,381.7142857142858 56.0,381.7142857142858" stroke="#888" stroke-width="1" /><text fill="#333" font-family="Arial, sans-serif" font-size="12" text-anchor="middle" x="121.14285714285714" y="414.28571428571433">Passage</text><text fill="#666" font-family="Arial, sans-serif" font-size="10" text-anchor="middle" x="121.14285714285714" y="428.28571428571433">2 m²</text><polygon fill="#E2D5F0" points="56.0,381.7142857142858 381.71428571428567,381.7142857142858 381.71428571428567,251.42857142857144 56.0,251.42857142857144" stroke="#888" stroke-width="1" /><text fill="#333" font-family="Arial, sans-serif" font-size="12" text-anchor="middle" x="218.85714285714283" y="316.5714285714286">Chambre 2</text><text fill="#666" font-family="Arial, sans-serif" font-size="10" text-anchor="middle" x="218.85714285714283" y="330.5714285714286">10 m²</text><polygon fill="#E2D5F0" points="381.71428571428567,381.7142857142858 642.2857142857142,381.7142857142858 642.2857142857142,186.28571428571433 381.71428571428567,186.28571428571433" stroke="#888" stroke-width="1" /><text fill="#333" font-family="Arial, sans-serif" font-size="12" text-anchor="middle" x="511.99999999999994" y="284.00000000000006">Chambre 3</text><text fill="#666" font-family="Arial, sans-serif" font-size="10" text-anchor="middle" x="511.99999999999994" y="298.00000000000006">12 m²</text><polygon fill="#E2D5F0" points="642.2857142857142,381.7142857142858 968.0,381.7142857142858 968.0,186.28571428571433 642.2857142857142,186.28571428571433" stroke="#888" stroke-width="1" /><text fill="#333" font-family="Arial, sans-serif" font-size="12" text-anchor="middle" x="805.1428571428571" y="284.00000000000006">Chambre 4</text><text fill="#666" font-family="Arial, sans-serif" font-size="10" text-anchor="middle" x="805.1428571428571" y="298.00000000000006">15 m²</text><polygon fill="#F8F9FA" points="56.0,251.42857142857144 381.71428571428567,251.42857142857144 381.71428571428567,56.0 56.0,56.0" stroke="#888" stroke-width="1" /><text fill="#333" font-family="Arial, sans-serif" font-size="12" text-anchor="middle" x="218.85714285714283" y="153.71428571428572">Courtyard</text><text fill="#666" font-family="Arial, sans-serif" font-size="10" text-anchor="middle" x="218.85714285714283" y="167.71428571428572">15 m²</text><polygon fill="#F8F9FA" points="381.71428571428567,186.28571428571433 968.0,186.28571428571433 968.0,56.0 381.71428571428567,56.0" stroke="#888" stroke-width="1" /><text fill="#333" font-family="Arial, sans-serif" font-size="12" text-anchor="middle" x="674.8571428571429" y="121.14285714285717">Garden Terrace</text><text fill="#666" font-family="Arial, sans-serif" font-size="10" text-anchor="middle" x="674.8571428571429" y="135.14285714285717">18 m²</text><rect fill="#E66" height="8" stroke="#A00" stroke-width="1" width="8" x="117.14285714285714" y="964.0" /><rect fill="#E66" height="8" stroke="#A00" stroke-width="1" width="8" x="182.28571428571428" y="833.7142857142858" /><rect fill="#E66" height="8" stroke="#A00" stroke-width="1" width="8" x="117.14285714285714" y="703.4285714285714" /><rect fill="#E66" height="8" stroke="#A00" stroke-width="1" width="8" x="508.0" y="801.1428571428571" /><rect fill="#E66" height="8" stroke="#A00" stroke-width="1" width="8" x="833.7142857142857" y="833.7142857142858" /><rect fill="#E66" height="8" stroke="#A00" stroke-width="1" width="8" x="833.7142857142857" y="670.8571428571429" /><rect fill="#E66" height="8" stroke="#A00" stroke-width="1" width="8" x="312.57142857142856" y="638.2857142857143" /><rect fill="#E66" height="8" stroke="#A00" stroke-width="1" width="8" x="703.4285714285713" y="638.2857142857143" /><rect fill="#E66" height="8" stroke="#A00" stroke-width="1" width="8" x="573.1428571428571" y="508.0" /><rect fill="#E66" height="8" stroke="#A00" stroke-width="1" width="8" x="833.7142857142857" y="508.0" /><rect fill="#E66" height="8" stroke="#A00" stroke-width="1" width="8" x="117.14285714285714" y="442.8571428571429" /><rect fill="#E66" height="8" stroke="#A00" stroke-width="1" width="8" x="117.14285714285714" y="377.7142857142858" /><rect fill="#E66" height="8" stroke="#A00" stroke-width="1" width="8" x="475.4285714285714" y="377.7142857142858" /><rect fill="#E66" height="8" stroke="#A00" stroke-width="1" width="8" x="703.4285714285713" y="377.7142857142858" /><rect fill="#E66" height="8" stroke="#A00" stroke-width="1" width="8" x="638.2857142857142" y="280.0" /><rect fill="#E66" height="8" stroke="#A00" stroke-width="1" width="8" x="214.85714285714283" y="247.42857142857144" /><rect fill="#E66" height="8" stroke="#A00" stroke-width="1" width="8" x="508.0" y="182.28571428571433" /><rect fill="#E66" height="8" stroke="#A00" stroke-width="1" width="8" x="768.5714285714286" y="182.28571428571433" /><rect fill="#69E" height="6" stroke="#04A" stroke-width="1" width="12" x="343.1428571428571" y="965.0" /><rect fill="#69E" height="6" stroke="#04A" stroke-width="1" width="12" x="668.8571428571428" y="965.0" /><rect fill="#69E" height="6" stroke="#04A" stroke-width="1" width="12" x="896.8571428571428" y="965.0" /><rect fill="#69E" height="6" stroke="#04A" stroke-width="1" width="12" x="962.0" y="834.7142857142858" /><rect fill="#69E" height="6" stroke="#04A" stroke-width="1" width="12" x="375.71428571428567" y="378.7142857142858" /><rect fill="#69E" height="6" stroke="#04A" stroke-width="1" width="12" x="701.4285714285713" y="378.7142857142858" /><rect fill="#69E" height="6" stroke="#04A" stroke-width="1" width="12" x="962.0" y="509.0" /><rect fill="#69E" height="6" stroke="#04A" stroke-width="1" width="12" x="50.0" y="574.1428571428571" /><rect fill="#69E" height="6" stroke="#04A" stroke-width="1" width="12" x="212.85714285714283" y="248.42857142857144" /><rect fill="#69E" height="6" stroke="#04A" stroke-width="1" width="12" x="50.0" y="346.1428571428572" /><rect fill="#69E" height="6" stroke="#04A" stroke-width="1" width="12" x="506.0" y="183.28571428571433" /><rect fill="#69E" height="6" stroke="#04A" stroke-width="1" width="12" x="766.5714285714286" y="183.28571428571433" /><rect fill="#69E" height="6" stroke="#04A" stroke-width="1" width="12" x="962.0" y="281.0" /><rect fill="#69E" height="6" stroke="#04A" stroke-width="1" width="12" x="212.85714285714283" y="53.0" /><rect fill="#69E" height="6" stroke="#04A" stroke-width="1" width="12" x="636.2857142857142" y="53.0" /><text fill="#444" font-family="Arial, sans-serif" font-size="12" x="40" y="24">eu_fr_4bed_provence_mas</text></svg>