<?xml version="1.0" encoding="utf-8" ?>
<svg baseProfile="full" height="1024" version="1.1" viewBox="0 0 1024 1024" width="1024" xmlns="http://www.w3.org/2000/svg" xmlns:ev="http://www.w3.org/2001/xml-events" xmlns:xlink="http://www.w3.org/1999/xlink"><defs /><rect fill="#FAFAFA" height="1024" width="1024" x="0" y="0" /><polygon fill="white" points="157.33333333333337,968.0 866.6666666666666,968.0 866.6666666666666,56.0 157.33333333333337,56.0" stroke="#222" stroke-width="3" /><polygon fill="#F5F5F5" points="157.33333333333337,968.0 309.33333333333337,968.0 309.33333333333337,765.3333333333334 157.33333333333337,765.3333333333334" stroke="#888" stroke-width="1" /><text fill="#333" font-family="Arial, sans-serif" font-size="12" text-anchor="middle" x="233.33333333333337" y="866.6666666666667">Eteinen</text><text fill="#666" font-family="Arial, sans-serif" font-size="10" text-anchor="middle" x="233.33333333333337" y="880.6666666666667">3 m²</text><polygon fill="#D1ECF1" points="309.33333333333337,968.0 664.0,968.0 664.0,562.6666666666667 309.33333333333337,562.6666666666667" stroke="#888" stroke-width="1" /><text fill="#333" font-family="Arial, sans-serif" font-size="12" text-anchor="middle" x="486.6666666666667" y="765.3333333333334">Olohuone</text><text fill="#666" font-family="Arial, sans-serif" font-size="10" text-anchor="middle" x="486.6666666666667" y="779.3333333333334">14 m²</text><polygon fill="#FFF3CD" points="664.0,968.0 866.6666666666666,968.0 866.6666666666666,664.0 664.0,664.0" stroke="#888" stroke-width="1" /><text fill="#333" font-family="Arial, sans-serif" font-size="12" text-anchor="middle" x="765.3333333333333" y="816.0">Keittiö</text><text fill="#666" font-family="Arial, sans-serif" font-size="10" text-anchor="middle" x="765.3333333333333" y="830.0">6 m²</text><polygon fill="#EEE" points="664.0,664.0 866.6666666666666,664.0 866.6666666666666,562.6666666666667 664.0,562.6666666666667" stroke="#888" stroke-width="1" /><text fill="#333" font-family="Arial, sans-serif" font-size="12" text-anchor="middle" x="765.3333333333333" y="613.3333333333334">Ruokakomero</text><text fill="#666" font-family="Arial, sans-serif" font-size="10" text-anchor="middle" x="765.3333333333333" y="627.3333333333334">2 m²</text><polygon fill="#D4EDDA" points="157.33333333333337,765.3333333333334 309.33333333333337,765.3333333333334 309.33333333333337,461.33333333333337 157.33333333333337,461.33333333333337" stroke="#888" stroke-width="1" /><text fill="#333" font-family="Arial, sans-serif" font-size="12" text-anchor="middle" x="233.33333333333337" y="613.3333333333334">Kylpyhuone</text><text fill="#666" font-family="Arial, sans-serif" font-size="10" text-anchor="middle" x="233.33333333333337" y="627.3333333333334">4.5 m²</text><polygon fill="#D5C8E0" points="309.33333333333337,562.6666666666667 664.0,562.6666666666667 664.0,258.66666666666674 309.33333333333337,258.66666666666674" stroke="#888" stroke-width="1" /><text fill="#333" font-family="Arial, sans-serif" font-size="12" text-anchor="middle" x="486.6666666666667" y="410.66666666666674">Makuuhuone 1 (Master)</text><text fill="#666" font-family="Arial, sans-serif" font-size="10" text-anchor="middle" x="486.6666666666667" y="424.66666666666674">10.5 m²</text><polygon fill="#E2D5F0" points="664.0,562.6666666666667 866.6666666666666,562.6666666666667 866.6666666666666,258.66666666666674 664.0,258.66666666666674" stroke="#888" stroke-width="1" /><text fill="#333" font-family="Arial, sans-serif" font-size="12" text-anchor="middle" x="765.3333333333333" y="410.66666666666674">Makuuhuone 2</text><text fill="#666" font-family="Arial, sans-serif" font-size="10" text-anchor="middle" x="765.3333333333333" y="424.66666666666674">6 m²</text><polygon fill="#D4EDDA" points="157.33333333333337,461.33333333333337 309.33333333333337,461.33333333333337 309.33333333333337,258.66666666666674 157.33333333333337,258.66666666666674" stroke="#888" stroke-width="1" /><text fill="#333" font-family="Arial, sans-serif" font-size="12" text-anchor="middle" x="233.33333333333337" y="360.00000000000006">Sauna</text><text fill="#666" font-family="Arial, sans-serif" font-size="10" text-anchor="middle" x="233.33333333333337" y="374.00000000000006">3 m²</text><polygon fill="#F8F9FA" points="157.33333333333337,258.66666666666674 866.6666666666666,258.66666666666674 866.6666666666666,56.0 157.33333333333337,56.0" stroke="#888" stroke-width="1" /><text fill="#333" font-family="Arial, sans-serif" font-size="12" text-anchor="middle" x="512.0" y="157.33333333333337">Parveke (Balcony)</text><text fill="#666" font-family="Arial, sans-serif" font-size="10" text-anchor="middle" x="512.0" y="171.33333333333337">14 m²</text><rect fill="#E66" height="8" stroke="#A00" stroke-width="1" width="8" x="204.00000000000003" y="964.0" /><rect fill="#E66" height="8" stroke="#A00" stroke-width="1" width="8" x="305.33333333333337" y="862.6666666666666" /><rect fill="#E66" height="8" stroke="#A00" stroke-width="1" width="8" x="229.33333333333337" y="761.3333333333334" /><rect fill="#E66" height="8" stroke="#A00" stroke-width="1" width="8" x="660.0" y="812.0" /><rect fill="#E66" height="8" stroke="#A00" stroke-width="1" width="8" x="761.3333333333334" y="660.0" /><rect fill="#E66" height="8" stroke="#A00" stroke-width="1" width="8" x="482.6666666666667" y="558.6666666666667" /><rect fill="#E66" height="8" stroke="#A00" stroke-width="1" width="8" x="229.33333333333337" y="457.33333333333337" /><rect fill="#E66" height="8" stroke="#A00" stroke-width="1" width="8" x="305.33333333333337" y="356.0" /><rect fill="#E66" height="8" stroke="#A00" stroke-width="1" width="8" x="660.0" y="406.66666666666674" /><rect fill="#E66" height="8" stroke="#A00" stroke-width="1" width="8" x="229.33333333333337" y="254.66666666666674" /><rect fill="#E66" height="8" stroke="#A00" stroke-width="1" width="8" x="482.6666666666667" y="254.66666666666674" /><rect fill="#E66" height="8" stroke="#A00" stroke-width="1" width="8" x="761.3333333333334" y="254.66666666666674" /><rect fill="#69E" height="6" stroke="#04A" stroke-width="1" width="12" x="480.6666666666667" y="965.0" /><rect fill="#69E" height="6" stroke="#04A" stroke-width="1" width="12" x="303.33333333333337" y="965.0" /><rect fill="#69E" height="6" stroke="#04A" stroke-width="1" width="12" x="759.3333333333334" y="965.0" /><rect fill="#69E" height="6" stroke="#04A" stroke-width="1" width="12" x="860.6666666666666" y="813.0" /><rect fill="#69E" height="6" stroke="#04A" stroke-width="1" width="12" x="480.6666666666667" y="255.66666666666674" /><rect fill="#69E" height="6" stroke="#04A" stroke-width="1" width="12" x="759.3333333333334" y="255.66666666666674" /><rect fill="#69E" height="6" stroke="#04A" stroke-width="1" width="12" x="860.6666666666666" y="407.66666666666674" /><rect fill="#69E" height="6" stroke="#04A" stroke-width="1" width="12" x="506.0" y="53.0" /><rect fill="#69E" height="6" stroke="#04A" stroke-width="1" width="12" x="151.33333333333337" y="610.3333333333334" /><text fill="#444" font-family="Arial, sans-serif" font-size="12" x="40" y="24">eu_fi_2bed_helsinki_kerrostalo</text></svg>