<?xml version="1.0" encoding="utf-8" ?>
<svg baseProfile="full" height="1024" version="1.1" viewBox="0 0 1024 1024" width="1024" xmlns="http://www.w3.org/2000/svg" xmlns:ev="http://www.w3.org/2001/xml-events" xmlns:xlink="http://www.w3.org/1999/xlink"><defs /><rect fill="#FAFAFA" height="1024" width="1024" x="0" y="0" /><polygon fill="white" points="56.0,968.0 968.0,968.0 968.0,56.0 56.0,56.0" stroke="#222" stroke-width="3" /><polygon fill="#F5F5F5" points="56.0,968.0 238.4,968.0 238.4,694.4 56.0,694.4" stroke="#888" stroke-width="1" /><text fill="#333" font-family="Arial, sans-serif" font-size="12" text-anchor="middle" x="147.2" y="831.2">Vestiaire</text><text fill="#666" font-family="Arial, sans-serif" font-size="10" text-anchor="middle" x="147.2" y="845.2">6 m²</text><polygon fill="#D1ECF1" points="238.4,968.0 785.6,968.0 785.6,466.4 238.4,466.4" stroke="#888" stroke-width="1" /><text fill="#333" font-family="Arial, sans-serif" font-size="12" text-anchor="middle" x="512.0" y="717.2">Séjour-Cuisine</text><text fill="#666" font-family="Arial, sans-serif" font-size="10" text-anchor="middle" x="512.0" y="731.2">33 m²</text><polygon fill="#EEE" points="785.6,968.0 968.0,968.0 968.0,694.4 785.6,694.4" stroke="#888" stroke-width="1" /><text fill="#333" font-family="Arial, sans-serif" font-size="12" text-anchor="middle" x="876.8" y="831.2">Storage</text><text fill="#666" font-family="Arial, sans-serif" font-size="10" text-anchor="middle" x="876.8" y="845.2">6 m²</text><polygon fill="#E0E0E0" points="785.6,694.4 968.0,694.4 968.0,512.0 785.6,512.0" stroke="#888" stroke-width="1" /><text fill="#333" font-family="Arial, sans-serif" font-size="12" text-anchor="middle" x="876.8" y="603.2">Buanderie</text><text fill="#666" font-family="Arial, sans-serif" font-size="10" text-anchor="middle" x="876.8" y="617.2">4 m²</text><polygon fill="#D4EDDA" points="56.0,694.4 238.4,694.4 238.4,420.79999999999995 56.0,420.79999999999995" stroke="#888" stroke-width="1" /><text fill="#333" font-family="Arial, sans-serif" font-size="12" text-anchor="middle" x="147.2" y="557.5999999999999">Salle de Bains</text><text fill="#666" font-family="Arial, sans-serif" font-size="10" text-anchor="middle" x="147.2" y="571.5999999999999">6 m²</text><polygon fill="#EEE" points="785.6,512.0 968.0,512.0 968.0,238.39999999999998 785.6,238.39999999999998" stroke="#888" stroke-width="1" /><text fill="#333" font-family="Arial, sans-serif" font-size="12" text-anchor="middle" x="876.8" y="375.2">North storage</text><text fill="#666" font-family="Arial, sans-serif" font-size="10" text-anchor="middle" x="876.8" y="389.2">6 m²</text><polygon fill="#D5C8E0" points="238.4,466.4 603.2,466.4 603.2,238.39999999999998 238.4,238.39999999999998" stroke="#888" stroke-width="1" /><text fill="#333" font-family="Arial, sans-serif" font-size="12" text-anchor="middle" x="420.8" y="352.4">Master</text><text fill="#666" font-family="Arial, sans-serif" font-size="10" text-anchor="middle" x="420.8" y="366.4">10 m²</text><polygon fill="#E2D5F0" points="603.2,466.4 785.6,466.4 785.6,238.39999999999998 603.2,238.39999999999998" stroke="#888" stroke-width="1" /><text fill="#333" font-family="Arial, sans-serif" font-size="12" text-anchor="middle" x="694.4000000000001" y="352.4">Chambre 2</text><text fill="#666" font-family="Arial, sans-serif" font-size="10" text-anchor="middle" x="694.4000000000001" y="366.4">5 m²</text><polygon fill="#E2D5F0" points="238.4,238.39999999999998 603.2,238.39999999999998 603.2,56.0 238.4,56.0" stroke="#888" stroke-width="1" /><text fill="#333" font-family="Arial, sans-serif" font-size="12" text-anchor="middle" x="420.8" y="147.2">Chambre 3</text><text fill="#666" font-family="Arial, sans-serif" font-size="10" text-anchor="middle" x="420.8" y="161.2">8 m²</text><polygon fill="#F8F9FA" points="603.2,238.39999999999998 968.0,238.39999999999998 968.0,56.0 603.2,56.0" stroke="#888" stroke-width="1" /><text fill="#333" font-family="Arial, sans-serif" font-size="12" text-anchor="middle" x="785.6" y="147.2">Balcon</text><text fill="#666" font-family="Arial, sans-serif" font-size="10" text-anchor="middle" x="785.6" y="161.2">8 m²</text><polygon fill="#F5F5F5" points="56.0,420.79999999999995 238.4,420.79999999999995 238.4,56.0 56.0,56.0" stroke="#888" stroke-width="1" /><text fill="#333" font-family="Arial, sans-serif" font-size="12" text-anchor="middle" x="147.2" y="238.39999999999998">Hall ext</text><text fill="#666" font-family="Arial, sans-serif" font-size="10" text-anchor="middle" x="147.2" y="252.39999999999998">8 m²</text><rect fill="#E66" height="8" stroke="#A00" stroke-width="1" width="8" x="97.6" y="964.0" /><rect fill="#E66" height="8" stroke="#A00" stroke-width="1" width="8" x="234.4" y="827.2" /><rect fill="#E66" height="8" stroke="#A00" stroke-width="1" width="8" x="143.2" y="690.4" /><rect fill="#E66" height="8" stroke="#A00" stroke-width="1" width="8" x="143.2" y="416.79999999999995" /><rect fill="#E66" height="8" stroke="#A00" stroke-width="1" width="8" x="234.4" y="348.4" /><rect fill="#E66" height="8" stroke="#A00" stroke-width="1" width="8" x="234.4" y="143.19999999999993" /><rect fill="#E66" height="8" stroke="#A00" stroke-width="1" width="8" x="781.6" y="827.2" /><rect fill="#E66" height="8" stroke="#A00" stroke-width="1" width="8" x="781.6" y="599.2" /><rect fill="#E66" height="8" stroke="#A00" stroke-width="1" width="8" x="872.8000000000001" y="690.4" /><rect fill="#E66" height="8" stroke="#A00" stroke-width="1" width="8" x="872.8000000000001" y="508.0" /><rect fill="#E66" height="8" stroke="#A00" stroke-width="1" width="8" x="416.8" y="462.4" /><rect fill="#E66" height="8" stroke="#A00" stroke-width="1" width="8" x="690.4" y="462.4" /><rect fill="#E66" height="8" stroke="#A00" stroke-width="1" width="8" x="416.8" y="234.39999999999998" /><rect fill="#E66" height="8" stroke="#A00" stroke-width="1" width="8" x="690.4" y="234.39999999999998" /><rect fill="#E66" height="8" stroke="#A00" stroke-width="1" width="8" x="599.2" y="143.19999999999993" /><rect fill="#E66" height="8" stroke="#A00" stroke-width="1" width="8" x="872.8000000000001" y="234.39999999999998" /><rect fill="#69E" height="6" stroke="#04A" stroke-width="1" width="12" x="506.0" y="965.0" /><rect fill="#69E" height="6" stroke="#04A" stroke-width="1" width="12" x="232.4" y="965.0" /><rect fill="#69E" height="6" stroke="#04A" stroke-width="1" width="12" x="870.8000000000001" y="965.0" /><rect fill="#69E" height="6" stroke="#04A" stroke-width="1" width="12" x="962.0" y="600.2" /><rect fill="#69E" height="6" stroke="#04A" stroke-width="1" width="12" x="414.8" y="235.39999999999998" /><rect fill="#69E" height="6" stroke="#04A" stroke-width="1" width="12" x="688.4" y="235.39999999999998" /><rect fill="#69E" height="6" stroke="#04A" stroke-width="1" width="12" x="414.8" y="53.0" /><rect fill="#69E" height="6" stroke="#04A" stroke-width="1" width="12" x="779.6" y="53.0" /><rect fill="#69E" height="6" stroke="#04A" stroke-width="1" width="12" x="962.0" y="144.19999999999993" /><rect fill="#69E" height="6" stroke="#04A" stroke-width="1" width="12" x="50.0" y="554.5999999999999" /><rect fill="#69E" height="6" stroke="#04A" stroke-width="1" width="12" x="50.0" y="828.2" /><text fill="#444" font-family="Arial, sans-serif" font-size="12" x="40" y="24">eu_fr_3bed_annecy_chalet</text></svg>