<?xml version="1.0" encoding="utf-8" ?>
<svg baseProfile="full" height="1024" version="1.1" viewBox="0 0 1024 1024" width="1024" xmlns="http://www.w3.org/2000/svg" xmlns:ev="http://www.w3.org/2001/xml-events" xmlns:xlink="http://www.w3.org/1999/xlink"><defs /><rect fill="#FAFAFA" height="1024" width="1024" x="0" y="0" /><polygon fill="white" points="56.0,968.0 968.0,968.0 968.0,56.0 56.0,56.0" stroke="#222" stroke-width="3" /><polygon fill="#F5F5F5" points="56.0,968.0 208.0,968.0 208.0,588.0 56.0,588.0" stroke="#888" stroke-width="1" /><text fill="#333" font-family="Arial, sans-serif" font-size="12" text-anchor="middle" x="132.0" y="778.0">Vestibule</text><text fill="#666" font-family="Arial, sans-serif" font-size="10" text-anchor="middle" x="132.0" y="792.0">10 m²</text><polygon fill="#D1ECF1" points="208.0,968.0 588.0,968.0 588.0,588.0 208.0,588.0" stroke="#888" stroke-width="1" /><text fill="#333" font-family="Arial, sans-serif" font-size="12" text-anchor="middle" x="398.0" y="778.0">Stube/Salon</text><text fill="#666" font-family="Arial, sans-serif" font-size="10" text-anchor="middle" x="398.0" y="792.0">25 m²</text><polygon fill="#FFF3CD" points="588.0,968.0 816.0,968.0 816.0,664.0 588.0,664.0" stroke="#888" stroke-width="1" /><text fill="#333" font-family="Arial, sans-serif" font-size="12" text-anchor="middle" x="702.0" y="816.0">Cuisine</text><text fill="#666" font-family="Arial, sans-serif" font-size="10" text-anchor="middle" x="702.0" y="830.0">12 m²</text><polygon fill="#D4EDDA" points="816.0,968.0 968.0,968.0 968.0,816.0 816.0,816.0" stroke="#888" stroke-width="1" /><text fill="#333" font-family="Arial, sans-serif" font-size="12" text-anchor="middle" x="892.0" y="892.0">WC</text><text fill="#666" font-family="Arial, sans-serif" font-size="10" text-anchor="middle" x="892.0" y="906.0">4 m²</text><polygon fill="#EEE" points="816.0,816.0 968.0,816.0 968.0,664.0 816.0,664.0" stroke="#888" stroke-width="1" /><text fill="#333" font-family="Arial, sans-serif" font-size="12" text-anchor="middle" x="892.0" y="740.0">Storage</text><text fill="#666" font-family="Arial, sans-serif" font-size="10" text-anchor="middle" x="892.0" y="754.0">4 m²</text><polygon fill="#EFEFEF" points="588.0,664.0 816.0,664.0 816.0,588.0 588.0,588.0" stroke="#888" stroke-width="1" /><text fill="#333" font-family="Arial, sans-serif" font-size="12" text-anchor="middle" x="702.0" y="626.0">Grenier (attic stairs)</text><text fill="#666" font-family="Arial, sans-serif" font-size="10" text-anchor="middle" x="702.0" y="640.0">3 m²</text><polygon fill="#EEE" points="816.0,664.0 968.0,664.0 968.0,588.0 816.0,588.0" stroke="#888" stroke-width="1" /><text fill="#333" font-family="Arial, sans-serif" font-size="12" text-anchor="middle" x="892.0" y="626.0">Back storage</text><text fill="#666" font-family="Arial, sans-serif" font-size="10" text-anchor="middle" x="892.0" y="640.0">2 m²</text><polygon fill="#D5C8E0" points="56.0,588.0 436.0,588.0 436.0,284.0 56.0,284.0" stroke="#888" stroke-width="1" /><text fill="#333" font-family="Arial, sans-serif" font-size="12" text-anchor="middle" x="246.0" y="436.0">Chambre principale</text><text fill="#666" font-family="Arial, sans-serif" font-size="10" text-anchor="middle" x="246.0" y="450.0">20 m²</text><polygon fill="#E2D5F0" points="436.0,588.0 740.0,588.0 740.0,284.0 436.0,284.0" stroke="#888" stroke-width="1" /><text fill="#333" font-family="Arial, sans-serif" font-size="12" text-anchor="middle" x="588.0" y="436.0">Chambre 2</text><text fill="#666" font-family="Arial, sans-serif" font-size="10" text-anchor="middle" x="588.0" y="450.0">16 m²</text><polygon fill="#D4EDDA" points="740.0,588.0 968.0,588.0 968.0,284.0 740.0,284.0" stroke="#888" stroke-width="1" /><text fill="#333" font-family="Arial, sans-serif" font-size="12" text-anchor="middle" x="854.0" y="436.0">Salle de Bains</text><text fill="#666" font-family="Arial, sans-serif" font-size="10" text-anchor="middle" x="854.0" y="450.0">12 m²</text><polygon fill="#E2D5F0" points="56.0,284.0 512.0,284.0 512.0,56.0 56.0,56.0" stroke="#888" stroke-width="1" /><text fill="#333" font-family="Arial, sans-serif" font-size="12" text-anchor="middle" x="284.0" y="170.0">Chambre 3 (sous comble)</text><text fill="#666" font-family="Arial, sans-serif" font-size="10" text-anchor="middle" x="284.0" y="184.0">18 m²</text><polygon fill="#EEE" points="512.0,284.0 968.0,284.0 968.0,56.0 512.0,56.0" stroke="#888" stroke-width="1" /><text fill="#333" font-family="Arial, sans-serif" font-size="12" text-anchor="middle" x="740.0" y="170.0">Grenier</text><text fill="#666" font-family="Arial, sans-serif" font-size="10" text-anchor="middle" x="740.0" y="184.0">18 m²</text><rect fill="#E66" height="8" stroke="#A00" stroke-width="1" width="8" x="90.0" y="964.0" /><rect fill="#E66" height="8" stroke="#A00" stroke-width="1" width="8" x="204.0" y="774.0" /><rect fill="#E66" height="8" stroke="#A00" stroke-width="1" width="8" x="584.0" y="812.0" /><rect fill="#E66" height="8" stroke="#A00" stroke-width="1" width="8" x="812.0" y="888.0" /><rect fill="#E66" height="8" stroke="#A00" stroke-width="1" width="8" x="812.0" y="736.0" /><rect fill="#E66" height="8" stroke="#A00" stroke-width="1" width="8" x="888.0" y="812.0" /><rect fill="#E66" height="8" stroke="#A00" stroke-width="1" width="8" x="698.0" y="660.0" /><rect fill="#E66" height="8" stroke="#A00" stroke-width="1" width="8" x="888.0" y="660.0" /><rect fill="#E66" height="8" stroke="#A00" stroke-width="1" width="8" x="812.0" y="622.0" /><rect fill="#E66" height="8" stroke="#A00" stroke-width="1" width="8" x="128.0" y="584.0" /><rect fill="#E66" height="8" stroke="#A00" stroke-width="1" width="8" x="318.0" y="584.0" /><rect fill="#E66" height="8" stroke="#A00" stroke-width="1" width="8" x="508.0" y="584.0" /><rect fill="#E66" height="8" stroke="#A00" stroke-width="1" width="8" x="736.0" y="584.0" /><rect fill="#E66" height="8" stroke="#A00" stroke-width="1" width="8" x="736.0" y="432.0" /><rect fill="#E66" height="8" stroke="#A00" stroke-width="1" width="8" x="432.0" y="432.0" /><rect fill="#E66" height="8" stroke="#A00" stroke-width="1" width="8" x="242.0" y="280.0" /><rect fill="#E66" height="8" stroke="#A00" stroke-width="1" width="8" x="622.0" y="280.0" /><rect fill="#E66" height="8" stroke="#A00" stroke-width="1" width="8" x="508.0" y="166.0" /><rect fill="#69E" height="6" stroke="#04A" stroke-width="1" width="12" x="392.0" y="965.0" /><rect fill="#69E" height="6" stroke="#04A" stroke-width="1" width="12" x="696.0" y="965.0" /><rect fill="#69E" height="6" stroke="#04A" stroke-width="1" width="12" x="886.0" y="965.0" /><rect fill="#69E" height="6" stroke="#04A" stroke-width="1" width="12" x="962.0" y="737.0" /><rect fill="#69E" height="6" stroke="#04A" stroke-width="1" width="12" x="50.0" y="433.0" /><rect fill="#69E" height="6" stroke="#04A" stroke-width="1" width="12" x="582.0" y="281.0" /><rect fill="#69E" height="6" stroke="#04A" stroke-width="1" width="12" x="962.0" y="433.0" /><rect fill="#69E" height="6" stroke="#04A" stroke-width="1" width="12" x="278.0" y="53.0" /><rect fill="#69E" height="6" stroke="#04A" stroke-width="1" width="12" x="50.0" y="167.0" /><rect fill="#69E" height="6" stroke="#04A" stroke-width="1" width="12" x="734.0" y="53.0" /><rect fill="#69E" height="6" stroke="#04A" stroke-width="1" width="12" x="962.0" y="167.0" /><rect fill="#69E" height="6" stroke="#04A" stroke-width="1" width="12" x="50.0" y="775.0" /><text fill="#444" font-family="Arial, sans-serif" font-size="12" x="40" y="24">eu_fr_3bed_strasbourg_alsacienne</text></svg>