<?xml version="1.0" encoding="utf-8" ?>
<svg baseProfile="full" height="1024" version="1.1" viewBox="0 0 1024 1024" width="1024" xmlns="http://www.w3.org/2000/svg" xmlns:ev="http://www.w3.org/2001/xml-events" xmlns:xlink="http://www.w3.org/1999/xlink"><defs /><rect fill="#FAFAFA" height="1024" width="1024" x="0" y="0" /><polygon fill="white" points="170.0,968.0 854.0,968.0 854.0,56.0 170.0,56.0" stroke="#222" stroke-width="3" /><polygon fill="#D1ECF1" points="170.0,968.0 740.0,968.0 740.0,455.0 170.0,455.0" stroke="#888" stroke-width="1" /><text fill="#333" font-family="Arial, sans-serif" font-size="12" text-anchor="middle" x="455.0" y="711.5">Séjour-Cuisine</text><text fill="#666" font-family="Arial, sans-serif" font-size="10" text-anchor="middle" x="455.0" y="725.5">22.5 m²</text><polygon fill="#F8F9FA" points="740.0,968.0 854.0,968.0 854.0,56.0 740.0,56.0" stroke="#888" stroke-width="1" /><text fill="#333" font-family="Arial, sans-serif" font-size="12" text-anchor="middle" x="797.0" y="512.0">Terrasse</text><text fill="#666" font-family="Arial, sans-serif" font-size="10" text-anchor="middle" x="797.0" y="526.0">8 m²</text><polygon fill="#D4EDDA" points="170.0,455.0 398.0,455.0 398.0,170.0 170.0,170.0" stroke="#888" stroke-width="1" /><text fill="#333" font-family="Arial, sans-serif" font-size="12" text-anchor="middle" x="284.0" y="312.5">Salle de Bains</text><text fill="#666" font-family="Arial, sans-serif" font-size="10" text-anchor="middle" x="284.0" y="326.5">5 m²</text><polygon fill="#D5C8E0" points="398.0,455.0 740.0,455.0 740.0,56.0 398.0,56.0" stroke="#888" stroke-width="1" /><text fill="#333" font-family="Arial, sans-serif" font-size="12" text-anchor="middle" x="569.0" y="255.5">Chambre</text><text fill="#666" font-family="Arial, sans-serif" font-size="10" text-anchor="middle" x="569.0" y="269.5">10.5 m²</text><polygon fill="#EEE" points="170.0,170.0 398.0,170.0 398.0,56.0 170.0,56.0" stroke="#888" stroke-width="1" /><text fill="#333" font-family="Arial, sans-serif" font-size="12" text-anchor="middle" x="284.0" y="113.0">Closet</text><text fill="#666" font-family="Arial, sans-serif" font-size="10" text-anchor="middle" x="284.0" y="127.0">2 m²</text><rect fill="#E66" height="8" stroke="#A00" stroke-width="1" width="8" x="223.0" y="964.0" /><rect fill="#E66" height="8" stroke="#A00" stroke-width="1" width="8" x="736.0" y="707.5" /><rect fill="#E66" height="8" stroke="#A00" stroke-width="1" width="8" x="280.0" y="451.0" /><rect fill="#E66" height="8" stroke="#A00" stroke-width="1" width="8" x="565.0" y="451.0" /><rect fill="#E66" height="8" stroke="#A00" stroke-width="1" width="8" x="280.0" y="166.0" /><rect fill="#E66" height="8" stroke="#A00" stroke-width="1" width="8" x="736.0" y="280.0" /><rect fill="#69E" height="6" stroke="#04A" stroke-width="1" width="12" x="449.0" y="965.0" /><rect fill="#69E" height="6" stroke="#04A" stroke-width="1" width="12" x="164.0" y="708.5" /><rect fill="#69E" height="6" stroke="#04A" stroke-width="1" width="12" x="563.0" y="53.0" /><rect fill="#69E" height="6" stroke="#04A" stroke-width="1" width="12" x="848.0" y="509.0" /><rect fill="#69E" height="6" stroke="#04A" stroke-width="1" width="12" x="164.0" y="309.5" /><text fill="#444" font-family="Arial, sans-serif" font-size="12" x="40" y="24">eu_fr_studio_marseille_panier</text></svg>