<?xml version="1.0" encoding="utf-8" ?>
<svg baseProfile="full" height="1024" version="1.1" viewBox="0 0 1024 1024" width="1024" xmlns="http://www.w3.org/2000/svg" xmlns:ev="http://www.w3.org/2001/xml-events" xmlns:xlink="http://www.w3.org/1999/xlink"><defs /><rect fill="#FAFAFA" height="1024" width="1024" x="0" y="0" /><polygon fill="white" points="295.0,490.0 729.0,490.0 729.0,56.0 295.0,56.0" stroke="#222" stroke-width="3" /><polygon fill="#F5F5F5" points="295.0,490.0 403.5,490.0 403.5,327.25 295.0,327.25" stroke="#888" stroke-width="1" /><text fill="#333" font-family="Arial, sans-serif" font-size="12" text-anchor="middle" x="349.25" y="408.625">Entrée</text><text fill="#666" font-family="Arial, sans-serif" font-size="10" text-anchor="middle" x="349.25" y="422.625">6 m²</text><polygon fill="#D1ECF1" points="403.5,490.0 674.75,490.0 674.75,245.875 403.5,245.875" stroke="#888" stroke-width="1" /><text fill="#333" font-family="Arial, sans-serif" font-size="12" text-anchor="middle" x="539.125" y="367.9375">Séjour</text><text fill="#666" font-family="Arial, sans-serif" font-size="10" text-anchor="middle" x="539.125" y="381.9375">22.5 m²</text><polygon fill="#FFF3CD" points="295.0,327.25 403.5,327.25 403.5,56.0 295.0,56.0" stroke="#888" stroke-width="1" /><text fill="#333" font-family="Arial, sans-serif" font-size="12" text-anchor="middle" x="349.25" y="191.625">Cuisine ouverte</text><text fill="#666" font-family="Arial, sans-serif" font-size="10" text-anchor="middle" x="349.25" y="205.625">10 m²</text><polygon fill="#E2D5F0" points="403.5,245.875 674.75,245.875 674.75,56.0 403.5,56.0" stroke="#888" stroke-width="1" /><text fill="#333" font-family="Arial, sans-serif" font-size="12" text-anchor="middle" x="539.125" y="150.9375">Chambre RDC</text><text fill="#666" font-family="Arial, sans-serif" font-size="10" text-anchor="middle" x="539.125" y="164.9375">17.5 m²</text><polygon fill="#D4EDDA" points="674.75,490.0 729.0,490.0 729.0,273.0 674.75,273.0" stroke="#888" stroke-width="1" /><text fill="#333" font-family="Arial, sans-serif" font-size="12" text-anchor="middle" x="701.875" y="381.5">Salle de Douche</text><text fill="#666" font-family="Arial, sans-serif" font-size="10" text-anchor="middle" x="701.875" y="395.5">4 m²</text><polygon fill="#D4EDDA" points="674.75,273.0 729.0,273.0 729.0,218.75 674.75,218.75" stroke="#888" stroke-width="1" /><text fill="#333" font-family="Arial, sans-serif" font-size="12" text-anchor="middle" x="701.875" y="245.875">WC</text><text fill="#666" font-family="Arial, sans-serif" font-size="10" text-anchor="middle" x="701.875" y="259.875">1 m²</text><polygon fill="#EFEFEF" points="674.75,218.75 729.0,218.75 729.0,56.0 674.75,56.0" stroke="#888" stroke-width="1" /><text fill="#333" font-family="Arial, sans-serif" font-size="12" text-anchor="middle" x="701.875" y="137.375">Escalier</text><text fill="#666" font-family="Arial, sans-serif" font-size="10" text-anchor="middle" x="701.875" y="151.375">3 m²</text><rect fill="#E66" height="8" stroke="#A00" stroke-width="1" width="8" x="318.125" y="486.0" /><rect fill="#E66" height="8" stroke="#A00" stroke-width="1" width="8" x="399.5" y="404.625" /><rect fill="#E66" height="8" stroke="#A00" stroke-width="1" width="8" x="345.25" y="323.25" /><rect fill="#E66" height="8" stroke="#A00" stroke-width="1" width="8" x="670.75" y="377.5" /><rect fill="#E66" height="8" stroke="#A00" stroke-width="1" width="8" x="697.875" y="269.0" /><rect fill="#E66" height="8" stroke="#A00" stroke-width="1" width="8" x="697.875" y="214.75" /><rect fill="#E66" height="8" stroke="#A00" stroke-width="1" width="8" x="508.0" y="241.875" /><rect fill="#E66" height="8" stroke="#A00" stroke-width="1" width="8" x="399.5" y="160.5" /><rect fill="#E66" height="8" stroke="#A00" stroke-width="1" width="8" x="670.75" y="133.375" /><rect fill="#69E" height="6" stroke="#04A" stroke-width="1" width="12" x="533.125" y="487.0" /><rect fill="#69E" height="6" stroke="#04A" stroke-width="1" width="12" x="723.0" y="378.5" /><rect fill="#69E" height="6" stroke="#04A" stroke-width="1" width="12" x="289.0" y="188.625" /><rect fill="#69E" height="6" stroke="#04A" stroke-width="1" width="12" x="533.125" y="53.0" /><rect fill="#69E" height="6" stroke="#04A" stroke-width="1" width="12" x="668.75" y="53.0" /><rect fill="#69E" height="6" stroke="#04A" stroke-width="1" width="12" x="289.0" y="405.625" /><text fill="#1f4ed8" font-family="Arial, sans-serif" font-size="11" font-weight="bold" x="48" y="58.0">Rez-de-chaussée</text><polygon fill="white" points="264.0,962.0 760.0,962.0 760.0,528.0 264.0,528.0" stroke="#222" stroke-width="3" /><polygon fill="#F5F5F5" points="264.0,962.0 388.0,962.0 388.0,776.0 264.0,776.0" stroke="#888" stroke-width="1" /><text fill="#333" font-family="Arial, sans-serif" font-size="12" text-anchor="middle" x="326.0" y="869.0">Palier</text><text fill="#666" font-family="Arial, sans-serif" font-size="10" text-anchor="middle" x="326.0" y="883.0">6 m²</text><polygon fill="#D5C8E0" points="388.0,962.0 636.0,962.0 636.0,714.0 388.0,714.0" stroke="#888" stroke-width="1" /><text fill="#333" font-family="Arial, sans-serif" font-size="12" text-anchor="middle" x="512.0" y="838.0">Master Bedroom</text><text fill="#666" font-family="Arial, sans-serif" font-size="10" text-anchor="middle" x="512.0" y="852.0">16 m²</text><polygon fill="#EEE" points="636.0,962.0 760.0,962.0 760.0,714.0 636.0,714.0" stroke="#888" stroke-width="1" /><text fill="#333" font-family="Arial, sans-serif" font-size="12" text-anchor="middle" x="698.0" y="838.0">Storage</text><text fill="#666" font-family="Arial, sans-serif" font-size="10" text-anchor="middle" x="698.0" y="852.0">8 m²</text><polygon fill="#F5F5F5" points="264.0,776.0 388.0,776.0 388.0,528.0 264.0,528.0" stroke="#888" stroke-width="1" /><text fill="#333" font-family="Arial, sans-serif" font-size="12" text-anchor="middle" x="326.0" y="652.0">Palier ext</text><text fill="#666" font-family="Arial, sans-serif" font-size="10" text-anchor="middle" x="326.0" y="666.0">8 m²</text><polygon fill="#E2D5F0" points="388.0,714.0 636.0,714.0 636.0,528.0 388.0,528.0" stroke="#888" stroke-width="1" /><text fill="#333" font-family="Arial, sans-serif" font-size="12" text-anchor="middle" x="512.0" y="621.0">Chambre</text><text fill="#666" font-family="Arial, sans-serif" font-size="10" text-anchor="middle" x="512.0" y="635.0">12 m²</text><polygon fill="#D4EDDA" points="636.0,714.0 760.0,714.0 760.0,528.0 636.0,528.0" stroke="#888" stroke-width="1" /><text fill="#333" font-family="Arial, sans-serif" font-size="12" text-anchor="middle" x="698.0" y="621.0">Salle de Bains</text><text fill="#666" font-family="Arial, sans-serif" font-size="10" text-anchor="middle" x="698.0" y="635.0">6 m²</text><rect fill="#E66" height="8" stroke="#A00" stroke-width="1" width="8" x="384.0" y="865.0" /><rect fill="#E66" height="8" stroke="#A00" stroke-width="1" width="8" x="322.0" y="772.0" /><rect fill="#E66" height="8" stroke="#A00" stroke-width="1" width="8" x="632.0" y="834.0" /><rect fill="#E66" height="8" stroke="#A00" stroke-width="1" width="8" x="384.0" y="617.0" /><rect fill="#E66" height="8" stroke="#A00" stroke-width="1" width="8" x="632.0" y="617.0" /><rect fill="#E66" height="8" stroke="#A00" stroke-width="1" width="8" x="508.0" y="710.0" /><rect fill="#69E" height="6" stroke="#04A" stroke-width="1" width="12" x="506.0" y="959.0" /><rect fill="#69E" height="6" stroke="#04A" stroke-width="1" width="12" x="692.0" y="959.0" /><rect fill="#69E" height="6" stroke="#04A" stroke-width="1" width="12" x="754.0" y="835.0" /><rect fill="#69E" height="6" stroke="#04A" stroke-width="1" width="12" x="506.0" y="525.0" /><rect fill="#69E" height="6" stroke="#04A" stroke-width="1" width="12" x="754.0" y="618.0" /><rect fill="#69E" height="6" stroke="#04A" stroke-width="1" width="12" x="258.0" y="866.0" /><rect fill="#69E" height="6" stroke="#04A" stroke-width="1" width="12" x="258.0" y="649.0" /><text fill="#1f4ed8" font-family="Arial, sans-serif" font-size="11" font-weight="bold" x="48" y="530.0">Premier étage</text><text fill="#444" font-family="Arial, sans-serif" font-size="12" x="40" y="24">eu_fr_3pieces_bordeaux_echoppe_etage</text></svg>