<?xml version="1.0" encoding="utf-8" ?>
<svg baseProfile="full" height="1024" version="1.1" viewBox="0 0 1024 1024" width="1024" xmlns="http://www.w3.org/2000/svg" xmlns:ev="http://www.w3.org/2001/xml-events" xmlns:xlink="http://www.w3.org/1999/xlink"><defs /><rect fill="#FAFAFA" height="1024" width="1024" x="0" y="0" /><polygon fill="white" points="221.8181818181818,968.0 802.1818181818182,968.0 802.1818181818182,56.0 221.8181818181818,56.0" stroke="#222" stroke-width="3" /><polygon fill="#D1ECF1" points="221.8181818181818,968.0 802.1818181818182,968.0 802.1818181818182,594.909090909091 221.8181818181818,594.909090909091" stroke="#888" stroke-width="1" /><text fill="#333" font-family="Arial, sans-serif" font-size="12" text-anchor="middle" x="512.0" y="781.4545454545455">Séjour traversant</text><text fill="#666" font-family="Arial, sans-serif" font-size="10" text-anchor="middle" x="512.0" y="795.4545454545455">31.5 m²</text><polygon fill="#FFF3CD" points="221.8181818181818,594.909090909091 470.5454545454545,594.909090909091 470.5454545454545,387.6363636363636 221.8181818181818,387.6363636363636" stroke="#888" stroke-width="1" /><text fill="#333" font-family="Arial, sans-serif" font-size="12" text-anchor="middle" x="346.18181818181813" y="491.2727272727273">Cuisine ouverte</text><text fill="#666" font-family="Arial, sans-serif" font-size="10" text-anchor="middle" x="346.18181818181813" y="505.2727272727273">7.5 m²</text><polygon fill="#D4EDDA" points="470.5454545454545,594.909090909091 636.3636363636363,594.909090909091 636.3636363636363,512.0 470.5454545454545,512.0" stroke="#888" stroke-width="1" /><text fill="#333" font-family="Arial, sans-serif" font-size="12" text-anchor="middle" x="553.4545454545454" y="553.4545454545455">WC</text><text fill="#666" font-family="Arial, sans-serif" font-size="10" text-anchor="middle" x="553.4545454545454" y="567.4545454545455">2 m²</text><polygon fill="#D4EDDA" points="470.5454545454545,512.0 636.3636363636363,512.0 636.3636363636363,304.72727272727275 470.5454545454545,304.72727272727275" stroke="#888" stroke-width="1" /><text fill="#333" font-family="Arial, sans-serif" font-size="12" text-anchor="middle" x="553.4545454545454" y="408.3636363636364">Salle de Bains</text><text fill="#666" font-family="Arial, sans-serif" font-size="10" text-anchor="middle" x="553.4545454545454" y="422.3636363636364">5 m²</text><polygon fill="#EEE" points="636.3636363636363,594.909090909091 802.1818181818182,594.909090909091 802.1818181818182,304.72727272727275 636.3636363636363,304.72727272727275" stroke="#888" stroke-width="1" /><text fill="#333" font-family="Arial, sans-serif" font-size="12" text-anchor="middle" x="719.2727272727273" y="449.81818181818187">Alcove rangement</text><text fill="#666" font-family="Arial, sans-serif" font-size="10" text-anchor="middle" x="719.2727272727273" y="463.81818181818187">7 m²</text><polygon fill="#D5C8E0" points="221.8181818181818,387.6363636363636 470.5454545454545,387.6363636363636 470.5454545454545,56.0 221.8181818181818,56.0" stroke="#888" stroke-width="1" /><text fill="#333" font-family="Arial, sans-serif" font-size="12" text-anchor="middle" x="346.18181818181813" y="221.8181818181818">Chambre principale</text><text fill="#666" font-family="Arial, sans-serif" font-size="10" text-anchor="middle" x="346.18181818181813" y="235.8181818181818">12 m²</text><polygon fill="#F5F5F5" points="470.5454545454545,304.72727272727275 636.3636363636363,304.72727272727275 636.3636363636363,56.0 470.5454545454545,56.0" stroke="#888" stroke-width="1" /><text fill="#333" font-family="Arial, sans-serif" font-size="12" text-anchor="middle" x="553.4545454545454" y="180.36363636363637">Hallway</text><text fill="#666" font-family="Arial, sans-serif" font-size="10" text-anchor="middle" x="553.4545454545454" y="194.36363636363637">6 m²</text><polygon fill="#E2D5F0" points="636.3636363636363,304.72727272727275 802.1818181818182,304.72727272727275 802.1818181818182,56.0 636.3636363636363,56.0" stroke="#888" stroke-width="1" /><text fill="#333" font-family="Arial, sans-serif" font-size="12" text-anchor="middle" x="719.2727272727273" y="180.36363636363637">Chambre 2</text><text fill="#666" font-family="Arial, sans-serif" font-size="10" text-anchor="middle" x="719.2727272727273" y="194.36363636363637">6 m²</text><rect fill="#E66" height="8" stroke="#A00" stroke-width="1" width="8" x="259.27272727272725" y="964.0" /><rect fill="#E66" height="8" stroke="#A00" stroke-width="1" width="8" x="342.1818181818182" y="590.909090909091" /><rect fill="#E66" height="8" stroke="#A00" stroke-width="1" width="8" x="549.4545454545455" y="590.909090909091" /><rect fill="#E66" height="8" stroke="#A00" stroke-width="1" width="8" x="715.2727272727273" y="590.909090909091" /><rect fill="#E66" height="8" stroke="#A00" stroke-width="1" width="8" x="549.4545454545455" y="508.0" /><rect fill="#E66" height="8" stroke="#A00" stroke-width="1" width="8" x="342.1818181818182" y="383.6363636363636" /><rect fill="#E66" height="8" stroke="#A00" stroke-width="1" width="8" x="549.4545454545455" y="300.72727272727275" /><rect fill="#E66" height="8" stroke="#A00" stroke-width="1" width="8" x="715.2727272727273" y="300.72727272727275" /><rect fill="#E66" height="8" stroke="#A00" stroke-width="1" width="8" x="466.5454545454545" y="176.36363636363637" /><rect fill="#E66" height="8" stroke="#A00" stroke-width="1" width="8" x="632.3636363636363" y="176.36363636363637" /><rect fill="#69E" height="6" stroke="#04A" stroke-width="1" width="12" x="340.1818181818182" y="965.0" /><rect fill="#69E" height="6" stroke="#04A" stroke-width="1" width="12" x="506.0" y="965.0" /><rect fill="#69E" height="6" stroke="#04A" stroke-width="1" width="12" x="671.8181818181818" y="965.0" /><rect fill="#69E" height="6" stroke="#04A" stroke-width="1" width="12" x="215.8181818181818" y="488.2727272727273" /><rect fill="#69E" height="6" stroke="#04A" stroke-width="1" width="12" x="340.1818181818182" y="53.0" /><rect fill="#69E" height="6" stroke="#04A" stroke-width="1" width="12" x="215.8181818181818" y="218.81818181818187" /><rect fill="#69E" height="6" stroke="#04A" stroke-width="1" width="12" x="713.2727272727273" y="53.0" /><rect fill="#69E" height="6" stroke="#04A" stroke-width="1" width="12" x="796.1818181818182" y="177.36363636363637" /><text fill="#444" font-family="Arial, sans-serif" font-size="12" x="40" y="24">eu_fr_2bed_marseille_trois_fenetres</text></svg>