<?xml version="1.0" encoding="utf-8" ?>
<svg baseProfile="full" height="1024" version="1.1" viewBox="0 0 1024 1024" width="1024" xmlns="http://www.w3.org/2000/svg" xmlns:ev="http://www.w3.org/2001/xml-events" xmlns:xlink="http://www.w3.org/1999/xlink"><defs /><rect fill="#FAFAFA" height="1024" width="1024" x="0" y="0" /><polygon fill="white" points="106.66666666666669,968.0 917.3333333333333,968.0 917.3333333333333,56.0 106.66666666666669,56.0" stroke="#222" stroke-width="3" /><polygon fill="#F5F5F5" points="106.66666666666669,968.0 309.33333333333337,968.0 309.33333333333337,664.0 106.66666666666669,664.0" stroke="#888" stroke-width="1" /><text fill="#333" font-family="Arial, sans-serif" font-size="12" text-anchor="middle" x="208.00000000000003" y="816.0">Entrée</text><text fill="#666" font-family="Arial, sans-serif" font-size="10" text-anchor="middle" x="208.00000000000003" y="830.0">6 m²</text><polygon fill="#D1ECF1" points="309.33333333333337,968.0 714.6666666666667,968.0 714.6666666666667,461.33333333333337 309.33333333333337,461.33333333333337" stroke="#888" stroke-width="1" /><text fill="#333" font-family="Arial, sans-serif" font-size="12" text-anchor="middle" x="512.0" y="714.6666666666667">Séjour</text><text fill="#666" font-family="Arial, sans-serif" font-size="10" text-anchor="middle" x="512.0" y="728.6666666666667">20 m²</text><polygon fill="#FFF3CD" points="714.6666666666667,968.0 917.3333333333333,968.0 917.3333333333333,562.6666666666667 714.6666666666667,562.6666666666667" stroke="#888" stroke-width="1" /><text fill="#333" font-family="Arial, sans-serif" font-size="12" text-anchor="middle" x="816.0" y="765.3333333333334">Cuisine ouverte</text><text fill="#666" font-family="Arial, sans-serif" font-size="10" text-anchor="middle" x="816.0" y="779.3333333333334">8 m²</text><polygon fill="#D4EDDA" points="106.66666666666669,664.0 309.33333333333337,664.0 309.33333333333337,461.33333333333337 106.66666666666669,461.33333333333337" stroke="#888" stroke-width="1" /><text fill="#333" font-family="Arial, sans-serif" font-size="12" text-anchor="middle" x="208.00000000000003" y="562.6666666666667">WC</text><text fill="#666" font-family="Arial, sans-serif" font-size="10" text-anchor="middle" x="208.00000000000003" y="576.6666666666667">4 m²</text><polygon fill="#EEE" points="714.6666666666667,562.6666666666667 917.3333333333333,562.6666666666667 917.3333333333333,461.33333333333337 714.6666666666667,461.33333333333337" stroke="#888" stroke-width="1" /><text fill="#333" font-family="Arial, sans-serif" font-size="12" text-anchor="middle" x="816.0" y="512.0">Storage</text><text fill="#666" font-family="Arial, sans-serif" font-size="10" text-anchor="middle" x="816.0" y="526.0">2 m²</text><polygon fill="#D4EDDA" points="106.66666666666669,461.33333333333337 309.33333333333337,461.33333333333337 309.33333333333337,157.33333333333337 106.66666666666669,157.33333333333337" stroke="#888" stroke-width="1" /><text fill="#333" font-family="Arial, sans-serif" font-size="12" text-anchor="middle" x="208.00000000000003" y="309.33333333333337">Salle de Bains</text><text fill="#666" font-family="Arial, sans-serif" font-size="10" text-anchor="middle" x="208.00000000000003" y="323.33333333333337">6 m²</text><polygon fill="#D5C8E0" points="309.33333333333337,461.33333333333337 613.3333333333333,461.33333333333337 613.3333333333333,157.33333333333337 309.33333333333337,157.33333333333337" stroke="#888" stroke-width="1" /><text fill="#333" font-family="Arial, sans-serif" font-size="12" text-anchor="middle" x="461.3333333333333" y="309.33333333333337">Chambre 1</text><text fill="#666" font-family="Arial, sans-serif" font-size="10" text-anchor="middle" x="461.3333333333333" y="323.33333333333337">9 m²</text><polygon fill="#E2D5F0" points="613.3333333333333,461.33333333333337 917.3333333333333,461.33333333333337 917.3333333333333,157.33333333333337 613.3333333333333,157.33333333333337" stroke="#888" stroke-width="1" /><text fill="#333" font-family="Arial, sans-serif" font-size="12" text-anchor="middle" x="765.3333333333333" y="309.33333333333337">Chambre 2</text><text fill="#666" font-family="Arial, sans-serif" font-size="10" text-anchor="middle" x="765.3333333333333" y="323.33333333333337">9 m²</text><polygon fill="#F8F9FA" points="106.66666666666669,157.33333333333337 917.3333333333333,157.33333333333337 917.3333333333333,56.0 106.66666666666669,56.0" stroke="#888" stroke-width="1" /><text fill="#333" font-family="Arial, sans-serif" font-size="12" text-anchor="middle" x="512.0" y="106.66666666666669">Balcon</text><text fill="#666" font-family="Arial, sans-serif" font-size="10" text-anchor="middle" x="512.0" y="120.66666666666669">8 m²</text><rect fill="#E66" height="8" stroke="#A00" stroke-width="1" width="8" x="153.33333333333334" y="964.0" /><rect fill="#E66" height="8" stroke="#A00" stroke-width="1" width="8" x="305.33333333333337" y="812.0" /><rect fill="#E66" height="8" stroke="#A00" stroke-width="1" width="8" x="204.0" y="660.0" /><rect fill="#E66" height="8" stroke="#A00" stroke-width="1" width="8" x="710.6666666666667" y="761.3333333333334" /><rect fill="#E66" height="8" stroke="#A00" stroke-width="1" width="8" x="812.0" y="558.6666666666667" /><rect fill="#E66" height="8" stroke="#A00" stroke-width="1" width="8" x="204.0" y="457.33333333333337" /><rect fill="#E66" height="8" stroke="#A00" stroke-width="1" width="8" x="457.3333333333333" y="457.33333333333337" /><rect fill="#E66" height="8" stroke="#A00" stroke-width="1" width="8" x="660.0" y="457.33333333333337" /><rect fill="#E66" height="8" stroke="#A00" stroke-width="1" width="8" x="812.0" y="457.33333333333337" /><rect fill="#E66" height="8" stroke="#A00" stroke-width="1" width="8" x="609.3333333333333" y="305.33333333333337" /><rect fill="#E66" height="8" stroke="#A00" stroke-width="1" width="8" x="305.33333333333337" y="305.33333333333337" /><rect fill="#E66" height="8" stroke="#A00" stroke-width="1" width="8" x="204.0" y="153.33333333333337" /><rect fill="#E66" height="8" stroke="#A00" stroke-width="1" width="8" x="457.3333333333333" y="153.33333333333337" /><rect fill="#E66" height="8" stroke="#A00" stroke-width="1" width="8" x="761.3333333333333" y="153.33333333333337" /><rect fill="#69E" height="6" stroke="#04A" stroke-width="1" width="12" x="506.0" y="965.0" /><rect fill="#69E" height="6" stroke="#04A" stroke-width="1" width="12" x="810.0" y="965.0" /><rect fill="#69E" height="6" stroke="#04A" stroke-width="1" width="12" x="911.3333333333333" y="762.3333333333334" /><rect fill="#69E" height="6" stroke="#04A" stroke-width="1" width="12" x="455.3333333333333" y="154.33333333333337" /><rect fill="#69E" height="6" stroke="#04A" stroke-width="1" width="12" x="759.3333333333333" y="154.33333333333337" /><rect fill="#69E" height="6" stroke="#04A" stroke-width="1" width="12" x="911.3333333333333" y="306.33333333333337" /><rect fill="#69E" height="6" stroke="#04A" stroke-width="1" width="12" x="506.0" y="53.0" /><rect fill="#69E" height="6" stroke="#04A" stroke-width="1" width="12" x="100.66666666666669" y="306.33333333333337" /><rect fill="#69E" height="6" stroke="#04A" stroke-width="1" width="12" x="100.66666666666669" y="813.0" /><text fill="#444" font-family="Arial, sans-serif" font-size="12" x="40" y="24">eu_fr_2pieces_toulouse</text></svg>