<?xml version="1.0" encoding="utf-8" ?>
<svg baseProfile="full" height="1024" version="1.1" viewBox="0 0 1024 1024" width="1024" xmlns="http://www.w3.org/2000/svg" xmlns:ev="http://www.w3.org/2001/xml-events" xmlns:xlink="http://www.w3.org/1999/xlink"><defs /><rect fill="#FAFAFA" height="1024" width="1024" x="0" y="0" /><polygon fill="white" points="56.0,922.4000000000001 968.0,922.4000000000001 968.0,101.60000000000002 56.0,101.60000000000002" stroke="#222" stroke-width="3" /><polygon fill="#D1ECF1" points="56.0,922.4000000000001 512.0,922.4000000000001 512.0,466.4000000000001 56.0,466.4000000000001" stroke="#888" stroke-width="1" /><text fill="#333" font-family="Arial, sans-serif" font-size="12" text-anchor="middle" x="284.0" y="694.4000000000001">Salon</text><text fill="#666" font-family="Arial, sans-serif" font-size="10" text-anchor="middle" x="284.0" y="708.4000000000001">25 m²</text><polygon fill="#FFE5E5" points="512.0,922.4000000000001 831.2,922.4000000000001 831.2,466.4000000000001 512.0,466.4000000000001" stroke="#888" stroke-width="1" /><text fill="#333" font-family="Arial, sans-serif" font-size="12" text-anchor="middle" x="671.6" y="694.4000000000001">Salle à manger</text><text fill="#666" font-family="Arial, sans-serif" font-size="10" text-anchor="middle" x="671.6" y="708.4000000000001">17.5 m²</text><polygon fill="#FFF3CD" points="831.2,922.4000000000001 968.0,922.4000000000001 968.0,466.4000000000001 831.2,466.4000000000001" stroke="#888" stroke-width="1" /><text fill="#333" font-family="Arial, sans-serif" font-size="12" text-anchor="middle" x="899.6" y="694.4000000000001">Cuisine</text><text fill="#666" font-family="Arial, sans-serif" font-size="10" text-anchor="middle" x="899.6" y="708.4000000000001">7.5 m²</text><polygon fill="#F5F5F5" points="56.0,466.4000000000001 284.0,466.4000000000001 284.0,284.0000000000001 56.0,284.0000000000001" stroke="#888" stroke-width="1" /><text fill="#333" font-family="Arial, sans-serif" font-size="12" text-anchor="middle" x="170.0" y="375.2000000000001">Entrée</text><text fill="#666" font-family="Arial, sans-serif" font-size="10" text-anchor="middle" x="170.0" y="389.2000000000001">5 m²</text><polygon fill="#D5C8E0" points="284.0,466.4000000000001 603.2,466.4000000000001 603.2,101.60000000000002 284.0,101.60000000000002" stroke="#888" stroke-width="1" /><text fill="#333" font-family="Arial, sans-serif" font-size="12" text-anchor="middle" x="443.6" y="284.00000000000006">Chambre principale</text><text fill="#666" font-family="Arial, sans-serif" font-size="10" text-anchor="middle" x="443.6" y="298.00000000000006">14 m²</text><polygon fill="#E2D5F0" points="603.2,466.4000000000001 968.0,466.4000000000001 968.0,101.60000000000002 603.2,101.60000000000002" stroke="#888" stroke-width="1" /><text fill="#333" font-family="Arial, sans-serif" font-size="12" text-anchor="middle" x="785.6" y="284.00000000000006">Chambre</text><text fill="#666" font-family="Arial, sans-serif" font-size="10" text-anchor="middle" x="785.6" y="298.00000000000006">16 m²</text><polygon fill="#D4EDDA" points="56.0,284.0000000000001 284.0,284.0000000000001 284.0,147.20000000000005 56.0,147.20000000000005" stroke="#888" stroke-width="1" /><text fill="#333" font-family="Arial, sans-serif" font-size="12" text-anchor="middle" x="170.0" y="215.60000000000008">Salle de bains</text><text fill="#666" font-family="Arial, sans-serif" font-size="10" text-anchor="middle" x="170.0" y="229.60000000000008">3.75 m²</text><polygon fill="#D4EDDA" points="56.0,147.20000000000005 284.0,147.20000000000005 284.0,101.60000000000002 56.0,101.60000000000002" stroke="#888" stroke-width="1" /><text fill="#333" font-family="Arial, sans-serif" font-size="12" text-anchor="middle" x="170.0" y="124.40000000000003">WC</text><text fill="#666" font-family="Arial, sans-serif" font-size="10" text-anchor="middle" x="170.0" y="138.40000000000003">1.25 m²</text><rect fill="#E66" height="8" stroke="#A00" stroke-width="1" width="8" x="52.0" y="371.20000000000005" /><rect fill="#E66" height="8" stroke="#A00" stroke-width="1" width="8" x="166.0" y="462.4000000000001" /><rect fill="#E66" height="8" stroke="#A00" stroke-width="1" width="8" x="280.0" y="371.20000000000005" /><rect fill="#E66" height="8" stroke="#A00" stroke-width="1" width="8" x="166.0" y="280.0000000000001" /><rect fill="#E66" height="8" stroke="#A00" stroke-width="1" width="8" x="166.0" y="143.20000000000005" /><rect fill="#E66" height="8" stroke="#A00" stroke-width="1" width="8" x="508.0" y="690.4000000000001" /><rect fill="#E66" height="8" stroke="#A00" stroke-width="1" width="8" x="827.2" y="690.4000000000001" /><rect fill="#E66" height="8" stroke="#A00" stroke-width="1" width="8" x="599.2" y="280.0000000000001" /><rect fill="#69E" height="6" stroke="#04A" stroke-width="1" width="12" x="278.0" y="919.4000000000001" /><rect fill="#69E" height="6" stroke="#04A" stroke-width="1" width="12" x="50.0" y="691.4000000000001" /><rect fill="#69E" height="6" stroke="#04A" stroke-width="1" width="12" x="665.6" y="919.4000000000001" /><rect fill="#69E" height="6" stroke="#04A" stroke-width="1" width="12" x="893.6" y="919.4000000000001" /><rect fill="#69E" height="6" stroke="#04A" stroke-width="1" width="12" x="962.0" y="691.4000000000001" /><rect fill="#69E" height="6" stroke="#04A" stroke-width="1" width="12" x="437.6" y="98.60000000000002" /><rect fill="#69E" height="6" stroke="#04A" stroke-width="1" width="12" x="779.6" y="98.60000000000002" /><rect fill="#69E" height="6" stroke="#04A" stroke-width="1" width="12" x="962.0" y="281.0000000000001" /><text fill="#444" font-family="Arial, sans-serif" font-size="12" x="40" y="24">eu_fr_3pieces_paris_haussmannien</text></svg>