<?xml version="1.0" encoding="utf-8" ?>
<svg baseProfile="full" height="1024" version="1.1" viewBox="0 0 1024 1024" width="1024" xmlns="http://www.w3.org/2000/svg" xmlns:ev="http://www.w3.org/2001/xml-events" xmlns:xlink="http://www.w3.org/1999/xlink"><defs /><rect fill="#FAFAFA" height="1024" width="1024" x="0" y="0" /><polygon fill="white" points="56.0,968.0 968.0,968.0 968.0,56.0 56.0,56.0" stroke="#222" stroke-width="3" /><polygon fill="#F5F5F5" points="56.0,968.0 186.28571428571428,968.0 186.28571428571428,642.2857142857143 56.0,642.2857142857143" stroke="#888" stroke-width="1" /><text fill="#333" font-family="Arial, sans-serif" font-size="12" text-anchor="middle" x="121.14285714285714" y="805.1428571428571">Hall</text><text fill="#666" font-family="Arial, sans-serif" font-size="10" text-anchor="middle" x="121.14285714285714" y="819.1428571428571">10 m²</text><polygon fill="#D1ECF1" points="186.28571428571428,968.0 642.2857142857142,968.0 642.2857142857142,577.1428571428571 186.28571428571428,577.1428571428571" stroke="#888" stroke-width="1" /><text fill="#333" font-family="Arial, sans-serif" font-size="12" text-anchor="middle" x="414.2857142857142" y="772.5714285714286">Drawing Room</text><text fill="#666" font-family="Arial, sans-serif" font-size="10" text-anchor="middle" x="414.2857142857142" y="786.5714285714286">42 m²</text><polygon fill="#FFE5E5" points="642.2857142857142,968.0 968.0,968.0 968.0,642.2857142857143 642.2857142857142,642.2857142857143" stroke="#888" stroke-width="1" /><text fill="#333" font-family="Arial, sans-serif" font-size="12" text-anchor="middle" x="805.1428571428571" y="805.1428571428571">Dining Room</text><text fill="#666" font-family="Arial, sans-serif" font-size="10" text-anchor="middle" x="805.1428571428571" y="819.1428571428571">25 m²</text><polygon fill="#D1ECF1" points="642.2857142857142,642.2857142857143 968.0,642.2857142857143 968.0,381.7142857142858 642.2857142857142,381.7142857142858" stroke="#888" stroke-width="1" /><text fill="#333" font-family="Arial, sans-serif" font-size="12" text-anchor="middle" x="805.1428571428571" y="512.0">Morning Room</text><text fill="#666" font-family="Arial, sans-serif" font-size="10" text-anchor="middle" x="805.1428571428571" y="526.0">20 m²</text><polygon fill="#FFF3CD" points="186.28571428571428,577.1428571428571 512.0,577.1428571428571 512.0,381.7142857142858 186.28571428571428,381.7142857142858" stroke="#888" stroke-width="1" /><text fill="#333" font-family="Arial, sans-serif" font-size="12" text-anchor="middle" x="349.1428571428571" y="479.42857142857144">Kitchen</text><text fill="#666" font-family="Arial, sans-serif" font-size="10" text-anchor="middle" x="349.1428571428571" y="493.42857142857144">15 m²</text><polygon fill="#E0E0E0" points="512.0,577.1428571428571 642.2857142857142,577.1428571428571 642.2857142857142,381.7142857142858 512.0,381.7142857142858" stroke="#888" stroke-width="1" /><text fill="#333" font-family="Arial, sans-serif" font-size="12" text-anchor="middle" x="577.1428571428571" y="479.42857142857144">Scullery</text><text fill="#666" font-family="Arial, sans-serif" font-size="10" text-anchor="middle" x="577.1428571428571" y="493.42857142857144">6 m²</text><polygon fill="#D4EDDA" points="56.0,642.2857142857143 186.28571428571428,642.2857142857143 186.28571428571428,512.0 56.0,512.0" stroke="#888" stroke-width="1" /><text fill="#333" font-family="Arial, sans-serif" font-size="12" text-anchor="middle" x="121.14285714285714" y="577.1428571428571">WC</text><text fill="#666" font-family="Arial, sans-serif" font-size="10" text-anchor="middle" x="121.14285714285714" y="591.1428571428571">4 m²</text><polygon fill="#F5F5F5" points="56.0,512.0 186.28571428571428,512.0 186.28571428571428,251.42857142857144 56.0,251.42857142857144" stroke="#888" stroke-width="1" /><text fill="#333" font-family="Arial, sans-serif" font-size="12" text-anchor="middle" x="121.14285714285714" y="381.7142857142857">Back Hall</text><text fill="#666" font-family="Arial, sans-serif" font-size="10" text-anchor="middle" x="121.14285714285714" y="395.7142857142857">8 m²</text><polygon fill="#D5C8E0" points="186.28571428571428,381.7142857142858 512.0,381.7142857142858 512.0,121.14285714285722 186.28571428571428,121.14285714285722" stroke="#888" stroke-width="1" /><text fill="#333" font-family="Arial, sans-serif" font-size="12" text-anchor="middle" x="349.1428571428571" y="251.4285714285715">Master Bedroom</text><text fill="#666" font-family="Arial, sans-serif" font-size="10" text-anchor="middle" x="349.1428571428571" y="265.4285714285715">20 m²</text><polygon fill="#D4EDDA" points="512.0,381.7142857142858 642.2857142857142,381.7142857142858 642.2857142857142,186.28571428571433 512.0,186.28571428571433" stroke="#888" stroke-width="1" /><text fill="#333" font-family="Arial, sans-serif" font-size="12" text-anchor="middle" x="577.1428571428571" y="284.00000000000006">Master Ensuite</text><text fill="#666" font-family="Arial, sans-serif" font-size="10" text-anchor="middle" x="577.1428571428571" y="298.00000000000006">6 m²</text><polygon fill="#E2D5F0" points="642.2857142857142,381.7142857142858 968.0,381.7142857142858 968.0,186.28571428571433 642.2857142857142,186.28571428571433" stroke="#888" stroke-width="1" /><text fill="#333" font-family="Arial, sans-serif" font-size="12" text-anchor="middle" x="805.1428571428571" y="284.00000000000006">Bedroom 2</text><text fill="#666" font-family="Arial, sans-serif" font-size="10" text-anchor="middle" x="805.1428571428571" y="298.00000000000006">15 m²</text><polygon fill="#D4EDDA" points="512.0,186.28571428571433 707.4285714285713,186.28571428571433 707.4285714285713,56.0 512.0,56.0" stroke="#888" stroke-width="1" /><text fill="#333" font-family="Arial, sans-serif" font-size="12" text-anchor="middle" x="609.7142857142857" y="121.14285714285717">Family Bath</text><text fill="#666" font-family="Arial, sans-serif" font-size="10" text-anchor="middle" x="609.7142857142857" y="135.14285714285717">6 m²</text><polygon fill="#E2D5F0" points="707.4285714285713,186.28571428571433 968.0,186.28571428571433 968.0,56.0 707.4285714285713,56.0" stroke="#888" stroke-width="1" /><text fill="#333" font-family="Arial, sans-serif" font-size="12" text-anchor="middle" x="837.7142857142857" y="121.14285714285717">Bedroom 3</text><text fill="#666" font-family="Arial, sans-serif" font-size="10" text-anchor="middle" x="837.7142857142857" y="135.14285714285717">8 m²</text><polygon fill="#E2D5F0" points="56.0,251.42857142857144 186.28571428571428,251.42857142857144 186.28571428571428,56.0 56.0,56.0" stroke="#888" stroke-width="1" /><text fill="#333" font-family="Arial, sans-serif" font-size="12" text-anchor="middle" x="121.14285714285714" y="153.71428571428572">Bedroom 4</text><text fill="#666" font-family="Arial, sans-serif" font-size="10" text-anchor="middle" x="121.14285714285714" y="167.71428571428572">6 m²</text><polygon fill="#E2D5F0" points="186.28571428571428,121.14285714285722 512.0,121.14285714285722 512.0,56.0 186.28571428571428,56.0" stroke="#888" stroke-width="1" /><text fill="#333" font-family="Arial, sans-serif" font-size="12" text-anchor="middle" x="349.1428571428571" y="88.57142857142861">Bedroom Attic</text><text fill="#666" font-family="Arial, sans-serif" font-size="10" text-anchor="middle" x="349.1428571428571" y="102.57142857142861">5 m²</text><rect fill="#E66" height="8" stroke="#A00" stroke-width="1" width="8" x="84.57142857142857" y="964.0" /><rect fill="#E66" height="8" stroke="#A00" stroke-width="1" width="8" x="182.28571428571428" y="801.1428571428571" /><rect fill="#E66" height="8" stroke="#A00" stroke-width="1" width="8" x="638.2857142857142" y="768.5714285714286" /><rect fill="#E66" height="8" stroke="#A00" stroke-width="1" width="8" x="801.1428571428571" y="638.2857142857143" /><rect fill="#E66" height="8" stroke="#A00" stroke-width="1" width="8" x="312.57142857142856" y="573.1428571428571" /><rect fill="#E66" height="8" stroke="#A00" stroke-width="1" width="8" x="573.1428571428571" y="573.1428571428571" /><rect fill="#E66" height="8" stroke="#A00" stroke-width="1" width="8" x="508.0" y="475.42857142857144" /><rect fill="#E66" height="8" stroke="#A00" stroke-width="1" width="8" x="638.2857142857142" y="508.0" /><rect fill="#E66" height="8" stroke="#A00" stroke-width="1" width="8" x="117.14285714285714" y="638.2857142857143" /><rect fill="#E66" height="8" stroke="#A00" stroke-width="1" width="8" x="117.14285714285714" y="508.0" /><rect fill="#E66" height="8" stroke="#A00" stroke-width="1" width="8" x="312.57142857142856" y="377.7142857142858" /><rect fill="#E66" height="8" stroke="#A00" stroke-width="1" width="8" x="182.28571428571428" y="247.42857142857144" /><rect fill="#E66" height="8" stroke="#A00" stroke-width="1" width="8" x="508.0" y="280.0" /><rect fill="#E66" height="8" stroke="#A00" stroke-width="1" width="8" x="801.1428571428571" y="377.7142857142858" /><rect fill="#E66" height="8" stroke="#A00" stroke-width="1" width="8" x="638.2857142857142" y="280.0" /><rect fill="#E66" height="8" stroke="#A00" stroke-width="1" width="8" x="508.0" y="149.71428571428578" /><rect fill="#E66" height="8" stroke="#A00" stroke-width="1" width="8" x="670.8571428571428" y="182.28571428571433" /><rect fill="#E66" height="8" stroke="#A00" stroke-width="1" width="8" x="703.4285714285713" y="117.14285714285722" /><rect fill="#E66" height="8" stroke="#A00" stroke-width="1" width="8" x="117.14285714285714" y="247.42857142857144" /><rect fill="#E66" height="8" stroke="#A00" stroke-width="1" width="8" x="345.1428571428571" y="117.14285714285722" /><rect fill="#E66" height="8" stroke="#A00" stroke-width="1" width="8" x="182.28571428571428" y="84.57142857142867" /><rect fill="#69E" height="6" stroke="#04A" stroke-width="1" width="12" x="408.2857142857143" y="965.0" /><rect fill="#69E" height="6" stroke="#04A" stroke-width="1" width="12" x="799.1428571428571" y="965.0" /><rect fill="#69E" height="6" stroke="#04A" stroke-width="1" width="12" x="962.0" y="802.1428571428571" /><rect fill="#69E" height="6" stroke="#04A" stroke-width="1" width="12" x="962.0" y="509.0" /><rect fill="#69E" height="6" stroke="#04A" stroke-width="1" width="12" x="343.1428571428571" y="118.14285714285722" /><rect fill="#69E" height="6" stroke="#04A" stroke-width="1" width="12" x="799.1428571428571" y="378.7142857142858" /><rect fill="#69E" height="6" stroke="#04A" stroke-width="1" width="12" x="962.0" y="281.0" /><rect fill="#69E" height="6" stroke="#04A" stroke-width="1" width="12" x="831.7142857142857" y="53.0" /><rect fill="#69E" height="6" stroke="#04A" stroke-width="1" width="12" x="962.0" y="118.14285714285722" /><rect fill="#69E" height="6" stroke="#04A" stroke-width="1" width="12" x="115.14285714285714" y="53.0" /><rect fill="#69E" height="6" stroke="#04A" stroke-width="1" width="12" x="50.0" y="150.71428571428578" /><rect fill="#69E" height="6" stroke="#04A" stroke-width="1" width="12" x="343.1428571428571" y="53.0" /><rect fill="#69E" height="6" stroke="#04A" stroke-width="1" width="12" x="343.1428571428571" y="378.7142857142858" /><rect fill="#69E" height="6" stroke="#04A" stroke-width="1" width="12" x="50.0" y="378.7142857142858" /><rect fill="#69E" height="6" stroke="#04A" stroke-width="1" width="12" x="50.0" y="802.1428571428571" /><text fill="#444" font-family="Arial, sans-serif" font-size="12" x="40" y="24">eu_ie_4bed_dublin_georgian_terrace</text></svg>