<?xml version="1.0" encoding="utf-8" ?>
<svg baseProfile="full" height="1024" version="1.1" viewBox="0 0 1024 1024" width="1024" xmlns="http://www.w3.org/2000/svg" xmlns:ev="http://www.w3.org/2001/xml-events" xmlns:xlink="http://www.w3.org/1999/xlink"><defs /><rect fill="#FAFAFA" height="1024" width="1024" x="0" y="0" /><polygon fill="white" points="106.66666666666669,968.0 917.3333333333333,968.0 917.3333333333333,56.0 106.66666666666669,56.0" stroke="#222" stroke-width="3" /><polygon fill="#D1ECF1" points="106.66666666666669,968.0 613.3333333333333,968.0 613.3333333333333,562.6666666666667 106.66666666666669,562.6666666666667" stroke="#888" stroke-width="1" /><text fill="#333" font-family="Arial, sans-serif" font-size="12" text-anchor="middle" x="360.0" y="765.3333333333334">Cono 1 (Soggiorno)</text><text fill="#666" font-family="Arial, sans-serif" font-size="10" text-anchor="middle" x="360.0" y="779.3333333333334">20 m²</text><polygon fill="#D5C8E0" points="613.3333333333333,968.0 917.3333333333333,968.0 917.3333333333333,562.6666666666667 613.3333333333333,562.6666666666667" stroke="#888" stroke-width="1" /><text fill="#333" font-family="Arial, sans-serif" font-size="12" text-anchor="middle" x="765.3333333333333" y="765.3333333333334">Cono 2 (Camera matrimoniale)</text><text fill="#666" font-family="Arial, sans-serif" font-size="10" text-anchor="middle" x="765.3333333333333" y="779.3333333333334">12 m²</text><polygon fill="#E2D5F0" points="613.3333333333333,562.6666666666667 917.3333333333333,562.6666666666667 917.3333333333333,461.33333333333337 613.3333333333333,461.33333333333337" stroke="#888" stroke-width="1" /><text fill="#333" font-family="Arial, sans-serif" font-size="12" text-anchor="middle" x="765.3333333333333" y="512.0">Alcova</text><text fill="#666" font-family="Arial, sans-serif" font-size="10" text-anchor="middle" x="765.3333333333333" y="526.0">3 m²</text><polygon fill="#E2D5F0" points="106.66666666666669,562.6666666666667 410.6666666666667,562.6666666666667 410.6666666666667,258.66666666666674 106.66666666666669,258.66666666666674" stroke="#888" stroke-width="1" /><text fill="#333" font-family="Arial, sans-serif" font-size="12" text-anchor="middle" x="258.6666666666667" y="410.66666666666674">Cono 3 (Cameretta)</text><text fill="#666" font-family="Arial, sans-serif" font-size="10" text-anchor="middle" x="258.6666666666667" y="424.66666666666674">9 m²</text><polygon fill="#FFF3CD" points="410.6666666666667,562.6666666666667 613.3333333333333,562.6666666666667 613.3333333333333,258.66666666666674 410.6666666666667,258.66666666666674" stroke="#888" stroke-width="1" /><text fill="#333" font-family="Arial, sans-serif" font-size="12" text-anchor="middle" x="512.0" y="410.66666666666674">Cucina-pranzo</text><text fill="#666" font-family="Arial, sans-serif" font-size="10" text-anchor="middle" x="512.0" y="424.66666666666674">6 m²</text><polygon fill="#EEE" points="613.3333333333333,461.33333333333337 917.3333333333333,461.33333333333337 917.3333333333333,258.66666666666674 613.3333333333333,258.66666666666674" stroke="#888" stroke-width="1" /><text fill="#333" font-family="Arial, sans-serif" font-size="12" text-anchor="middle" x="765.3333333333333" y="360.00000000000006">Storage</text><text fill="#666" font-family="Arial, sans-serif" font-size="10" text-anchor="middle" x="765.3333333333333" y="374.00000000000006">6 m²</text><polygon fill="#D4EDDA" points="106.66666666666669,258.66666666666674 410.6666666666667,258.66666666666674 410.6666666666667,56.0 106.66666666666669,56.0" stroke="#888" stroke-width="1" /><text fill="#333" font-family="Arial, sans-serif" font-size="12" text-anchor="middle" x="258.6666666666667" y="157.33333333333337">Bagno</text><text fill="#666" font-family="Arial, sans-serif" font-size="10" text-anchor="middle" x="258.6666666666667" y="171.33333333333337">6 m²</text><polygon fill="#F8F9FA" points="410.6666666666667,258.66666666666674 917.3333333333333,258.66666666666674 917.3333333333333,56.0 410.6666666666667,56.0" stroke="#888" stroke-width="1" /><text fill="#333" font-family="Arial, sans-serif" font-size="12" text-anchor="middle" x="664.0" y="157.33333333333337">Lamia / Terrazzo</text><text fill="#666" font-family="Arial, sans-serif" font-size="10" text-anchor="middle" x="664.0" y="171.33333333333337">10 m²</text><rect fill="#E66" height="8" stroke="#A00" stroke-width="1" width="8" x="153.33333333333334" y="964.0" /><rect fill="#E66" height="8" stroke="#A00" stroke-width="1" width="8" x="609.3333333333333" y="761.3333333333334" /><rect fill="#E66" height="8" stroke="#A00" stroke-width="1" width="8" x="761.3333333333333" y="558.6666666666667" /><rect fill="#E66" height="8" stroke="#A00" stroke-width="1" width="8" x="254.66666666666669" y="558.6666666666667" /><rect fill="#E66" height="8" stroke="#A00" stroke-width="1" width="8" x="508.0" y="558.6666666666667" /><rect fill="#E66" height="8" stroke="#A00" stroke-width="1" width="8" x="609.3333333333333" y="356.0" /><rect fill="#E66" height="8" stroke="#A00" stroke-width="1" width="8" x="761.3333333333333" y="457.33333333333337" /><rect fill="#E66" height="8" stroke="#A00" stroke-width="1" width="8" x="254.66666666666669" y="254.66666666666674" /><rect fill="#E66" height="8" stroke="#A00" stroke-width="1" width="8" x="508.0" y="254.66666666666674" /><rect fill="#E66" height="8" stroke="#A00" stroke-width="1" width="8" x="761.3333333333333" y="254.66666666666674" /><rect fill="#69E" height="6" stroke="#04A" stroke-width="1" width="12" x="354.0" y="965.0" /><rect fill="#69E" height="6" stroke="#04A" stroke-width="1" width="12" x="100.66666666666669" y="762.3333333333334" /><rect fill="#69E" height="6" stroke="#04A" stroke-width="1" width="12" x="759.3333333333333" y="965.0" /><rect fill="#69E" height="6" stroke="#04A" stroke-width="1" width="12" x="911.3333333333333" y="762.3333333333334" /><rect fill="#69E" height="6" stroke="#04A" stroke-width="1" width="12" x="100.66666666666669" y="407.66666666666674" /><rect fill="#69E" height="6" stroke="#04A" stroke-width="1" width="12" x="100.66666666666669" y="154.33333333333337" /><rect fill="#69E" height="6" stroke="#04A" stroke-width="1" width="12" x="658.0" y="53.0" /><rect fill="#69E" height="6" stroke="#04A" stroke-width="1" width="12" x="911.3333333333333" y="154.33333333333337" /><text fill="#444" font-family="Arial, sans-serif" font-size="12" x="40" y="24">eu_it_2bed_trullo_alberobello</text></svg>