<?xml version="1.0" encoding="utf-8" ?>
<svg baseProfile="full" height="1024" version="1.1" viewBox="0 0 1024 1024" width="1024" xmlns="http://www.w3.org/2000/svg" xmlns:ev="http://www.w3.org/2001/xml-events" xmlns:xlink="http://www.w3.org/1999/xlink"><defs /><rect fill="#FAFAFA" height="1024" width="1024" x="0" y="0" /><polygon fill="white" points="56.0,930.0 968.0,930.0 968.0,94.0 56.0,94.0" stroke="#222" stroke-width="3" /><polygon fill="#F5F5F5" points="56.0,930.0 208.0,930.0 208.0,626.0 56.0,626.0" stroke="#888" stroke-width="1" /><text fill="#333" font-family="Arial, sans-serif" font-size="12" text-anchor="middle" x="132.0" y="778.0">Androne</text><text fill="#666" font-family="Arial, sans-serif" font-size="10" text-anchor="middle" x="132.0" y="792.0">8 m²</text><polygon fill="#D1ECF1" points="208.0,930.0 664.0,930.0 664.0,474.0 208.0,474.0" stroke="#888" stroke-width="1" /><text fill="#333" font-family="Arial, sans-serif" font-size="12" text-anchor="middle" x="436.0" y="702.0">Salone di rappresentanza</text><text fill="#666" font-family="Arial, sans-serif" font-size="10" text-anchor="middle" x="436.0" y="716.0">36 m²</text><polygon fill="#FFE5E5" points="664.0,930.0 968.0,930.0 968.0,550.0 664.0,550.0" stroke="#888" stroke-width="1" /><text fill="#333" font-family="Arial, sans-serif" font-size="12" text-anchor="middle" x="816.0" y="740.0">Sala da pranzo</text><text fill="#666" font-family="Arial, sans-serif" font-size="10" text-anchor="middle" x="816.0" y="754.0">20 m²</text><polygon fill="#FFF3CD" points="664.0,550.0 968.0,550.0 968.0,322.0 664.0,322.0" stroke="#888" stroke-width="1" /><text fill="#333" font-family="Arial, sans-serif" font-size="12" text-anchor="middle" x="816.0" y="436.0">Cucina</text><text fill="#666" font-family="Arial, sans-serif" font-size="10" text-anchor="middle" x="816.0" y="450.0">12 m²</text><polygon fill="#D5C8E0" points="56.0,626.0 436.0,626.0 436.0,322.0 56.0,322.0" stroke="#888" stroke-width="1" /><text fill="#333" font-family="Arial, sans-serif" font-size="12" text-anchor="middle" x="246.0" y="474.0">Camera padronale</text><text fill="#666" font-family="Arial, sans-serif" font-size="10" text-anchor="middle" x="246.0" y="488.0">20 m²</text><polygon fill="#D4EDDA" points="436.0,474.0 664.0,474.0 664.0,322.0 436.0,322.0" stroke="#888" stroke-width="1" /><text fill="#333" font-family="Arial, sans-serif" font-size="12" text-anchor="middle" x="550.0" y="398.0">Bagno principale</text><text fill="#666" font-family="Arial, sans-serif" font-size="10" text-anchor="middle" x="550.0" y="412.0">6 m²</text><polygon fill="#E2D5F0" points="56.0,322.0 436.0,322.0 436.0,94.0 56.0,94.0" stroke="#888" stroke-width="1" /><text fill="#333" font-family="Arial, sans-serif" font-size="12" text-anchor="middle" x="246.0" y="208.0">Camera 1</text><text fill="#666" font-family="Arial, sans-serif" font-size="10" text-anchor="middle" x="246.0" y="222.0">15 m²</text><polygon fill="#E2D5F0" points="436.0,322.0 664.0,322.0 664.0,94.0 436.0,94.0" stroke="#888" stroke-width="1" /><text fill="#333" font-family="Arial, sans-serif" font-size="12" text-anchor="middle" x="550.0" y="208.0">Camera 2</text><text fill="#666" font-family="Arial, sans-serif" font-size="10" text-anchor="middle" x="550.0" y="222.0">9 m²</text><polygon fill="#D4EDDA" points="664.0,322.0 816.0,322.0 816.0,170.0 664.0,170.0" stroke="#888" stroke-width="1" /><text fill="#333" font-family="Arial, sans-serif" font-size="12" text-anchor="middle" x="740.0" y="246.0">Bagno 2</text><text fill="#666" font-family="Arial, sans-serif" font-size="10" text-anchor="middle" x="740.0" y="260.0">4 m²</text><polygon fill="#F8F9FA" points="816.0,322.0 968.0,322.0 968.0,94.0 816.0,94.0" stroke="#888" stroke-width="1" /><text fill="#333" font-family="Arial, sans-serif" font-size="12" text-anchor="middle" x="892.0" y="208.0">Terrazzo panoramico</text><text fill="#666" font-family="Arial, sans-serif" font-size="10" text-anchor="middle" x="892.0" y="222.0">6 m²</text><polygon fill="#F8F9FA" points="664.0,170.0 816.0,170.0 816.0,94.0 664.0,94.0" stroke="#888" stroke-width="1" /><text fill="#333" font-family="Arial, sans-serif" font-size="12" text-anchor="middle" x="740.0" y="132.0">Terrazzo extension</text><text fill="#666" font-family="Arial, sans-serif" font-size="10" text-anchor="middle" x="740.0" y="146.0">2 m²</text><rect fill="#E66" height="8" stroke="#A00" stroke-width="1" width="8" x="90.0" y="926.0" /><rect fill="#E66" height="8" stroke="#A00" stroke-width="1" width="8" x="204.0" y="774.0" /><rect fill="#E66" height="8" stroke="#A00" stroke-width="1" width="8" x="128.0" y="622.0" /><rect fill="#E66" height="8" stroke="#A00" stroke-width="1" width="8" x="660.0" y="698.0" /><rect fill="#E66" height="8" stroke="#A00" stroke-width="1" width="8" x="812.0" y="546.0" /><rect fill="#E66" height="8" stroke="#A00" stroke-width="1" width="8" x="318.0" y="622.0" /><rect fill="#E66" height="8" stroke="#A00" stroke-width="1" width="8" x="546.0" y="470.0" /><rect fill="#E66" height="8" stroke="#A00" stroke-width="1" width="8" x="432.0" y="394.0" /><rect fill="#E66" height="8" stroke="#A00" stroke-width="1" width="8" x="242.0" y="318.0" /><rect fill="#E66" height="8" stroke="#A00" stroke-width="1" width="8" x="546.0" y="318.0" /><rect fill="#E66" height="8" stroke="#A00" stroke-width="1" width="8" x="736.0" y="318.0" /><rect fill="#E66" height="8" stroke="#A00" stroke-width="1" width="8" x="660.0" y="242.0" /><rect fill="#E66" height="8" stroke="#A00" stroke-width="1" width="8" x="812.0" y="242.0" /><rect fill="#E66" height="8" stroke="#A00" stroke-width="1" width="8" x="660.0" y="128.0" /><rect fill="#69E" height="6" stroke="#04A" stroke-width="1" width="12" x="430.0" y="927.0" /><rect fill="#69E" height="6" stroke="#04A" stroke-width="1" width="12" x="810.0" y="927.0" /><rect fill="#69E" height="6" stroke="#04A" stroke-width="1" width="12" x="962.0" y="433.0" /><rect fill="#69E" height="6" stroke="#04A" stroke-width="1" width="12" x="50.0" y="471.0" /><rect fill="#69E" height="6" stroke="#04A" stroke-width="1" width="12" x="240.0" y="91.0" /><rect fill="#69E" height="6" stroke="#04A" stroke-width="1" width="12" x="544.0" y="91.0" /><rect fill="#69E" height="6" stroke="#04A" stroke-width="1" width="12" x="886.0" y="91.0" /><rect fill="#69E" height="6" stroke="#04A" stroke-width="1" width="12" x="962.0" y="205.0" /><rect fill="#69E" height="6" stroke="#04A" stroke-width="1" width="12" x="50.0" y="775.0" /><text fill="#444" font-family="Arial, sans-serif" font-size="12" x="40" y="24">eu_it_3bed_sicily_palazzotto</text></svg>