<?xml version="1.0" encoding="utf-8" ?>
<svg baseProfile="full" height="1024" version="1.1" viewBox="0 0 1024 1024" width="1024" xmlns="http://www.w3.org/2000/svg" xmlns:ev="http://www.w3.org/2001/xml-events" xmlns:xlink="http://www.w3.org/1999/xlink"><defs /><rect fill="#FAFAFA" height="1024" width="1024" x="0" y="0" /><polygon fill="white" points="56.0,968.0 968.0,968.0 968.0,56.0 56.0,56.0" stroke="#222" stroke-width="3" /><polygon fill="#F5F5F5" points="56.0,968.0 968.0,968.0 968.0,837.7142857142858 56.0,837.7142857142858" stroke="#888" stroke-width="1" /><text fill="#333" font-family="Arial, sans-serif" font-size="12" text-anchor="middle" x="512.0" y="902.8571428571429">Portico</text><text fill="#666" font-family="Arial, sans-serif" font-size="10" text-anchor="middle" x="512.0" y="916.8571428571429">28 m²</text><polygon fill="#D1ECF1" points="56.0,837.7142857142858 446.85714285714283,837.7142857142858 446.85714285714283,512.0 56.0,512.0" stroke="#888" stroke-width="1" /><text fill="#333" font-family="Arial, sans-serif" font-size="12" text-anchor="middle" x="251.42857142857142" y="674.8571428571429">Sala</text><text fill="#666" font-family="Arial, sans-serif" font-size="10" text-anchor="middle" x="251.42857142857142" y="688.8571428571429">30 m²</text><polygon fill="#FFF3CD" points="446.85714285714283,837.7142857142858 837.7142857142857,837.7142857142858 837.7142857142857,512.0 446.85714285714283,512.0" stroke="#888" stroke-width="1" /><text fill="#333" font-family="Arial, sans-serif" font-size="12" text-anchor="middle" x="642.2857142857142" y="674.8571428571429">Cucina abitabile</text><text fill="#666" font-family="Arial, sans-serif" font-size="10" text-anchor="middle" x="642.2857142857142" y="688.8571428571429">30 m²</text><polygon fill="#EEE" points="837.7142857142857,837.7142857142858 968.0,837.7142857142858 968.0,642.2857142857143 837.7142857142857,642.2857142857143" stroke="#888" stroke-width="1" /><text fill="#333" font-family="Arial, sans-serif" font-size="12" text-anchor="middle" x="902.8571428571429" y="740.0">Pantry</text><text fill="#666" font-family="Arial, sans-serif" font-size="10" text-anchor="middle" x="902.8571428571429" y="754.0">6 m²</text><polygon fill="#D4EDDA" points="837.7142857142857,642.2857142857143 968.0,642.2857142857143 968.0,512.0 837.7142857142857,512.0" stroke="#888" stroke-width="1" /><text fill="#333" font-family="Arial, sans-serif" font-size="12" text-anchor="middle" x="902.8571428571429" y="577.1428571428571">Bagno servizio</text><text fill="#666" font-family="Arial, sans-serif" font-size="10" text-anchor="middle" x="902.8571428571429" y="591.1428571428571">4 m²</text><polygon fill="#F8F9FA" points="381.71428571428567,512.0 707.4285714285713,512.0 707.4285714285713,316.57142857142867 381.71428571428567,316.57142857142867" stroke="#888" stroke-width="1" /><text fill="#333" font-family="Arial, sans-serif" font-size="12" text-anchor="middle" x="544.5714285714284" y="414.28571428571433">Courtyard</text><text fill="#666" font-family="Arial, sans-serif" font-size="10" text-anchor="middle" x="544.5714285714284" y="428.28571428571433">15 m²</text><polygon fill="#D5C8E0" points="56.0,512.0 381.71428571428567,512.0 381.71428571428567,251.42857142857144 56.0,251.42857142857144" stroke="#888" stroke-width="1" /><text fill="#333" font-family="Arial, sans-serif" font-size="12" text-anchor="middle" x="218.85714285714283" y="381.7142857142857">Camera padronale</text><text fill="#666" font-family="Arial, sans-serif" font-size="10" text-anchor="middle" x="218.85714285714283" y="395.7142857142857">20 m²</text><polygon fill="#D4EDDA" points="56.0,251.42857142857144 251.42857142857142,251.42857142857144 251.42857142857142,56.0 56.0,56.0" stroke="#888" stroke-width="1" /><text fill="#333" font-family="Arial, sans-serif" font-size="12" text-anchor="middle" x="153.71428571428572" y="153.71428571428572">Master Bath</text><text fill="#666" font-family="Arial, sans-serif" font-size="10" text-anchor="middle" x="153.71428571428572" y="167.71428571428572">9 m²</text><polygon fill="#E2D5F0" points="251.42857142857142,251.42857142857144 577.1428571428571,251.42857142857144 577.1428571428571,56.0 251.42857142857142,56.0" stroke="#888" stroke-width="1" /><text fill="#333" font-family="Arial, sans-serif" font-size="12" text-anchor="middle" x="414.2857142857143" y="153.71428571428572">Camera 2</text><text fill="#666" font-family="Arial, sans-serif" font-size="10" text-anchor="middle" x="414.2857142857143" y="167.71428571428572">15 m²</text><polygon fill="#D4EDDA" points="577.1428571428571,251.42857142857144 707.4285714285713,251.42857142857144 707.4285714285713,56.0 577.1428571428571,56.0" stroke="#888" stroke-width="1" /><text fill="#333" font-family="Arial, sans-serif" font-size="12" text-anchor="middle" x="642.2857142857142" y="153.71428571428572">Bath 2</text><text fill="#666" font-family="Arial, sans-serif" font-size="10" text-anchor="middle" x="642.2857142857142" y="167.71428571428572">6 m²</text><polygon fill="#E2D5F0" points="707.4285714285713,512.0 968.0,512.0 968.0,316.57142857142867 707.4285714285713,316.57142857142867" stroke="#888" stroke-width="1" /><text fill="#333" font-family="Arial, sans-serif" font-size="12" text-anchor="middle" x="837.7142857142857" y="414.28571428571433">Camera 3</text><text fill="#666" font-family="Arial, sans-serif" font-size="10" text-anchor="middle" x="837.7142857142857" y="428.28571428571433">12 m²</text><polygon fill="#D4EDDA" points="707.4285714285713,316.57142857142867 837.7142857142857,316.57142857142867 837.7142857142857,186.28571428571433 707.4285714285713,186.28571428571433" stroke="#888" stroke-width="1" /><text fill="#333" font-family="Arial, sans-serif" font-size="12" text-anchor="middle" x="772.5714285714284" y="251.4285714285715">Bath 3</text><text fill="#666" font-family="Arial, sans-serif" font-size="10" text-anchor="middle" x="772.5714285714284" y="265.4285714285715">4 m²</text><polygon fill="#E2D5F0" points="837.7142857142857,316.57142857142867 968.0,316.57142857142867 968.0,56.0 837.7142857142857,56.0" stroke="#888" stroke-width="1" /><text fill="#333" font-family="Arial, sans-serif" font-size="12" text-anchor="middle" x="902.8571428571429" y="186.28571428571433">Camera 4</text><text fill="#666" font-family="Arial, sans-serif" font-size="10" text-anchor="middle" x="902.8571428571429" y="200.28571428571433">8 m²</text><polygon fill="#F5F5F5" points="381.71428571428567,316.57142857142867 707.4285714285713,316.57142857142867 707.4285714285713,251.42857142857144 381.71428571428567,251.42857142857144" stroke="#888" stroke-width="1" /><text fill="#333" font-family="Arial, sans-serif" font-size="12" text-anchor="middle" x="544.5714285714284" y="284.00000000000006">Back Corridor</text><text fill="#666" font-family="Arial, sans-serif" font-size="10" text-anchor="middle" x="544.5714285714284" y="298.00000000000006">5 m²</text><polygon fill="#D4EDDA" points="707.4285714285713,186.28571428571433 837.7142857142857,186.28571428571433 837.7142857142857,56.0 707.4285714285713,56.0" stroke="#888" stroke-width="1" /><text fill="#333" font-family="Arial, sans-serif" font-size="12" text-anchor="middle" x="772.5714285714284" y="121.14285714285717">Bath 4</text><text fill="#666" font-family="Arial, sans-serif" font-size="10" text-anchor="middle" x="772.5714285714284" y="135.14285714285717">4 m²</text><rect fill="#E66" height="8" stroke="#A00" stroke-width="1" width="8" x="508.0" y="964.0" /><rect fill="#E66" height="8" stroke="#A00" stroke-width="1" width="8" x="247.42857142857142" y="833.7142857142858" /><rect fill="#E66" height="8" stroke="#A00" stroke-width="1" width="8" x="638.2857142857142" y="833.7142857142858" /><rect fill="#E66" height="8" stroke="#A00" stroke-width="1" width="8" x="833.7142857142857" y="736.0" /><rect fill="#E66" height="8" stroke="#A00" stroke-width="1" width="8" x="833.7142857142857" y="573.1428571428571" /><rect fill="#E66" height="8" stroke="#A00" stroke-width="1" width="8" x="247.42857142857142" y="508.0" /><rect fill="#E66" height="8" stroke="#A00" stroke-width="1" width="8" x="442.85714285714283" y="508.0" /><rect fill="#E66" height="8" stroke="#A00" stroke-width="1" width="8" x="573.1428571428571" y="508.0" /><rect fill="#E66" height="8" stroke="#A00" stroke-width="1" width="8" x="768.5714285714286" y="508.0" /><rect fill="#E66" height="8" stroke="#A00" stroke-width="1" width="8" x="768.5714285714286" y="312.57142857142867" /><rect fill="#E66" height="8" stroke="#A00" stroke-width="1" width="8" x="898.8571428571428" y="312.57142857142867" /><rect fill="#E66" height="8" stroke="#A00" stroke-width="1" width="8" x="149.71428571428572" y="247.42857142857144" /><rect fill="#E66" height="8" stroke="#A00" stroke-width="1" width="8" x="377.71428571428567" y="280.0" /><rect fill="#E66" height="8" stroke="#A00" stroke-width="1" width="8" x="508.0" y="247.42857142857144" /><rect fill="#E66" height="8" stroke="#A00" stroke-width="1" width="8" x="573.1428571428571" y="149.71428571428578" /><rect fill="#E66" height="8" stroke="#A00" stroke-width="1" width="8" x="247.42857142857142" y="149.71428571428578" /><rect fill="#E66" height="8" stroke="#A00" stroke-width="1" width="8" x="768.5714285714286" y="182.28571428571433" /><rect fill="#E66" height="8" stroke="#A00" stroke-width="1" width="8" x="833.7142857142857" y="117.14285714285722" /><rect fill="#69E" height="6" stroke="#04A" stroke-width="1" width="12" x="245.42857142857142" y="965.0" /><rect fill="#69E" height="6" stroke="#04A" stroke-width="1" width="12" x="766.5714285714286" y="965.0" /><rect fill="#69E" height="6" stroke="#04A" stroke-width="1" width="12" x="50.0" y="671.8571428571429" /><rect fill="#69E" height="6" stroke="#04A" stroke-width="1" width="12" x="636.2857142857142" y="509.0" /><rect fill="#69E" height="6" stroke="#04A" stroke-width="1" width="12" x="962.0" y="737.0" /><rect fill="#69E" height="6" stroke="#04A" stroke-width="1" width="12" x="50.0" y="378.7142857142858" /><rect fill="#69E" height="6" stroke="#04A" stroke-width="1" width="12" x="408.2857142857143" y="53.0" /><rect fill="#69E" height="6" stroke="#04A" stroke-width="1" width="12" x="831.7142857142857" y="509.0" /><rect fill="#69E" height="6" stroke="#04A" stroke-width="1" width="12" x="962.0" y="411.28571428571433" /><rect fill="#69E" height="6" stroke="#04A" stroke-width="1" width="12" x="896.8571428571428" y="53.0" /><rect fill="#69E" height="6" stroke="#04A" stroke-width="1" width="12" x="962.0" y="183.28571428571433" /><rect fill="#69E" height="6" stroke="#04A" stroke-width="1" width="12" x="147.71428571428572" y="53.0" /><text fill="#444" font-family="Arial, sans-serif" font-size="12" x="40" y="24">eu_it_4bed_masseria_pugliese</text></svg>