<?xml version="1.0" encoding="utf-8" ?>
<svg baseProfile="full" height="1024" version="1.1" viewBox="0 0 1024 1024" width="1024" xmlns="http://www.w3.org/2000/svg" xmlns:ev="http://www.w3.org/2001/xml-events" xmlns:xlink="http://www.w3.org/1999/xlink"><defs /><rect fill="#FAFAFA" height="1024" width="1024" x="0" y="0" /><polygon fill="white" points="56.0,942.6666666666666 968.0,942.6666666666666 968.0,81.33333333333337 56.0,81.33333333333337" stroke="#222" stroke-width="3" /><polygon fill="#F5F5F5" points="56.0,942.6666666666666 258.66666666666663,942.6666666666666 258.66666666666663,689.3333333333333 56.0,689.3333333333333" stroke="#888" stroke-width="1" /><text fill="#333" font-family="Arial, sans-serif" font-size="12" text-anchor="middle" x="157.33333333333331" y="816.0">Ingresso</text><text fill="#666" font-family="Arial, sans-serif" font-size="10" text-anchor="middle" x="157.33333333333331" y="830.0">5 m²</text><polygon fill="#D1ECF1" points="258.66666666666663,942.6666666666666 765.3333333333333,942.6666666666666 765.3333333333333,436.0 258.66666666666663,436.0" stroke="#888" stroke-width="1" /><text fill="#333" font-family="Arial, sans-serif" font-size="12" text-anchor="middle" x="511.99999999999994" y="689.3333333333333">Soggiorno-Cucina</text><text fill="#666" font-family="Arial, sans-serif" font-size="10" text-anchor="middle" x="511.99999999999994" y="703.3333333333333">25 m²</text><polygon fill="#F8F9FA" points="765.3333333333333,942.6666666666666 968.0,942.6666666666666 968.0,689.3333333333333 765.3333333333333,689.3333333333333" stroke="#888" stroke-width="1" /><text fill="#333" font-family="Arial, sans-serif" font-size="12" text-anchor="middle" x="866.6666666666666" y="816.0">Balconcino 1</text><text fill="#666" font-family="Arial, sans-serif" font-size="10" text-anchor="middle" x="866.6666666666666" y="830.0">5 m²</text><polygon fill="#EEE" points="765.3333333333333,689.3333333333333 968.0,689.3333333333333 968.0,436.0 765.3333333333333,436.0" stroke="#888" stroke-width="1" /><text fill="#333" font-family="Arial, sans-serif" font-size="12" text-anchor="middle" x="866.6666666666666" y="562.6666666666666">Cucina ext</text><text fill="#666" font-family="Arial, sans-serif" font-size="10" text-anchor="middle" x="866.6666666666666" y="576.6666666666666">5 m²</text><polygon fill="#D4EDDA" points="56.0,689.3333333333333 258.66666666666663,689.3333333333333 258.66666666666663,436.0 56.0,436.0" stroke="#888" stroke-width="1" /><text fill="#333" font-family="Arial, sans-serif" font-size="12" text-anchor="middle" x="157.33333333333331" y="562.6666666666666">Bagno</text><text fill="#666" font-family="Arial, sans-serif" font-size="10" text-anchor="middle" x="157.33333333333331" y="576.6666666666666">5 m²</text><polygon fill="#D5C8E0" points="56.0,436.0 461.3333333333333,436.0 461.3333333333333,81.33333333333337 56.0,81.33333333333337" stroke="#888" stroke-width="1" /><text fill="#333" font-family="Arial, sans-serif" font-size="12" text-anchor="middle" x="258.66666666666663" y="258.6666666666667">Camera matrimoniale</text><text fill="#666" font-family="Arial, sans-serif" font-size="10" text-anchor="middle" x="258.66666666666663" y="272.6666666666667">14 m²</text><polygon fill="#E2D5F0" points="461.3333333333333,436.0 765.3333333333333,436.0 765.3333333333333,81.33333333333337 461.3333333333333,81.33333333333337" stroke="#888" stroke-width="1" /><text fill="#333" font-family="Arial, sans-serif" font-size="12" text-anchor="middle" x="613.3333333333333" y="258.6666666666667">Camera</text><text fill="#666" font-family="Arial, sans-serif" font-size="10" text-anchor="middle" x="613.3333333333333" y="272.6666666666667">10.5 m²</text><polygon fill="#D4EDDA" points="765.3333333333333,436.0 968.0,436.0 968.0,233.33333333333337 765.3333333333333,233.33333333333337" stroke="#888" stroke-width="1" /><text fill="#333" font-family="Arial, sans-serif" font-size="12" text-anchor="middle" x="866.6666666666666" y="334.6666666666667">Bagno servizio</text><text fill="#666" font-family="Arial, sans-serif" font-size="10" text-anchor="middle" x="866.6666666666666" y="348.6666666666667">4 m²</text><polygon fill="#F8F9FA" points="765.3333333333333,233.33333333333337 968.0,233.33333333333337 968.0,81.33333333333337 765.3333333333333,81.33333333333337" stroke="#888" stroke-width="1" /><text fill="#333" font-family="Arial, sans-serif" font-size="12" text-anchor="middle" x="866.6666666666666" y="157.33333333333337">Balconcino 2</text><text fill="#666" font-family="Arial, sans-serif" font-size="10" text-anchor="middle" x="866.6666666666666" y="171.33333333333337">3 m²</text><rect fill="#E66" height="8" stroke="#A00" stroke-width="1" width="8" x="102.66666666666666" y="938.6666666666666" /><rect fill="#E66" height="8" stroke="#A00" stroke-width="1" width="8" x="254.66666666666663" y="812.0" /><rect fill="#E66" height="8" stroke="#A00" stroke-width="1" width="8" x="153.33333333333331" y="685.3333333333333" /><rect fill="#E66" height="8" stroke="#A00" stroke-width="1" width="8" x="761.3333333333333" y="812.0" /><rect fill="#E66" height="8" stroke="#A00" stroke-width="1" width="8" x="761.3333333333333" y="558.6666666666666" /><rect fill="#E66" height="8" stroke="#A00" stroke-width="1" width="8" x="356.0" y="432.0" /><rect fill="#E66" height="8" stroke="#A00" stroke-width="1" width="8" x="609.3333333333333" y="432.0" /><rect fill="#E66" height="8" stroke="#A00" stroke-width="1" width="8" x="862.6666666666666" y="432.0" /><rect fill="#E66" height="8" stroke="#A00" stroke-width="1" width="8" x="761.3333333333333" y="330.66666666666663" /><rect fill="#E66" height="8" stroke="#A00" stroke-width="1" width="8" x="862.6666666666666" y="229.33333333333337" /><rect fill="#E66" height="8" stroke="#A00" stroke-width="1" width="8" x="457.3333333333333" y="254.66666666666663" /><rect fill="#69E" height="6" stroke="#04A" stroke-width="1" width="12" x="506.0" y="939.6666666666666" /><rect fill="#69E" height="6" stroke="#04A" stroke-width="1" width="12" x="860.6666666666666" y="939.6666666666666" /><rect fill="#69E" height="6" stroke="#04A" stroke-width="1" width="12" x="962.0" y="559.6666666666666" /><rect fill="#69E" height="6" stroke="#04A" stroke-width="1" width="12" x="252.66666666666663" y="78.33333333333337" /><rect fill="#69E" height="6" stroke="#04A" stroke-width="1" width="12" x="50.0" y="255.66666666666663" /><rect fill="#69E" height="6" stroke="#04A" stroke-width="1" width="12" x="607.3333333333333" y="78.33333333333337" /><rect fill="#69E" height="6" stroke="#04A" stroke-width="1" width="12" x="860.6666666666666" y="78.33333333333337" /><rect fill="#69E" height="6" stroke="#04A" stroke-width="1" width="12" x="50.0" y="559.6666666666666" /><text fill="#444" font-family="Arial, sans-serif" font-size="12" x="40" y="24">eu_it_2bed_napoli_quartieri_spagnoli</text></svg>