<?xml version="1.0" encoding="utf-8" ?>
<svg baseProfile="full" height="1024" version="1.1" viewBox="0 0 1024 1024" width="1024" xmlns="http://www.w3.org/2000/svg" xmlns:ev="http://www.w3.org/2001/xml-events" xmlns:xlink="http://www.w3.org/1999/xlink"><defs /><rect fill="#FAFAFA" height="1024" width="1024" x="0" y="0" /><polygon fill="white" points="157.33333333333337,968.0 866.6666666666666,968.0 866.6666666666666,56.0 157.33333333333337,56.0" stroke="#222" stroke-width="3" /><polygon fill="#F5F5F5" points="157.33333333333337,968.0 309.33333333333337,968.0 309.33333333333337,664.0 157.33333333333337,664.0" stroke="#888" stroke-width="1" /><text fill="#333" font-family="Arial, sans-serif" font-size="12" text-anchor="middle" x="233.33333333333337" y="816.0">Hall</text><text fill="#666" font-family="Arial, sans-serif" font-size="10" text-anchor="middle" x="233.33333333333337" y="830.0">4.5 m²</text><polygon fill="#D1ECF1" points="309.33333333333337,968.0 866.6666666666666,968.0 866.6666666666666,461.33333333333337 309.33333333333337,461.33333333333337" stroke="#888" stroke-width="1" /><text fill="#333" font-family="Arial, sans-serif" font-size="12" text-anchor="middle" x="588.0" y="714.6666666666667">Living-Kitchen (open)</text><text fill="#666" font-family="Arial, sans-serif" font-size="10" text-anchor="middle" x="588.0" y="728.6666666666667">27.5 m²</text><polygon fill="#D4EDDA" points="157.33333333333337,664.0 309.33333333333337,664.0 309.33333333333337,512.0 157.33333333333337,512.0" stroke="#888" stroke-width="1" /><text fill="#333" font-family="Arial, sans-serif" font-size="12" text-anchor="middle" x="233.33333333333337" y="588.0">WC</text><text fill="#666" font-family="Arial, sans-serif" font-size="10" text-anchor="middle" x="233.33333333333337" y="602.0">2.25 m²</text><polygon fill="#D4EDDA" points="157.33333333333337,512.0 309.33333333333337,512.0 309.33333333333337,258.66666666666674 157.33333333333337,258.66666666666674" stroke="#888" stroke-width="1" /><text fill="#333" font-family="Arial, sans-serif" font-size="12" text-anchor="middle" x="233.33333333333337" y="385.33333333333337">Bath</text><text fill="#666" font-family="Arial, sans-serif" font-size="10" text-anchor="middle" x="233.33333333333337" y="399.33333333333337">3.75 m²</text><polygon fill="#D5C8E0" points="309.33333333333337,461.33333333333337 866.6666666666666,461.33333333333337 866.6666666666666,157.33333333333337 309.33333333333337,157.33333333333337" stroke="#888" stroke-width="1" /><text fill="#333" font-family="Arial, sans-serif" font-size="12" text-anchor="middle" x="588.0" y="309.33333333333337">Bedroom</text><text fill="#666" font-family="Arial, sans-serif" font-size="10" text-anchor="middle" x="588.0" y="323.33333333333337">16.5 m²</text><polygon fill="#F8F9FA" points="157.33333333333337,157.33333333333337 866.6666666666666,157.33333333333337 866.6666666666666,56.0 157.33333333333337,56.0" stroke="#888" stroke-width="1" /><text fill="#333" font-family="Arial, sans-serif" font-size="12" text-anchor="middle" x="512.0" y="106.66666666666669">Gallarija (enclosed balcony)</text><text fill="#666" font-family="Arial, sans-serif" font-size="10" text-anchor="middle" x="512.0" y="120.66666666666669">7 m²</text><polygon fill="#F5F5F5" points="157.33333333333337,258.66666666666674 309.33333333333337,258.66666666666674 309.33333333333337,157.33333333333337 157.33333333333337,157.33333333333337" stroke="#888" stroke-width="1" /><text fill="#333" font-family="Arial, sans-serif" font-size="12" text-anchor="middle" x="233.33333333333337" y="208.00000000000006">Hall back</text><text fill="#666" font-family="Arial, sans-serif" font-size="10" text-anchor="middle" x="233.33333333333337" y="222.00000000000006">1.5 m²</text><rect fill="#E66" height="8" stroke="#A00" stroke-width="1" width="8" x="204.00000000000003" y="964.0" /><rect fill="#E66" height="8" stroke="#A00" stroke-width="1" width="8" x="305.33333333333337" y="812.0" /><rect fill="#E66" height="8" stroke="#A00" stroke-width="1" width="8" x="229.33333333333337" y="660.0" /><rect fill="#E66" height="8" stroke="#A00" stroke-width="1" width="8" x="229.33333333333337" y="508.0" /><rect fill="#E66" height="8" stroke="#A00" stroke-width="1" width="8" x="584.0" y="457.33333333333337" /><rect fill="#E66" height="8" stroke="#A00" stroke-width="1" width="8" x="229.33333333333337" y="254.66666666666674" /><rect fill="#E66" height="8" stroke="#A00" stroke-width="1" width="8" x="584.0" y="153.33333333333337" /><rect fill="#E66" height="8" stroke="#A00" stroke-width="1" width="8" x="229.33333333333337" y="153.33333333333337" /><rect fill="#69E" height="6" stroke="#04A" stroke-width="1" width="12" x="582.0" y="965.0" /><rect fill="#69E" height="6" stroke="#04A" stroke-width="1" width="12" x="303.33333333333337" y="965.0" /><rect fill="#69E" height="6" stroke="#04A" stroke-width="1" width="12" x="860.6666666666666" y="711.6666666666667" /><rect fill="#69E" height="6" stroke="#04A" stroke-width="1" width="12" x="582.0" y="154.33333333333337" /><rect fill="#69E" height="6" stroke="#04A" stroke-width="1" width="12" x="860.6666666666666" y="306.33333333333337" /><rect fill="#69E" height="6" stroke="#04A" stroke-width="1" width="12" x="506.0" y="53.0" /><rect fill="#69E" height="6" stroke="#04A" stroke-width="1" width="12" x="151.33333333333337" y="382.33333333333337" /><rect fill="#69E" height="6" stroke="#04A" stroke-width="1" width="12" x="151.33333333333337" y="813.0" /><text fill="#444" font-family="Arial, sans-serif" font-size="12" x="40" y="24">eu_mt_1bed_valletta_traditional</text></svg>