<?xml version="1.0" encoding="utf-8" ?>
<svg baseProfile="full" height="1024" version="1.1" viewBox="0 0 1024 1024" width="1024" xmlns="http://www.w3.org/2000/svg" xmlns:ev="http://www.w3.org/2001/xml-events" xmlns:xlink="http://www.w3.org/1999/xlink"><defs /><rect fill="#FAFAFA" height="1024" width="1024" x="0" y="0" /><polygon fill="white" points="56.0,968.0 968.0,968.0 968.0,56.0 56.0,56.0" stroke="#222" stroke-width="3" /><polygon fill="#F5F5F5" points="56.0,968.0 251.42857142857142,968.0 251.42857142857142,577.1428571428571 56.0,577.1428571428571" stroke="#888" stroke-width="1" /><text fill="#333" font-family="Arial, sans-serif" font-size="12" text-anchor="middle" x="153.71428571428572" y="772.5714285714286">Hol</text><text fill="#666" font-family="Arial, sans-serif" font-size="10" text-anchor="middle" x="153.71428571428572" y="786.5714285714286">4.5 m²</text><polygon fill="#D1ECF1" points="251.42857142857142,968.0 707.4285714285713,968.0 707.4285714285713,446.8571428571429 251.42857142857142,446.8571428571429" stroke="#888" stroke-width="1" /><text fill="#333" font-family="Arial, sans-serif" font-size="12" text-anchor="middle" x="479.4285714285714" y="707.4285714285714">Sufragerie</text><text fill="#666" font-family="Arial, sans-serif" font-size="10" text-anchor="middle" x="479.4285714285714" y="721.4285714285714">14 m²</text><polygon fill="#FFF3CD" points="707.4285714285713,968.0 968.0,968.0 968.0,577.1428571428571 707.4285714285713,577.1428571428571" stroke="#888" stroke-width="1" /><text fill="#333" font-family="Arial, sans-serif" font-size="12" text-anchor="middle" x="837.7142857142857" y="772.5714285714286">Bucătărie</text><text fill="#666" font-family="Arial, sans-serif" font-size="10" text-anchor="middle" x="837.7142857142857" y="786.5714285714286">6 m²</text><polygon fill="#D4EDDA" points="707.4285714285713,577.1428571428571 968.0,577.1428571428571 968.0,446.8571428571429 707.4285714285713,446.8571428571429" stroke="#888" stroke-width="1" /><text fill="#333" font-family="Arial, sans-serif" font-size="12" text-anchor="middle" x="837.7142857142857" y="512.0">WC</text><text fill="#666" font-family="Arial, sans-serif" font-size="10" text-anchor="middle" x="837.7142857142857" y="526.0">2 m²</text><polygon fill="#D4EDDA" points="56.0,577.1428571428571 251.42857142857142,577.1428571428571 251.42857142857142,316.57142857142867 56.0,316.57142857142867" stroke="#888" stroke-width="1" /><text fill="#333" font-family="Arial, sans-serif" font-size="12" text-anchor="middle" x="153.71428571428572" y="446.8571428571429">Baie</text><text fill="#666" font-family="Arial, sans-serif" font-size="10" text-anchor="middle" x="153.71428571428572" y="460.8571428571429">3 m²</text><polygon fill="#D5C8E0" points="251.42857142857142,446.8571428571429 707.4285714285713,446.8571428571429 707.4285714285713,186.28571428571433 251.42857142857142,186.28571428571433" stroke="#888" stroke-width="1" /><text fill="#333" font-family="Arial, sans-serif" font-size="12" text-anchor="middle" x="479.4285714285714" y="316.5714285714286">Dormitor</text><text fill="#666" font-family="Arial, sans-serif" font-size="10" text-anchor="middle" x="479.4285714285714" y="330.5714285714286">7 m²</text><polygon fill="#EEE" points="707.4285714285713,446.8571428571429 968.0,446.8571428571429 968.0,186.28571428571433 707.4285714285713,186.28571428571433" stroke="#888" stroke-width="1" /><text fill="#333" font-family="Arial, sans-serif" font-size="12" text-anchor="middle" x="837.7142857142857" y="316.5714285714286">Storage</text><text fill="#666" font-family="Arial, sans-serif" font-size="10" text-anchor="middle" x="837.7142857142857" y="330.5714285714286">4 m²</text><polygon fill="#F8F9FA" points="56.0,186.28571428571433 968.0,186.28571428571433 968.0,56.0 56.0,56.0" stroke="#888" stroke-width="1" /><text fill="#333" font-family="Arial, sans-serif" font-size="12" text-anchor="middle" x="512.0" y="121.14285714285717">Balcon</text><text fill="#666" font-family="Arial, sans-serif" font-size="10" text-anchor="middle" x="512.0" y="135.14285714285717">7 m²</text><polygon fill="#F5F5F5" points="56.0,316.57142857142867 251.42857142857142,316.57142857142867 251.42857142857142,186.28571428571433 56.0,186.28571428571433" stroke="#888" stroke-width="1" /><text fill="#333" font-family="Arial, sans-serif" font-size="12" text-anchor="middle" x="153.71428571428572" y="251.4285714285715">Hall back</text><text fill="#666" font-family="Arial, sans-serif" font-size="10" text-anchor="middle" x="153.71428571428572" y="265.4285714285715">1.5 m²</text><rect fill="#E66" height="8" stroke="#A00" stroke-width="1" width="8" x="117.14285714285714" y="964.0" /><rect fill="#E66" height="8" stroke="#A00" stroke-width="1" width="8" x="247.42857142857142" y="768.5714285714286" /><rect fill="#E66" height="8" stroke="#A00" stroke-width="1" width="8" x="149.71428571428572" y="573.1428571428571" /><rect fill="#E66" height="8" stroke="#A00" stroke-width="1" width="8" x="703.4285714285713" y="768.5714285714286" /><rect fill="#E66" height="8" stroke="#A00" stroke-width="1" width="8" x="833.7142857142857" y="573.1428571428571" /><rect fill="#E66" height="8" stroke="#A00" stroke-width="1" width="8" x="475.4285714285714" y="442.8571428571429" /><rect fill="#E66" height="8" stroke="#A00" stroke-width="1" width="8" x="703.4285714285713" y="508.0" /><rect fill="#E66" height="8" stroke="#A00" stroke-width="1" width="8" x="703.4285714285713" y="312.57142857142867" /><rect fill="#E66" height="8" stroke="#A00" stroke-width="1" width="8" x="149.71428571428572" y="312.57142857142867" /><rect fill="#E66" height="8" stroke="#A00" stroke-width="1" width="8" x="149.71428571428572" y="182.28571428571433" /><rect fill="#E66" height="8" stroke="#A00" stroke-width="1" width="8" x="475.4285714285714" y="182.28571428571433" /><rect fill="#E66" height="8" stroke="#A00" stroke-width="1" width="8" x="833.7142857142857" y="182.28571428571433" /><rect fill="#69E" height="6" stroke="#04A" stroke-width="1" width="12" x="473.4285714285714" y="965.0" /><rect fill="#69E" height="6" stroke="#04A" stroke-width="1" width="12" x="831.7142857142857" y="965.0" /><rect fill="#69E" height="6" stroke="#04A" stroke-width="1" width="12" x="962.0" y="769.5714285714286" /><rect fill="#69E" height="6" stroke="#04A" stroke-width="1" width="12" x="473.4285714285714" y="183.28571428571433" /><rect fill="#69E" height="6" stroke="#04A" stroke-width="1" width="12" x="962.0" y="313.57142857142867" /><rect fill="#69E" height="6" stroke="#04A" stroke-width="1" width="12" x="506.0" y="53.0" /><rect fill="#69E" height="6" stroke="#04A" stroke-width="1" width="12" x="50.0" y="443.8571428571429" /><text fill="#444" font-family="Arial, sans-serif" font-size="12" x="40" y="24">eu_md_1bed_chisinau_brezhnevka</text></svg>