<?xml version="1.0" encoding="utf-8" ?>
<svg baseProfile="full" height="1024" version="1.1" viewBox="0 0 1024 1024" width="1024" xmlns="http://www.w3.org/2000/svg" xmlns:ev="http://www.w3.org/2001/xml-events" xmlns:xlink="http://www.w3.org/1999/xlink"><defs /><rect fill="#FAFAFA" height="1024" width="1024" x="0" y="0" /><polygon fill="white" points="56.0,885.090909090909 968.0,885.090909090909 968.0,138.90909090909088 56.0,138.90909090909088" stroke="#222" stroke-width="3" /><polygon fill="#F5F5F5" points="56.0,885.090909090909 180.36363636363637,885.090909090909 180.36363636363637,636.3636363636363 56.0,636.3636363636363" stroke="#888" stroke-width="1" /><text fill="#333" font-family="Arial, sans-serif" font-size="12" text-anchor="middle" x="118.18181818181819" y="760.7272727272726">Hal</text><text fill="#666" font-family="Arial, sans-serif" font-size="10" text-anchor="middle" x="118.18181818181819" y="774.7272727272726">4.5 m²</text><polygon fill="#D1ECF1" points="180.36363636363637,885.090909090909 636.3636363636364,885.090909090909 636.3636363636364,470.5454545454545 180.36363636363637,470.5454545454545" stroke="#888" stroke-width="1" /><text fill="#333" font-family="Arial, sans-serif" font-size="12" text-anchor="middle" x="408.3636363636364" y="677.8181818181818">Woonkamer en-suite</text><text fill="#666" font-family="Arial, sans-serif" font-size="10" text-anchor="middle" x="408.3636363636364" y="691.8181818181818">27.5 m²</text><polygon fill="#FFF3CD" points="636.3636363636364,885.090909090909 885.090909090909,885.090909090909 885.090909090909,636.3636363636363 636.3636363636364,636.3636363636363" stroke="#888" stroke-width="1" /><text fill="#333" font-family="Arial, sans-serif" font-size="12" text-anchor="middle" x="760.7272727272727" y="760.7272727272726">Keuken</text><text fill="#666" font-family="Arial, sans-serif" font-size="10" text-anchor="middle" x="760.7272727272727" y="774.7272727272726">9 m²</text><polygon fill="#F8F9FA" points="885.090909090909,885.090909090909 968.0,885.090909090909 968.0,470.5454545454545 885.090909090909,470.5454545454545" stroke="#888" stroke-width="1" /><text fill="#333" font-family="Arial, sans-serif" font-size="12" text-anchor="middle" x="926.5454545454545" y="677.8181818181818">Erker (bay window)</text><text fill="#666" font-family="Arial, sans-serif" font-size="10" text-anchor="middle" x="926.5454545454545" y="691.8181818181818">5 m²</text><polygon fill="#D4EDDA" points="56.0,636.3636363636363 180.36363636363637,636.3636363636363 180.36363636363637,511.99999999999994 56.0,511.99999999999994" stroke="#888" stroke-width="1" /><text fill="#333" font-family="Arial, sans-serif" font-size="12" text-anchor="middle" x="118.18181818181819" y="574.1818181818181">WC</text><text fill="#666" font-family="Arial, sans-serif" font-size="10" text-anchor="middle" x="118.18181818181819" y="588.1818181818181">2.25 m²</text><polygon fill="#EEE" points="636.3636363636364,636.3636363636363 885.090909090909,636.3636363636363 885.090909090909,470.5454545454545 636.3636363636364,470.5454545454545" stroke="#888" stroke-width="1" /><text fill="#333" font-family="Arial, sans-serif" font-size="12" text-anchor="middle" x="760.7272727272727" y="553.4545454545454">Storage</text><text fill="#666" font-family="Arial, sans-serif" font-size="10" text-anchor="middle" x="760.7272727272727" y="567.4545454545454">6 m²</text><polygon fill="#D4EDDA" points="56.0,470.5454545454545 221.8181818181818,470.5454545454545 221.8181818181818,263.27272727272725 56.0,263.27272727272725" stroke="#888" stroke-width="1" /><text fill="#333" font-family="Arial, sans-serif" font-size="12" text-anchor="middle" x="138.9090909090909" y="366.9090909090909">Badkamer</text><text fill="#666" font-family="Arial, sans-serif" font-size="10" text-anchor="middle" x="138.9090909090909" y="380.9090909090909">5 m²</text><polygon fill="#D5C8E0" points="221.8181818181818,470.5454545454545 553.4545454545455,470.5454545454545 553.4545454545455,138.90909090909088 221.8181818181818,138.90909090909088" stroke="#888" stroke-width="1" /><text fill="#333" font-family="Arial, sans-serif" font-size="12" text-anchor="middle" x="387.6363636363636" y="304.7272727272727">Slaapkamer 1</text><text fill="#666" font-family="Arial, sans-serif" font-size="10" text-anchor="middle" x="387.6363636363636" y="318.7272727272727">16 m²</text><polygon fill="#E2D5F0" points="553.4545454545455,470.5454545454545 802.1818181818181,470.5454545454545 802.1818181818181,221.81818181818176 553.4545454545455,221.81818181818176" stroke="#888" stroke-width="1" /><text fill="#333" font-family="Arial, sans-serif" font-size="12" text-anchor="middle" x="677.8181818181818" y="346.18181818181813">Slaapkamer 2</text><text fill="#666" font-family="Arial, sans-serif" font-size="10" text-anchor="middle" x="677.8181818181818" y="360.18181818181813">9 m²</text><polygon fill="#E2D5F0" points="802.1818181818181,470.5454545454545 968.0,470.5454545454545 968.0,221.81818181818176 802.1818181818181,221.81818181818176" stroke="#888" stroke-width="1" /><text fill="#333" font-family="Arial, sans-serif" font-size="12" text-anchor="middle" x="885.090909090909" y="346.18181818181813">Slaapkamer 3</text><text fill="#666" font-family="Arial, sans-serif" font-size="10" text-anchor="middle" x="885.090909090909" y="360.18181818181813">6 m²</text><polygon fill="#F5F5F5" points="553.4545454545455,221.81818181818176 968.0,221.81818181818176 968.0,138.90909090909088 553.4545454545455,138.90909090909088" stroke="#888" stroke-width="1" /><text fill="#333" font-family="Arial, sans-serif" font-size="12" text-anchor="middle" x="760.7272727272727" y="180.36363636363632">Overloop</text><text fill="#666" font-family="Arial, sans-serif" font-size="10" text-anchor="middle" x="760.7272727272727" y="194.36363636363632">5 m²</text><polygon fill="#F5F5F5" points="56.0,263.27272727272725 221.8181818181818,263.27272727272725 221.8181818181818,138.90909090909088 56.0,138.90909090909088" stroke="#888" stroke-width="1" /><text fill="#333" font-family="Arial, sans-serif" font-size="12" text-anchor="middle" x="138.9090909090909" y="201.09090909090907">Hal back</text><text fill="#666" font-family="Arial, sans-serif" font-size="10" text-anchor="middle" x="138.9090909090909" y="215.09090909090907">3 m²</text><rect fill="#E66" height="8" stroke="#A00" stroke-width="1" width="8" x="93.45454545454545" y="881.090909090909" /><rect fill="#E66" height="8" stroke="#A00" stroke-width="1" width="8" x="176.36363636363637" y="756.7272727272726" /><rect fill="#E66" height="8" stroke="#A00" stroke-width="1" width="8" x="114.18181818181819" y="632.3636363636363" /><rect fill="#E66" height="8" stroke="#A00" stroke-width="1" width="8" x="114.18181818181819" y="466.5454545454545" /><rect fill="#E66" height="8" stroke="#A00" stroke-width="1" width="8" x="134.9090909090909" y="259.27272727272725" /><rect fill="#E66" height="8" stroke="#A00" stroke-width="1" width="8" x="217.8181818181818" y="197.090909090909" /><rect fill="#E66" height="8" stroke="#A00" stroke-width="1" width="8" x="632.3636363636364" y="756.7272727272726" /><rect fill="#E66" height="8" stroke="#A00" stroke-width="1" width="8" x="881.090909090909" y="756.7272727272726" /><rect fill="#E66" height="8" stroke="#A00" stroke-width="1" width="8" x="756.7272727272727" y="632.3636363636363" /><rect fill="#E66" height="8" stroke="#A00" stroke-width="1" width="8" x="383.6363636363636" y="466.5454545454545" /><rect fill="#E66" height="8" stroke="#A00" stroke-width="1" width="8" x="590.9090909090909" y="466.5454545454545" /><rect fill="#E66" height="8" stroke="#A00" stroke-width="1" width="8" x="839.6363636363636" y="466.5454545454545" /><rect fill="#E66" height="8" stroke="#A00" stroke-width="1" width="8" x="798.1818181818181" y="342.18181818181813" /><rect fill="#E66" height="8" stroke="#A00" stroke-width="1" width="8" x="549.4545454545455" y="176.36363636363626" /><rect fill="#E66" height="8" stroke="#A00" stroke-width="1" width="8" x="632.3636363636364" y="217.81818181818176" /><rect fill="#E66" height="8" stroke="#A00" stroke-width="1" width="8" x="881.090909090909" y="217.81818181818176" /><rect fill="#69E" height="6" stroke="#04A" stroke-width="1" width="12" x="381.6363636363636" y="882.090909090909" /><rect fill="#69E" height="6" stroke="#04A" stroke-width="1" width="12" x="754.7272727272727" y="882.090909090909" /><rect fill="#69E" height="6" stroke="#04A" stroke-width="1" width="12" x="920.5454545454545" y="882.090909090909" /><rect fill="#69E" height="6" stroke="#04A" stroke-width="1" width="12" x="962.0" y="674.8181818181818" /><rect fill="#69E" height="6" stroke="#04A" stroke-width="1" width="12" x="381.6363636363636" y="135.90909090909088" /><rect fill="#69E" height="6" stroke="#04A" stroke-width="1" width="12" x="671.8181818181818" y="218.81818181818176" /><rect fill="#69E" height="6" stroke="#04A" stroke-width="1" width="12" x="879.090909090909" y="218.81818181818176" /><rect fill="#69E" height="6" stroke="#04A" stroke-width="1" width="12" x="962.0" y="343.18181818181813" /><rect fill="#69E" height="6" stroke="#04A" stroke-width="1" width="12" x="50.0" y="384.63636363636357" /><rect fill="#69E" height="6" stroke="#04A" stroke-width="1" width="12" x="50.0" y="757.7272727272726" /><text fill="#444" font-family="Arial, sans-serif" font-size="12" x="40" y="24">eu_nl_3bed_utrecht_jaren30</text></svg>