<?xml version="1.0" encoding="utf-8" ?>
<svg baseProfile="full" height="1024" version="1.1" viewBox="0 0 1024 1024" width="1024" xmlns="http://www.w3.org/2000/svg" xmlns:ev="http://www.w3.org/2001/xml-events" xmlns:xlink="http://www.w3.org/1999/xlink"><defs /><rect fill="#FAFAFA" height="1024" width="1024" x="0" y="0" /><polygon fill="white" points="97.4545454545455,968.0 926.5454545454545,968.0 926.5454545454545,56.0 97.4545454545455,56.0" stroke="#222" stroke-width="3" /><polygon fill="#F5F5F5" points="97.4545454545455,968.0 263.2727272727273,968.0 263.2727272727273,719.2727272727273 97.4545454545455,719.2727272727273" stroke="#888" stroke-width="1" /><text fill="#333" font-family="Arial, sans-serif" font-size="12" text-anchor="middle" x="180.3636363636364" y="843.6363636363636">Hal</text><text fill="#666" font-family="Arial, sans-serif" font-size="10" text-anchor="middle" x="180.3636363636364" y="857.6363636363636">6 m²</text><polygon fill="#D1ECF1" points="263.2727272727273,968.0 677.8181818181819,968.0 677.8181818181819,553.4545454545455 263.2727272727273,553.4545454545455" stroke="#888" stroke-width="1" /><text fill="#333" font-family="Arial, sans-serif" font-size="12" text-anchor="middle" x="470.5454545454546" y="760.7272727272727">Woonkamer</text><text fill="#666" font-family="Arial, sans-serif" font-size="10" text-anchor="middle" x="470.5454545454546" y="774.7272727272727">25 m²</text><polygon fill="#FFF3CD" points="677.8181818181819,968.0 926.5454545454545,968.0 926.5454545454545,636.3636363636364 677.8181818181819,636.3636363636364" stroke="#888" stroke-width="1" /><text fill="#333" font-family="Arial, sans-serif" font-size="12" text-anchor="middle" x="802.1818181818182" y="802.1818181818182">Open Keuken</text><text fill="#666" font-family="Arial, sans-serif" font-size="10" text-anchor="middle" x="802.1818181818182" y="816.1818181818182">12 m²</text><polygon fill="#D4EDDA" points="97.4545454545455,719.2727272727273 263.2727272727273,719.2727272727273 263.2727272727273,553.4545454545455 97.4545454545455,553.4545454545455" stroke="#888" stroke-width="1" /><text fill="#333" font-family="Arial, sans-serif" font-size="12" text-anchor="middle" x="180.3636363636364" y="636.3636363636364">WC</text><text fill="#666" font-family="Arial, sans-serif" font-size="10" text-anchor="middle" x="180.3636363636364" y="650.3636363636364">4 m²</text><polygon fill="#EEE" points="677.8181818181819,636.3636363636364 926.5454545454545,636.3636363636364 926.5454545454545,553.4545454545455 677.8181818181819,553.4545454545455" stroke="#888" stroke-width="1" /><text fill="#333" font-family="Arial, sans-serif" font-size="12" text-anchor="middle" x="802.1818181818182" y="594.909090909091">Storage</text><text fill="#666" font-family="Arial, sans-serif" font-size="10" text-anchor="middle" x="802.1818181818182" y="608.909090909091">3 m²</text><polygon fill="#D5C8E0" points="97.4545454545455,553.4545454545455 429.0909090909091,553.4545454545455 429.0909090909091,304.72727272727275 97.4545454545455,304.72727272727275" stroke="#888" stroke-width="1" /><text fill="#333" font-family="Arial, sans-serif" font-size="12" text-anchor="middle" x="263.2727272727273" y="429.0909090909091">Master Slaapkamer</text><text fill="#666" font-family="Arial, sans-serif" font-size="10" text-anchor="middle" x="263.2727272727273" y="443.0909090909091">12 m²</text><polygon fill="#E2D5F0" points="429.0909090909091,553.4545454545455 677.8181818181819,553.4545454545455 677.8181818181819,304.72727272727275 429.0909090909091,304.72727272727275" stroke="#888" stroke-width="1" /><text fill="#333" font-family="Arial, sans-serif" font-size="12" text-anchor="middle" x="553.4545454545455" y="429.0909090909091">Slaapkamer 2</text><text fill="#666" font-family="Arial, sans-serif" font-size="10" text-anchor="middle" x="553.4545454545455" y="443.0909090909091">9 m²</text><polygon fill="#E2D5F0" points="677.8181818181819,553.4545454545455 926.5454545454545,553.4545454545455 926.5454545454545,304.72727272727275 677.8181818181819,304.72727272727275" stroke="#888" stroke-width="1" /><text fill="#333" font-family="Arial, sans-serif" font-size="12" text-anchor="middle" x="802.1818181818182" y="429.0909090909091">Slaapkamer 3</text><text fill="#666" font-family="Arial, sans-serif" font-size="10" text-anchor="middle" x="802.1818181818182" y="443.0909090909091">9 m²</text><polygon fill="#D4EDDA" points="97.4545454545455,304.72727272727275 346.18181818181824,304.72727272727275 346.18181818181824,138.909090909091 97.4545454545455,138.909090909091" stroke="#888" stroke-width="1" /><text fill="#333" font-family="Arial, sans-serif" font-size="12" text-anchor="middle" x="221.81818181818187" y="221.81818181818187">Badkamer</text><text fill="#666" font-family="Arial, sans-serif" font-size="10" text-anchor="middle" x="221.81818181818187" y="235.81818181818187">6 m²</text><polygon fill="#E5F0FF" points="346.18181818181824,304.72727272727275 677.8181818181819,304.72727272727275 677.8181818181819,138.909090909091 346.18181818181824,138.909090909091" stroke="#888" stroke-width="1" /><text fill="#333" font-family="Arial, sans-serif" font-size="12" text-anchor="middle" x="512.0" y="221.81818181818187">Hobbykamer</text><text fill="#666" font-family="Arial, sans-serif" font-size="10" text-anchor="middle" x="512.0" y="235.81818181818187">8 m²</text><polygon fill="#F5F5F5" points="677.8181818181819,304.72727272727275 926.5454545454545,304.72727272727275 926.5454545454545,138.909090909091 677.8181818181819,138.909090909091" stroke="#888" stroke-width="1" /><text fill="#333" font-family="Arial, sans-serif" font-size="12" text-anchor="middle" x="802.1818181818182" y="221.81818181818187">Overloop</text><text fill="#666" font-family="Arial, sans-serif" font-size="10" text-anchor="middle" x="802.1818181818182" y="235.81818181818187">6 m²</text><polygon fill="#F8F9FA" points="97.4545454545455,138.909090909091 926.5454545454545,138.909090909091 926.5454545454545,56.0 97.4545454545455,56.0" stroke="#888" stroke-width="1" /><text fill="#333" font-family="Arial, sans-serif" font-size="12" text-anchor="middle" x="512.0" y="97.4545454545455">Achtertuin</text><text fill="#666" font-family="Arial, sans-serif" font-size="10" text-anchor="middle" x="512.0" y="111.4545454545455">10 m²</text><rect fill="#E66" height="8" stroke="#A00" stroke-width="1" width="8" x="134.90909090909093" y="964.0" /><rect fill="#E66" height="8" stroke="#A00" stroke-width="1" width="8" x="259.2727272727273" y="839.6363636363636" /><rect fill="#E66" height="8" stroke="#A00" stroke-width="1" width="8" x="176.3636363636364" y="715.2727272727273" /><rect fill="#E66" height="8" stroke="#A00" stroke-width="1" width="8" x="673.8181818181819" y="798.1818181818182" /><rect fill="#E66" height="8" stroke="#A00" stroke-width="1" width="8" x="798.1818181818182" y="632.3636363636364" /><rect fill="#E66" height="8" stroke="#A00" stroke-width="1" width="8" x="342.18181818181824" y="549.4545454545455" /><rect fill="#E66" height="8" stroke="#A00" stroke-width="1" width="8" x="549.4545454545455" y="549.4545454545455" /><rect fill="#E66" height="8" stroke="#A00" stroke-width="1" width="8" x="798.1818181818182" y="549.4545454545455" /><rect fill="#E66" height="8" stroke="#A00" stroke-width="1" width="8" x="425.0909090909091" y="425.0909090909091" /><rect fill="#E66" height="8" stroke="#A00" stroke-width="1" width="8" x="673.8181818181819" y="425.0909090909091" /><rect fill="#E66" height="8" stroke="#A00" stroke-width="1" width="8" x="217.81818181818187" y="300.72727272727275" /><rect fill="#E66" height="8" stroke="#A00" stroke-width="1" width="8" x="549.4545454545455" y="300.72727272727275" /><rect fill="#E66" height="8" stroke="#A00" stroke-width="1" width="8" x="798.1818181818182" y="300.72727272727275" /><rect fill="#E66" height="8" stroke="#A00" stroke-width="1" width="8" x="673.8181818181819" y="217.81818181818187" /><rect fill="#E66" height="8" stroke="#A00" stroke-width="1" width="8" x="217.81818181818187" y="134.909090909091" /><rect fill="#E66" height="8" stroke="#A00" stroke-width="1" width="8" x="508.0" y="134.909090909091" /><rect fill="#E66" height="8" stroke="#A00" stroke-width="1" width="8" x="798.1818181818182" y="134.909090909091" /><rect fill="#69E" height="6" stroke="#04A" stroke-width="1" width="12" x="464.54545454545456" y="965.0" /><rect fill="#69E" height="6" stroke="#04A" stroke-width="1" width="12" x="796.1818181818182" y="965.0" /><rect fill="#69E" height="6" stroke="#04A" stroke-width="1" width="12" x="920.5454545454545" y="799.1818181818182" /><rect fill="#69E" height="6" stroke="#04A" stroke-width="1" width="12" x="91.4545454545455" y="426.0909090909091" /><rect fill="#69E" height="6" stroke="#04A" stroke-width="1" width="12" x="920.5454545454545" y="426.0909090909091" /><rect fill="#69E" height="6" stroke="#04A" stroke-width="1" width="12" x="506.0" y="53.0" /><rect fill="#69E" height="6" stroke="#04A" stroke-width="1" width="12" x="91.4545454545455" y="633.3636363636364" /><rect fill="#69E" height="6" stroke="#04A" stroke-width="1" width="12" x="91.4545454545455" y="840.6363636363636" /><text fill="#444" font-family="Arial, sans-serif" font-size="12" x="40" y="24">eu_nl_3bed_rotterdam_kralingen_rijtjeshuis</text></svg>