<?xml version="1.0" encoding="utf-8" ?>
<svg baseProfile="full" height="1024" version="1.1" viewBox="0 0 1024 1024" width="1024" xmlns="http://www.w3.org/2000/svg" xmlns:ev="http://www.w3.org/2001/xml-events" xmlns:xlink="http://www.w3.org/1999/xlink"><defs /><rect fill="#FAFAFA" height="1024" width="1024" x="0" y="0" /><polygon fill="white" points="413.3636363636364,490.0 610.6363636363636,490.0 610.6363636363636,56.0 413.3636363636364,56.0" stroke="#222" stroke-width="3" /><polygon fill="#F5F5F5" points="413.3636363636364,490.0 472.54545454545456,490.0 472.54545454545456,371.6363636363636 413.3636363636364,371.6363636363636" stroke="#888" stroke-width="1" /><text fill="#333" font-family="Arial, sans-serif" font-size="12" text-anchor="middle" x="442.9545454545455" y="430.8181818181818">Hal</text><text fill="#666" font-family="Arial, sans-serif" font-size="10" text-anchor="middle" x="442.9545454545455" y="444.8181818181818">4.5 m²</text><polygon fill="#FFF3CD" points="472.54545454545456,490.0 610.6363636363636,490.0 610.6363636363636,371.6363636363636 472.54545454545456,371.6363636363636" stroke="#888" stroke-width="1" /><text fill="#333" font-family="Arial, sans-serif" font-size="12" text-anchor="middle" x="541.5909090909091" y="430.8181818181818">Open Keuken</text><text fill="#666" font-family="Arial, sans-serif" font-size="10" text-anchor="middle" x="541.5909090909091" y="444.8181818181818">10.5 m²</text><polygon fill="#D4EDDA" points="413.3636363636364,371.6363636363636 472.54545454545456,371.6363636363636 472.54545454545456,312.4545454545455 413.3636363636364,312.4545454545455" stroke="#888" stroke-width="1" /><text fill="#333" font-family="Arial, sans-serif" font-size="12" text-anchor="middle" x="442.9545454545455" y="342.04545454545456">WC</text><text fill="#666" font-family="Arial, sans-serif" font-size="10" text-anchor="middle" x="442.9545454545455" y="356.04545454545456">2.25 m²</text><polygon fill="#EEE" points="472.54545454545456,371.6363636363636 610.6363636363636,371.6363636363636 610.6363636363636,312.4545454545455 472.54545454545456,312.4545454545455" stroke="#888" stroke-width="1" /><text fill="#333" font-family="Arial, sans-serif" font-size="12" text-anchor="middle" x="541.5909090909091" y="342.04545454545456">Storage</text><text fill="#666" font-family="Arial, sans-serif" font-size="10" text-anchor="middle" x="541.5909090909091" y="356.04545454545456">5.25 m²</text><polygon fill="#D1ECF1" points="413.3636363636364,312.4545454545455 610.6363636363636,312.4545454545455 610.6363636363636,174.36363636363637 413.3636363636364,174.36363636363637" stroke="#888" stroke-width="1" /><text fill="#333" font-family="Arial, sans-serif" font-size="12" text-anchor="middle" x="512.0" y="243.40909090909093">Woonkamer</text><text fill="#666" font-family="Arial, sans-serif" font-size="10" text-anchor="middle" x="512.0" y="257.40909090909093">17.5 m²</text><polygon fill="#F8F9FA" points="413.3636363636364,174.36363636363637 610.6363636363636,174.36363636363637 610.6363636363636,56.0 413.3636363636364,56.0" stroke="#888" stroke-width="1" /><text fill="#333" font-family="Arial, sans-serif" font-size="12" text-anchor="middle" x="512.0" y="115.18181818181819">Plaatsje (binnenplaats)</text><text fill="#666" font-family="Arial, sans-serif" font-size="10" text-anchor="middle" x="512.0" y="129.1818181818182">15 m²</text><rect fill="#E66" height="8" stroke="#A00" stroke-width="1" width="8" x="429.0909090909091" y="486.0" /><rect fill="#E66" height="8" stroke="#A00" stroke-width="1" width="8" x="468.54545454545456" y="426.8181818181818" /><rect fill="#E66" height="8" stroke="#A00" stroke-width="1" width="8" x="438.95454545454544" y="367.6363636363636" /><rect fill="#E66" height="8" stroke="#A00" stroke-width="1" width="8" x="527.7272727272727" y="367.6363636363636" /><rect fill="#E66" height="8" stroke="#A00" stroke-width="1" width="8" x="438.95454545454544" y="308.4545454545455" /><rect fill="#E66" height="8" stroke="#A00" stroke-width="1" width="8" x="527.7272727272727" y="308.4545454545455" /><rect fill="#E66" height="8" stroke="#A00" stroke-width="1" width="8" x="508.0" y="170.36363636363637" /><rect fill="#69E" height="6" stroke="#04A" stroke-width="1" width="12" x="525.7272727272727" y="487.0" /><rect fill="#69E" height="6" stroke="#04A" stroke-width="1" width="12" x="506.0" y="171.36363636363637" /><rect fill="#69E" height="6" stroke="#04A" stroke-width="1" width="12" x="407.3636363636364" y="240.4090909090909" /><rect fill="#69E" height="6" stroke="#04A" stroke-width="1" width="12" x="604.6363636363636" y="240.4090909090909" /><rect fill="#69E" height="6" stroke="#04A" stroke-width="1" width="12" x="506.0" y="53.0" /><rect fill="#69E" height="6" stroke="#04A" stroke-width="1" width="12" x="407.3636363636364" y="427.8181818181818" /><text fill="#1f4ed8" font-family="Arial, sans-serif" font-size="11" font-weight="bold" x="48" y="58.0">Begane Grond</text><polygon fill="white" points="376.375,962.0 647.625,962.0 647.625,528.0 376.375,528.0" stroke="#222" stroke-width="3" /><polygon fill="#F5F5F5" points="376.375,962.0 484.875,962.0 484.875,799.25 376.375,799.25" stroke="#888" stroke-width="1" /><text fill="#333" font-family="Arial, sans-serif" font-size="12" text-anchor="middle" x="430.625" y="880.625">Hal</text><text fill="#666" font-family="Arial, sans-serif" font-size="10" text-anchor="middle" x="430.625" y="894.625">6 m²</text><polygon fill="#D5C8E0" points="484.875,962.0 647.625,962.0 647.625,717.875 484.875,717.875" stroke="#888" stroke-width="1" /><text fill="#333" font-family="Arial, sans-serif" font-size="12" text-anchor="middle" x="566.25" y="839.9375">Master Slaapkamer</text><text fill="#666" font-family="Arial, sans-serif" font-size="10" text-anchor="middle" x="566.25" y="853.9375">13.5 m²</text><polygon fill="#D4EDDA" points="376.375,799.25 484.875,799.25 484.875,663.625 376.375,663.625" stroke="#888" stroke-width="1" /><text fill="#333" font-family="Arial, sans-serif" font-size="12" text-anchor="middle" x="430.625" y="731.4375">Badkamer</text><text fill="#666" font-family="Arial, sans-serif" font-size="10" text-anchor="middle" x="430.625" y="745.4375">5 m²</text><polygon fill="#E2D5F0" points="484.875,717.875 647.625,717.875 647.625,528.0 484.875,528.0" stroke="#888" stroke-width="1" /><text fill="#333" font-family="Arial, sans-serif" font-size="12" text-anchor="middle" x="566.25" y="622.9375">Slaapkamer 2</text><text fill="#666" font-family="Arial, sans-serif" font-size="10" text-anchor="middle" x="566.25" y="636.9375">10.5 m²</text><polygon fill="#F8F9FA" points="376.375,663.625 484.875,663.625 484.875,528.0 376.375,528.0" stroke="#888" stroke-width="1" /><text fill="#333" font-family="Arial, sans-serif" font-size="12" text-anchor="middle" x="430.625" y="595.8125">Balkon</text><text fill="#666" font-family="Arial, sans-serif" font-size="10" text-anchor="middle" x="430.625" y="609.8125">5 m²</text><rect fill="#E66" height="8" stroke="#A00" stroke-width="1" width="8" x="480.875" y="876.625" /><rect fill="#E66" height="8" stroke="#A00" stroke-width="1" width="8" x="426.625" y="795.25" /><rect fill="#E66" height="8" stroke="#A00" stroke-width="1" width="8" x="562.25" y="713.875" /><rect fill="#E66" height="8" stroke="#A00" stroke-width="1" width="8" x="426.625" y="659.625" /><rect fill="#E66" height="8" stroke="#A00" stroke-width="1" width="8" x="480.875" y="591.8125" /><rect fill="#69E" height="6" stroke="#04A" stroke-width="1" width="12" x="560.25" y="959.0" /><rect fill="#69E" height="6" stroke="#04A" stroke-width="1" width="12" x="560.25" y="525.0" /><rect fill="#69E" height="6" stroke="#04A" stroke-width="1" width="12" x="641.625" y="619.9375" /><rect fill="#69E" height="6" stroke="#04A" stroke-width="1" width="12" x="424.625" y="525.0" /><rect fill="#69E" height="6" stroke="#04A" stroke-width="1" width="12" x="370.375" y="728.4375" /><rect fill="#69E" height="6" stroke="#04A" stroke-width="1" width="12" x="370.375" y="877.625" /><text fill="#1f4ed8" font-family="Arial, sans-serif" font-size="11" font-weight="bold" x="48" y="530.0">Eerste Verdieping</text><text fill="#444" font-family="Arial, sans-serif" font-size="12" x="40" y="24">eu_nl_2bed_amsterdam_jordaan_trapgevel</text></svg>