<?xml version="1.0" encoding="utf-8" ?>
<svg baseProfile="full" height="1024" version="1.1" viewBox="0 0 1024 1024" width="1024" xmlns="http://www.w3.org/2000/svg" xmlns:ev="http://www.w3.org/2001/xml-events" xmlns:xlink="http://www.w3.org/1999/xlink"><defs /><rect fill="#FAFAFA" height="1024" width="1024" x="0" y="0" /><polygon fill="white" points="56.0,968.0 968.0,968.0 968.0,56.0 56.0,56.0" stroke="#222" stroke-width="3" /><polygon fill="#F5F5F5" points="56.0,968.0 186.28571428571428,968.0 186.28571428571428,707.4285714285714 56.0,707.4285714285714" stroke="#888" stroke-width="1" /><text fill="#333" font-family="Arial, sans-serif" font-size="12" text-anchor="middle" x="121.14285714285714" y="837.7142857142858">Hal</text><text fill="#666" font-family="Arial, sans-serif" font-size="10" text-anchor="middle" x="121.14285714285714" y="851.7142857142858">8 m²</text><polygon fill="#D1ECF1" points="186.28571428571428,968.0 577.1428571428571,968.0 577.1428571428571,577.1428571428571 186.28571428571428,577.1428571428571" stroke="#888" stroke-width="1" /><text fill="#333" font-family="Arial, sans-serif" font-size="12" text-anchor="middle" x="381.71428571428567" y="772.5714285714286">Woonkamer</text><text fill="#666" font-family="Arial, sans-serif" font-size="10" text-anchor="middle" x="381.71428571428567" y="786.5714285714286">36 m²</text><polygon fill="#E5F0FF" points="577.1428571428571,968.0 837.7142857142857,968.0 837.7142857142857,707.4285714285714 577.1428571428571,707.4285714285714" stroke="#888" stroke-width="1" /><text fill="#333" font-family="Arial, sans-serif" font-size="12" text-anchor="middle" x="707.4285714285713" y="837.7142857142858">Opkamer</text><text fill="#666" font-family="Arial, sans-serif" font-size="10" text-anchor="middle" x="707.4285714285713" y="851.7142857142858">16 m²</text><polygon fill="#EEE" points="837.7142857142857,968.0 968.0,968.0 968.0,707.4285714285714 837.7142857142857,707.4285714285714" stroke="#888" stroke-width="1" /><text fill="#333" font-family="Arial, sans-serif" font-size="12" text-anchor="middle" x="902.8571428571429" y="837.7142857142858">Melkkelder</text><text fill="#666" font-family="Arial, sans-serif" font-size="10" text-anchor="middle" x="902.8571428571429" y="851.7142857142858">8 m²</text><polygon fill="#FFF3CD" points="577.1428571428571,707.4285714285714 837.7142857142857,707.4285714285714 837.7142857142857,446.8571428571429 577.1428571428571,446.8571428571429" stroke="#888" stroke-width="1" /><text fill="#333" font-family="Arial, sans-serif" font-size="12" text-anchor="middle" x="707.4285714285713" y="577.1428571428571">Keuken-Eet</text><text fill="#666" font-family="Arial, sans-serif" font-size="10" text-anchor="middle" x="707.4285714285713" y="591.1428571428571">16 m²</text><polygon fill="#E0E0E0" points="837.7142857142857,707.4285714285714 968.0,707.4285714285714 968.0,446.8571428571429 837.7142857142857,446.8571428571429" stroke="#888" stroke-width="1" /><text fill="#333" font-family="Arial, sans-serif" font-size="12" text-anchor="middle" x="902.8571428571429" y="577.1428571428571">Bijkeuken</text><text fill="#666" font-family="Arial, sans-serif" font-size="10" text-anchor="middle" x="902.8571428571429" y="591.1428571428571">8 m²</text><polygon fill="#D4EDDA" points="56.0,707.4285714285714 186.28571428571428,707.4285714285714 186.28571428571428,446.8571428571429 56.0,446.8571428571429" stroke="#888" stroke-width="1" /><text fill="#333" font-family="Arial, sans-serif" font-size="12" text-anchor="middle" x="121.14285714285714" y="577.1428571428571">Badkamer</text><text fill="#666" font-family="Arial, sans-serif" font-size="10" text-anchor="middle" x="121.14285714285714" y="591.1428571428571">8 m²</text><polygon fill="#D5C8E0" points="186.28571428571428,577.1428571428571 446.85714285714283,577.1428571428571 446.85714285714283,316.57142857142867 186.28571428571428,316.57142857142867" stroke="#888" stroke-width="1" /><text fill="#333" font-family="Arial, sans-serif" font-size="12" text-anchor="middle" x="316.57142857142856" y="446.8571428571429">Master Slaapk</text><text fill="#666" font-family="Arial, sans-serif" font-size="10" text-anchor="middle" x="316.57142857142856" y="460.8571428571429">16 m²</text><polygon fill="#E2D5F0" points="446.85714285714283,577.1428571428571 577.1428571428571,577.1428571428571 577.1428571428571,316.57142857142867 446.85714285714283,316.57142857142867" stroke="#888" stroke-width="1" /><text fill="#333" font-family="Arial, sans-serif" font-size="12" text-anchor="middle" x="512.0" y="446.8571428571429">Slaapk 2</text><text fill="#666" font-family="Arial, sans-serif" font-size="10" text-anchor="middle" x="512.0" y="460.8571428571429">8 m²</text><polygon fill="#E2D5F0" points="577.1428571428571,446.8571428571429 837.7142857142857,446.8571428571429 837.7142857142857,251.42857142857144 577.1428571428571,251.42857142857144" stroke="#888" stroke-width="1" /><text fill="#333" font-family="Arial, sans-serif" font-size="12" text-anchor="middle" x="707.4285714285713" y="349.14285714285717">Slaapk 3</text><text fill="#666" font-family="Arial, sans-serif" font-size="10" text-anchor="middle" x="707.4285714285713" y="363.14285714285717">12 m²</text><polygon fill="#E2D5F0" points="837.7142857142857,446.8571428571429 968.0,446.8571428571429 968.0,251.42857142857144 837.7142857142857,251.42857142857144" stroke="#888" stroke-width="1" /><text fill="#333" font-family="Arial, sans-serif" font-size="12" text-anchor="middle" x="902.8571428571429" y="349.14285714285717">Slaapk 4</text><text fill="#666" font-family="Arial, sans-serif" font-size="10" text-anchor="middle" x="902.8571428571429" y="363.14285714285717">6 m²</text><polygon fill="#D4EDDA" points="577.1428571428571,251.42857142857144 707.4285714285713,251.42857142857144 707.4285714285713,121.14285714285722 577.1428571428571,121.14285714285722" stroke="#888" stroke-width="1" /><text fill="#333" font-family="Arial, sans-serif" font-size="12" text-anchor="middle" x="642.2857142857142" y="186.28571428571433">Bath 2</text><text fill="#666" font-family="Arial, sans-serif" font-size="10" text-anchor="middle" x="642.2857142857142" y="200.28571428571433">4 m²</text><polygon fill="#EEE" points="56.0,446.8571428571429 186.28571428571428,446.8571428571429 186.28571428571428,56.0 56.0,56.0" stroke="#888" stroke-width="1" /><text fill="#333" font-family="Arial, sans-serif" font-size="12" text-anchor="middle" x="121.14285714285714" y="251.42857142857144">Hooizolder (storage)</text><text fill="#666" font-family="Arial, sans-serif" font-size="10" text-anchor="middle" x="121.14285714285714" y="265.42857142857144">12 m²</text><polygon fill="#F5F5F5" points="186.28571428571428,316.57142857142867 577.1428571428571,316.57142857142867 577.1428571428571,56.0 186.28571428571428,56.0" stroke="#888" stroke-width="1" /><text fill="#333" font-family="Arial, sans-serif" font-size="12" text-anchor="middle" x="381.71428571428567" y="186.28571428571433">Hallway</text><text fill="#666" font-family="Arial, sans-serif" font-size="10" text-anchor="middle" x="381.71428571428567" y="200.28571428571433">24 m²</text><polygon fill="#F8F9FA" points="707.4285714285713,251.42857142857144 968.0,251.42857142857144 968.0,56.0 707.4285714285713,56.0" stroke="#888" stroke-width="1" /><text fill="#333" font-family="Arial, sans-serif" font-size="12" text-anchor="middle" x="837.7142857142857" y="153.71428571428572">Achtertuin</text><text fill="#666" font-family="Arial, sans-serif" font-size="10" text-anchor="middle" x="837.7142857142857" y="167.71428571428572">12 m²</text><polygon fill="#F5F5F5" points="577.1428571428571,121.14285714285722 707.4285714285713,121.14285714285722 707.4285714285713,56.0 577.1428571428571,56.0" stroke="#888" stroke-width="1" /><text fill="#333" font-family="Arial, sans-serif" font-size="12" text-anchor="middle" x="642.2857142857142" y="88.57142857142861">Bath2 passage</text><text fill="#666" font-family="Arial, sans-serif" font-size="10" text-anchor="middle" x="642.2857142857142" y="102.57142857142861">2 m²</text><rect fill="#E66" height="8" stroke="#A00" stroke-width="1" width="8" x="117.14285714285714" y="964.0" /><rect fill="#E66" height="8" stroke="#A00" stroke-width="1" width="8" x="182.28571428571428" y="833.7142857142858" /><rect fill="#E66" height="8" stroke="#A00" stroke-width="1" width="8" x="117.14285714285714" y="703.4285714285714" /><rect fill="#E66" height="8" stroke="#A00" stroke-width="1" width="8" x="573.1428571428571" y="833.7142857142858" /><rect fill="#E66" height="8" stroke="#A00" stroke-width="1" width="8" x="833.7142857142857" y="833.7142857142858" /><rect fill="#E66" height="8" stroke="#A00" stroke-width="1" width="8" x="573.1428571428571" y="638.2857142857143" /><rect fill="#E66" height="8" stroke="#A00" stroke-width="1" width="8" x="703.4285714285713" y="703.4285714285714" /><rect fill="#E66" height="8" stroke="#A00" stroke-width="1" width="8" x="833.7142857142857" y="573.1428571428571" /><rect fill="#E66" height="8" stroke="#A00" stroke-width="1" width="8" x="898.8571428571428" y="703.4285714285714" /><rect fill="#E66" height="8" stroke="#A00" stroke-width="1" width="8" x="312.57142857142856" y="573.1428571428571" /><rect fill="#E66" height="8" stroke="#A00" stroke-width="1" width="8" x="508.0" y="573.1428571428571" /><rect fill="#E66" height="8" stroke="#A00" stroke-width="1" width="8" x="703.4285714285713" y="442.8571428571429" /><rect fill="#E66" height="8" stroke="#A00" stroke-width="1" width="8" x="898.8571428571428" y="442.8571428571429" /><rect fill="#E66" height="8" stroke="#A00" stroke-width="1" width="8" x="833.7142857142857" y="345.1428571428572" /><rect fill="#E66" height="8" stroke="#A00" stroke-width="1" width="8" x="312.57142857142856" y="312.57142857142867" /><rect fill="#E66" height="8" stroke="#A00" stroke-width="1" width="8" x="508.0" y="312.57142857142867" /><rect fill="#E66" height="8" stroke="#A00" stroke-width="1" width="8" x="117.14285714285714" y="442.8571428571429" /><rect fill="#E66" height="8" stroke="#A00" stroke-width="1" width="8" x="182.28571428571428" y="182.28571428571433" /><rect fill="#E66" height="8" stroke="#A00" stroke-width="1" width="8" x="573.1428571428571" y="182.28571428571433" /><rect fill="#E66" height="8" stroke="#A00" stroke-width="1" width="8" x="638.2857142857142" y="117.14285714285722" /><rect fill="#E66" height="8" stroke="#A00" stroke-width="1" width="8" x="703.4285714285713" y="84.57142857142867" /><rect fill="#E66" height="8" stroke="#A00" stroke-width="1" width="8" x="768.5714285714286" y="247.42857142857144" /><rect fill="#69E" height="6" stroke="#04A" stroke-width="1" width="12" x="375.71428571428567" y="965.0" /><rect fill="#69E" height="6" stroke="#04A" stroke-width="1" width="12" x="701.4285714285713" y="965.0" /><rect fill="#69E" height="6" stroke="#04A" stroke-width="1" width="12" x="896.8571428571428" y="965.0" /><rect fill="#69E" height="6" stroke="#04A" stroke-width="1" width="12" x="962.0" y="574.1428571428571" /><rect fill="#69E" height="6" stroke="#04A" stroke-width="1" width="12" x="310.57142857142856" y="313.57142857142867" /><rect fill="#69E" height="6" stroke="#04A" stroke-width="1" width="12" x="180.28571428571428" y="443.8571428571429" /><rect fill="#69E" height="6" stroke="#04A" stroke-width="1" width="12" x="701.4285714285713" y="248.42857142857144" /><rect fill="#69E" height="6" stroke="#04A" stroke-width="1" width="12" x="896.8571428571428" y="248.42857142857144" /><rect fill="#69E" height="6" stroke="#04A" stroke-width="1" width="12" x="962.0" y="346.1428571428572" /><rect fill="#69E" height="6" stroke="#04A" stroke-width="1" width="12" x="50.0" y="248.42857142857144" /><rect fill="#69E" height="6" stroke="#04A" stroke-width="1" width="12" x="375.71428571428567" y="53.0" /><rect fill="#69E" height="6" stroke="#04A" stroke-width="1" width="12" x="831.7142857142857" y="53.0" /><rect fill="#69E" height="6" stroke="#04A" stroke-width="1" width="12" x="50.0" y="574.1428571428571" /><rect fill="#69E" height="6" stroke="#04A" stroke-width="1" width="12" x="50.0" y="834.7142857142858" /><text fill="#444" font-family="Arial, sans-serif" font-size="12" x="40" y="24">eu_nl_4bed_friese_stelpboerderij</text></svg>