<?xml version="1.0" encoding="utf-8" ?>
<svg baseProfile="full" height="1024" version="1.1" viewBox="0 0 1024 1024" width="1024" xmlns="http://www.w3.org/2000/svg" xmlns:ev="http://www.w3.org/2001/xml-events" xmlns:xlink="http://www.w3.org/1999/xlink"><defs /><rect fill="#FAFAFA" height="1024" width="1024" x="0" y="0" /><polygon fill="white" points="221.8181818181818,968.0 802.1818181818182,968.0 802.1818181818182,56.0 221.8181818181818,56.0" stroke="#222" stroke-width="3" /><polygon fill="#F5F5F5" points="221.8181818181818,968.0 346.1818181818182,968.0 346.1818181818182,719.2727272727273 221.8181818181818,719.2727272727273" stroke="#888" stroke-width="1" /><text fill="#333" font-family="Arial, sans-serif" font-size="12" text-anchor="middle" x="284.0" y="843.6363636363636">Hall</text><text fill="#666" font-family="Arial, sans-serif" font-size="10" text-anchor="middle" x="284.0" y="857.6363636363636">4.5 m²</text><polygon fill="#D1ECF1" points="346.1818181818182,968.0 636.3636363636363,968.0 636.3636363636363,553.4545454545455 346.1818181818182,553.4545454545455" stroke="#888" stroke-width="1" /><text fill="#333" font-family="Arial, sans-serif" font-size="12" text-anchor="middle" x="491.27272727272725" y="760.7272727272727">Sala</text><text fill="#666" font-family="Arial, sans-serif" font-size="10" text-anchor="middle" x="491.27272727272725" y="774.7272727272727">17.5 m²</text><polygon fill="#FFF3CD" points="636.3636363636363,968.0 802.1818181818182,968.0 802.1818181818182,636.3636363636364 636.3636363636363,636.3636363636364" stroke="#888" stroke-width="1" /><text fill="#333" font-family="Arial, sans-serif" font-size="12" text-anchor="middle" x="719.2727272727273" y="802.1818181818182">Cozinha</text><text fill="#666" font-family="Arial, sans-serif" font-size="10" text-anchor="middle" x="719.2727272727273" y="816.1818181818182">8 m²</text><polygon fill="#D4EDDA" points="221.8181818181818,719.2727272727273 346.1818181818182,719.2727272727273 346.1818181818182,594.909090909091 221.8181818181818,594.909090909091" stroke="#888" stroke-width="1" /><text fill="#333" font-family="Arial, sans-serif" font-size="12" text-anchor="middle" x="284.0" y="657.0909090909091">WC</text><text fill="#666" font-family="Arial, sans-serif" font-size="10" text-anchor="middle" x="284.0" y="671.0909090909091">2.25 m²</text><polygon fill="#EEE" points="636.3636363636363,636.3636363636364 802.1818181818182,636.3636363636364 802.1818181818182,470.54545454545456 636.3636363636363,470.54545454545456" stroke="#888" stroke-width="1" /><text fill="#333" font-family="Arial, sans-serif" font-size="12" text-anchor="middle" x="719.2727272727273" y="553.4545454545455">Storage</text><text fill="#666" font-family="Arial, sans-serif" font-size="10" text-anchor="middle" x="719.2727272727273" y="567.4545454545455">4 m²</text><polygon fill="#D4EDDA" points="221.8181818181818,594.909090909091 346.1818181818182,594.909090909091 346.1818181818182,387.6363636363636 221.8181818181818,387.6363636363636" stroke="#888" stroke-width="1" /><text fill="#333" font-family="Arial, sans-serif" font-size="12" text-anchor="middle" x="284.0" y="491.2727272727273">Casa de banho</text><text fill="#666" font-family="Arial, sans-serif" font-size="10" text-anchor="middle" x="284.0" y="505.2727272727273">3.75 m²</text><polygon fill="#D5C8E0" points="346.1818181818182,553.4545454545455 636.3636363636363,553.4545454545455 636.3636363636363,304.72727272727275 346.1818181818182,304.72727272727275" stroke="#888" stroke-width="1" /><text fill="#333" font-family="Arial, sans-serif" font-size="12" text-anchor="middle" x="491.27272727272725" y="429.0909090909091">Quarto principal</text><text fill="#666" font-family="Arial, sans-serif" font-size="10" text-anchor="middle" x="491.27272727272725" y="443.0909090909091">10.5 m²</text><polygon fill="#F8F9FA" points="636.3636363636363,470.54545454545456 802.1818181818182,470.54545454545456 802.1818181818182,56.0 636.3636363636363,56.0" stroke="#888" stroke-width="1" /><text fill="#333" font-family="Arial, sans-serif" font-size="12" text-anchor="middle" x="719.2727272727273" y="263.27272727272725">Marquise</text><text fill="#666" font-family="Arial, sans-serif" font-size="10" text-anchor="middle" x="719.2727272727273" y="277.27272727272725">10 m²</text><polygon fill="#E2D5F0" points="346.1818181818182,304.72727272727275 636.3636363636363,304.72727272727275 636.3636363636363,56.0 346.1818181818182,56.0" stroke="#888" stroke-width="1" /><text fill="#333" font-family="Arial, sans-serif" font-size="12" text-anchor="middle" x="491.27272727272725" y="180.36363636363637">Quarto 2</text><text fill="#666" font-family="Arial, sans-serif" font-size="10" text-anchor="middle" x="491.27272727272725" y="194.36363636363637">10.5 m²</text><polygon fill="#F5F5F5" points="221.8181818181818,387.6363636363636 346.1818181818182,387.6363636363636 346.1818181818182,56.0 221.8181818181818,56.0" stroke="#888" stroke-width="1" /><text fill="#333" font-family="Arial, sans-serif" font-size="12" text-anchor="middle" x="284.0" y="221.8181818181818">Hall back</text><text fill="#666" font-family="Arial, sans-serif" font-size="10" text-anchor="middle" x="284.0" y="235.8181818181818">6 m²</text><rect fill="#E66" height="8" stroke="#A00" stroke-width="1" width="8" x="259.27272727272725" y="964.0" /><rect fill="#E66" height="8" stroke="#A00" stroke-width="1" width="8" x="342.1818181818182" y="839.6363636363636" /><rect fill="#E66" height="8" stroke="#A00" stroke-width="1" width="8" x="280.0" y="715.2727272727273" /><rect fill="#E66" height="8" stroke="#A00" stroke-width="1" width="8" x="632.3636363636363" y="798.1818181818182" /><rect fill="#E66" height="8" stroke="#A00" stroke-width="1" width="8" x="715.2727272727273" y="632.3636363636364" /><rect fill="#E66" height="8" stroke="#A00" stroke-width="1" width="8" x="280.0" y="590.909090909091" /><rect fill="#E66" height="8" stroke="#A00" stroke-width="1" width="8" x="487.27272727272725" y="549.4545454545455" /><rect fill="#E66" height="8" stroke="#A00" stroke-width="1" width="8" x="715.2727272727273" y="466.54545454545456" /><rect fill="#E66" height="8" stroke="#A00" stroke-width="1" width="8" x="632.3636363636363" y="383.6363636363636" /><rect fill="#E66" height="8" stroke="#A00" stroke-width="1" width="8" x="280.0" y="383.6363636363636" /><rect fill="#E66" height="8" stroke="#A00" stroke-width="1" width="8" x="487.27272727272725" y="300.72727272727275" /><rect fill="#E66" height="8" stroke="#A00" stroke-width="1" width="8" x="632.3636363636363" y="176.36363636363637" /><rect fill="#E66" height="8" stroke="#A00" stroke-width="1" width="8" x="342.1818181818182" y="176.36363636363637" /><rect fill="#69E" height="6" stroke="#04A" stroke-width="1" width="12" x="485.27272727272725" y="965.0" /><rect fill="#69E" height="6" stroke="#04A" stroke-width="1" width="12" x="340.1818181818182" y="965.0" /><rect fill="#69E" height="6" stroke="#04A" stroke-width="1" width="12" x="713.2727272727273" y="965.0" /><rect fill="#69E" height="6" stroke="#04A" stroke-width="1" width="12" x="796.1818181818182" y="799.1818181818182" /><rect fill="#69E" height="6" stroke="#04A" stroke-width="1" width="12" x="485.27272727272725" y="301.72727272727275" /><rect fill="#69E" height="6" stroke="#04A" stroke-width="1" width="12" x="485.27272727272725" y="53.0" /><rect fill="#69E" height="6" stroke="#04A" stroke-width="1" width="12" x="713.2727272727273" y="53.0" /><rect fill="#69E" height="6" stroke="#04A" stroke-width="1" width="12" x="796.1818181818182" y="260.27272727272725" /><rect fill="#69E" height="6" stroke="#04A" stroke-width="1" width="12" x="215.8181818181818" y="488.2727272727273" /><rect fill="#69E" height="6" stroke="#04A" stroke-width="1" width="12" x="215.8181818181818" y="218.81818181818187" /><text fill="#444" font-family="Arial, sans-serif" font-size="12" x="40" y="24">eu_pt_2bed_porto_townhouse</text></svg>