<?xml version="1.0" encoding="utf-8" ?>
<svg baseProfile="full" height="1024" version="1.1" viewBox="0 0 1024 1024" width="1024" xmlns="http://www.w3.org/2000/svg" xmlns:ev="http://www.w3.org/2001/xml-events" xmlns:xlink="http://www.w3.org/1999/xlink"><defs /><rect fill="#FAFAFA" height="1024" width="1024" x="0" y="0" /><polygon fill="white" points="56.0,939.5 968.0,939.5 968.0,84.5 56.0,84.5" stroke="#222" stroke-width="3" /><polygon fill="#F5F5F5" points="56.0,939.5 284.0,939.5 284.0,597.5 56.0,597.5" stroke="#888" stroke-width="1" /><text fill="#333" font-family="Arial, sans-serif" font-size="12" text-anchor="middle" x="170.0" y="768.5">Przedpokój</text><text fill="#666" font-family="Arial, sans-serif" font-size="10" text-anchor="middle" x="170.0" y="782.5">6 m²</text><polygon fill="#D1ECF1" points="284.0,939.5 740.0,939.5 740.0,426.5 284.0,426.5" stroke="#888" stroke-width="1" /><text fill="#333" font-family="Arial, sans-serif" font-size="12" text-anchor="middle" x="512.0" y="683.0">Salon</text><text fill="#666" font-family="Arial, sans-serif" font-size="10" text-anchor="middle" x="512.0" y="697.0">18 m²</text><polygon fill="#FFF3CD" points="740.0,939.5 968.0,939.5 968.0,483.5 740.0,483.5" stroke="#888" stroke-width="1" /><text fill="#333" font-family="Arial, sans-serif" font-size="12" text-anchor="middle" x="854.0" y="711.5">Kuchnia</text><text fill="#666" font-family="Arial, sans-serif" font-size="10" text-anchor="middle" x="854.0" y="725.5">8 m²</text><polygon fill="#D4EDDA" points="56.0,597.5 284.0,597.5 284.0,369.5 56.0,369.5" stroke="#888" stroke-width="1" /><text fill="#333" font-family="Arial, sans-serif" font-size="12" text-anchor="middle" x="170.0" y="483.5">Łazienka</text><text fill="#666" font-family="Arial, sans-serif" font-size="10" text-anchor="middle" x="170.0" y="497.5">4 m²</text><polygon fill="#D5C8E0" points="284.0,426.5 740.0,426.5 740.0,84.5 284.0,84.5" stroke="#888" stroke-width="1" /><text fill="#333" font-family="Arial, sans-serif" font-size="12" text-anchor="middle" x="512.0" y="255.5">Sypialnia (master)</text><text fill="#666" font-family="Arial, sans-serif" font-size="10" text-anchor="middle" x="512.0" y="269.5">12 m²</text><polygon fill="#E2D5F0" points="740.0,483.5 968.0,483.5 968.0,84.5 740.0,84.5" stroke="#888" stroke-width="1" /><text fill="#333" font-family="Arial, sans-serif" font-size="12" text-anchor="middle" x="854.0" y="284.0">Sypialnia (gabinet)</text><text fill="#666" font-family="Arial, sans-serif" font-size="10" text-anchor="middle" x="854.0" y="298.0">7 m²</text><polygon fill="#F8F9FA" points="56.0,369.5 284.0,369.5 284.0,84.5 56.0,84.5" stroke="#888" stroke-width="1" /><text fill="#333" font-family="Arial, sans-serif" font-size="12" text-anchor="middle" x="170.0" y="227.0">Balkon</text><text fill="#666" font-family="Arial, sans-serif" font-size="10" text-anchor="middle" x="170.0" y="241.0">5 m²</text><rect fill="#E66" height="8" stroke="#A00" stroke-width="1" width="8" x="109.0" y="935.5" /><rect fill="#E66" height="8" stroke="#A00" stroke-width="1" width="8" x="280.0" y="764.5" /><rect fill="#E66" height="8" stroke="#A00" stroke-width="1" width="8" x="166.0" y="593.5" /><rect fill="#E66" height="8" stroke="#A00" stroke-width="1" width="8" x="166.0" y="365.5" /><rect fill="#E66" height="8" stroke="#A00" stroke-width="1" width="8" x="736.0" y="679.0" /><rect fill="#E66" height="8" stroke="#A00" stroke-width="1" width="8" x="508.0" y="422.5" /><rect fill="#E66" height="8" stroke="#A00" stroke-width="1" width="8" x="850.0" y="479.5" /><rect fill="#E66" height="8" stroke="#A00" stroke-width="1" width="8" x="736.0" y="251.5" /><rect fill="#E66" height="8" stroke="#A00" stroke-width="1" width="8" x="280.0" y="223.0" /><rect fill="#69E" height="6" stroke="#04A" stroke-width="1" width="12" x="506.0" y="936.5" /><rect fill="#69E" height="6" stroke="#04A" stroke-width="1" width="12" x="848.0" y="936.5" /><rect fill="#69E" height="6" stroke="#04A" stroke-width="1" width="12" x="962.0" y="708.5" /><rect fill="#69E" height="6" stroke="#04A" stroke-width="1" width="12" x="506.0" y="81.5" /><rect fill="#69E" height="6" stroke="#04A" stroke-width="1" width="12" x="848.0" y="81.5" /><rect fill="#69E" height="6" stroke="#04A" stroke-width="1" width="12" x="962.0" y="281.0" /><rect fill="#69E" height="6" stroke="#04A" stroke-width="1" width="12" x="50.0" y="480.5" /><text fill="#444" font-family="Arial, sans-serif" font-size="12" x="40" y="24">eu_pl_2bed_warsaw_kamienica</text></svg>