<?xml version="1.0" encoding="utf-8" ?>
<svg baseProfile="full" height="1024" version="1.1" viewBox="0 0 1024 1024" width="1024" xmlns="http://www.w3.org/2000/svg" xmlns:ev="http://www.w3.org/2001/xml-events" xmlns:xlink="http://www.w3.org/1999/xlink"><defs /><rect fill="#FAFAFA" height="1024" width="1024" x="0" y="0" /><polygon fill="white" points="106.66666666666669,968.0 917.3333333333333,968.0 917.3333333333333,56.0 106.66666666666669,56.0" stroke="#222" stroke-width="3" /><polygon fill="#F5F5F5" points="106.66666666666669,968.0 309.33333333333337,968.0 309.33333333333337,562.6666666666667 106.66666666666669,562.6666666666667" stroke="#888" stroke-width="1" /><text fill="#333" font-family="Arial, sans-serif" font-size="12" text-anchor="middle" x="208.00000000000003" y="765.3333333333334">Hall</text><text fill="#666" font-family="Arial, sans-serif" font-size="10" text-anchor="middle" x="208.00000000000003" y="779.3333333333334">8 m²</text><polygon fill="#D1ECF1" points="309.33333333333337,968.0 714.6666666666667,968.0 714.6666666666667,461.33333333333337 309.33333333333337,461.33333333333337" stroke="#888" stroke-width="1" /><text fill="#333" font-family="Arial, sans-serif" font-size="12" text-anchor="middle" x="512.0" y="714.6666666666667">Sala</text><text fill="#666" font-family="Arial, sans-serif" font-size="10" text-anchor="middle" x="512.0" y="728.6666666666667">20 m²</text><polygon fill="#FFF3CD" points="714.6666666666667,968.0 917.3333333333333,968.0 917.3333333333333,461.33333333333337 714.6666666666667,461.33333333333337" stroke="#888" stroke-width="1" /><text fill="#333" font-family="Arial, sans-serif" font-size="12" text-anchor="middle" x="816.0" y="714.6666666666667">Cozinha</text><text fill="#666" font-family="Arial, sans-serif" font-size="10" text-anchor="middle" x="816.0" y="728.6666666666667">10 m²</text><polygon fill="#D4EDDA" points="106.66666666666669,562.6666666666667 309.33333333333337,562.6666666666667 309.33333333333337,258.66666666666674 106.66666666666669,258.66666666666674" stroke="#888" stroke-width="1" /><text fill="#333" font-family="Arial, sans-serif" font-size="12" text-anchor="middle" x="208.00000000000003" y="410.66666666666674">Casa de banho</text><text fill="#666" font-family="Arial, sans-serif" font-size="10" text-anchor="middle" x="208.00000000000003" y="424.66666666666674">6 m²</text><polygon fill="#D5C8E0" points="309.33333333333337,461.33333333333337 613.3333333333333,461.33333333333337 613.3333333333333,157.33333333333337 309.33333333333337,157.33333333333337" stroke="#888" stroke-width="1" /><text fill="#333" font-family="Arial, sans-serif" font-size="12" text-anchor="middle" x="461.3333333333333" y="309.33333333333337">Quarto principal</text><text fill="#666" font-family="Arial, sans-serif" font-size="10" text-anchor="middle" x="461.3333333333333" y="323.33333333333337">9 m²</text><polygon fill="#E2D5F0" points="613.3333333333333,461.33333333333337 917.3333333333333,461.33333333333337 917.3333333333333,157.33333333333337 613.3333333333333,157.33333333333337" stroke="#888" stroke-width="1" /><text fill="#333" font-family="Arial, sans-serif" font-size="12" text-anchor="middle" x="765.3333333333333" y="309.33333333333337">Quarto 2</text><text fill="#666" font-family="Arial, sans-serif" font-size="10" text-anchor="middle" x="765.3333333333333" y="323.33333333333337">9 m²</text><polygon fill="#F8F9FA" points="309.33333333333337,157.33333333333337 917.3333333333333,157.33333333333337 917.3333333333333,56.0 309.33333333333337,56.0" stroke="#888" stroke-width="1" /><text fill="#333" font-family="Arial, sans-serif" font-size="12" text-anchor="middle" x="613.3333333333333" y="106.66666666666669">Marquise</text><text fill="#666" font-family="Arial, sans-serif" font-size="10" text-anchor="middle" x="613.3333333333333" y="120.66666666666669">6 m²</text><polygon fill="#F5F5F5" points="106.66666666666669,258.66666666666674 309.33333333333337,258.66666666666674 309.33333333333337,56.0 106.66666666666669,56.0" stroke="#888" stroke-width="1" /><text fill="#333" font-family="Arial, sans-serif" font-size="12" text-anchor="middle" x="208.00000000000003" y="157.33333333333337">Hall back</text><text fill="#666" font-family="Arial, sans-serif" font-size="10" text-anchor="middle" x="208.00000000000003" y="171.33333333333337">4 m²</text><rect fill="#E66" height="8" stroke="#A00" stroke-width="1" width="8" x="153.33333333333334" y="964.0" /><rect fill="#E66" height="8" stroke="#A00" stroke-width="1" width="8" x="305.33333333333337" y="761.3333333333334" /><rect fill="#E66" height="8" stroke="#A00" stroke-width="1" width="8" x="204.0" y="558.6666666666667" /><rect fill="#E66" height="8" stroke="#A00" stroke-width="1" width="8" x="710.6666666666667" y="710.6666666666667" /><rect fill="#E66" height="8" stroke="#A00" stroke-width="1" width="8" x="457.3333333333333" y="457.33333333333337" /><rect fill="#E66" height="8" stroke="#A00" stroke-width="1" width="8" x="761.3333333333333" y="457.33333333333337" /><rect fill="#E66" height="8" stroke="#A00" stroke-width="1" width="8" x="204.0" y="254.66666666666674" /><rect fill="#E66" height="8" stroke="#A00" stroke-width="1" width="8" x="609.3333333333333" y="305.33333333333337" /><rect fill="#E66" height="8" stroke="#A00" stroke-width="1" width="8" x="457.3333333333333" y="153.33333333333337" /><rect fill="#E66" height="8" stroke="#A00" stroke-width="1" width="8" x="761.3333333333333" y="153.33333333333337" /><rect fill="#E66" height="8" stroke="#A00" stroke-width="1" width="8" x="305.33333333333337" y="102.66666666666674" /><rect fill="#69E" height="6" stroke="#04A" stroke-width="1" width="12" x="506.0" y="965.0" /><rect fill="#69E" height="6" stroke="#04A" stroke-width="1" width="12" x="810.0" y="965.0" /><rect fill="#69E" height="6" stroke="#04A" stroke-width="1" width="12" x="911.3333333333333" y="711.6666666666667" /><rect fill="#69E" height="6" stroke="#04A" stroke-width="1" width="12" x="455.3333333333333" y="154.33333333333337" /><rect fill="#69E" height="6" stroke="#04A" stroke-width="1" width="12" x="759.3333333333333" y="154.33333333333337" /><rect fill="#69E" height="6" stroke="#04A" stroke-width="1" width="12" x="911.3333333333333" y="306.33333333333337" /><rect fill="#69E" height="6" stroke="#04A" stroke-width="1" width="12" x="607.3333333333333" y="53.0" /><rect fill="#69E" height="6" stroke="#04A" stroke-width="1" width="12" x="100.66666666666669" y="407.66666666666674" /><rect fill="#69E" height="6" stroke="#04A" stroke-width="1" width="12" x="100.66666666666669" y="762.3333333333334" /><text fill="#444" font-family="Arial, sans-serif" font-size="12" x="40" y="24">eu_pt_2bed_lisbon_pombaline</text></svg>