<?xml version="1.0" encoding="utf-8" ?>
<svg baseProfile="full" height="1024" version="1.1" viewBox="0 0 1024 1024" width="1024" xmlns="http://www.w3.org/2000/svg" xmlns:ev="http://www.w3.org/2001/xml-events" xmlns:xlink="http://www.w3.org/1999/xlink"><defs /><rect fill="#FAFAFA" height="1024" width="1024" x="0" y="0" /><polygon fill="white" points="56.0,922.4000000000001 968.0,922.4000000000001 968.0,101.60000000000002 56.0,101.60000000000002" stroke="#222" stroke-width="3" /><polygon fill="#F5F5F5" points="56.0,922.4000000000001 238.4,922.4000000000001 238.4,648.8000000000001 56.0,648.8000000000001" stroke="#888" stroke-width="1" /><text fill="#333" font-family="Arial, sans-serif" font-size="12" text-anchor="middle" x="147.2" y="785.6000000000001">Прихожая (Hall)</text><text fill="#666" font-family="Arial, sans-serif" font-size="10" text-anchor="middle" x="147.2" y="799.6000000000001">6 m²</text><polygon fill="#D1ECF1" points="238.4,922.4000000000001 694.4,922.4000000000001 694.4,466.4000000000001 238.4,466.4000000000001" stroke="#888" stroke-width="1" /><text fill="#333" font-family="Arial, sans-serif" font-size="12" text-anchor="middle" x="466.4" y="694.4000000000001">Гостиная (Living)</text><text fill="#666" font-family="Arial, sans-serif" font-size="10" text-anchor="middle" x="466.4" y="708.4000000000001">25 m²</text><polygon fill="#FFF3CD" points="694.4,922.4000000000001 968.0,922.4000000000001 968.0,466.4000000000001 694.4,466.4000000000001" stroke="#888" stroke-width="1" /><text fill="#333" font-family="Arial, sans-serif" font-size="12" text-anchor="middle" x="831.2" y="694.4000000000001">Кухня (Kitchen)</text><text fill="#666" font-family="Arial, sans-serif" font-size="10" text-anchor="middle" x="831.2" y="708.4000000000001">15 m²</text><polygon fill="#D4EDDA" points="56.0,648.8000000000001 238.4,648.8000000000001 238.4,512.0 56.0,512.0" stroke="#888" stroke-width="1" /><text fill="#333" font-family="Arial, sans-serif" font-size="12" text-anchor="middle" x="147.2" y="580.4000000000001">Туалет (WC)</text><text fill="#666" font-family="Arial, sans-serif" font-size="10" text-anchor="middle" x="147.2" y="594.4000000000001">3 m²</text><polygon fill="#D4EDDA" points="56.0,512.0 238.4,512.0 238.4,284.0000000000001 56.0,284.0000000000001" stroke="#888" stroke-width="1" /><text fill="#333" font-family="Arial, sans-serif" font-size="12" text-anchor="middle" x="147.2" y="398.00000000000006">Ванная (Bath)</text><text fill="#666" font-family="Arial, sans-serif" font-size="10" text-anchor="middle" x="147.2" y="412.00000000000006">5 m²</text><polygon fill="#D5C8E0" points="238.4,466.4000000000001 603.2,466.4000000000001 603.2,284.0000000000001 238.4,284.0000000000001" stroke="#888" stroke-width="1" /><text fill="#333" font-family="Arial, sans-serif" font-size="12" text-anchor="middle" x="420.8" y="375.2000000000001">Спальня 1 (Master)</text><text fill="#666" font-family="Arial, sans-serif" font-size="10" text-anchor="middle" x="420.8" y="389.2000000000001">8 m²</text><polygon fill="#E2D5F0" points="603.2,466.4000000000001 968.0,466.4000000000001 968.0,284.0000000000001 603.2,284.0000000000001" stroke="#888" stroke-width="1" /><text fill="#333" font-family="Arial, sans-serif" font-size="12" text-anchor="middle" x="785.6" y="375.2000000000001">Спальня 2</text><text fill="#666" font-family="Arial, sans-serif" font-size="10" text-anchor="middle" x="785.6" y="389.2000000000001">8 m²</text><polygon fill="#F8F9FA" points="56.0,284.0000000000001 968.0,284.0000000000001 968.0,101.60000000000002 56.0,101.60000000000002" stroke="#888" stroke-width="1" /><text fill="#333" font-family="Arial, sans-serif" font-size="12" text-anchor="middle" x="512.0" y="192.80000000000007">Балкон</text><text fill="#666" font-family="Arial, sans-serif" font-size="10" text-anchor="middle" x="512.0" y="206.80000000000007">20 m²</text><rect fill="#E66" height="8" stroke="#A00" stroke-width="1" width="8" x="97.6" y="918.4000000000001" /><rect fill="#E66" height="8" stroke="#A00" stroke-width="1" width="8" x="234.4" y="781.6000000000001" /><rect fill="#E66" height="8" stroke="#A00" stroke-width="1" width="8" x="143.2" y="644.8000000000001" /><rect fill="#E66" height="8" stroke="#A00" stroke-width="1" width="8" x="143.2" y="508.0" /><rect fill="#E66" height="8" stroke="#A00" stroke-width="1" width="8" x="690.4" y="690.4000000000001" /><rect fill="#E66" height="8" stroke="#A00" stroke-width="1" width="8" x="416.8" y="462.4000000000001" /><rect fill="#E66" height="8" stroke="#A00" stroke-width="1" width="8" x="827.2" y="462.4000000000001" /><rect fill="#E66" height="8" stroke="#A00" stroke-width="1" width="8" x="599.2" y="371.20000000000005" /><rect fill="#E66" height="8" stroke="#A00" stroke-width="1" width="8" x="143.2" y="280.0000000000001" /><rect fill="#E66" height="8" stroke="#A00" stroke-width="1" width="8" x="416.8" y="280.0000000000001" /><rect fill="#E66" height="8" stroke="#A00" stroke-width="1" width="8" x="781.6" y="280.0000000000001" /><rect fill="#69E" height="6" stroke="#04A" stroke-width="1" width="12" x="460.40000000000003" y="919.4000000000001" /><rect fill="#69E" height="6" stroke="#04A" stroke-width="1" width="12" x="825.2" y="919.4000000000001" /><rect fill="#69E" height="6" stroke="#04A" stroke-width="1" width="12" x="962.0" y="691.4000000000001" /><rect fill="#69E" height="6" stroke="#04A" stroke-width="1" width="12" x="414.8" y="189.80000000000007" /><rect fill="#69E" height="6" stroke="#04A" stroke-width="1" width="12" x="779.6" y="189.80000000000007" /><rect fill="#69E" height="6" stroke="#04A" stroke-width="1" width="12" x="962.0" y="326.6" /><rect fill="#69E" height="6" stroke="#04A" stroke-width="1" width="12" x="506.0" y="98.60000000000002" /><rect fill="#69E" height="6" stroke="#04A" stroke-width="1" width="12" x="50.0" y="395.0000000000001" /><rect fill="#69E" height="6" stroke="#04A" stroke-width="1" width="12" x="50.0" y="782.6000000000001" /><text fill="#444" font-family="Arial, sans-serif" font-size="12" x="40" y="24">eu_ru_2bed_moscow_stalinka</text></svg>