<?xml version="1.0" encoding="utf-8" ?>
<svg baseProfile="full" height="1024" version="1.1" viewBox="0 0 1024 1024" width="1024" xmlns="http://www.w3.org/2000/svg" xmlns:ev="http://www.w3.org/2001/xml-events" xmlns:xlink="http://www.w3.org/1999/xlink"><defs /><rect fill="#FAFAFA" height="1024" width="1024" x="0" y="0" /><polygon fill="white" points="56.0,892.0 968.0,892.0 968.0,132.0 56.0,132.0" stroke="#222" stroke-width="3" /><polygon fill="#F5F5F5" points="56.0,892.0 284.0,892.0 284.0,588.0 56.0,588.0" stroke="#888" stroke-width="1" /><text fill="#333" font-family="Arial, sans-serif" font-size="12" text-anchor="middle" x="170.0" y="740.0">Hall</text><text fill="#666" font-family="Arial, sans-serif" font-size="10" text-anchor="middle" x="170.0" y="754.0">12 m²</text><polygon fill="#D1ECF1" points="284.0,892.0 664.0,892.0 664.0,512.0 284.0,512.0" stroke="#888" stroke-width="1" /><text fill="#333" font-family="Arial, sans-serif" font-size="12" text-anchor="middle" x="474.0" y="702.0">Vardagsrum</text><text fill="#666" font-family="Arial, sans-serif" font-size="10" text-anchor="middle" x="474.0" y="716.0">25 m²</text><polygon fill="#FFE5E5" points="664.0,892.0 968.0,892.0 968.0,588.0 664.0,588.0" stroke="#888" stroke-width="1" /><text fill="#333" font-family="Arial, sans-serif" font-size="12" text-anchor="middle" x="816.0" y="740.0">Matsal</text><text fill="#666" font-family="Arial, sans-serif" font-size="10" text-anchor="middle" x="816.0" y="754.0">16 m²</text><polygon fill="#FFF3CD" points="664.0,588.0 968.0,588.0 968.0,360.0 664.0,360.0" stroke="#888" stroke-width="1" /><text fill="#333" font-family="Arial, sans-serif" font-size="12" text-anchor="middle" x="816.0" y="474.0">Kök</text><text fill="#666" font-family="Arial, sans-serif" font-size="10" text-anchor="middle" x="816.0" y="488.0">12 m²</text><polygon fill="#EEE" points="56.0,588.0 284.0,588.0 284.0,436.0 56.0,436.0" stroke="#888" stroke-width="1" /><text fill="#333" font-family="Arial, sans-serif" font-size="12" text-anchor="middle" x="170.0" y="512.0">Klädkammare</text><text fill="#666" font-family="Arial, sans-serif" font-size="10" text-anchor="middle" x="170.0" y="526.0">6 m²</text><polygon fill="#D4EDDA" points="56.0,436.0 284.0,436.0 284.0,284.0 56.0,284.0" stroke="#888" stroke-width="1" /><text fill="#333" font-family="Arial, sans-serif" font-size="12" text-anchor="middle" x="170.0" y="360.0">Badrum</text><text fill="#666" font-family="Arial, sans-serif" font-size="10" text-anchor="middle" x="170.0" y="374.0">6 m²</text><polygon fill="#D4EDDA" points="56.0,284.0 284.0,284.0 284.0,132.0 56.0,132.0" stroke="#888" stroke-width="1" /><text fill="#333" font-family="Arial, sans-serif" font-size="12" text-anchor="middle" x="170.0" y="208.0">Separat WC</text><text fill="#666" font-family="Arial, sans-serif" font-size="10" text-anchor="middle" x="170.0" y="222.0">6 m²</text><polygon fill="#D5C8E0" points="284.0,512.0 664.0,512.0 664.0,132.0 284.0,132.0" stroke="#888" stroke-width="1" /><text fill="#333" font-family="Arial, sans-serif" font-size="12" text-anchor="middle" x="474.0" y="322.0">Sovrum 1 (Master)</text><text fill="#666" font-family="Arial, sans-serif" font-size="10" text-anchor="middle" x="474.0" y="336.0">25 m²</text><polygon fill="#E2D5F0" points="664.0,360.0 968.0,360.0 968.0,132.0 664.0,132.0" stroke="#888" stroke-width="1" /><text fill="#333" font-family="Arial, sans-serif" font-size="12" text-anchor="middle" x="816.0" y="246.0">Sovrum 2</text><text fill="#666" font-family="Arial, sans-serif" font-size="10" text-anchor="middle" x="816.0" y="260.0">12 m²</text><rect fill="#E66" height="8" stroke="#A00" stroke-width="1" width="8" x="90.0" y="888.0" /><rect fill="#E66" height="8" stroke="#A00" stroke-width="1" width="8" x="280.0" y="736.0" /><rect fill="#E66" height="8" stroke="#A00" stroke-width="1" width="8" x="166.0" y="584.0" /><rect fill="#E66" height="8" stroke="#A00" stroke-width="1" width="8" x="166.0" y="432.0" /><rect fill="#E66" height="8" stroke="#A00" stroke-width="1" width="8" x="166.0" y="280.0" /><rect fill="#E66" height="8" stroke="#A00" stroke-width="1" width="8" x="660.0" y="736.0" /><rect fill="#E66" height="8" stroke="#A00" stroke-width="1" width="8" x="812.0" y="584.0" /><rect fill="#E66" height="8" stroke="#A00" stroke-width="1" width="8" x="470.0" y="508.0" /><rect fill="#E66" height="8" stroke="#A00" stroke-width="1" width="8" x="660.0" y="242.0" /><rect fill="#E66" height="8" stroke="#A00" stroke-width="1" width="8" x="812.0" y="356.0" /><rect fill="#E66" height="8" stroke="#A00" stroke-width="1" width="8" x="280.0" y="470.0" /><rect fill="#69E" height="6" stroke="#04A" stroke-width="1" width="12" x="468.0" y="889.0" /><rect fill="#69E" height="6" stroke="#04A" stroke-width="1" width="12" x="810.0" y="889.0" /><rect fill="#69E" height="6" stroke="#04A" stroke-width="1" width="12" x="962.0" y="737.0" /><rect fill="#69E" height="6" stroke="#04A" stroke-width="1" width="12" x="962.0" y="471.0" /><rect fill="#69E" height="6" stroke="#04A" stroke-width="1" width="12" x="468.0" y="129.0" /><rect fill="#69E" height="6" stroke="#04A" stroke-width="1" width="12" x="810.0" y="129.0" /><rect fill="#69E" height="6" stroke="#04A" stroke-width="1" width="12" x="962.0" y="243.0" /><rect fill="#69E" height="6" stroke="#04A" stroke-width="1" width="12" x="50.0" y="357.0" /><rect fill="#69E" height="6" stroke="#04A" stroke-width="1" width="12" x="50.0" y="205.0" /><rect fill="#69E" height="6" stroke="#04A" stroke-width="1" width="12" x="50.0" y="737.0" /><text fill="#444" font-family="Arial, sans-serif" font-size="12" x="40" y="24">eu_se_2bed_stockholm_sekelskifte</text></svg>