<?xml version="1.0" encoding="utf-8" ?>
<svg baseProfile="full" height="1024" version="1.1" viewBox="0 0 1024 1024" width="1024" xmlns="http://www.w3.org/2000/svg" xmlns:ev="http://www.w3.org/2001/xml-events" xmlns:xlink="http://www.w3.org/1999/xlink"><defs /><rect fill="#FAFAFA" height="1024" width="1024" x="0" y="0" /><polygon fill="white" points="56.0,941.1764705882354 968.0,941.1764705882354 968.0,82.82352941176475 56.0,82.82352941176475" stroke="#222" stroke-width="3" /><polygon fill="#F5F5F5" points="56.0,941.1764705882354 270.5882352941177,941.1764705882354 270.5882352941177,619.2941176470589 56.0,619.2941176470589" stroke="#888" stroke-width="1" /><text fill="#333" font-family="Arial, sans-serif" font-size="12" text-anchor="middle" x="163.29411764705884" y="780.2352941176471">Hall</text><text fill="#666" font-family="Arial, sans-serif" font-size="10" text-anchor="middle" x="163.29411764705884" y="794.2352941176471">6 m²</text><polygon fill="#D1ECF1" points="270.5882352941177,941.1764705882354 753.4117647058823,941.1764705882354 753.4117647058823,404.7058823529412 270.5882352941177,404.7058823529412" stroke="#888" stroke-width="1" /><text fill="#333" font-family="Arial, sans-serif" font-size="12" text-anchor="middle" x="512.0" y="672.9411764705883">Drawing Room</text><text fill="#666" font-family="Arial, sans-serif" font-size="10" text-anchor="middle" x="512.0" y="686.9411764705883">22.5 m²</text><polygon fill="#FFF3CD" points="753.4117647058823,941.1764705882354 968.0,941.1764705882354 968.0,404.7058823529412 753.4117647058823,404.7058823529412" stroke="#888" stroke-width="1" /><text fill="#333" font-family="Arial, sans-serif" font-size="12" text-anchor="middle" x="860.7058823529412" y="672.9411764705883">Kitchen</text><text fill="#666" font-family="Arial, sans-serif" font-size="10" text-anchor="middle" x="860.7058823529412" y="686.9411764705883">10 m²</text><polygon fill="#D4EDDA" points="56.0,619.2941176470589 270.5882352941177,619.2941176470589 270.5882352941177,351.0588235294118 56.0,351.0588235294118" stroke="#888" stroke-width="1" /><text fill="#333" font-family="Arial, sans-serif" font-size="12" text-anchor="middle" x="163.29411764705884" y="485.17647058823536">Bath</text><text fill="#666" font-family="Arial, sans-serif" font-size="10" text-anchor="middle" x="163.29411764705884" y="499.17647058823536">5 m²</text><polygon fill="#F5F5F5" points="56.0,351.0588235294118 270.5882352941177,351.0588235294118 270.5882352941177,82.82352941176475 56.0,82.82352941176475" stroke="#888" stroke-width="1" /><text fill="#333" font-family="Arial, sans-serif" font-size="12" text-anchor="middle" x="163.29411764705884" y="216.9411764705883">Inner Hall</text><text fill="#666" font-family="Arial, sans-serif" font-size="10" text-anchor="middle" x="163.29411764705884" y="230.9411764705883">5 m²</text><polygon fill="#D5C8E0" points="270.5882352941177,404.7058823529412 968.0,404.7058823529412 968.0,82.82352941176475 270.5882352941177,82.82352941176475" stroke="#888" stroke-width="1" /><text fill="#333" font-family="Arial, sans-serif" font-size="12" text-anchor="middle" x="619.2941176470588" y="243.76470588235298">Bedroom</text><text fill="#666" font-family="Arial, sans-serif" font-size="10" text-anchor="middle" x="619.2941176470588" y="257.764705882353">19.5 m²</text><rect fill="#E66" height="8" stroke="#A00" stroke-width="1" width="8" x="105.64705882352942" y="937.1764705882354" /><rect fill="#E66" height="8" stroke="#A00" stroke-width="1" width="8" x="266.5882352941177" y="776.2352941176471" /><rect fill="#E66" height="8" stroke="#A00" stroke-width="1" width="8" x="159.29411764705884" y="615.2941176470589" /><rect fill="#E66" height="8" stroke="#A00" stroke-width="1" width="8" x="159.29411764705884" y="347.0588235294118" /><rect fill="#E66" height="8" stroke="#A00" stroke-width="1" width="8" x="266.5882352941177" y="212.9411764705883" /><rect fill="#E66" height="8" stroke="#A00" stroke-width="1" width="8" x="749.4117647058823" y="668.9411764705883" /><rect fill="#E66" height="8" stroke="#A00" stroke-width="1" width="8" x="508.0" y="400.7058823529412" /><rect fill="#69E" height="6" stroke="#04A" stroke-width="1" width="12" x="506.0" y="938.1764705882354" /><rect fill="#69E" height="6" stroke="#04A" stroke-width="1" width="12" x="506.0" y="401.7058823529412" /><rect fill="#69E" height="6" stroke="#04A" stroke-width="1" width="12" x="962.0" y="669.9411764705883" /><rect fill="#69E" height="6" stroke="#04A" stroke-width="1" width="12" x="613.2941176470588" y="79.82352941176475" /><rect fill="#69E" height="6" stroke="#04A" stroke-width="1" width="12" x="962.0" y="240.76470588235304" /><rect fill="#69E" height="6" stroke="#04A" stroke-width="1" width="12" x="50.0" y="482.17647058823536" /><rect fill="#69E" height="6" stroke="#04A" stroke-width="1" width="12" x="50.0" y="777.2352941176471" /><text fill="#444" font-family="Arial, sans-serif" font-size="12" x="40" y="24">eu_uk_1bed_edinburgh_georgian</text></svg>