<?xml version="1.0" encoding="utf-8" ?>
<svg baseProfile="full" height="1024" version="1.1" viewBox="0 0 1024 1024" width="1024" xmlns="http://www.w3.org/2000/svg" xmlns:ev="http://www.w3.org/2001/xml-events" xmlns:xlink="http://www.w3.org/1999/xlink"><defs /><rect fill="#FAFAFA" height="1024" width="1024" x="0" y="0" /><polygon fill="white" points="56.0,870.2857142857142 968.0,870.2857142857142 968.0,153.71428571428567 56.0,153.71428571428567" stroke="#222" stroke-width="3" /><polygon fill="#F5F5F5" points="56.0,870.2857142857142 186.28571428571428,870.2857142857142 186.28571428571428,544.5714285714286 56.0,544.5714285714286" stroke="#888" stroke-width="1" /><text fill="#333" font-family="Arial, sans-serif" font-size="12" text-anchor="middle" x="121.14285714285714" y="707.4285714285713">Cross-passage Hall</text><text fill="#666" font-family="Arial, sans-serif" font-size="10" text-anchor="middle" x="121.14285714285714" y="721.4285714285713">10 m²</text><polygon fill="#D1ECF1" points="186.28571428571428,870.2857142857142 512.0,870.2857142857142 512.0,544.5714285714286 186.28571428571428,544.5714285714286" stroke="#888" stroke-width="1" /><text fill="#333" font-family="Arial, sans-serif" font-size="12" text-anchor="middle" x="349.1428571428571" y="707.4285714285713">Sitting Room</text><text fill="#666" font-family="Arial, sans-serif" font-size="10" text-anchor="middle" x="349.1428571428571" y="721.4285714285713">25 m²</text><polygon fill="#FFF3CD" points="512.0,870.2857142857142 837.7142857142857,870.2857142857142 837.7142857142857,544.5714285714286 512.0,544.5714285714286" stroke="#888" stroke-width="1" /><text fill="#333" font-family="Arial, sans-serif" font-size="12" text-anchor="middle" x="674.8571428571429" y="707.4285714285713">Kitchen-Diner</text><text fill="#666" font-family="Arial, sans-serif" font-size="10" text-anchor="middle" x="674.8571428571429" y="721.4285714285713">25 m²</text><polygon fill="#EEE" points="837.7142857142857,870.2857142857142 968.0,870.2857142857142 968.0,609.7142857142857 837.7142857142857,609.7142857142857" stroke="#888" stroke-width="1" /><text fill="#333" font-family="Arial, sans-serif" font-size="12" text-anchor="middle" x="902.8571428571429" y="740.0">Boot Room</text><text fill="#666" font-family="Arial, sans-serif" font-size="10" text-anchor="middle" x="902.8571428571429" y="754.0">8 m²</text><polygon fill="#D1ECF1" points="837.7142857142857,609.7142857142857 968.0,609.7142857142857 968.0,414.2857142857142 837.7142857142857,414.2857142857142" stroke="#888" stroke-width="1" /><text fill="#333" font-family="Arial, sans-serif" font-size="12" text-anchor="middle" x="902.8571428571429" y="511.99999999999994">Snug</text><text fill="#666" font-family="Arial, sans-serif" font-size="10" text-anchor="middle" x="902.8571428571429" y="526.0">6 m²</text><polygon fill="#D4EDDA" points="56.0,544.5714285714286 186.28571428571428,544.5714285714286 186.28571428571428,349.1428571428571 56.0,349.1428571428571" stroke="#888" stroke-width="1" /><text fill="#333" font-family="Arial, sans-serif" font-size="12" text-anchor="middle" x="121.14285714285714" y="446.85714285714283">Family Bath</text><text fill="#666" font-family="Arial, sans-serif" font-size="10" text-anchor="middle" x="121.14285714285714" y="460.85714285714283">6 m²</text><polygon fill="#D5C8E0" points="186.28571428571428,544.5714285714286 446.85714285714283,544.5714285714286 446.85714285714283,284.0 186.28571428571428,284.0" stroke="#888" stroke-width="1" /><text fill="#333" font-family="Arial, sans-serif" font-size="12" text-anchor="middle" x="316.57142857142856" y="414.2857142857143">Master Bedroom</text><text fill="#666" font-family="Arial, sans-serif" font-size="10" text-anchor="middle" x="316.57142857142856" y="428.2857142857143">16 m²</text><polygon fill="#D4EDDA" points="446.85714285714283,544.5714285714286 577.1428571428571,544.5714285714286 577.1428571428571,414.2857142857142 446.85714285714283,414.2857142857142" stroke="#888" stroke-width="1" /><text fill="#333" font-family="Arial, sans-serif" font-size="12" text-anchor="middle" x="512.0" y="479.4285714285714">Ensuite</text><text fill="#666" font-family="Arial, sans-serif" font-size="10" text-anchor="middle" x="512.0" y="493.4285714285714">4 m²</text><polygon fill="#E2D5F0" points="577.1428571428571,544.5714285714286 837.7142857142857,544.5714285714286 837.7142857142857,284.0 577.1428571428571,284.0" stroke="#888" stroke-width="1" /><text fill="#333" font-family="Arial, sans-serif" font-size="12" text-anchor="middle" x="707.4285714285713" y="414.2857142857143">Bedroom 2</text><text fill="#666" font-family="Arial, sans-serif" font-size="10" text-anchor="middle" x="707.4285714285713" y="428.2857142857143">16 m²</text><polygon fill="#E2D5F0" points="446.85714285714283,414.2857142857142 577.1428571428571,414.2857142857142 577.1428571428571,153.71428571428567 446.85714285714283,153.71428571428567" stroke="#888" stroke-width="1" /><text fill="#333" font-family="Arial, sans-serif" font-size="12" text-anchor="middle" x="512.0" y="283.99999999999994">Bedroom 3</text><text fill="#666" font-family="Arial, sans-serif" font-size="10" text-anchor="middle" x="512.0" y="297.99999999999994">8 m²</text><polygon fill="#EEE" points="837.7142857142857,414.2857142857142 968.0,414.2857142857142 968.0,153.71428571428567 837.7142857142857,153.71428571428567" stroke="#888" stroke-width="1" /><text fill="#333" font-family="Arial, sans-serif" font-size="12" text-anchor="middle" x="902.8571428571429" y="283.99999999999994">Outbuildings</text><text fill="#666" font-family="Arial, sans-serif" font-size="10" text-anchor="middle" x="902.8571428571429" y="297.99999999999994">8 m²</text><polygon fill="#F5F5F5" points="56.0,349.1428571428571 186.28571428571428,349.1428571428571 186.28571428571428,153.71428571428567 56.0,153.71428571428567" stroke="#888" stroke-width="1" /><text fill="#333" font-family="Arial, sans-serif" font-size="12" text-anchor="middle" x="121.14285714285714" y="251.4285714285714">Back Hall</text><text fill="#666" font-family="Arial, sans-serif" font-size="10" text-anchor="middle" x="121.14285714285714" y="265.4285714285714">6 m²</text><polygon fill="#F8F9FA" points="186.28571428571428,284.0 446.85714285714283,284.0 446.85714285714283,153.71428571428567 186.28571428571428,153.71428571428567" stroke="#888" stroke-width="1" /><text fill="#333" font-family="Arial, sans-serif" font-size="12" text-anchor="middle" x="316.57142857142856" y="218.85714285714283">Garden strip</text><text fill="#666" font-family="Arial, sans-serif" font-size="10" text-anchor="middle" x="316.57142857142856" y="232.85714285714283">8 m²</text><polygon fill="#F5F5F5" points="577.1428571428571,284.0 837.7142857142857,284.0 837.7142857142857,153.71428571428567 577.1428571428571,153.71428571428567" stroke="#888" stroke-width="1" /><text fill="#333" font-family="Arial, sans-serif" font-size="12" text-anchor="middle" x="707.4285714285713" y="218.85714285714283">Strip back</text><text fill="#666" font-family="Arial, sans-serif" font-size="10" text-anchor="middle" x="707.4285714285713" y="232.85714285714283">8 m²</text><rect fill="#E66" height="8" stroke="#A00" stroke-width="1" width="8" x="84.57142857142857" y="866.2857142857142" /><rect fill="#E66" height="8" stroke="#A00" stroke-width="1" width="8" x="182.28571428571428" y="703.4285714285713" /><rect fill="#E66" height="8" stroke="#A00" stroke-width="1" width="8" x="508.0" y="703.4285714285713" /><rect fill="#E66" height="8" stroke="#A00" stroke-width="1" width="8" x="833.7142857142857" y="736.0" /><rect fill="#E66" height="8" stroke="#A00" stroke-width="1" width="8" x="898.8571428571428" y="605.7142857142857" /><rect fill="#E66" height="8" stroke="#A00" stroke-width="1" width="8" x="833.7142857142857" y="573.1428571428571" /><rect fill="#E66" height="8" stroke="#A00" stroke-width="1" width="8" x="117.14285714285714" y="540.5714285714286" /><rect fill="#E66" height="8" stroke="#A00" stroke-width="1" width="8" x="312.57142857142856" y="540.5714285714286" /><rect fill="#E66" height="8" stroke="#A00" stroke-width="1" width="8" x="442.85714285714283" y="475.4285714285714" /><rect fill="#E66" height="8" stroke="#A00" stroke-width="1" width="8" x="703.4285714285713" y="540.5714285714286" /><rect fill="#E66" height="8" stroke="#A00" stroke-width="1" width="8" x="573.1428571428571" y="475.4285714285714" /><rect fill="#E66" height="8" stroke="#A00" stroke-width="1" width="8" x="508.0" y="410.2857142857142" /><rect fill="#E66" height="8" stroke="#A00" stroke-width="1" width="8" x="898.8571428571428" y="410.2857142857142" /><rect fill="#E66" height="8" stroke="#A00" stroke-width="1" width="8" x="117.14285714285714" y="345.1428571428571" /><rect fill="#E66" height="8" stroke="#A00" stroke-width="1" width="8" x="312.57142857142856" y="280.0" /><rect fill="#E66" height="8" stroke="#A00" stroke-width="1" width="8" x="182.28571428571428" y="214.8571428571429" /><rect fill="#E66" height="8" stroke="#A00" stroke-width="1" width="8" x="703.4285714285713" y="280.0" /><rect fill="#E66" height="8" stroke="#A00" stroke-width="1" width="8" x="573.1428571428571" y="214.8571428571429" /><rect fill="#E66" height="8" stroke="#A00" stroke-width="1" width="8" x="833.7142857142857" y="280.0" /><rect fill="#69E" height="6" stroke="#04A" stroke-width="1" width="12" x="343.1428571428571" y="867.2857142857142" /><rect fill="#69E" height="6" stroke="#04A" stroke-width="1" width="12" x="668.8571428571428" y="867.2857142857142" /><rect fill="#69E" height="6" stroke="#04A" stroke-width="1" width="12" x="896.8571428571428" y="867.2857142857142" /><rect fill="#69E" height="6" stroke="#04A" stroke-width="1" width="12" x="962.0" y="508.99999999999994" /><rect fill="#69E" height="6" stroke="#04A" stroke-width="1" width="12" x="310.57142857142856" y="281.0" /><rect fill="#69E" height="6" stroke="#04A" stroke-width="1" width="12" x="180.28571428571428" y="411.2857142857142" /><rect fill="#69E" height="6" stroke="#04A" stroke-width="1" width="12" x="701.4285714285713" y="281.0" /><rect fill="#69E" height="6" stroke="#04A" stroke-width="1" width="12" x="506.0" y="150.71428571428567" /><rect fill="#69E" height="6" stroke="#04A" stroke-width="1" width="12" x="896.8571428571428" y="150.71428571428567" /><rect fill="#69E" height="6" stroke="#04A" stroke-width="1" width="12" x="962.0" y="281.0" /><rect fill="#69E" height="6" stroke="#04A" stroke-width="1" width="12" x="310.57142857142856" y="150.71428571428567" /><rect fill="#69E" height="6" stroke="#04A" stroke-width="1" width="12" x="701.4285714285713" y="150.71428571428567" /><rect fill="#69E" height="6" stroke="#04A" stroke-width="1" width="12" x="50.0" y="248.42857142857144" /><rect fill="#69E" height="6" stroke="#04A" stroke-width="1" width="12" x="50.0" y="443.85714285714283" /><text fill="#444" font-family="Arial, sans-serif" font-size="12" x="40" y="24">eu_uk_3bed_welsh_longhouse</text></svg>