<?xml version="1.0" encoding="utf-8" ?>
<svg baseProfile="full" height="1024" version="1.1" viewBox="0 0 1024 1024" width="1024" xmlns="http://www.w3.org/2000/svg" xmlns:ev="http://www.w3.org/2001/xml-events" xmlns:xlink="http://www.w3.org/1999/xlink"><defs /><rect fill="#FAFAFA" height="1024" width="1024" x="0" y="0" /><polygon fill="white" points="56.0,902.8571428571429 968.0,902.8571428571429 968.0,121.14285714285722 56.0,121.14285714285722" stroke="#222" stroke-width="3" /><polygon fill="#F5F5F5" points="56.0,902.8571428571429 251.42857142857142,902.8571428571429 251.42857142857142,642.2857142857143 56.0,642.2857142857143" stroke="#888" stroke-width="1" /><text fill="#333" font-family="Arial, sans-serif" font-size="12" text-anchor="middle" x="153.71428571428572" y="772.5714285714287">Hall</text><text fill="#666" font-family="Arial, sans-serif" font-size="10" text-anchor="middle" x="153.71428571428572" y="786.5714285714287">12 m²</text><polygon fill="#D1ECF1" points="251.42857142857142,902.8571428571429 577.1428571428571,902.8571428571429 577.1428571428571,577.1428571428572 251.42857142857142,577.1428571428572" stroke="#888" stroke-width="1" /><text fill="#333" font-family="Arial, sans-serif" font-size="12" text-anchor="middle" x="414.2857142857143" y="740.0">Drawing Room</text><text fill="#666" font-family="Arial, sans-serif" font-size="10" text-anchor="middle" x="414.2857142857143" y="754.0">25 m²</text><polygon fill="#D1ECF1" points="577.1428571428571,902.8571428571429 837.7142857142857,902.8571428571429 837.7142857142857,577.1428571428572 577.1428571428571,577.1428571428572" stroke="#888" stroke-width="1" /><text fill="#333" font-family="Arial, sans-serif" font-size="12" text-anchor="middle" x="707.4285714285713" y="740.0">Sitting Room</text><text fill="#666" font-family="Arial, sans-serif" font-size="10" text-anchor="middle" x="707.4285714285713" y="754.0">20 m²</text><polygon fill="#EEE" points="837.7142857142857,902.8571428571429 968.0,902.8571428571429 968.0,577.1428571428572 837.7142857142857,577.1428571428572" stroke="#888" stroke-width="1" /><text fill="#333" font-family="Arial, sans-serif" font-size="12" text-anchor="middle" x="902.8571428571429" y="740.0">Cellar (strip)</text><text fill="#666" font-family="Arial, sans-serif" font-size="10" text-anchor="middle" x="902.8571428571429" y="754.0">10 m²</text><polygon fill="#FFE5E5" points="251.42857142857142,577.1428571428572 577.1428571428571,577.1428571428572 577.1428571428571,316.57142857142867 251.42857142857142,316.57142857142867" stroke="#888" stroke-width="1" /><text fill="#333" font-family="Arial, sans-serif" font-size="12" text-anchor="middle" x="414.2857142857143" y="446.85714285714295">Dining</text><text fill="#666" font-family="Arial, sans-serif" font-size="10" text-anchor="middle" x="414.2857142857143" y="460.85714285714295">20 m²</text><polygon fill="#FFF3CD" points="577.1428571428571,577.1428571428572 837.7142857142857,577.1428571428572 837.7142857142857,316.57142857142867 577.1428571428571,316.57142857142867" stroke="#888" stroke-width="1" /><text fill="#333" font-family="Arial, sans-serif" font-size="12" text-anchor="middle" x="707.4285714285713" y="446.85714285714295">Kitchen-Family</text><text fill="#666" font-family="Arial, sans-serif" font-size="10" text-anchor="middle" x="707.4285714285713" y="460.85714285714295">16 m²</text><polygon fill="#E0E0E0" points="837.7142857142857,577.1428571428572 968.0,577.1428571428572 968.0,381.7142857142858 837.7142857142857,381.7142857142858" stroke="#888" stroke-width="1" /><text fill="#333" font-family="Arial, sans-serif" font-size="12" text-anchor="middle" x="902.8571428571429" y="479.4285714285715">Utility</text><text fill="#666" font-family="Arial, sans-serif" font-size="10" text-anchor="middle" x="902.8571428571429" y="493.4285714285715">6 m²</text><polygon fill="#D4EDDA" points="56.0,642.2857142857143 251.42857142857142,642.2857142857143 251.42857142857142,446.8571428571429 56.0,446.8571428571429" stroke="#888" stroke-width="1" /><text fill="#333" font-family="Arial, sans-serif" font-size="12" text-anchor="middle" x="153.71428571428572" y="544.5714285714287">Family Bath</text><text fill="#666" font-family="Arial, sans-serif" font-size="10" text-anchor="middle" x="153.71428571428572" y="558.5714285714287">9 m²</text><polygon fill="#F5F5F5" points="56.0,446.8571428571429 251.42857142857142,446.8571428571429 251.42857142857142,316.57142857142867 56.0,316.57142857142867" stroke="#888" stroke-width="1" /><text fill="#333" font-family="Arial, sans-serif" font-size="12" text-anchor="middle" x="153.71428571428572" y="381.7142857142858">Back Hall</text><text fill="#666" font-family="Arial, sans-serif" font-size="10" text-anchor="middle" x="153.71428571428572" y="395.7142857142858">6 m²</text><polygon fill="#D5C8E0" points="56.0,316.57142857142867 381.71428571428567,316.57142857142867 381.71428571428567,121.14285714285722 56.0,121.14285714285722" stroke="#888" stroke-width="1" /><text fill="#333" font-family="Arial, sans-serif" font-size="12" text-anchor="middle" x="218.85714285714283" y="218.85714285714295">Master Bedroom</text><text fill="#666" font-family="Arial, sans-serif" font-size="10" text-anchor="middle" x="218.85714285714283" y="232.85714285714295">15 m²</text><polygon fill="#EEE" points="381.71428571428567,316.57142857142867 512.0,316.57142857142867 512.0,186.28571428571433 381.71428571428567,186.28571428571433" stroke="#888" stroke-width="1" /><text fill="#333" font-family="Arial, sans-serif" font-size="12" text-anchor="middle" x="446.85714285714283" y="251.4285714285715">Dressing</text><text fill="#666" font-family="Arial, sans-serif" font-size="10" text-anchor="middle" x="446.85714285714283" y="265.4285714285715">4 m²</text><polygon fill="#D4EDDA" points="381.71428571428567,186.28571428571433 512.0,186.28571428571433 512.0,121.14285714285722 381.71428571428567,121.14285714285722" stroke="#888" stroke-width="1" /><text fill="#333" font-family="Arial, sans-serif" font-size="12" text-anchor="middle" x="446.85714285714283" y="153.71428571428578">Master Ensuite</text><text fill="#666" font-family="Arial, sans-serif" font-size="10" text-anchor="middle" x="446.85714285714283" y="167.71428571428578">2 m²</text><polygon fill="#E2D5F0" points="512.0,316.57142857142867 707.4285714285713,316.57142857142867 707.4285714285713,121.14285714285722 512.0,121.14285714285722" stroke="#888" stroke-width="1" /><text fill="#333" font-family="Arial, sans-serif" font-size="12" text-anchor="middle" x="609.7142857142857" y="218.85714285714295">Bedroom 2</text><text fill="#666" font-family="Arial, sans-serif" font-size="10" text-anchor="middle" x="609.7142857142857" y="232.85714285714295">9 m²</text><polygon fill="#D4EDDA" points="707.4285714285713,316.57142857142867 837.7142857142857,316.57142857142867 837.7142857142857,186.28571428571433 707.4285714285713,186.28571428571433" stroke="#888" stroke-width="1" /><text fill="#333" font-family="Arial, sans-serif" font-size="12" text-anchor="middle" x="772.5714285714284" y="251.4285714285715">Ensuite 2</text><text fill="#666" font-family="Arial, sans-serif" font-size="10" text-anchor="middle" x="772.5714285714284" y="265.4285714285715">4 m²</text><polygon fill="#E2D5F0" points="707.4285714285713,186.28571428571433 837.7142857142857,186.28571428571433 837.7142857142857,121.14285714285722 707.4285714285713,121.14285714285722" stroke="#888" stroke-width="1" /><text fill="#333" font-family="Arial, sans-serif" font-size="12" text-anchor="middle" x="772.5714285714284" y="153.71428571428578">Bedroom 3</text><text fill="#666" font-family="Arial, sans-serif" font-size="10" text-anchor="middle" x="772.5714285714284" y="167.71428571428578">2 m²</text><polygon fill="#E2D5F0" points="837.7142857142857,316.57142857142867 968.0,316.57142857142867 968.0,121.14285714285722 837.7142857142857,121.14285714285722" stroke="#888" stroke-width="1" /><text fill="#333" font-family="Arial, sans-serif" font-size="12" text-anchor="middle" x="902.8571428571429" y="218.85714285714295">Bedroom 4</text><text fill="#666" font-family="Arial, sans-serif" font-size="10" text-anchor="middle" x="902.8571428571429" y="232.85714285714295">6 m²</text><polygon fill="#EEE" points="837.7142857142857,381.7142857142858 968.0,381.7142857142858 968.0,316.57142857142867 837.7142857142857,316.57142857142867" stroke="#888" stroke-width="1" /><text fill="#333" font-family="Arial, sans-serif" font-size="12" text-anchor="middle" x="902.8571428571429" y="349.1428571428572">Storage</text><text fill="#666" font-family="Arial, sans-serif" font-size="10" text-anchor="middle" x="902.8571428571429" y="363.1428571428572">2 m²</text><rect fill="#E66" height="8" stroke="#A00" stroke-width="1" width="8" x="84.57142857142857" y="898.8571428571429" /><rect fill="#E66" height="8" stroke="#A00" stroke-width="1" width="8" x="247.42857142857142" y="736.0" /><rect fill="#E66" height="8" stroke="#A00" stroke-width="1" width="8" x="573.1428571428571" y="736.0" /><rect fill="#E66" height="8" stroke="#A00" stroke-width="1" width="8" x="833.7142857142857" y="736.0" /><rect fill="#E66" height="8" stroke="#A00" stroke-width="1" width="8" x="410.2857142857143" y="573.1428571428572" /><rect fill="#E66" height="8" stroke="#A00" stroke-width="1" width="8" x="703.4285714285713" y="573.1428571428572" /><rect fill="#E66" height="8" stroke="#A00" stroke-width="1" width="8" x="573.1428571428571" y="442.8571428571429" /><rect fill="#E66" height="8" stroke="#A00" stroke-width="1" width="8" x="833.7142857142857" y="475.4285714285715" /><rect fill="#E66" height="8" stroke="#A00" stroke-width="1" width="8" x="898.8571428571428" y="573.1428571428572" /><rect fill="#E66" height="8" stroke="#A00" stroke-width="1" width="8" x="149.71428571428572" y="638.2857142857143" /><rect fill="#E66" height="8" stroke="#A00" stroke-width="1" width="8" x="149.71428571428572" y="442.8571428571429" /><rect fill="#E66" height="8" stroke="#A00" stroke-width="1" width="8" x="247.42857142857142" y="377.7142857142858" /><rect fill="#E66" height="8" stroke="#A00" stroke-width="1" width="8" x="149.71428571428572" y="312.57142857142867" /><rect fill="#E66" height="8" stroke="#A00" stroke-width="1" width="8" x="312.57142857142856" y="312.57142857142867" /><rect fill="#E66" height="8" stroke="#A00" stroke-width="1" width="8" x="377.71428571428567" y="247.42857142857156" /><rect fill="#E66" height="8" stroke="#A00" stroke-width="1" width="8" x="442.85714285714283" y="182.28571428571433" /><rect fill="#E66" height="8" stroke="#A00" stroke-width="1" width="8" x="605.7142857142857" y="312.57142857142867" /><rect fill="#E66" height="8" stroke="#A00" stroke-width="1" width="8" x="508.0" y="247.42857142857156" /><rect fill="#E66" height="8" stroke="#A00" stroke-width="1" width="8" x="703.4285714285713" y="247.42857142857156" /><rect fill="#E66" height="8" stroke="#A00" stroke-width="1" width="8" x="768.5714285714286" y="182.28571428571433" /><rect fill="#E66" height="8" stroke="#A00" stroke-width="1" width="8" x="703.4285714285713" y="149.71428571428578" /><rect fill="#E66" height="8" stroke="#A00" stroke-width="1" width="8" x="898.8571428571428" y="377.7142857142858" /><rect fill="#E66" height="8" stroke="#A00" stroke-width="1" width="8" x="898.8571428571428" y="312.57142857142867" /><rect fill="#69E" height="6" stroke="#04A" stroke-width="1" width="12" x="408.2857142857143" y="899.8571428571429" /><rect fill="#69E" height="6" stroke="#04A" stroke-width="1" width="12" x="701.4285714285713" y="899.8571428571429" /><rect fill="#69E" height="6" stroke="#04A" stroke-width="1" width="12" x="896.8571428571428" y="899.8571428571429" /><rect fill="#69E" height="6" stroke="#04A" stroke-width="1" width="12" x="962.0" y="737.0" /><rect fill="#69E" height="6" stroke="#04A" stroke-width="1" width="12" x="701.4285714285713" y="313.57142857142867" /><rect fill="#69E" height="6" stroke="#04A" stroke-width="1" width="12" x="212.85714285714283" y="118.14285714285722" /><rect fill="#69E" height="6" stroke="#04A" stroke-width="1" width="12" x="50.0" y="215.8571428571429" /><rect fill="#69E" height="6" stroke="#04A" stroke-width="1" width="12" x="603.7142857142857" y="118.14285714285722" /><rect fill="#69E" height="6" stroke="#04A" stroke-width="1" width="12" x="766.5714285714286" y="118.14285714285722" /><rect fill="#69E" height="6" stroke="#04A" stroke-width="1" width="12" x="896.8571428571428" y="118.14285714285722" /><rect fill="#69E" height="6" stroke="#04A" stroke-width="1" width="12" x="962.0" y="215.8571428571429" /><rect fill="#69E" height="6" stroke="#04A" stroke-width="1" width="12" x="50.0" y="541.5714285714287" /><rect fill="#69E" height="6" stroke="#04A" stroke-width="1" width="12" x="50.0" y="769.5714285714287" /><text fill="#444" font-family="Arial, sans-serif" font-size="12" x="40" y="24">eu_uk_4bed_london_hampstead_villa</text></svg>