<?xml version="1.0" encoding="utf-8" ?>
<svg baseProfile="full" height="1024" version="1.1" viewBox="0 0 1024 1024" width="1024" xmlns="http://www.w3.org/2000/svg" xmlns:ev="http://www.w3.org/2001/xml-events" xmlns:xlink="http://www.w3.org/1999/xlink"><defs /><rect fill="#FAFAFA" height="1024" width="1024" x="0" y="0" /><polygon fill="white" points="56.0,968.0 968.0,968.0 968.0,56.0 56.0,56.0" stroke="#222" stroke-width="3" /><polygon fill="#F5F5F5" points="56.0,968.0 251.42857142857142,968.0 251.42857142857142,837.7142857142858 56.0,837.7142857142858" stroke="#888" stroke-width="1" /><text fill="#333" font-family="Arial, sans-serif" font-size="12" text-anchor="middle" x="153.71428571428572" y="902.8571428571429">Stone Porch</text><text fill="#666" font-family="Arial, sans-serif" font-size="10" text-anchor="middle" x="153.71428571428572" y="916.8571428571429">6 m²</text><polygon fill="#F5F5F5" points="56.0,837.7142857142858 251.42857142857142,837.7142857142858 251.42857142857142,642.2857142857143 56.0,642.2857142857143" stroke="#888" stroke-width="1" /><text fill="#333" font-family="Arial, sans-serif" font-size="12" text-anchor="middle" x="153.71428571428572" y="740.0">Hall</text><text fill="#666" font-family="Arial, sans-serif" font-size="10" text-anchor="middle" x="153.71428571428572" y="754.0">9 m²</text><polygon fill="#D1ECF1" points="251.42857142857142,968.0 642.2857142857142,968.0 642.2857142857142,642.2857142857143 251.42857142857142,642.2857142857143" stroke="#888" stroke-width="1" /><text fill="#333" font-family="Arial, sans-serif" font-size="12" text-anchor="middle" x="446.85714285714283" y="805.1428571428571">Drawing Room</text><text fill="#666" font-family="Arial, sans-serif" font-size="10" text-anchor="middle" x="446.85714285714283" y="819.1428571428571">30 m²</text><polygon fill="#D1ECF1" points="642.2857142857142,968.0 968.0,968.0 968.0,642.2857142857143 642.2857142857142,642.2857142857143" stroke="#888" stroke-width="1" /><text fill="#333" font-family="Arial, sans-serif" font-size="12" text-anchor="middle" x="805.1428571428571" y="805.1428571428571">Sitting Room</text><text fill="#666" font-family="Arial, sans-serif" font-size="10" text-anchor="middle" x="805.1428571428571" y="819.1428571428571">25 m²</text><polygon fill="#FFE5E5" points="251.42857142857142,642.2857142857143 577.1428571428571,642.2857142857143 577.1428571428571,381.7142857142858 251.42857142857142,381.7142857142858" stroke="#888" stroke-width="1" /><text fill="#333" font-family="Arial, sans-serif" font-size="12" text-anchor="middle" x="414.2857142857143" y="512.0">Dining</text><text fill="#666" font-family="Arial, sans-serif" font-size="10" text-anchor="middle" x="414.2857142857143" y="526.0">20 m²</text><polygon fill="#E5F0FF" points="577.1428571428571,642.2857142857143 837.7142857142857,642.2857142857143 837.7142857142857,381.7142857142858 577.1428571428571,381.7142857142858" stroke="#888" stroke-width="1" /><text fill="#333" font-family="Arial, sans-serif" font-size="12" text-anchor="middle" x="707.4285714285713" y="512.0">Library/Study</text><text fill="#666" font-family="Arial, sans-serif" font-size="10" text-anchor="middle" x="707.4285714285713" y="526.0">16 m²</text><polygon fill="#FFF3CD" points="837.7142857142857,642.2857142857143 968.0,642.2857142857143 968.0,381.7142857142858 837.7142857142857,381.7142857142858" stroke="#888" stroke-width="1" /><text fill="#333" font-family="Arial, sans-serif" font-size="12" text-anchor="middle" x="902.8571428571429" y="512.0">Farmhouse Kitchen</text><text fill="#666" font-family="Arial, sans-serif" font-size="10" text-anchor="middle" x="902.8571428571429" y="526.0">8 m²</text><polygon fill="#EEE" points="56.0,642.2857142857143 251.42857142857142,642.2857142857143 251.42857142857142,446.8571428571429 56.0,446.8571428571429" stroke="#888" stroke-width="1" /><text fill="#333" font-family="Arial, sans-serif" font-size="12" text-anchor="middle" x="153.71428571428572" y="544.5714285714287">Boot Room</text><text fill="#666" font-family="Arial, sans-serif" font-size="10" text-anchor="middle" x="153.71428571428572" y="558.5714285714287">9 m²</text><polygon fill="#EEE" points="56.0,446.8571428571429 251.42857142857142,446.8571428571429 251.42857142857142,316.57142857142867 56.0,316.57142857142867" stroke="#888" stroke-width="1" /><text fill="#333" font-family="Arial, sans-serif" font-size="12" text-anchor="middle" x="153.71428571428572" y="381.7142857142858">Pantry</text><text fill="#666" font-family="Arial, sans-serif" font-size="10" text-anchor="middle" x="153.71428571428572" y="395.7142857142858">6 m²</text><polygon fill="#D4EDDA" points="56.0,316.57142857142867 251.42857142857142,316.57142857142867 251.42857142857142,186.28571428571433 56.0,186.28571428571433" stroke="#888" stroke-width="1" /><text fill="#333" font-family="Arial, sans-serif" font-size="12" text-anchor="middle" x="153.71428571428572" y="251.4285714285715">Family Bath</text><text fill="#666" font-family="Arial, sans-serif" font-size="10" text-anchor="middle" x="153.71428571428572" y="265.4285714285715">6 m²</text><polygon fill="#D5C8E0" points="251.42857142857142,381.7142857142858 577.1428571428571,381.7142857142858 577.1428571428571,121.14285714285722 251.42857142857142,121.14285714285722" stroke="#888" stroke-width="1" /><text fill="#333" font-family="Arial, sans-serif" font-size="12" text-anchor="middle" x="414.2857142857143" y="251.4285714285715">Master Bedroom</text><text fill="#666" font-family="Arial, sans-serif" font-size="10" text-anchor="middle" x="414.2857142857143" y="265.4285714285715">20 m²</text><polygon fill="#D4EDDA" points="577.1428571428571,381.7142857142858 707.4285714285713,381.7142857142858 707.4285714285713,186.28571428571433 577.1428571428571,186.28571428571433" stroke="#888" stroke-width="1" /><text fill="#333" font-family="Arial, sans-serif" font-size="12" text-anchor="middle" x="642.2857142857142" y="284.00000000000006">Master Ensuite</text><text fill="#666" font-family="Arial, sans-serif" font-size="10" text-anchor="middle" x="642.2857142857142" y="298.00000000000006">6 m²</text><polygon fill="#E2D5F0" points="707.4285714285713,381.7142857142858 968.0,381.7142857142858 968.0,186.28571428571433 707.4285714285713,186.28571428571433" stroke="#888" stroke-width="1" /><text fill="#333" font-family="Arial, sans-serif" font-size="12" text-anchor="middle" x="837.7142857142857" y="284.00000000000006">Bedroom 2</text><text fill="#666" font-family="Arial, sans-serif" font-size="10" text-anchor="middle" x="837.7142857142857" y="298.00000000000006">12 m²</text><polygon fill="#EEE" points="577.1428571428571,186.28571428571433 772.5714285714286,186.28571428571433 772.5714285714286,121.14285714285722 577.1428571428571,121.14285714285722" stroke="#888" stroke-width="1" /><text fill="#333" font-family="Arial, sans-serif" font-size="12" text-anchor="middle" x="674.8571428571429" y="153.71428571428578">Storage</text><text fill="#666" font-family="Arial, sans-serif" font-size="10" text-anchor="middle" x="674.8571428571429" y="167.71428571428578">3 m²</text><polygon fill="#D4EDDA" points="577.1428571428571,121.14285714285722 772.5714285714286,121.14285714285722 772.5714285714286,56.0 577.1428571428571,56.0" stroke="#888" stroke-width="1" /><text fill="#333" font-family="Arial, sans-serif" font-size="12" text-anchor="middle" x="674.8571428571429" y="88.57142857142861">Ensuite 2</text><text fill="#666" font-family="Arial, sans-serif" font-size="10" text-anchor="middle" x="674.8571428571429" y="102.57142857142861">3 m²</text><polygon fill="#E2D5F0" points="772.5714285714286,186.28571428571433 968.0,186.28571428571433 968.0,56.0 772.5714285714286,56.0" stroke="#888" stroke-width="1" /><text fill="#333" font-family="Arial, sans-serif" font-size="12" text-anchor="middle" x="870.2857142857142" y="121.14285714285717">Bedroom 3</text><text fill="#666" font-family="Arial, sans-serif" font-size="10" text-anchor="middle" x="870.2857142857142" y="135.14285714285717">6 m²</text><polygon fill="#E2D5F0" points="56.0,186.28571428571433 251.42857142857142,186.28571428571433 251.42857142857142,56.0 56.0,56.0" stroke="#888" stroke-width="1" /><text fill="#333" font-family="Arial, sans-serif" font-size="12" text-anchor="middle" x="153.71428571428572" y="121.14285714285717">Bedroom 4</text><text fill="#666" font-family="Arial, sans-serif" font-size="10" text-anchor="middle" x="153.71428571428572" y="135.14285714285717">6 m²</text><polygon fill="#E2D5F0" points="251.42857142857142,121.14285714285722 577.1428571428571,121.14285714285722 577.1428571428571,56.0 251.42857142857142,56.0" stroke="#888" stroke-width="1" /><text fill="#333" font-family="Arial, sans-serif" font-size="12" text-anchor="middle" x="414.2857142857143" y="88.57142857142861">Bedroom 5</text><text fill="#666" font-family="Arial, sans-serif" font-size="10" text-anchor="middle" x="414.2857142857143" y="102.57142857142861">5 m²</text><rect fill="#E66" height="8" stroke="#A00" stroke-width="1" width="8" x="84.57142857142857" y="964.0" /><rect fill="#E66" height="8" stroke="#A00" stroke-width="1" width="8" x="117.14285714285714" y="833.7142857142858" /><rect fill="#E66" height="8" stroke="#A00" stroke-width="1" width="8" x="247.42857142857142" y="768.5714285714286" /><rect fill="#E66" height="8" stroke="#A00" stroke-width="1" width="8" x="638.2857142857142" y="801.1428571428571" /><rect fill="#E66" height="8" stroke="#A00" stroke-width="1" width="8" x="149.71428571428572" y="638.2857142857143" /><rect fill="#E66" height="8" stroke="#A00" stroke-width="1" width="8" x="442.85714285714283" y="638.2857142857143" /><rect fill="#E66" height="8" stroke="#A00" stroke-width="1" width="8" x="736.0" y="638.2857142857143" /><rect fill="#E66" height="8" stroke="#A00" stroke-width="1" width="8" x="573.1428571428571" y="508.0" /><rect fill="#E66" height="8" stroke="#A00" stroke-width="1" width="8" x="833.7142857142857" y="508.0" /><rect fill="#E66" height="8" stroke="#A00" stroke-width="1" width="8" x="149.71428571428572" y="442.8571428571429" /><rect fill="#E66" height="8" stroke="#A00" stroke-width="1" width="8" x="149.71428571428572" y="312.57142857142867" /><rect fill="#E66" height="8" stroke="#A00" stroke-width="1" width="8" x="410.2857142857143" y="377.7142857142858" /><rect fill="#E66" height="8" stroke="#A00" stroke-width="1" width="8" x="573.1428571428571" y="280.0" /><rect fill="#E66" height="8" stroke="#A00" stroke-width="1" width="8" x="703.4285714285713" y="377.7142857142858" /><rect fill="#E66" height="8" stroke="#A00" stroke-width="1" width="8" x="703.4285714285713" y="280.0" /><rect fill="#E66" height="8" stroke="#A00" stroke-width="1" width="8" x="638.2857142857142" y="182.28571428571433" /><rect fill="#E66" height="8" stroke="#A00" stroke-width="1" width="8" x="638.2857142857142" y="117.14285714285722" /><rect fill="#E66" height="8" stroke="#A00" stroke-width="1" width="8" x="736.0" y="182.28571428571433" /><rect fill="#E66" height="8" stroke="#A00" stroke-width="1" width="8" x="768.5714285714286" y="117.14285714285722" /><rect fill="#E66" height="8" stroke="#A00" stroke-width="1" width="8" x="149.71428571428572" y="182.28571428571433" /><rect fill="#E66" height="8" stroke="#A00" stroke-width="1" width="8" x="410.2857142857143" y="117.14285714285722" /><rect fill="#E66" height="8" stroke="#A00" stroke-width="1" width="8" x="247.42857142857142" y="84.57142857142867" /><rect fill="#69E" height="6" stroke="#04A" stroke-width="1" width="12" x="440.85714285714283" y="965.0" /><rect fill="#69E" height="6" stroke="#04A" stroke-width="1" width="12" x="799.1428571428571" y="965.0" /><rect fill="#69E" height="6" stroke="#04A" stroke-width="1" width="12" x="962.0" y="802.1428571428571" /><rect fill="#69E" height="6" stroke="#04A" stroke-width="1" width="12" x="962.0" y="509.0" /><rect fill="#69E" height="6" stroke="#04A" stroke-width="1" width="12" x="408.2857142857143" y="118.14285714285722" /><rect fill="#69E" height="6" stroke="#04A" stroke-width="1" width="12" x="831.7142857142857" y="378.7142857142858" /><rect fill="#69E" height="6" stroke="#04A" stroke-width="1" width="12" x="962.0" y="281.0" /><rect fill="#69E" height="6" stroke="#04A" stroke-width="1" width="12" x="864.2857142857142" y="53.0" /><rect fill="#69E" height="6" stroke="#04A" stroke-width="1" width="12" x="962.0" y="118.14285714285722" /><rect fill="#69E" height="6" stroke="#04A" stroke-width="1" width="12" x="147.71428571428572" y="53.0" /><rect fill="#69E" height="6" stroke="#04A" stroke-width="1" width="12" x="50.0" y="118.14285714285722" /><rect fill="#69E" height="6" stroke="#04A" stroke-width="1" width="12" x="408.2857142857143" y="53.0" /><rect fill="#69E" height="6" stroke="#04A" stroke-width="1" width="12" x="50.0" y="248.42857142857144" /><rect fill="#69E" height="6" stroke="#04A" stroke-width="1" width="12" x="50.0" y="378.7142857142858" /><rect fill="#69E" height="6" stroke="#04A" stroke-width="1" width="12" x="50.0" y="737.0" /><text fill="#444" font-family="Arial, sans-serif" font-size="12" x="40" y="24">eu_uk_5bed_suffolk_victorian_rectory</text></svg>