<?xml version="1.0" encoding="utf-8" ?>
<svg baseProfile="full" height="1024" version="1.1" viewBox="0 0 1024 1024" width="1024" xmlns="http://www.w3.org/2000/svg" xmlns:ev="http://www.w3.org/2001/xml-events" xmlns:xlink="http://www.w3.org/1999/xlink"><defs /><rect fill="#FAFAFA" height="1024" width="1024" x="0" y="0" /><polygon fill="white" points="56.0,945.2 968.0,945.2 968.0,78.80000000000007 56.0,78.80000000000007" stroke="#222" stroke-width="3" /><polygon fill="#F5F5F5" points="56.0,945.2 238.4,945.2 238.4,671.6 56.0,671.6" stroke="#888" stroke-width="1" /><text fill="#333" font-family="Arial, sans-serif" font-size="12" text-anchor="middle" x="147.2" y="808.4000000000001">Hall</text><text fill="#666" font-family="Arial, sans-serif" font-size="10" text-anchor="middle" x="147.2" y="822.4000000000001">6 m²</text><polygon fill="#D1ECF1" points="238.4,945.2 603.2,945.2 603.2,580.4000000000001 238.4,580.4000000000001" stroke="#888" stroke-width="1" /><text fill="#333" font-family="Arial, sans-serif" font-size="12" text-anchor="middle" x="420.8" y="762.8000000000001">Sitting</text><text fill="#666" font-family="Arial, sans-serif" font-size="10" text-anchor="middle" x="420.8" y="776.8000000000001">16 m²</text><polygon fill="#FFF3CD" points="603.2,945.2 968.0,945.2 968.0,580.4000000000001 603.2,580.4000000000001" stroke="#888" stroke-width="1" /><text fill="#333" font-family="Arial, sans-serif" font-size="12" text-anchor="middle" x="785.6" y="762.8000000000001">Kitchen</text><text fill="#666" font-family="Arial, sans-serif" font-size="10" text-anchor="middle" x="785.6" y="776.8000000000001">16 m²</text><polygon fill="#D4EDDA" points="56.0,671.6 238.4,671.6 238.4,398.0 56.0,398.0" stroke="#888" stroke-width="1" /><text fill="#333" font-family="Arial, sans-serif" font-size="12" text-anchor="middle" x="147.2" y="534.8">Bath</text><text fill="#666" font-family="Arial, sans-serif" font-size="10" text-anchor="middle" x="147.2" y="548.8">6 m²</text><polygon fill="#D5C8E0" points="238.4,580.4000000000001 603.2,580.4000000000001 603.2,215.60000000000002 238.4,215.60000000000002" stroke="#888" stroke-width="1" /><text fill="#333" font-family="Arial, sans-serif" font-size="12" text-anchor="middle" x="420.8" y="398.00000000000006">Master Bedroom</text><text fill="#666" font-family="Arial, sans-serif" font-size="10" text-anchor="middle" x="420.8" y="412.00000000000006">16 m²</text><polygon fill="#D4EDDA" points="603.2,580.4000000000001 785.6,580.4000000000001 785.6,398.0 603.2,398.0" stroke="#888" stroke-width="1" /><text fill="#333" font-family="Arial, sans-serif" font-size="12" text-anchor="middle" x="694.4000000000001" y="489.20000000000005">Ensuite</text><text fill="#666" font-family="Arial, sans-serif" font-size="10" text-anchor="middle" x="694.4000000000001" y="503.20000000000005">4 m²</text><polygon fill="#EEE" points="785.6,580.4000000000001 968.0,580.4000000000001 968.0,398.0 785.6,398.0" stroke="#888" stroke-width="1" /><text fill="#333" font-family="Arial, sans-serif" font-size="12" text-anchor="middle" x="876.8" y="489.20000000000005">Storage</text><text fill="#666" font-family="Arial, sans-serif" font-size="10" text-anchor="middle" x="876.8" y="503.20000000000005">4 m²</text><polygon fill="#E2D5F0" points="603.2,398.0 968.0,398.0 968.0,78.80000000000007 603.2,78.80000000000007" stroke="#888" stroke-width="1" /><text fill="#333" font-family="Arial, sans-serif" font-size="12" text-anchor="middle" x="785.6" y="238.40000000000003">Bedroom 2</text><text fill="#666" font-family="Arial, sans-serif" font-size="10" text-anchor="middle" x="785.6" y="252.40000000000003">14 m²</text><polygon fill="#F5F5F5" points="56.0,398.0 238.4,398.0 238.4,215.60000000000002 56.0,215.60000000000002" stroke="#888" stroke-width="1" /><text fill="#333" font-family="Arial, sans-serif" font-size="12" text-anchor="middle" x="147.2" y="306.8">Hall ext</text><text fill="#666" font-family="Arial, sans-serif" font-size="10" text-anchor="middle" x="147.2" y="320.8">4 m²</text><polygon fill="#F8F9FA" points="56.0,215.60000000000002 603.2,215.60000000000002 603.2,78.80000000000007 56.0,78.80000000000007" stroke="#888" stroke-width="1" /><text fill="#333" font-family="Arial, sans-serif" font-size="12" text-anchor="middle" x="329.6" y="147.20000000000005">Patio</text><text fill="#666" font-family="Arial, sans-serif" font-size="10" text-anchor="middle" x="329.6" y="161.20000000000005">9 m²</text><rect fill="#E66" height="8" stroke="#A00" stroke-width="1" width="8" x="97.6" y="941.2" /><rect fill="#E66" height="8" stroke="#A00" stroke-width="1" width="8" x="234.4" y="804.4000000000001" /><rect fill="#E66" height="8" stroke="#A00" stroke-width="1" width="8" x="143.2" y="667.6" /><rect fill="#E66" height="8" stroke="#A00" stroke-width="1" width="8" x="143.2" y="394.0" /><rect fill="#E66" height="8" stroke="#A00" stroke-width="1" width="8" x="234.4" y="302.80000000000007" /><rect fill="#E66" height="8" stroke="#A00" stroke-width="1" width="8" x="599.2" y="758.8000000000001" /><rect fill="#E66" height="8" stroke="#A00" stroke-width="1" width="8" x="416.8" y="576.4000000000001" /><rect fill="#E66" height="8" stroke="#A00" stroke-width="1" width="8" x="599.2" y="485.20000000000005" /><rect fill="#E66" height="8" stroke="#A00" stroke-width="1" width="8" x="872.8000000000001" y="576.4000000000001" /><rect fill="#E66" height="8" stroke="#A00" stroke-width="1" width="8" x="690.4" y="394.0" /><rect fill="#E66" height="8" stroke="#A00" stroke-width="1" width="8" x="599.2" y="302.80000000000007" /><rect fill="#E66" height="8" stroke="#A00" stroke-width="1" width="8" x="416.8" y="211.60000000000002" /><rect fill="#69E" height="6" stroke="#04A" stroke-width="1" width="12" x="414.8" y="942.2" /><rect fill="#69E" height="6" stroke="#04A" stroke-width="1" width="12" x="779.6" y="942.2" /><rect fill="#69E" height="6" stroke="#04A" stroke-width="1" width="12" x="962.0" y="759.8000000000001" /><rect fill="#69E" height="6" stroke="#04A" stroke-width="1" width="12" x="414.8" y="212.60000000000002" /><rect fill="#69E" height="6" stroke="#04A" stroke-width="1" width="12" x="232.4" y="395.0" /><rect fill="#69E" height="6" stroke="#04A" stroke-width="1" width="12" x="779.6" y="75.80000000000007" /><rect fill="#69E" height="6" stroke="#04A" stroke-width="1" width="12" x="962.0" y="235.39999999999998" /><rect fill="#69E" height="6" stroke="#04A" stroke-width="1" width="12" x="962.0" y="486.20000000000005" /><rect fill="#69E" height="6" stroke="#04A" stroke-width="1" width="12" x="50.0" y="531.8" /><rect fill="#69E" height="6" stroke="#04A" stroke-width="1" width="12" x="50.0" y="805.4000000000001" /><text fill="#444" font-family="Arial, sans-serif" font-size="12" x="40" y="24">eu_uk_2bed_welsh_slate_cottage</text></svg>