<?xml version="1.0" encoding="utf-8" ?>
<svg baseProfile="full" height="1024" version="1.1" viewBox="0 0 1024 1024" width="1024" xmlns="http://www.w3.org/2000/svg" xmlns:ev="http://www.w3.org/2001/xml-events" xmlns:xlink="http://www.w3.org/1999/xlink"><defs /><rect fill="#FAFAFA" height="1024" width="1024" x="0" y="0" /><polygon fill="white" points="113.0,968.0 911.0,968.0 911.0,56.0 113.0,56.0" stroke="#222" stroke-width="3" /><polygon fill="#D1ECF1" points="113.0,968.0 512.0,968.0 512.0,512.0 113.0,512.0" stroke="#888" stroke-width="1" /><text fill="#333" font-family="Arial, sans-serif" font-size="12" text-anchor="middle" x="312.5" y="740.0">Living Room</text><text fill="#666" font-family="Arial, sans-serif" font-size="10" text-anchor="middle" x="312.5" y="754.0">14 m²</text><polygon fill="#FFF3CD" points="512.0,968.0 911.0,968.0 911.0,512.0 512.0,512.0" stroke="#888" stroke-width="1" /><text fill="#333" font-family="Arial, sans-serif" font-size="12" text-anchor="middle" x="711.5" y="740.0">Kitchen-Diner</text><text fill="#666" font-family="Arial, sans-serif" font-size="10" text-anchor="middle" x="711.5" y="754.0">14 m²</text><polygon fill="#EFEFEF" points="113.0,512.0 341.0,512.0 341.0,341.0 113.0,341.0" stroke="#888" stroke-width="1" /><text fill="#333" font-family="Arial, sans-serif" font-size="12" text-anchor="middle" x="227.0" y="426.5">Stairs</text><text fill="#666" font-family="Arial, sans-serif" font-size="10" text-anchor="middle" x="227.0" y="440.5">3 m²</text><polygon fill="#D4EDDA" points="341.0,512.0 569.0,512.0 569.0,341.0 341.0,341.0" stroke="#888" stroke-width="1" /><text fill="#333" font-family="Arial, sans-serif" font-size="12" text-anchor="middle" x="455.0" y="426.5">Bath</text><text fill="#666" font-family="Arial, sans-serif" font-size="10" text-anchor="middle" x="455.0" y="440.5">3 m²</text><polygon fill="#EEE" points="569.0,512.0 911.0,512.0 911.0,341.0 569.0,341.0" stroke="#888" stroke-width="1" /><text fill="#333" font-family="Arial, sans-serif" font-size="12" text-anchor="middle" x="740.0" y="426.5">Pantry</text><text fill="#666" font-family="Arial, sans-serif" font-size="10" text-anchor="middle" x="740.0" y="440.5">4.5 m²</text><polygon fill="#D5C8E0" points="113.0,341.0 569.0,341.0 569.0,56.0 113.0,56.0" stroke="#888" stroke-width="1" /><text fill="#333" font-family="Arial, sans-serif" font-size="12" text-anchor="middle" x="341.0" y="198.5">Master Bedroom</text><text fill="#666" font-family="Arial, sans-serif" font-size="10" text-anchor="middle" x="341.0" y="212.5">10 m²</text><polygon fill="#E2D5F0" points="569.0,341.0 911.0,341.0 911.0,56.0 569.0,56.0" stroke="#888" stroke-width="1" /><text fill="#333" font-family="Arial, sans-serif" font-size="12" text-anchor="middle" x="740.0" y="198.5">Bedroom 2</text><text fill="#666" font-family="Arial, sans-serif" font-size="10" text-anchor="middle" x="740.0" y="212.5">7.5 m²</text><rect fill="#E66" height="8" stroke="#A00" stroke-width="1" width="8" x="166.0" y="964.0" /><rect fill="#E66" height="8" stroke="#A00" stroke-width="1" width="8" x="508.0" y="736.0" /><rect fill="#E66" height="8" stroke="#A00" stroke-width="1" width="8" x="223.0" y="508.0" /><rect fill="#E66" height="8" stroke="#A00" stroke-width="1" width="8" x="736.0" y="508.0" /><rect fill="#E66" height="8" stroke="#A00" stroke-width="1" width="8" x="337.0" y="422.5" /><rect fill="#E66" height="8" stroke="#A00" stroke-width="1" width="8" x="565.0" y="422.5" /><rect fill="#E66" height="8" stroke="#A00" stroke-width="1" width="8" x="223.0" y="337.0" /><rect fill="#E66" height="8" stroke="#A00" stroke-width="1" width="8" x="736.0" y="337.0" /><rect fill="#E66" height="8" stroke="#A00" stroke-width="1" width="8" x="565.0" y="194.5" /><rect fill="#69E" height="6" stroke="#04A" stroke-width="1" width="12" x="278.0" y="965.0" /><rect fill="#69E" height="6" stroke="#04A" stroke-width="1" width="12" x="107.0" y="737.0" /><rect fill="#69E" height="6" stroke="#04A" stroke-width="1" width="12" x="677.0" y="965.0" /><rect fill="#69E" height="6" stroke="#04A" stroke-width="1" width="12" x="905.0" y="737.0" /><rect fill="#69E" height="6" stroke="#04A" stroke-width="1" width="12" x="335.0" y="53.0" /><rect fill="#69E" height="6" stroke="#04A" stroke-width="1" width="12" x="107.0" y="195.5" /><rect fill="#69E" height="6" stroke="#04A" stroke-width="1" width="12" x="734.0" y="53.0" /><rect fill="#69E" height="6" stroke="#04A" stroke-width="1" width="12" x="905.0" y="195.5" /><rect fill="#69E" height="6" stroke="#04A" stroke-width="1" width="12" x="449.0" y="509.0" /><text fill="#444" font-family="Arial, sans-serif" font-size="12" x="40" y="24">eu_uk_2bed_cornish_fisherman_cottage</text></svg>