<?xml version="1.0" encoding="utf-8" ?>
<svg baseProfile="full" height="1024" version="1.1" viewBox="0 0 1024 1024" width="1024" xmlns="http://www.w3.org/2000/svg" xmlns:ev="http://www.w3.org/2001/xml-events" xmlns:xlink="http://www.w3.org/1999/xlink"><defs /><rect fill="#FAFAFA" height="1024" width="1024" x="0" y="0" /><polygon fill="white" points="106.66666666666669,968.0 917.3333333333333,968.0 917.3333333333333,56.0 106.66666666666669,56.0" stroke="#222" stroke-width="3" /><polygon fill="#F5F5F5" points="106.66666666666669,968.0 258.6666666666667,968.0 258.6666666666667,714.6666666666667 106.66666666666669,714.6666666666667" stroke="#888" stroke-width="1" /><text fill="#333" font-family="Arial, sans-serif" font-size="12" text-anchor="middle" x="182.66666666666669" y="841.3333333333334">Hall</text><text fill="#666" font-family="Arial, sans-serif" font-size="10" text-anchor="middle" x="182.66666666666669" y="855.3333333333334">3.75 m²</text><polygon fill="#D1ECF1" points="258.6666666666667,968.0 917.3333333333333,968.0 917.3333333333333,461.33333333333337 258.6666666666667,461.33333333333337" stroke="#888" stroke-width="1" /><text fill="#333" font-family="Arial, sans-serif" font-size="12" text-anchor="middle" x="588.0" y="714.6666666666667">Open Kitchen-Living</text><text fill="#666" font-family="Arial, sans-serif" font-size="10" text-anchor="middle" x="588.0" y="728.6666666666667">32.5 m²</text><polygon fill="#D4EDDA" points="106.66666666666669,714.6666666666667 258.6666666666667,714.6666666666667 258.6666666666667,461.33333333333337 106.66666666666669,461.33333333333337" stroke="#888" stroke-width="1" /><text fill="#333" font-family="Arial, sans-serif" font-size="12" text-anchor="middle" x="182.66666666666669" y="588.0">Bath</text><text fill="#666" font-family="Arial, sans-serif" font-size="10" text-anchor="middle" x="182.66666666666669" y="602.0">3.75 m²</text><polygon fill="#D5C8E0" points="106.66666666666669,461.33333333333337 613.3333333333333,461.33333333333337 613.3333333333333,157.33333333333337 106.66666666666669,157.33333333333337" stroke="#888" stroke-width="1" /><text fill="#333" font-family="Arial, sans-serif" font-size="12" text-anchor="middle" x="360.0" y="309.33333333333337">Bedroom</text><text fill="#666" font-family="Arial, sans-serif" font-size="10" text-anchor="middle" x="360.0" y="323.33333333333337">15 m²</text><polygon fill="#EEE" points="613.3333333333333,461.33333333333337 917.3333333333333,461.33333333333337 917.3333333333333,157.33333333333337 613.3333333333333,157.33333333333337" stroke="#888" stroke-width="1" /><text fill="#333" font-family="Arial, sans-serif" font-size="12" text-anchor="middle" x="765.3333333333333" y="309.33333333333337">Storage</text><text fill="#666" font-family="Arial, sans-serif" font-size="10" text-anchor="middle" x="765.3333333333333" y="323.33333333333337">9 m²</text><polygon fill="#F8F9FA" points="106.66666666666669,157.33333333333337 917.3333333333333,157.33333333333337 917.3333333333333,56.0 106.66666666666669,56.0" stroke="#888" stroke-width="1" /><text fill="#333" font-family="Arial, sans-serif" font-size="12" text-anchor="middle" x="512.0" y="106.66666666666669">Dock Terrace</text><text fill="#666" font-family="Arial, sans-serif" font-size="10" text-anchor="middle" x="512.0" y="120.66666666666669">8 m²</text><rect fill="#E66" height="8" stroke="#A00" stroke-width="1" width="8" x="153.33333333333334" y="964.0" /><rect fill="#E66" height="8" stroke="#A00" stroke-width="1" width="8" x="254.66666666666669" y="837.3333333333334" /><rect fill="#E66" height="8" stroke="#A00" stroke-width="1" width="8" x="254.66666666666669" y="584.0" /><rect fill="#E66" height="8" stroke="#A00" stroke-width="1" width="8" x="356.0" y="457.33333333333337" /><rect fill="#E66" height="8" stroke="#A00" stroke-width="1" width="8" x="761.3333333333333" y="457.33333333333337" /><rect fill="#E66" height="8" stroke="#A00" stroke-width="1" width="8" x="609.3333333333333" y="305.33333333333337" /><rect fill="#E66" height="8" stroke="#A00" stroke-width="1" width="8" x="356.0" y="153.33333333333337" /><rect fill="#E66" height="8" stroke="#A00" stroke-width="1" width="8" x="761.3333333333333" y="153.33333333333337" /><rect fill="#69E" height="6" stroke="#04A" stroke-width="1" width="12" x="582.0" y="965.0" /><rect fill="#69E" height="6" stroke="#04A" stroke-width="1" width="12" x="911.3333333333333" y="711.6666666666667" /><rect fill="#69E" height="6" stroke="#04A" stroke-width="1" width="12" x="354.0" y="154.33333333333337" /><rect fill="#69E" height="6" stroke="#04A" stroke-width="1" width="12" x="100.66666666666669" y="306.33333333333337" /><rect fill="#69E" height="6" stroke="#04A" stroke-width="1" width="12" x="911.3333333333333" y="306.33333333333337" /><rect fill="#69E" height="6" stroke="#04A" stroke-width="1" width="12" x="506.0" y="53.0" /><rect fill="#69E" height="6" stroke="#04A" stroke-width="1" width="12" x="100.66666666666669" y="585.0" /><text fill="#444" font-family="Arial, sans-serif" font-size="12" x="40" y="24">eu_uk_1bed_liverpool_albert_dock_loft</text></svg>