<?xml version="1.0" encoding="utf-8" ?>
<svg baseProfile="full" height="1024" version="1.1" viewBox="0 0 1024 1024" width="1024" xmlns="http://www.w3.org/2000/svg" xmlns:ev="http://www.w3.org/2001/xml-events" xmlns:xlink="http://www.w3.org/1999/xlink"><defs /><rect fill="#FAFAFA" height="1024" width="1024" x="0" y="0" /><polygon fill="white" points="56.0,917.3333333333333 968.0,917.3333333333333 968.0,106.66666666666663 56.0,106.66666666666663" stroke="#222" stroke-width="3" /><polygon fill="#F5F5F5" points="56.0,917.3333333333333 258.66666666666663,917.3333333333333 258.66666666666663,613.3333333333333 56.0,613.3333333333333" stroke="#888" stroke-width="1" /><text fill="#333" font-family="Arial, sans-serif" font-size="12" text-anchor="middle" x="157.33333333333331" y="765.3333333333333">Hall</text><text fill="#666" font-family="Arial, sans-serif" font-size="10" text-anchor="middle" x="157.33333333333331" y="779.3333333333333">6 m²</text><polygon fill="#D1ECF1" points="258.66666666666663,917.3333333333333 765.3333333333333,917.3333333333333 765.3333333333333,410.66666666666663 258.66666666666663,410.66666666666663" stroke="#888" stroke-width="1" /><text fill="#333" font-family="Arial, sans-serif" font-size="12" text-anchor="middle" x="511.99999999999994" y="664.0">Lounge</text><text fill="#666" font-family="Arial, sans-serif" font-size="10" text-anchor="middle" x="511.99999999999994" y="678.0">25 m²</text><polygon fill="#FFF3CD" points="765.3333333333333,917.3333333333333 968.0,917.3333333333333 968.0,511.99999999999994 765.3333333333333,511.99999999999994" stroke="#888" stroke-width="1" /><text fill="#333" font-family="Arial, sans-serif" font-size="12" text-anchor="middle" x="866.6666666666666" y="714.6666666666666">Kitchen</text><text fill="#666" font-family="Arial, sans-serif" font-size="10" text-anchor="middle" x="866.6666666666666" y="728.6666666666666">8 m²</text><polygon fill="#D4EDDA" points="56.0,613.3333333333333 258.66666666666663,613.3333333333333 258.66666666666663,360.0 56.0,360.0" stroke="#888" stroke-width="1" /><text fill="#333" font-family="Arial, sans-serif" font-size="12" text-anchor="middle" x="157.33333333333331" y="486.66666666666663">Bath</text><text fill="#666" font-family="Arial, sans-serif" font-size="10" text-anchor="middle" x="157.33333333333331" y="500.66666666666663">5 m²</text><polygon fill="#EEE" points="765.3333333333333,511.99999999999994 968.0,511.99999999999994 968.0,410.66666666666663 765.3333333333333,410.66666666666663" stroke="#888" stroke-width="1" /><text fill="#333" font-family="Arial, sans-serif" font-size="12" text-anchor="middle" x="866.6666666666666" y="461.33333333333326">Closet</text><text fill="#666" font-family="Arial, sans-serif" font-size="10" text-anchor="middle" x="866.6666666666666" y="475.33333333333326">2 m²</text><polygon fill="#D5C8E0" points="258.66666666666663,410.66666666666663 968.0,410.66666666666663 968.0,106.66666666666663 258.66666666666663,106.66666666666663" stroke="#888" stroke-width="1" /><text fill="#333" font-family="Arial, sans-serif" font-size="12" text-anchor="middle" x="613.3333333333333" y="258.66666666666663">Bedroom</text><text fill="#666" font-family="Arial, sans-serif" font-size="10" text-anchor="middle" x="613.3333333333333" y="272.66666666666663">21 m²</text><polygon fill="#F8F9FA" points="56.0,360.0 258.66666666666663,360.0 258.66666666666663,106.66666666666663 56.0,106.66666666666663" stroke="#888" stroke-width="1" /><text fill="#333" font-family="Arial, sans-serif" font-size="12" text-anchor="middle" x="157.33333333333331" y="233.33333333333331">Balcony</text><text fill="#666" font-family="Arial, sans-serif" font-size="10" text-anchor="middle" x="157.33333333333331" y="247.33333333333331">5 m²</text><rect fill="#E66" height="8" stroke="#A00" stroke-width="1" width="8" x="102.66666666666666" y="913.3333333333333" /><rect fill="#E66" height="8" stroke="#A00" stroke-width="1" width="8" x="254.66666666666663" y="761.3333333333333" /><rect fill="#E66" height="8" stroke="#A00" stroke-width="1" width="8" x="153.33333333333331" y="609.3333333333333" /><rect fill="#E66" height="8" stroke="#A00" stroke-width="1" width="8" x="153.33333333333331" y="356.0" /><rect fill="#E66" height="8" stroke="#A00" stroke-width="1" width="8" x="761.3333333333333" y="710.6666666666666" /><rect fill="#E66" height="8" stroke="#A00" stroke-width="1" width="8" x="508.0" y="406.66666666666663" /><rect fill="#E66" height="8" stroke="#A00" stroke-width="1" width="8" x="862.6666666666666" y="507.99999999999994" /><rect fill="#E66" height="8" stroke="#A00" stroke-width="1" width="8" x="254.66666666666663" y="229.33333333333326" /><rect fill="#69E" height="6" stroke="#04A" stroke-width="1" width="12" x="506.0" y="914.3333333333333" /><rect fill="#69E" height="6" stroke="#04A" stroke-width="1" width="12" x="252.66666666666663" y="914.3333333333333" /><rect fill="#69E" height="6" stroke="#04A" stroke-width="1" width="12" x="860.6666666666666" y="914.3333333333333" /><rect fill="#69E" height="6" stroke="#04A" stroke-width="1" width="12" x="962.0" y="711.6666666666666" /><rect fill="#69E" height="6" stroke="#04A" stroke-width="1" width="12" x="607.3333333333333" y="103.66666666666663" /><rect fill="#69E" height="6" stroke="#04A" stroke-width="1" width="12" x="962.0" y="255.66666666666663" /><rect fill="#69E" height="6" stroke="#04A" stroke-width="1" width="12" x="50.0" y="483.66666666666663" /><rect fill="#69E" height="6" stroke="#04A" stroke-width="1" width="12" x="50.0" y="762.3333333333333" /><text fill="#444" font-family="Arial, sans-serif" font-size="12" x="40" y="24">eu_uk_1bed_brighton_regency_seafront</text></svg>