<?xml version="1.0" encoding="utf-8" ?>
<svg baseProfile="full" height="1024" version="1.1" viewBox="0 0 1024 1024" width="1024" xmlns="http://www.w3.org/2000/svg" xmlns:ev="http://www.w3.org/2001/xml-events" xmlns:xlink="http://www.w3.org/1999/xlink"><defs /><rect fill="#FAFAFA" height="1024" width="1024" x="0" y="0" /><polygon fill="white" points="56.0,968.0 968.0,968.0 968.0,56.0 56.0,56.0" stroke="#222" stroke-width="3" /><polygon fill="#F5F5F5" points="56.0,968.0 284.0,968.0 284.0,626.0 56.0,626.0" stroke="#888" stroke-width="1" /><text fill="#333" font-family="Arial, sans-serif" font-size="12" text-anchor="middle" x="170.0" y="797.0">Hall</text><text fill="#666" font-family="Arial, sans-serif" font-size="10" text-anchor="middle" x="170.0" y="811.0">6 m²</text><polygon fill="#D1ECF1" points="284.0,968.0 740.0,968.0 740.0,455.0 284.0,455.0" stroke="#888" stroke-width="1" /><text fill="#333" font-family="Arial, sans-serif" font-size="12" text-anchor="middle" x="512.0" y="711.5">Reception</text><text fill="#666" font-family="Arial, sans-serif" font-size="10" text-anchor="middle" x="512.0" y="725.5">18 m²</text><polygon fill="#FFF3CD" points="740.0,968.0 968.0,968.0 968.0,455.0 740.0,455.0" stroke="#888" stroke-width="1" /><text fill="#333" font-family="Arial, sans-serif" font-size="12" text-anchor="middle" x="854.0" y="711.5">Kitchen</text><text fill="#666" font-family="Arial, sans-serif" font-size="10" text-anchor="middle" x="854.0" y="725.5">9 m²</text><polygon fill="#D4EDDA" points="56.0,626.0 284.0,626.0 284.0,341.0 56.0,341.0" stroke="#888" stroke-width="1" /><text fill="#333" font-family="Arial, sans-serif" font-size="12" text-anchor="middle" x="170.0" y="483.5">Bath</text><text fill="#666" font-family="Arial, sans-serif" font-size="10" text-anchor="middle" x="170.0" y="497.5">5 m²</text><polygon fill="#D5C8E0" points="284.0,455.0 740.0,455.0 740.0,56.0 284.0,56.0" stroke="#888" stroke-width="1" /><text fill="#333" font-family="Arial, sans-serif" font-size="12" text-anchor="middle" x="512.0" y="255.5">Bedroom</text><text fill="#666" font-family="Arial, sans-serif" font-size="10" text-anchor="middle" x="512.0" y="269.5">14 m²</text><polygon fill="#EEE" points="56.0,341.0 284.0,341.0 284.0,56.0 56.0,56.0" stroke="#888" stroke-width="1" /><text fill="#333" font-family="Arial, sans-serif" font-size="12" text-anchor="middle" x="170.0" y="198.5">Closet</text><text fill="#666" font-family="Arial, sans-serif" font-size="10" text-anchor="middle" x="170.0" y="212.5">5 m²</text><polygon fill="#EEE" points="740.0,455.0 968.0,455.0 968.0,56.0 740.0,56.0" stroke="#888" stroke-width="1" /><text fill="#333" font-family="Arial, sans-serif" font-size="12" text-anchor="middle" x="854.0" y="255.5">Storage</text><text fill="#666" font-family="Arial, sans-serif" font-size="10" text-anchor="middle" x="854.0" y="269.5">7 m²</text><rect fill="#E66" height="8" stroke="#A00" stroke-width="1" width="8" x="109.0" y="964.0" /><rect fill="#E66" height="8" stroke="#A00" stroke-width="1" width="8" x="280.0" y="793.0" /><rect fill="#E66" height="8" stroke="#A00" stroke-width="1" width="8" x="166.0" y="622.0" /><rect fill="#E66" height="8" stroke="#A00" stroke-width="1" width="8" x="166.0" y="337.0" /><rect fill="#E66" height="8" stroke="#A00" stroke-width="1" width="8" x="736.0" y="707.5" /><rect fill="#E66" height="8" stroke="#A00" stroke-width="1" width="8" x="508.0" y="451.0" /><rect fill="#E66" height="8" stroke="#A00" stroke-width="1" width="8" x="736.0" y="280.0" /><rect fill="#E66" height="8" stroke="#A00" stroke-width="1" width="8" x="280.0" y="194.5" /><rect fill="#69E" height="6" stroke="#04A" stroke-width="1" width="12" x="506.0" y="965.0" /><rect fill="#69E" height="6" stroke="#04A" stroke-width="1" width="12" x="848.0" y="965.0" /><rect fill="#69E" height="6" stroke="#04A" stroke-width="1" width="12" x="962.0" y="708.5" /><rect fill="#69E" height="6" stroke="#04A" stroke-width="1" width="12" x="506.0" y="53.0" /><rect fill="#69E" height="6" stroke="#04A" stroke-width="1" width="12" x="962.0" y="224.0" /><rect fill="#69E" height="6" stroke="#04A" stroke-width="1" width="12" x="50.0" y="480.5" /><rect fill="#69E" height="6" stroke="#04A" stroke-width="1" width="12" x="50.0" y="794.0" /><text fill="#444" font-family="Arial, sans-serif" font-size="12" x="40" y="24">eu_uk_1bed_london_vauxhall_victorian_conv</text></svg>