<?xml version="1.0" encoding="utf-8" ?>
<svg baseProfile="full" height="1024" version="1.1" viewBox="0 0 1024 1024" width="1024" xmlns="http://www.w3.org/2000/svg" xmlns:ev="http://www.w3.org/2001/xml-events" xmlns:xlink="http://www.w3.org/1999/xlink"><defs /><rect fill="#FAFAFA" height="1024" width="1024" x="0" y="0" /><polygon fill="white" points="97.4545454545455,968.0 926.5454545454545,968.0 926.5454545454545,56.0 97.4545454545455,56.0" stroke="#222" stroke-width="3" /><polygon fill="#F5F5F5" points="97.4545454545455,968.0 263.2727272727273,968.0 263.2727272727273,636.3636363636364 97.4545454545455,636.3636363636364" stroke="#888" stroke-width="1" /><text fill="#333" font-family="Arial, sans-serif" font-size="12" text-anchor="middle" x="180.3636363636364" y="802.1818181818182">Hall</text><text fill="#666" font-family="Arial, sans-serif" font-size="10" text-anchor="middle" x="180.3636363636364" y="816.1818181818182">8 m²</text><polygon fill="#D1ECF1" points="263.2727272727273,968.0 677.8181818181819,968.0 677.8181818181819,512.0 263.2727272727273,512.0" stroke="#888" stroke-width="1" /><text fill="#333" font-family="Arial, sans-serif" font-size="12" text-anchor="middle" x="470.5454545454546" y="740.0">Living-Diner</text><text fill="#666" font-family="Arial, sans-serif" font-size="10" text-anchor="middle" x="470.5454545454546" y="754.0">27.5 m²</text><polygon fill="#FFF3CD" points="677.8181818181819,968.0 926.5454545454545,968.0 926.5454545454545,636.3636363636364 677.8181818181819,636.3636363636364" stroke="#888" stroke-width="1" /><text fill="#333" font-family="Arial, sans-serif" font-size="12" text-anchor="middle" x="802.1818181818182" y="802.1818181818182">Kitchen</text><text fill="#666" font-family="Arial, sans-serif" font-size="10" text-anchor="middle" x="802.1818181818182" y="816.1818181818182">12 m²</text><polygon fill="#EEE" points="677.8181818181819,636.3636363636364 926.5454545454545,636.3636363636364 926.5454545454545,512.0 677.8181818181819,512.0" stroke="#888" stroke-width="1" /><text fill="#333" font-family="Arial, sans-serif" font-size="12" text-anchor="middle" x="802.1818181818182" y="574.1818181818182">Storage</text><text fill="#666" font-family="Arial, sans-serif" font-size="10" text-anchor="middle" x="802.1818181818182" y="588.1818181818182">4.5 m²</text><polygon fill="#D4EDDA" points="97.4545454545455,636.3636363636364 263.2727272727273,636.3636363636364 263.2727272727273,387.6363636363636 97.4545454545455,387.6363636363636" stroke="#888" stroke-width="1" /><text fill="#333" font-family="Arial, sans-serif" font-size="12" text-anchor="middle" x="180.3636363636364" y="512.0">Bath</text><text fill="#666" font-family="Arial, sans-serif" font-size="10" text-anchor="middle" x="180.3636363636364" y="526.0">6 m²</text><polygon fill="#D5C8E0" points="263.2727272727273,512.0 594.909090909091,512.0 594.909090909091,221.81818181818187 263.2727272727273,221.81818181818187" stroke="#888" stroke-width="1" /><text fill="#333" font-family="Arial, sans-serif" font-size="12" text-anchor="middle" x="429.0909090909091" y="366.90909090909093">Master Bedroom</text><text fill="#666" font-family="Arial, sans-serif" font-size="10" text-anchor="middle" x="429.0909090909091" y="380.90909090909093">14 m²</text><polygon fill="#E2D5F0" points="594.909090909091,512.0 926.5454545454545,512.0 926.5454545454545,221.81818181818187 594.909090909091,221.81818181818187" stroke="#888" stroke-width="1" /><text fill="#333" font-family="Arial, sans-serif" font-size="12" text-anchor="middle" x="760.7272727272727" y="366.90909090909093">Bedroom 2</text><text fill="#666" font-family="Arial, sans-serif" font-size="10" text-anchor="middle" x="760.7272727272727" y="380.90909090909093">14 m²</text><polygon fill="#E2D5F0" points="263.2727272727273,221.81818181818187 677.8181818181819,221.81818181818187 677.8181818181819,56.0 263.2727272727273,56.0" stroke="#888" stroke-width="1" /><text fill="#333" font-family="Arial, sans-serif" font-size="12" text-anchor="middle" x="470.5454545454546" y="138.90909090909093">Loft Attic</text><text fill="#666" font-family="Arial, sans-serif" font-size="10" text-anchor="middle" x="470.5454545454546" y="152.90909090909093">10 m²</text><polygon fill="#E2D5F0" points="677.8181818181819,221.81818181818187 926.5454545454545,221.81818181818187 926.5454545454545,56.0 677.8181818181819,56.0" stroke="#888" stroke-width="1" /><text fill="#333" font-family="Arial, sans-serif" font-size="12" text-anchor="middle" x="802.1818181818182" y="138.90909090909093">Bedroom 3</text><text fill="#666" font-family="Arial, sans-serif" font-size="10" text-anchor="middle" x="802.1818181818182" y="152.90909090909093">6 m²</text><polygon fill="#F5F5F5" points="97.4545454545455,387.6363636363636 263.2727272727273,387.6363636363636 263.2727272727273,56.0 97.4545454545455,56.0" stroke="#888" stroke-width="1" /><text fill="#333" font-family="Arial, sans-serif" font-size="12" text-anchor="middle" x="180.3636363636364" y="221.8181818181818">Back Hall</text><text fill="#666" font-family="Arial, sans-serif" font-size="10" text-anchor="middle" x="180.3636363636364" y="235.8181818181818">8 m²</text><rect fill="#E66" height="8" stroke="#A00" stroke-width="1" width="8" x="134.90909090909093" y="964.0" /><rect fill="#E66" height="8" stroke="#A00" stroke-width="1" width="8" x="259.2727272727273" y="798.1818181818182" /><rect fill="#E66" height="8" stroke="#A00" stroke-width="1" width="8" x="176.3636363636364" y="632.3636363636364" /><rect fill="#E66" height="8" stroke="#A00" stroke-width="1" width="8" x="176.3636363636364" y="383.6363636363636" /><rect fill="#E66" height="8" stroke="#A00" stroke-width="1" width="8" x="259.2727272727273" y="383.6363636363636" /><rect fill="#E66" height="8" stroke="#A00" stroke-width="1" width="8" x="259.2727272727273" y="134.909090909091" /><rect fill="#E66" height="8" stroke="#A00" stroke-width="1" width="8" x="673.8181818181819" y="798.1818181818182" /><rect fill="#E66" height="8" stroke="#A00" stroke-width="1" width="8" x="425.0909090909091" y="508.0" /><rect fill="#E66" height="8" stroke="#A00" stroke-width="1" width="8" x="632.3636363636364" y="508.0" /><rect fill="#E66" height="8" stroke="#A00" stroke-width="1" width="8" x="798.1818181818182" y="632.3636363636364" /><rect fill="#E66" height="8" stroke="#A00" stroke-width="1" width="8" x="425.0909090909091" y="217.81818181818187" /><rect fill="#E66" height="8" stroke="#A00" stroke-width="1" width="8" x="590.909090909091" y="383.6363636363636" /><rect fill="#E66" height="8" stroke="#A00" stroke-width="1" width="8" x="756.7272727272727" y="217.81818181818187" /><rect fill="#E66" height="8" stroke="#A00" stroke-width="1" width="8" x="673.8181818181819" y="134.909090909091" /><rect fill="#69E" height="6" stroke="#04A" stroke-width="1" width="12" x="464.54545454545456" y="965.0" /><rect fill="#69E" height="6" stroke="#04A" stroke-width="1" width="12" x="796.1818181818182" y="965.0" /><rect fill="#69E" height="6" stroke="#04A" stroke-width="1" width="12" x="920.5454545454545" y="799.1818181818182" /><rect fill="#69E" height="6" stroke="#04A" stroke-width="1" width="12" x="423.0909090909091" y="218.81818181818187" /><rect fill="#69E" height="6" stroke="#04A" stroke-width="1" width="12" x="754.7272727272727" y="218.81818181818187" /><rect fill="#69E" height="6" stroke="#04A" stroke-width="1" width="12" x="920.5454545454545" y="363.9090909090909" /><rect fill="#69E" height="6" stroke="#04A" stroke-width="1" width="12" x="464.54545454545456" y="53.0" /><rect fill="#69E" height="6" stroke="#04A" stroke-width="1" width="12" x="796.1818181818182" y="53.0" /><rect fill="#69E" height="6" stroke="#04A" stroke-width="1" width="12" x="91.4545454545455" y="509.0" /><rect fill="#69E" height="6" stroke="#04A" stroke-width="1" width="12" x="91.4545454545455" y="799.1818181818182" /><text fill="#444" font-family="Arial, sans-serif" font-size="12" x="40" y="24">eu_uk_3bed_hebden_bridge_yorkshire_stone</text></svg>