<?xml version="1.0" encoding="utf-8" ?>
<svg baseProfile="full" height="1024" version="1.1" viewBox="0 0 1024 1024" width="1024" xmlns="http://www.w3.org/2000/svg" xmlns:ev="http://www.w3.org/2001/xml-events" xmlns:xlink="http://www.w3.org/1999/xlink"><defs /><rect fill="#FAFAFA" height="1024" width="1024" x="0" y="0" /><polygon fill="white" points="106.66666666666669,968.0 917.3333333333333,968.0 917.3333333333333,56.0 106.66666666666669,56.0" stroke="#222" stroke-width="3" /><polygon fill="#F5F5F5" points="106.66666666666669,968.0 258.6666666666667,968.0 258.6666666666667,613.3333333333334 106.66666666666669,613.3333333333334" stroke="#888" stroke-width="1" /><text fill="#333" font-family="Arial, sans-serif" font-size="12" text-anchor="middle" x="182.66666666666669" y="790.6666666666667">Hall</text><text fill="#666" font-family="Arial, sans-serif" font-size="10" text-anchor="middle" x="182.66666666666669" y="804.6666666666667">5.25 m²</text><polygon fill="#D1ECF1" points="258.6666666666667,968.0 664.0,968.0 664.0,562.6666666666667 258.6666666666667,562.6666666666667" stroke="#888" stroke-width="1" /><text fill="#333" font-family="Arial, sans-serif" font-size="12" text-anchor="middle" x="461.33333333333337" y="765.3333333333334">Living</text><text fill="#666" font-family="Arial, sans-serif" font-size="10" text-anchor="middle" x="461.33333333333337" y="779.3333333333334">16 m²</text><polygon fill="#FFF3CD" points="664.0,968.0 917.3333333333333,968.0 917.3333333333333,714.6666666666667 664.0,714.6666666666667" stroke="#888" stroke-width="1" /><text fill="#333" font-family="Arial, sans-serif" font-size="12" text-anchor="middle" x="790.6666666666666" y="841.3333333333334">Kitchen</text><text fill="#666" font-family="Arial, sans-serif" font-size="10" text-anchor="middle" x="790.6666666666666" y="855.3333333333334">6.25 m²</text><polygon fill="#EEE" points="664.0,714.6666666666667 917.3333333333333,714.6666666666667 917.3333333333333,562.6666666666667 664.0,562.6666666666667" stroke="#888" stroke-width="1" /><text fill="#333" font-family="Arial, sans-serif" font-size="12" text-anchor="middle" x="790.6666666666666" y="638.6666666666667">Storage</text><text fill="#666" font-family="Arial, sans-serif" font-size="10" text-anchor="middle" x="790.6666666666666" y="652.6666666666667">3.75 m²</text><polygon fill="#D4EDDA" points="106.66666666666669,613.3333333333334 258.6666666666667,613.3333333333334 258.6666666666667,309.33333333333337 106.66666666666669,309.33333333333337" stroke="#888" stroke-width="1" /><text fill="#333" font-family="Arial, sans-serif" font-size="12" text-anchor="middle" x="182.66666666666669" y="461.33333333333337">Bath</text><text fill="#666" font-family="Arial, sans-serif" font-size="10" text-anchor="middle" x="182.66666666666669" y="475.33333333333337">4.5 m²</text><polygon fill="#D5C8E0" points="258.6666666666667,562.6666666666667 765.3333333333333,562.6666666666667 765.3333333333333,157.33333333333337 258.6666666666667,157.33333333333337" stroke="#888" stroke-width="1" /><text fill="#333" font-family="Arial, sans-serif" font-size="12" text-anchor="middle" x="512.0" y="360.00000000000006">Master Bedroom</text><text fill="#666" font-family="Arial, sans-serif" font-size="10" text-anchor="middle" x="512.0" y="374.00000000000006">20 m²</text><polygon fill="#E2D5F0" points="765.3333333333333,562.6666666666667 917.3333333333333,562.6666666666667 917.3333333333333,157.33333333333337 765.3333333333333,157.33333333333337" stroke="#888" stroke-width="1" /><text fill="#333" font-family="Arial, sans-serif" font-size="12" text-anchor="middle" x="841.3333333333333" y="360.00000000000006">Bedroom 2</text><text fill="#666" font-family="Arial, sans-serif" font-size="10" text-anchor="middle" x="841.3333333333333" y="374.00000000000006">6 m²</text><polygon fill="#F5F5F5" points="106.66666666666669,309.33333333333337 258.6666666666667,309.33333333333337 258.6666666666667,157.33333333333337 106.66666666666669,157.33333333333337" stroke="#888" stroke-width="1" /><text fill="#333" font-family="Arial, sans-serif" font-size="12" text-anchor="middle" x="182.66666666666669" y="233.33333333333337">Hall ext</text><text fill="#666" font-family="Arial, sans-serif" font-size="10" text-anchor="middle" x="182.66666666666669" y="247.33333333333337">2.25 m²</text><polygon fill="#F8F9FA" points="106.66666666666669,157.33333333333337 917.3333333333333,157.33333333333337 917.3333333333333,56.0 106.66666666666669,56.0" stroke="#888" stroke-width="1" /><text fill="#333" font-family="Arial, sans-serif" font-size="12" text-anchor="middle" x="512.0" y="106.66666666666669">Yard</text><text fill="#666" font-family="Arial, sans-serif" font-size="10" text-anchor="middle" x="512.0" y="120.66666666666669">8 m²</text><rect fill="#E66" height="8" stroke="#A00" stroke-width="1" width="8" x="153.33333333333334" y="964.0" /><rect fill="#E66" height="8" stroke="#A00" stroke-width="1" width="8" x="254.66666666666669" y="761.3333333333334" /><rect fill="#E66" height="8" stroke="#A00" stroke-width="1" width="8" x="204.0" y="609.3333333333334" /><rect fill="#E66" height="8" stroke="#A00" stroke-width="1" width="8" x="204.0" y="305.33333333333337" /><rect fill="#E66" height="8" stroke="#A00" stroke-width="1" width="8" x="305.33333333333337" y="229.33333333333337" /><rect fill="#E66" height="8" stroke="#A00" stroke-width="1" width="8" x="660.0" y="837.3333333333334" /><rect fill="#E66" height="8" stroke="#A00" stroke-width="1" width="8" x="457.3333333333333" y="558.6666666666667" /><rect fill="#E66" height="8" stroke="#A00" stroke-width="1" width="8" x="786.6666666666667" y="710.6666666666667" /><rect fill="#E66" height="8" stroke="#A00" stroke-width="1" width="8" x="786.6666666666667" y="558.6666666666667" /><rect fill="#E66" height="8" stroke="#A00" stroke-width="1" width="8" x="761.3333333333333" y="356.0" /><rect fill="#E66" height="8" stroke="#A00" stroke-width="1" width="8" x="508.0" y="153.33333333333337" /><rect fill="#69E" height="6" stroke="#04A" stroke-width="1" width="12" x="455.3333333333333" y="965.0" /><rect fill="#69E" height="6" stroke="#04A" stroke-width="1" width="12" x="252.66666666666669" y="965.0" /><rect fill="#69E" height="6" stroke="#04A" stroke-width="1" width="12" x="784.6666666666667" y="965.0" /><rect fill="#69E" height="6" stroke="#04A" stroke-width="1" width="12" x="911.3333333333333" y="838.3333333333334" /><rect fill="#69E" height="6" stroke="#04A" stroke-width="1" width="12" x="506.0" y="154.33333333333337" /><rect fill="#69E" height="6" stroke="#04A" stroke-width="1" width="12" x="784.6666666666667" y="154.33333333333337" /><rect fill="#69E" height="6" stroke="#04A" stroke-width="1" width="12" x="911.3333333333333" y="357.0" /><rect fill="#69E" height="6" stroke="#04A" stroke-width="1" width="12" x="100.66666666666669" y="458.33333333333337" /><rect fill="#69E" height="6" stroke="#04A" stroke-width="1" width="12" x="100.66666666666669" y="787.6666666666667" /><text fill="#444" font-family="Arial, sans-serif" font-size="12" x="40" y="24">eu_uk_2bed_newcastle_tyneside_flat</text></svg>