<?xml version="1.0" encoding="utf-8" ?>
<svg baseProfile="full" height="1024" version="1.1" viewBox="0 0 1024 1024" width="1024" xmlns="http://www.w3.org/2000/svg" xmlns:ev="http://www.w3.org/2001/xml-events" xmlns:xlink="http://www.w3.org/1999/xlink"><defs /><rect fill="#FAFAFA" height="1024" width="1024" x="0" y="0" /><polygon fill="white" points="56.0,930.0 968.0,930.0 968.0,94.0 56.0,94.0" stroke="#222" stroke-width="3" /><polygon fill="#F5F5F5" points="56.0,930.0 208.0,930.0 208.0,626.0 56.0,626.0" stroke="#888" stroke-width="1" /><text fill="#333" font-family="Arial, sans-serif" font-size="12" text-anchor="middle" x="132.0" y="778.0">Hall</text><text fill="#666" font-family="Arial, sans-serif" font-size="10" text-anchor="middle" x="132.0" y="792.0">8 m²</text><polygon fill="#D1ECF1" points="208.0,930.0 816.0,930.0 816.0,512.0 208.0,512.0" stroke="#888" stroke-width="1" /><text fill="#333" font-family="Arial, sans-serif" font-size="12" text-anchor="middle" x="512.0" y="721.0">Open Kitchen-Dining-Living</text><text fill="#666" font-family="Arial, sans-serif" font-size="10" text-anchor="middle" x="512.0" y="735.0">44 m²</text><polygon fill="#D1ECF1" points="816.0,930.0 968.0,930.0 968.0,512.0 816.0,512.0" stroke="#888" stroke-width="1" /><text fill="#333" font-family="Arial, sans-serif" font-size="12" text-anchor="middle" x="892.0" y="721.0">Snug</text><text fill="#666" font-family="Arial, sans-serif" font-size="10" text-anchor="middle" x="892.0" y="735.0">11 m²</text><polygon fill="#E0E0E0" points="56.0,626.0 208.0,626.0 208.0,474.0 56.0,474.0" stroke="#888" stroke-width="1" /><text fill="#333" font-family="Arial, sans-serif" font-size="12" text-anchor="middle" x="132.0" y="550.0">Utility</text><text fill="#666" font-family="Arial, sans-serif" font-size="10" text-anchor="middle" x="132.0" y="564.0">4 m²</text><polygon fill="#D4EDDA" points="56.0,474.0 208.0,474.0 208.0,398.0 56.0,398.0" stroke="#888" stroke-width="1" /><text fill="#333" font-family="Arial, sans-serif" font-size="12" text-anchor="middle" x="132.0" y="436.0">Cloak</text><text fill="#666" font-family="Arial, sans-serif" font-size="10" text-anchor="middle" x="132.0" y="450.0">2 m²</text><polygon fill="#F5F5F5" points="56.0,398.0 208.0,398.0 208.0,94.0 56.0,94.0" stroke="#888" stroke-width="1" /><text fill="#333" font-family="Arial, sans-serif" font-size="12" text-anchor="middle" x="132.0" y="246.0">Back Hall</text><text fill="#666" font-family="Arial, sans-serif" font-size="10" text-anchor="middle" x="132.0" y="260.0">8 m²</text><polygon fill="#D5C8E0" points="208.0,512.0 512.0,512.0 512.0,208.0 208.0,208.0" stroke="#888" stroke-width="1" /><text fill="#333" font-family="Arial, sans-serif" font-size="12" text-anchor="middle" x="360.0" y="360.0">Master</text><text fill="#666" font-family="Arial, sans-serif" font-size="10" text-anchor="middle" x="360.0" y="374.0">16 m²</text><polygon fill="#D4EDDA" points="512.0,512.0 664.0,512.0 664.0,360.0 512.0,360.0" stroke="#888" stroke-width="1" /><text fill="#333" font-family="Arial, sans-serif" font-size="12" text-anchor="middle" x="588.0" y="436.0">Master Ensuite</text><text fill="#666" font-family="Arial, sans-serif" font-size="10" text-anchor="middle" x="588.0" y="450.0">4 m²</text><polygon fill="#D4EDDA" points="664.0,512.0 816.0,512.0 816.0,398.0 664.0,398.0" stroke="#888" stroke-width="1" /><text fill="#333" font-family="Arial, sans-serif" font-size="12" text-anchor="middle" x="740.0" y="455.0">Family Bath</text><text fill="#666" font-family="Arial, sans-serif" font-size="10" text-anchor="middle" x="740.0" y="469.0">3 m²</text><polygon fill="#EEE" points="816.0,512.0 968.0,512.0 968.0,398.0 816.0,398.0" stroke="#888" stroke-width="1" /><text fill="#333" font-family="Arial, sans-serif" font-size="12" text-anchor="middle" x="892.0" y="455.0">Storage</text><text fill="#666" font-family="Arial, sans-serif" font-size="10" text-anchor="middle" x="892.0" y="469.0">3 m²</text><polygon fill="#E2D5F0" points="664.0,398.0 968.0,398.0 968.0,94.0 664.0,94.0" stroke="#888" stroke-width="1" /><text fill="#333" font-family="Arial, sans-serif" font-size="12" text-anchor="middle" x="816.0" y="246.0">Bedroom 2</text><text fill="#666" font-family="Arial, sans-serif" font-size="10" text-anchor="middle" x="816.0" y="260.0">16 m²</text><polygon fill="#E2D5F0" points="512.0,360.0 664.0,360.0 664.0,94.0 512.0,94.0" stroke="#888" stroke-width="1" /><text fill="#333" font-family="Arial, sans-serif" font-size="12" text-anchor="middle" x="588.0" y="227.0">Bedroom 3</text><text fill="#666" font-family="Arial, sans-serif" font-size="10" text-anchor="middle" x="588.0" y="241.0">7 m²</text><polygon fill="#E2D5F0" points="208.0,208.0 512.0,208.0 512.0,94.0 208.0,94.0" stroke="#888" stroke-width="1" /><text fill="#333" font-family="Arial, sans-serif" font-size="12" text-anchor="middle" x="360.0" y="151.0">Bedroom 4</text><text fill="#666" font-family="Arial, sans-serif" font-size="10" text-anchor="middle" x="360.0" y="165.0">6 m²</text><rect fill="#E66" height="8" stroke="#A00" stroke-width="1" width="8" x="90.0" y="926.0" /><rect fill="#E66" height="8" stroke="#A00" stroke-width="1" width="8" x="204.0" y="774.0" /><rect fill="#E66" height="8" stroke="#A00" stroke-width="1" width="8" x="128.0" y="622.0" /><rect fill="#E66" height="8" stroke="#A00" stroke-width="1" width="8" x="128.0" y="470.0" /><rect fill="#E66" height="8" stroke="#A00" stroke-width="1" width="8" x="128.0" y="394.0" /><rect fill="#E66" height="8" stroke="#A00" stroke-width="1" width="8" x="204.0" y="166.0" /><rect fill="#E66" height="8" stroke="#A00" stroke-width="1" width="8" x="812.0" y="717.0" /><rect fill="#E66" height="8" stroke="#A00" stroke-width="1" width="8" x="356.0" y="508.0" /><rect fill="#E66" height="8" stroke="#A00" stroke-width="1" width="8" x="508.0" y="432.0" /><rect fill="#E66" height="8" stroke="#A00" stroke-width="1" width="8" x="660.0" y="432.0" /><rect fill="#E66" height="8" stroke="#A00" stroke-width="1" width="8" x="812.0" y="451.0" /><rect fill="#E66" height="8" stroke="#A00" stroke-width="1" width="8" x="508.0" y="280.0" /><rect fill="#E66" height="8" stroke="#A00" stroke-width="1" width="8" x="736.0" y="394.0" /><rect fill="#E66" height="8" stroke="#A00" stroke-width="1" width="8" x="356.0" y="204.0" /><rect fill="#E66" height="8" stroke="#A00" stroke-width="1" width="8" x="660.0" y="242.0" /><rect fill="#69E" height="6" stroke="#04A" stroke-width="1" width="12" x="506.0" y="927.0" /><rect fill="#69E" height="6" stroke="#04A" stroke-width="1" width="12" x="886.0" y="927.0" /><rect fill="#69E" height="6" stroke="#04A" stroke-width="1" width="12" x="962.0" y="718.0" /><rect fill="#69E" height="6" stroke="#04A" stroke-width="1" width="12" x="354.0" y="205.0" /><rect fill="#69E" height="6" stroke="#04A" stroke-width="1" width="12" x="810.0" y="91.0" /><rect fill="#69E" height="6" stroke="#04A" stroke-width="1" width="12" x="962.0" y="243.0" /><rect fill="#69E" height="6" stroke="#04A" stroke-width="1" width="12" x="582.0" y="91.0" /><rect fill="#69E" height="6" stroke="#04A" stroke-width="1" width="12" x="354.0" y="91.0" /><rect fill="#69E" height="6" stroke="#04A" stroke-width="1" width="12" x="50.0" y="547.0" /><rect fill="#69E" height="6" stroke="#04A" stroke-width="1" width="12" x="50.0" y="775.0" /><text fill="#444" font-family="Arial, sans-serif" font-size="12" x="40" y="24">eu_uk_4bed_didcot_eco</text></svg>