<?xml version="1.0" encoding="utf-8" ?>
<svg baseProfile="full" height="1024" version="1.1" viewBox="0 0 1024 1024" width="1024" xmlns="http://www.w3.org/2000/svg" xmlns:ev="http://www.w3.org/2001/xml-events" xmlns:xlink="http://www.w3.org/1999/xlink"><defs /><rect fill="#FAFAFA" height="1024" width="1024" x="0" y="0" /><polygon fill="white" points="56.0,968.0 968.0,968.0 968.0,56.0 56.0,56.0" stroke="#222" stroke-width="3" /><polygon fill="#F5F5F5" points="56.0,968.0 446.85714285714283,968.0 446.85714285714283,577.1428571428571 56.0,577.1428571428571" stroke="#888" stroke-width="1" /><text fill="#333" font-family="Arial, sans-serif" font-size="12" text-anchor="middle" x="251.42857142857142" y="772.5714285714286">Roundel Hall</text><text fill="#666" font-family="Arial, sans-serif" font-size="10" text-anchor="middle" x="251.42857142857142" y="786.5714285714286">36 m²</text><polygon fill="#D1ECF1" points="446.85714285714283,968.0 837.7142857142857,968.0 837.7142857142857,577.1428571428571 446.85714285714283,577.1428571428571" stroke="#888" stroke-width="1" /><text fill="#333" font-family="Arial, sans-serif" font-size="12" text-anchor="middle" x="642.2857142857142" y="772.5714285714286">Drawing Room (roundel)</text><text fill="#666" font-family="Arial, sans-serif" font-size="10" text-anchor="middle" x="642.2857142857142" y="786.5714285714286">36 m²</text><polygon fill="#D1ECF1" points="837.7142857142857,968.0 968.0,968.0 968.0,642.2857142857143 837.7142857142857,642.2857142857143" stroke="#888" stroke-width="1" /><text fill="#333" font-family="Arial, sans-serif" font-size="12" text-anchor="middle" x="902.8571428571429" y="805.1428571428571">Snug</text><text fill="#666" font-family="Arial, sans-serif" font-size="10" text-anchor="middle" x="902.8571428571429" y="819.1428571428571">10 m²</text><polygon fill="#FFF3CD" points="56.0,577.1428571428571 446.85714285714283,577.1428571428571 446.85714285714283,316.57142857142867 56.0,316.57142857142867" stroke="#888" stroke-width="1" /><text fill="#333" font-family="Arial, sans-serif" font-size="12" text-anchor="middle" x="251.42857142857142" y="446.8571428571429">Kitchen-Diner</text><text fill="#666" font-family="Arial, sans-serif" font-size="10" text-anchor="middle" x="251.42857142857142" y="460.8571428571429">24 m²</text><polygon fill="#E0E0E0" points="446.85714285714283,577.1428571428571 577.1428571428571,577.1428571428571 577.1428571428571,381.7142857142858 446.85714285714283,381.7142857142858" stroke="#888" stroke-width="1" /><text fill="#333" font-family="Arial, sans-serif" font-size="12" text-anchor="middle" x="512.0" y="479.42857142857144">Utility</text><text fill="#666" font-family="Arial, sans-serif" font-size="10" text-anchor="middle" x="512.0" y="493.42857142857144">6 m²</text><polygon fill="#F5F5F5" points="577.1428571428571,577.1428571428571 837.7142857142857,577.1428571428571 837.7142857142857,381.7142857142858 577.1428571428571,381.7142857142858" stroke="#888" stroke-width="1" /><text fill="#333" font-family="Arial, sans-serif" font-size="12" text-anchor="middle" x="707.4285714285713" y="479.42857142857144">Galleried Landing</text><text fill="#666" font-family="Arial, sans-serif" font-size="10" text-anchor="middle" x="707.4285714285713" y="493.42857142857144">12 m²</text><polygon fill="#EEE" points="837.7142857142857,642.2857142857143 968.0,642.2857142857143 968.0,381.7142857142858 837.7142857142857,381.7142857142858" stroke="#888" stroke-width="1" /><text fill="#333" font-family="Arial, sans-serif" font-size="12" text-anchor="middle" x="902.8571428571429" y="512.0">Storage</text><text fill="#666" font-family="Arial, sans-serif" font-size="10" text-anchor="middle" x="902.8571428571429" y="526.0">8 m²</text><polygon fill="#D5C8E0" points="446.85714285714283,381.7142857142858 837.7142857142857,381.7142857142858 837.7142857142857,56.0 446.85714285714283,56.0" stroke="#888" stroke-width="1" /><text fill="#333" font-family="Arial, sans-serif" font-size="12" text-anchor="middle" x="642.2857142857142" y="218.8571428571429">Master Bedroom</text><text fill="#666" font-family="Arial, sans-serif" font-size="10" text-anchor="middle" x="642.2857142857142" y="232.8571428571429">30 m²</text><polygon fill="#D4EDDA" points="837.7142857142857,381.7142857142858 968.0,381.7142857142858 968.0,186.28571428571433 837.7142857142857,186.28571428571433" stroke="#888" stroke-width="1" /><text fill="#333" font-family="Arial, sans-serif" font-size="12" text-anchor="middle" x="902.8571428571429" y="284.00000000000006">Master Bath</text><text fill="#666" font-family="Arial, sans-serif" font-size="10" text-anchor="middle" x="902.8571428571429" y="298.00000000000006">6 m²</text><polygon fill="#E2D5F0" points="56.0,316.57142857142867 316.57142857142856,316.57142857142867 316.57142857142856,121.14285714285722 56.0,121.14285714285722" stroke="#888" stroke-width="1" /><text fill="#333" font-family="Arial, sans-serif" font-size="12" text-anchor="middle" x="186.28571428571428" y="218.85714285714295">Bedroom 2</text><text fill="#666" font-family="Arial, sans-serif" font-size="10" text-anchor="middle" x="186.28571428571428" y="232.85714285714295">12 m²</text><polygon fill="#E2D5F0" points="316.57142857142856,316.57142857142867 446.85714285714283,316.57142857142867 446.85714285714283,121.14285714285722 316.57142857142856,121.14285714285722" stroke="#888" stroke-width="1" /><text fill="#333" font-family="Arial, sans-serif" font-size="12" text-anchor="middle" x="381.71428571428567" y="218.85714285714295">Bedroom 3</text><text fill="#666" font-family="Arial, sans-serif" font-size="10" text-anchor="middle" x="381.71428571428567" y="232.85714285714295">6 m²</text><polygon fill="#D4EDDA" points="837.7142857142857,186.28571428571433 968.0,186.28571428571433 968.0,56.0 837.7142857142857,56.0" stroke="#888" stroke-width="1" /><text fill="#333" font-family="Arial, sans-serif" font-size="12" text-anchor="middle" x="902.8571428571429" y="121.14285714285717">Family Bath</text><text fill="#666" font-family="Arial, sans-serif" font-size="10" text-anchor="middle" x="902.8571428571429" y="135.14285714285717">4 m²</text><polygon fill="#E2D5F0" points="56.0,121.14285714285722 446.85714285714283,121.14285714285722 446.85714285714283,56.0 56.0,56.0" stroke="#888" stroke-width="1" /><text fill="#333" font-family="Arial, sans-serif" font-size="12" text-anchor="middle" x="251.42857142857142" y="88.57142857142861">Bedroom 4</text><text fill="#666" font-family="Arial, sans-serif" font-size="10" text-anchor="middle" x="251.42857142857142" y="102.57142857142861">6 m²</text><rect fill="#E66" height="8" stroke="#A00" stroke-width="1" width="8" x="117.14285714285714" y="964.0" /><rect fill="#E66" height="8" stroke="#A00" stroke-width="1" width="8" x="442.85714285714283" y="768.5714285714286" /><rect fill="#E66" height="8" stroke="#A00" stroke-width="1" width="8" x="833.7142857142857" y="801.1428571428571" /><rect fill="#E66" height="8" stroke="#A00" stroke-width="1" width="8" x="247.42857142857142" y="573.1428571428571" /><rect fill="#E66" height="8" stroke="#A00" stroke-width="1" width="8" x="508.0" y="573.1428571428571" /><rect fill="#E66" height="8" stroke="#A00" stroke-width="1" width="8" x="703.4285714285713" y="573.1428571428571" /><rect fill="#E66" height="8" stroke="#A00" stroke-width="1" width="8" x="898.8571428571428" y="638.2857142857143" /><rect fill="#E66" height="8" stroke="#A00" stroke-width="1" width="8" x="442.85714285714283" y="475.42857142857144" /><rect fill="#E66" height="8" stroke="#A00" stroke-width="1" width="8" x="573.1428571428571" y="475.42857142857144" /><rect fill="#E66" height="8" stroke="#A00" stroke-width="1" width="8" x="833.7142857142857" y="475.42857142857144" /><rect fill="#E66" height="8" stroke="#A00" stroke-width="1" width="8" x="703.4285714285713" y="377.7142857142858" /><rect fill="#E66" height="8" stroke="#A00" stroke-width="1" width="8" x="833.7142857142857" y="280.0" /><rect fill="#E66" height="8" stroke="#A00" stroke-width="1" width="8" x="182.28571428571428" y="312.57142857142867" /><rect fill="#E66" height="8" stroke="#A00" stroke-width="1" width="8" x="377.71428571428567" y="312.57142857142867" /><rect fill="#E66" height="8" stroke="#A00" stroke-width="1" width="8" x="898.8571428571428" y="182.28571428571433" /><rect fill="#E66" height="8" stroke="#A00" stroke-width="1" width="8" x="833.7142857142857" y="117.14285714285722" /><rect fill="#E66" height="8" stroke="#A00" stroke-width="1" width="8" x="182.28571428571428" y="117.14285714285722" /><rect fill="#E66" height="8" stroke="#A00" stroke-width="1" width="8" x="377.71428571428567" y="117.14285714285722" /><rect fill="#69E" height="6" stroke="#04A" stroke-width="1" width="12" x="245.42857142857142" y="965.0" /><rect fill="#69E" height="6" stroke="#04A" stroke-width="1" width="12" x="50.0" y="769.5714285714286" /><rect fill="#69E" height="6" stroke="#04A" stroke-width="1" width="12" x="636.2857142857142" y="965.0" /><rect fill="#69E" height="6" stroke="#04A" stroke-width="1" width="12" x="896.8571428571428" y="965.0" /><rect fill="#69E" height="6" stroke="#04A" stroke-width="1" width="12" x="962.0" y="802.1428571428571" /><rect fill="#69E" height="6" stroke="#04A" stroke-width="1" width="12" x="245.42857142857142" y="574.1428571428571" /><rect fill="#69E" height="6" stroke="#04A" stroke-width="1" width="12" x="50.0" y="443.8571428571429" /><rect fill="#69E" height="6" stroke="#04A" stroke-width="1" width="12" x="636.2857142857142" y="53.0" /><rect fill="#69E" height="6" stroke="#04A" stroke-width="1" width="12" x="962.0" y="281.0" /><rect fill="#69E" height="6" stroke="#04A" stroke-width="1" width="12" x="180.28571428571428" y="313.57142857142867" /><rect fill="#69E" height="6" stroke="#04A" stroke-width="1" width="12" x="50.0" y="215.8571428571429" /><rect fill="#69E" height="6" stroke="#04A" stroke-width="1" width="12" x="375.71428571428567" y="313.57142857142867" /><rect fill="#69E" height="6" stroke="#04A" stroke-width="1" width="12" x="245.42857142857142" y="53.0" /><rect fill="#69E" height="6" stroke="#04A" stroke-width="1" width="12" x="896.8571428571428" y="53.0" /><rect fill="#69E" height="6" stroke="#04A" stroke-width="1" width="12" x="962.0" y="509.0" /><text fill="#444" font-family="Arial, sans-serif" font-size="12" x="40" y="24">eu_uk_4bed_kent_oast_house</text></svg>