<?xml version="1.0" encoding="utf-8" ?>
<svg baseProfile="full" height="1024" version="1.1" viewBox="0 0 1024 1024" width="1024" xmlns="http://www.w3.org/2000/svg" xmlns:ev="http://www.w3.org/2001/xml-events" xmlns:xlink="http://www.w3.org/1999/xlink"><defs /><rect fill="#FAFAFA" height="1024" width="1024" x="0" y="0" /><polygon fill="white" points="56.0,968.0 968.0,968.0 968.0,56.0 56.0,56.0" stroke="#222" stroke-width="3" /><polygon fill="#F5F5F5" points="56.0,968.0 238.4,968.0 238.4,694.4 56.0,694.4" stroke="#888" stroke-width="1" /><text fill="#333" font-family="Arial, sans-serif" font-size="12" text-anchor="middle" x="147.2" y="831.2">Hall</text><text fill="#666" font-family="Arial, sans-serif" font-size="10" text-anchor="middle" x="147.2" y="845.2">6 m²</text><polygon fill="#D1ECF1" points="238.4,968.0 785.6,968.0 785.6,512.0 238.4,512.0" stroke="#888" stroke-width="1" /><text fill="#333" font-family="Arial, sans-serif" font-size="12" text-anchor="middle" x="512.0" y="740.0">Living-Dining (open)</text><text fill="#666" font-family="Arial, sans-serif" font-size="10" text-anchor="middle" x="512.0" y="754.0">30 m²</text><polygon fill="#FFF3CD" points="785.6,968.0 968.0,968.0 968.0,512.0 785.6,512.0" stroke="#888" stroke-width="1" /><text fill="#333" font-family="Arial, sans-serif" font-size="12" text-anchor="middle" x="876.8" y="740.0">Kitchen</text><text fill="#666" font-family="Arial, sans-serif" font-size="10" text-anchor="middle" x="876.8" y="754.0">10 m²</text><polygon fill="#D4EDDA" points="56.0,694.4 238.4,694.4 238.4,466.4 56.0,466.4" stroke="#888" stroke-width="1" /><text fill="#333" font-family="Arial, sans-serif" font-size="12" text-anchor="middle" x="147.2" y="580.4">Bath</text><text fill="#666" font-family="Arial, sans-serif" font-size="10" text-anchor="middle" x="147.2" y="594.4">5 m²</text><polygon fill="#F5F5F5" points="56.0,466.4 238.4,466.4 238.4,147.19999999999993 56.0,147.19999999999993" stroke="#888" stroke-width="1" /><text fill="#333" font-family="Arial, sans-serif" font-size="12" text-anchor="middle" x="147.2" y="306.79999999999995">Back Hall</text><text fill="#666" font-family="Arial, sans-serif" font-size="10" text-anchor="middle" x="147.2" y="320.79999999999995">7 m²</text><polygon fill="#D5C8E0" points="238.4,512.0 512.0,512.0 512.0,147.19999999999993 238.4,147.19999999999993" stroke="#888" stroke-width="1" /><text fill="#333" font-family="Arial, sans-serif" font-size="12" text-anchor="middle" x="375.2" y="329.59999999999997">Master</text><text fill="#666" font-family="Arial, sans-serif" font-size="10" text-anchor="middle" x="375.2" y="343.59999999999997">12 m²</text><polygon fill="#E2D5F0" points="512.0,512.0 785.6,512.0 785.6,147.19999999999993 512.0,147.19999999999993" stroke="#888" stroke-width="1" /><text fill="#333" font-family="Arial, sans-serif" font-size="12" text-anchor="middle" x="648.8" y="329.59999999999997">Bedroom 2</text><text fill="#666" font-family="Arial, sans-serif" font-size="10" text-anchor="middle" x="648.8" y="343.59999999999997">12 m²</text><polygon fill="#E2D5F0" points="785.6,512.0 968.0,512.0 968.0,147.19999999999993 785.6,147.19999999999993" stroke="#888" stroke-width="1" /><text fill="#333" font-family="Arial, sans-serif" font-size="12" text-anchor="middle" x="876.8" y="329.59999999999997">Bedroom 3</text><text fill="#666" font-family="Arial, sans-serif" font-size="10" text-anchor="middle" x="876.8" y="343.59999999999997">8 m²</text><polygon fill="#EEE" points="56.0,147.19999999999993 968.0,147.19999999999993 968.0,56.0 56.0,56.0" stroke="#888" stroke-width="1" /><text fill="#333" font-family="Arial, sans-serif" font-size="12" text-anchor="middle" x="512.0" y="101.59999999999997">Closet</text><text fill="#666" font-family="Arial, sans-serif" font-size="10" text-anchor="middle" x="512.0" y="115.59999999999997">10 m²</text><rect fill="#E66" height="8" stroke="#A00" stroke-width="1" width="8" x="97.6" y="964.0" /><rect fill="#E66" height="8" stroke="#A00" stroke-width="1" width="8" x="234.4" y="827.2" /><rect fill="#E66" height="8" stroke="#A00" stroke-width="1" width="8" x="143.2" y="690.4" /><rect fill="#E66" height="8" stroke="#A00" stroke-width="1" width="8" x="143.2" y="462.4" /><rect fill="#E66" height="8" stroke="#A00" stroke-width="1" width="8" x="234.4" y="325.6" /><rect fill="#E66" height="8" stroke="#A00" stroke-width="1" width="8" x="781.6" y="736.0" /><rect fill="#E66" height="8" stroke="#A00" stroke-width="1" width="8" x="371.2" y="508.0" /><rect fill="#E66" height="8" stroke="#A00" stroke-width="1" width="8" x="644.8000000000001" y="508.0" /><rect fill="#E66" height="8" stroke="#A00" stroke-width="1" width="8" x="872.8000000000001" y="508.0" /><rect fill="#E66" height="8" stroke="#A00" stroke-width="1" width="8" x="508.0" y="325.6" /><rect fill="#E66" height="8" stroke="#A00" stroke-width="1" width="8" x="781.6" y="325.6" /><rect fill="#E66" height="8" stroke="#A00" stroke-width="1" width="8" x="371.2" y="143.19999999999993" /><rect fill="#E66" height="8" stroke="#A00" stroke-width="1" width="8" x="143.2" y="143.19999999999993" /><rect fill="#69E" height="6" stroke="#04A" stroke-width="1" width="12" x="506.0" y="965.0" /><rect fill="#69E" height="6" stroke="#04A" stroke-width="1" width="12" x="870.8000000000001" y="965.0" /><rect fill="#69E" height="6" stroke="#04A" stroke-width="1" width="12" x="962.0" y="737.0" /><rect fill="#69E" height="6" stroke="#04A" stroke-width="1" width="12" x="369.2" y="144.19999999999993" /><rect fill="#69E" height="6" stroke="#04A" stroke-width="1" width="12" x="642.8000000000001" y="144.19999999999993" /><rect fill="#69E" height="6" stroke="#04A" stroke-width="1" width="12" x="870.8000000000001" y="144.19999999999993" /><rect fill="#69E" height="6" stroke="#04A" stroke-width="1" width="12" x="962.0" y="326.6" /><rect fill="#69E" height="6" stroke="#04A" stroke-width="1" width="12" x="50.0" y="577.4" /><rect fill="#69E" height="6" stroke="#04A" stroke-width="1" width="12" x="50.0" y="828.2" /><text fill="#444" font-family="Arial, sans-serif" font-size="12" x="40" y="24">eu_uk_3bed_blackheath_modernist_span</text></svg>