<?xml version="1.0" encoding="utf-8" ?>
<svg baseProfile="full" height="1024" version="1.1" viewBox="0 0 1024 1024" width="1024" xmlns="http://www.w3.org/2000/svg" xmlns:ev="http://www.w3.org/2001/xml-events" xmlns:xlink="http://www.w3.org/1999/xlink"><defs /><rect fill="#FAFAFA" height="1024" width="1024" x="0" y="0" /><polygon fill="white" points="121.14285714285717,968.0 902.8571428571429,968.0 902.8571428571429,56.0 121.14285714285717,56.0" stroke="#222" stroke-width="3" /><polygon fill="#F5F5F5" points="121.14285714285717,968.0 381.7142857142857,968.0 381.7142857142857,577.1428571428571 121.14285714285717,577.1428571428571" stroke="#888" stroke-width="1" /><text fill="#333" font-family="Arial, sans-serif" font-size="12" text-anchor="middle" x="251.42857142857144" y="772.5714285714286">Hall</text><text fill="#666" font-family="Arial, sans-serif" font-size="10" text-anchor="middle" x="251.42857142857144" y="786.5714285714286">6 m²</text><polygon fill="#D1ECF1" points="381.7142857142857,968.0 902.8571428571429,968.0 902.8571428571429,512.0 381.7142857142857,512.0" stroke="#888" stroke-width="1" /><text fill="#333" font-family="Arial, sans-serif" font-size="12" text-anchor="middle" x="642.2857142857143" y="740.0">Living</text><text fill="#666" font-family="Arial, sans-serif" font-size="10" text-anchor="middle" x="642.2857142857143" y="754.0">14 m²</text><polygon fill="#FFF3CD" points="381.7142857142857,512.0 902.8571428571429,512.0 902.8571428571429,316.57142857142867 381.7142857142857,316.57142857142867" stroke="#888" stroke-width="1" /><text fill="#333" font-family="Arial, sans-serif" font-size="12" text-anchor="middle" x="642.2857142857143" y="414.28571428571433">Kitchenette</text><text fill="#666" font-family="Arial, sans-serif" font-size="10" text-anchor="middle" x="642.2857142857143" y="428.28571428571433">6 m²</text><polygon fill="#D4EDDA" points="121.14285714285717,577.1428571428571 381.7142857142857,577.1428571428571 381.7142857142857,316.57142857142867 121.14285714285717,316.57142857142867" stroke="#888" stroke-width="1" /><text fill="#333" font-family="Arial, sans-serif" font-size="12" text-anchor="middle" x="251.42857142857144" y="446.8571428571429">Shower Room</text><text fill="#666" font-family="Arial, sans-serif" font-size="10" text-anchor="middle" x="251.42857142857144" y="460.8571428571429">4 m²</text><polygon fill="#D5C8E0" points="121.14285714285717,316.57142857142867 902.8571428571429,316.57142857142867 902.8571428571429,56.0 121.14285714285717,56.0" stroke="#888" stroke-width="1" /><text fill="#333" font-family="Arial, sans-serif" font-size="12" text-anchor="middle" x="512.0" y="186.28571428571433">Bedroom</text><text fill="#666" font-family="Arial, sans-serif" font-size="10" text-anchor="middle" x="512.0" y="200.28571428571433">12 m²</text><rect fill="#E66" height="8" stroke="#A00" stroke-width="1" width="8" x="182.2857142857143" y="964.0" /><rect fill="#E66" height="8" stroke="#A00" stroke-width="1" width="8" x="377.7142857142857" y="768.5714285714286" /><rect fill="#E66" height="8" stroke="#A00" stroke-width="1" width="8" x="247.42857142857144" y="573.1428571428571" /><rect fill="#E66" height="8" stroke="#A00" stroke-width="1" width="8" x="638.2857142857142" y="508.0" /><rect fill="#E66" height="8" stroke="#A00" stroke-width="1" width="8" x="638.2857142857142" y="312.57142857142867" /><rect fill="#E66" height="8" stroke="#A00" stroke-width="1" width="8" x="247.42857142857144" y="312.57142857142867" /><rect fill="#69E" height="6" stroke="#04A" stroke-width="1" width="12" x="636.2857142857142" y="965.0" /><rect fill="#69E" height="6" stroke="#04A" stroke-width="1" width="12" x="896.8571428571429" y="737.0" /><rect fill="#69E" height="6" stroke="#04A" stroke-width="1" width="12" x="896.8571428571429" y="411.28571428571433" /><rect fill="#69E" height="6" stroke="#04A" stroke-width="1" width="12" x="506.0" y="53.0" /><rect fill="#69E" height="6" stroke="#04A" stroke-width="1" width="12" x="115.14285714285717" y="443.8571428571429" /><text fill="#444" font-family="Arial, sans-serif" font-size="12" x="40" y="24">eu_uk_studio_sheffield_broomhill_student</text></svg>