<?xml version="1.0" encoding="utf-8" ?>
<svg baseProfile="full" height="1024" version="1.1" viewBox="0 0 1024 1024" width="1024" xmlns="http://www.w3.org/2000/svg" xmlns:ev="http://www.w3.org/2001/xml-events" xmlns:xlink="http://www.w3.org/1999/xlink"><defs /><rect fill="#FAFAFA" height="1024" width="1024" x="0" y="0" /><polygon fill="white" points="121.14285714285717,968.0 902.8571428571429,968.0 902.8571428571429,56.0 121.14285714285717,56.0" stroke="#222" stroke-width="3" /><polygon fill="#F5F5F5" points="121.14285714285717,968.0 251.42857142857144,968.0 251.42857142857144,837.7142857142858 121.14285714285717,837.7142857142858" stroke="#888" stroke-width="1" /><text fill="#333" font-family="Arial, sans-serif" font-size="12" text-anchor="middle" x="186.2857142857143" y="902.8571428571429">Entrance Porch</text><text fill="#666" font-family="Arial, sans-serif" font-size="10" text-anchor="middle" x="186.2857142857143" y="916.8571428571429">4 m²</text><polygon fill="#D1ECF1" points="251.42857142857144,968.0 642.2857142857142,968.0 642.2857142857142,642.2857142857143 251.42857142857144,642.2857142857143" stroke="#888" stroke-width="1" /><text fill="#333" font-family="Arial, sans-serif" font-size="12" text-anchor="middle" x="446.85714285714283" y="805.1428571428571">Lounge-Dining</text><text fill="#666" font-family="Arial, sans-serif" font-size="10" text-anchor="middle" x="446.85714285714283" y="819.1428571428571">30 m²</text><polygon fill="#D1ECF1" points="642.2857142857142,968.0 902.8571428571429,968.0 902.8571428571429,707.4285714285714 642.2857142857142,707.4285714285714" stroke="#888" stroke-width="1" /><text fill="#333" font-family="Arial, sans-serif" font-size="12" text-anchor="middle" x="772.5714285714286" y="837.7142857142858">Sitting Room</text><text fill="#666" font-family="Arial, sans-serif" font-size="10" text-anchor="middle" x="772.5714285714286" y="851.7142857142858">16 m²</text><polygon fill="#F5F5F5" points="121.14285714285717,837.7142857142858 251.42857142857144,837.7142857142858 251.42857142857144,512.0 121.14285714285717,512.0" stroke="#888" stroke-width="1" /><text fill="#333" font-family="Arial, sans-serif" font-size="12" text-anchor="middle" x="186.2857142857143" y="674.8571428571429">Hall</text><text fill="#666" font-family="Arial, sans-serif" font-size="10" text-anchor="middle" x="186.2857142857143" y="688.8571428571429">10 m²</text><polygon fill="#D1ECF1" points="642.2857142857142,707.4285714285714 902.8571428571429,707.4285714285714 902.8571428571429,479.42857142857144 642.2857142857142,479.42857142857144" stroke="#888" stroke-width="1" /><text fill="#333" font-family="Arial, sans-serif" font-size="12" text-anchor="middle" x="772.5714285714286" y="593.4285714285714">Sunroom</text><text fill="#666" font-family="Arial, sans-serif" font-size="10" text-anchor="middle" x="772.5714285714286" y="607.4285714285714">14 m²</text><polygon fill="#FFF3CD" points="251.42857142857144,642.2857142857143 512.0,642.2857142857143 512.0,414.28571428571433 251.42857142857144,414.28571428571433" stroke="#888" stroke-width="1" /><text fill="#333" font-family="Arial, sans-serif" font-size="12" text-anchor="middle" x="381.7142857142857" y="528.2857142857143">Kitchen</text><text fill="#666" font-family="Arial, sans-serif" font-size="10" text-anchor="middle" x="381.7142857142857" y="542.2857142857143">14 m²</text><polygon fill="#EEE" points="512.0,642.2857142857143 642.2857142857142,642.2857142857143 642.2857142857142,414.28571428571433 512.0,414.28571428571433" stroke="#888" stroke-width="1" /><text fill="#333" font-family="Arial, sans-serif" font-size="12" text-anchor="middle" x="577.1428571428571" y="528.2857142857143">Pantry</text><text fill="#666" font-family="Arial, sans-serif" font-size="10" text-anchor="middle" x="577.1428571428571" y="542.2857142857143">7 m²</text><polygon fill="#F8F9FA" points="642.2857142857142,479.42857142857144 902.8571428571429,479.42857142857144 902.8571428571429,284.0 642.2857142857142,284.0" stroke="#888" stroke-width="1" /><text fill="#333" font-family="Arial, sans-serif" font-size="12" text-anchor="middle" x="772.5714285714286" y="381.7142857142857">Conservatory</text><text fill="#666" font-family="Arial, sans-serif" font-size="10" text-anchor="middle" x="772.5714285714286" y="395.7142857142857">12 m²</text><polygon fill="#D4EDDA" points="121.14285714285717,512.0 251.42857142857144,512.0 251.42857142857144,251.42857142857144 121.14285714285717,251.42857142857144" stroke="#888" stroke-width="1" /><text fill="#333" font-family="Arial, sans-serif" font-size="12" text-anchor="middle" x="186.2857142857143" y="381.7142857142857">Family Bath</text><text fill="#666" font-family="Arial, sans-serif" font-size="10" text-anchor="middle" x="186.2857142857143" y="395.7142857142857">8 m²</text><polygon fill="#D5C8E0" points="251.42857142857144,414.28571428571433 512.0,414.28571428571433 512.0,186.28571428571433 251.42857142857144,186.28571428571433" stroke="#888" stroke-width="1" /><text fill="#333" font-family="Arial, sans-serif" font-size="12" text-anchor="middle" x="381.7142857142857" y="300.28571428571433">Master Bedroom</text><text fill="#666" font-family="Arial, sans-serif" font-size="10" text-anchor="middle" x="381.7142857142857" y="314.28571428571433">14 m²</text><polygon fill="#E2D5F0" points="512.0,414.28571428571433 642.2857142857142,414.28571428571433 642.2857142857142,186.28571428571433 512.0,186.28571428571433" stroke="#888" stroke-width="1" /><text fill="#333" font-family="Arial, sans-serif" font-size="12" text-anchor="middle" x="577.1428571428571" y="300.28571428571433">Bedroom 2</text><text fill="#666" font-family="Arial, sans-serif" font-size="10" text-anchor="middle" x="577.1428571428571" y="314.28571428571433">7 m²</text><polygon fill="#E5F0FF" points="642.2857142857142,284.0 902.8571428571429,284.0 902.8571428571429,56.0 642.2857142857142,56.0" stroke="#888" stroke-width="1" /><text fill="#333" font-family="Arial, sans-serif" font-size="12" text-anchor="middle" x="772.5714285714286" y="170.0">Bedroom 3 / Study</text><text fill="#666" font-family="Arial, sans-serif" font-size="10" text-anchor="middle" x="772.5714285714286" y="184.0">14 m²</text><polygon fill="#E2D5F0" points="251.42857142857144,186.28571428571433 642.2857142857142,186.28571428571433 642.2857142857142,56.0 251.42857142857144,56.0" stroke="#888" stroke-width="1" /><text fill="#333" font-family="Arial, sans-serif" font-size="12" text-anchor="middle" x="446.85714285714283" y="121.14285714285717">Bedroom 4</text><text fill="#666" font-family="Arial, sans-serif" font-size="10" text-anchor="middle" x="446.85714285714283" y="135.14285714285717">12 m²</text><polygon fill="#EFEFEF" points="121.14285714285717,251.42857142857144 251.42857142857144,251.42857142857144 251.42857142857144,56.0 121.14285714285717,56.0" stroke="#888" stroke-width="1" /><text fill="#333" font-family="Arial, sans-serif" font-size="12" text-anchor="middle" x="186.2857142857143" y="153.71428571428572">Garage strip</text><text fill="#666" font-family="Arial, sans-serif" font-size="10" text-anchor="middle" x="186.2857142857143" y="167.71428571428572">6 m²</text><rect fill="#E66" height="8" stroke="#A00" stroke-width="1" width="8" x="149.71428571428572" y="964.0" /><rect fill="#E66" height="8" stroke="#A00" stroke-width="1" width="8" x="247.42857142857144" y="898.8571428571429" /><rect fill="#E66" height="8" stroke="#A00" stroke-width="1" width="8" x="182.2857142857143" y="833.7142857142858" /><rect fill="#E66" height="8" stroke="#A00" stroke-width="1" width="8" x="638.2857142857142" y="833.7142857142858" /><rect fill="#E66" height="8" stroke="#A00" stroke-width="1" width="8" x="377.7142857142857" y="638.2857142857143" /><rect fill="#E66" height="8" stroke="#A00" stroke-width="1" width="8" x="768.5714285714284" y="703.4285714285714" /><rect fill="#E66" height="8" stroke="#A00" stroke-width="1" width="8" x="508.0" y="540.5714285714287" /><rect fill="#E66" height="8" stroke="#A00" stroke-width="1" width="8" x="768.5714285714284" y="475.42857142857144" /><rect fill="#E66" height="8" stroke="#A00" stroke-width="1" width="8" x="638.2857142857142" y="442.8571428571429" /><rect fill="#E66" height="8" stroke="#A00" stroke-width="1" width="8" x="182.2857142857143" y="508.0" /><rect fill="#E66" height="8" stroke="#A00" stroke-width="1" width="8" x="247.42857142857144" y="573.1428571428571" /><rect fill="#E66" height="8" stroke="#A00" stroke-width="1" width="8" x="377.7142857142857" y="410.28571428571433" /><rect fill="#E66" height="8" stroke="#A00" stroke-width="1" width="8" x="573.1428571428571" y="410.28571428571433" /><rect fill="#E66" height="8" stroke="#A00" stroke-width="1" width="8" x="377.7142857142857" y="182.28571428571433" /><rect fill="#E66" height="8" stroke="#A00" stroke-width="1" width="8" x="573.1428571428571" y="182.28571428571433" /><rect fill="#E66" height="8" stroke="#A00" stroke-width="1" width="8" x="768.5714285714284" y="280.0" /><rect fill="#E66" height="8" stroke="#A00" stroke-width="1" width="8" x="182.2857142857143" y="247.42857142857144" /><rect fill="#E66" height="8" stroke="#A00" stroke-width="1" width="8" x="247.42857142857144" y="182.28571428571433" /><rect fill="#69E" height="6" stroke="#04A" stroke-width="1" width="12" x="440.85714285714283" y="965.0" /><rect fill="#69E" height="6" stroke="#04A" stroke-width="1" width="12" x="766.5714285714284" y="965.0" /><rect fill="#69E" height="6" stroke="#04A" stroke-width="1" width="12" x="896.8571428571429" y="834.7142857142858" /><rect fill="#69E" height="6" stroke="#04A" stroke-width="1" width="12" x="896.8571428571429" y="590.4285714285714" /><rect fill="#69E" height="6" stroke="#04A" stroke-width="1" width="12" x="375.7142857142857" y="411.28571428571433" /><rect fill="#69E" height="6" stroke="#04A" stroke-width="1" width="12" x="245.42857142857144" y="965.0" /><rect fill="#69E" height="6" stroke="#04A" stroke-width="1" width="12" x="571.1428571428571" y="183.28571428571433" /><rect fill="#69E" height="6" stroke="#04A" stroke-width="1" width="12" x="766.5714285714284" y="53.0" /><rect fill="#69E" height="6" stroke="#04A" stroke-width="1" width="12" x="896.8571428571429" y="183.28571428571433" /><rect fill="#69E" height="6" stroke="#04A" stroke-width="1" width="12" x="440.85714285714283" y="53.0" /><rect fill="#69E" height="6" stroke="#04A" stroke-width="1" width="12" x="896.8571428571429" y="378.7142857142858" /><rect fill="#69E" height="6" stroke="#04A" stroke-width="1" width="12" x="115.14285714285717" y="378.7142857142858" /><rect fill="#69E" height="6" stroke="#04A" stroke-width="1" width="12" x="180.2857142857143" y="53.0" /><text fill="#444" font-family="Arial, sans-serif" font-size="12" x="40" y="24">eu_uk_4bed_lake_district_slate</text></svg>