<?xml version="1.0" encoding="utf-8" ?>
<svg baseProfile="full" height="1024" version="1.1" viewBox="0 0 1024 1024" width="1024" xmlns="http://www.w3.org/2000/svg" xmlns:ev="http://www.w3.org/2001/xml-events" xmlns:xlink="http://www.w3.org/1999/xlink"><defs /><rect fill="#FAFAFA" height="1024" width="1024" x="0" y="0" /><polygon fill="white" points="56.0,968.0 968.0,968.0 968.0,56.0 56.0,56.0" stroke="#222" stroke-width="3" /><polygon fill="#F5F5F5" points="56.0,968.0 238.4,968.0 238.4,694.4 56.0,694.4" stroke="#888" stroke-width="1" /><text fill="#333" font-family="Arial, sans-serif" font-size="12" text-anchor="middle" x="147.2" y="831.2">Hall</text><text fill="#666" font-family="Arial, sans-serif" font-size="10" text-anchor="middle" x="147.2" y="845.2">6 m²</text><polygon fill="#D1ECF1" points="238.4,968.0 603.2,968.0 603.2,512.0 238.4,512.0" stroke="#888" stroke-width="1" /><text fill="#333" font-family="Arial, sans-serif" font-size="12" text-anchor="middle" x="420.8" y="740.0">Lounge</text><text fill="#666" font-family="Arial, sans-serif" font-size="10" text-anchor="middle" x="420.8" y="754.0">20 m²</text><polygon fill="#FFF3CD" points="603.2,968.0 968.0,968.0 968.0,557.5999999999999 603.2,557.5999999999999" stroke="#888" stroke-width="1" /><text fill="#333" font-family="Arial, sans-serif" font-size="12" text-anchor="middle" x="785.6" y="762.8">Kitchen-Diner</text><text fill="#666" font-family="Arial, sans-serif" font-size="10" text-anchor="middle" x="785.6" y="776.8">18 m²</text><polygon fill="#D4EDDA" points="56.0,694.4 238.4,694.4 238.4,466.4 56.0,466.4" stroke="#888" stroke-width="1" /><text fill="#333" font-family="Arial, sans-serif" font-size="12" text-anchor="middle" x="147.2" y="580.4">Bath</text><text fill="#666" font-family="Arial, sans-serif" font-size="10" text-anchor="middle" x="147.2" y="594.4">5 m²</text><polygon fill="#EFEFEF" points="603.2,557.5999999999999 968.0,557.5999999999999 968.0,238.39999999999998 603.2,238.39999999999998" stroke="#888" stroke-width="1" /><text fill="#333" font-family="Arial, sans-serif" font-size="12" text-anchor="middle" x="785.6" y="397.99999999999994">Garage</text><text fill="#666" font-family="Arial, sans-serif" font-size="10" text-anchor="middle" x="785.6" y="411.99999999999994">14 m²</text><polygon fill="#D5C8E0" points="238.4,512.0 603.2,512.0 603.2,238.39999999999998 238.4,238.39999999999998" stroke="#888" stroke-width="1" /><text fill="#333" font-family="Arial, sans-serif" font-size="12" text-anchor="middle" x="420.8" y="375.2">Master Bedroom</text><text fill="#666" font-family="Arial, sans-serif" font-size="10" text-anchor="middle" x="420.8" y="389.2">12 m²</text><polygon fill="#F5F5F5" points="56.0,466.4 238.4,466.4 238.4,238.39999999999998 56.0,238.39999999999998" stroke="#888" stroke-width="1" /><text fill="#333" font-family="Arial, sans-serif" font-size="12" text-anchor="middle" x="147.2" y="352.4">Back Hall</text><text fill="#666" font-family="Arial, sans-serif" font-size="10" text-anchor="middle" x="147.2" y="366.4">5 m²</text><polygon fill="#E2D5F0" points="238.4,238.39999999999998 603.2,238.39999999999998 603.2,56.0 238.4,56.0" stroke="#888" stroke-width="1" /><text fill="#333" font-family="Arial, sans-serif" font-size="12" text-anchor="middle" x="420.8" y="147.2">Bedroom 2</text><text fill="#666" font-family="Arial, sans-serif" font-size="10" text-anchor="middle" x="420.8" y="161.2">8 m²</text><polygon fill="#E2D5F0" points="603.2,238.39999999999998 968.0,238.39999999999998 968.0,56.0 603.2,56.0" stroke="#888" stroke-width="1" /><text fill="#333" font-family="Arial, sans-serif" font-size="12" text-anchor="middle" x="785.6" y="147.2">Bedroom 3</text><text fill="#666" font-family="Arial, sans-serif" font-size="10" text-anchor="middle" x="785.6" y="161.2">8 m²</text><polygon fill="#F8F9FA" points="56.0,238.39999999999998 238.4,238.39999999999998 238.4,56.0 56.0,56.0" stroke="#888" stroke-width="1" /><text fill="#333" font-family="Arial, sans-serif" font-size="12" text-anchor="middle" x="147.2" y="147.2">Garden Strip</text><text fill="#666" font-family="Arial, sans-serif" font-size="10" text-anchor="middle" x="147.2" y="161.2">4 m²</text><rect fill="#E66" height="8" stroke="#A00" stroke-width="1" width="8" x="97.6" y="964.0" /><rect fill="#E66" height="8" stroke="#A00" stroke-width="1" width="8" x="234.4" y="827.2" /><rect fill="#E66" height="8" stroke="#A00" stroke-width="1" width="8" x="143.2" y="690.4" /><rect fill="#E66" height="8" stroke="#A00" stroke-width="1" width="8" x="143.2" y="462.4" /><rect fill="#E66" height="8" stroke="#A00" stroke-width="1" width="8" x="234.4" y="371.19999999999993" /><rect fill="#E66" height="8" stroke="#A00" stroke-width="1" width="8" x="599.2" y="736.0" /><rect fill="#E66" height="8" stroke="#A00" stroke-width="1" width="8" x="416.8" y="508.0" /><rect fill="#E66" height="8" stroke="#A00" stroke-width="1" width="8" x="781.6" y="553.5999999999999" /><rect fill="#E66" height="8" stroke="#A00" stroke-width="1" width="8" x="416.8" y="234.39999999999998" /><rect fill="#E66" height="8" stroke="#A00" stroke-width="1" width="8" x="781.6" y="234.39999999999998" /><rect fill="#E66" height="8" stroke="#A00" stroke-width="1" width="8" x="599.2" y="143.19999999999993" /><rect fill="#E66" height="8" stroke="#A00" stroke-width="1" width="8" x="143.2" y="234.39999999999998" /><rect fill="#69E" height="6" stroke="#04A" stroke-width="1" width="12" x="414.8" y="965.0" /><rect fill="#69E" height="6" stroke="#04A" stroke-width="1" width="12" x="779.6" y="965.0" /><rect fill="#69E" height="6" stroke="#04A" stroke-width="1" width="12" x="962.0" y="759.8" /><rect fill="#69E" height="6" stroke="#04A" stroke-width="1" width="12" x="962.0" y="417.79999999999995" /><rect fill="#69E" height="6" stroke="#04A" stroke-width="1" width="12" x="414.8" y="235.39999999999998" /><rect fill="#69E" height="6" stroke="#04A" stroke-width="1" width="12" x="414.8" y="53.0" /><rect fill="#69E" height="6" stroke="#04A" stroke-width="1" width="12" x="779.6" y="53.0" /><rect fill="#69E" height="6" stroke="#04A" stroke-width="1" width="12" x="50.0" y="577.4" /><rect fill="#69E" height="6" stroke="#04A" stroke-width="1" width="12" x="50.0" y="828.2" /><text fill="#444" font-family="Arial, sans-serif" font-size="12" x="40" y="24">eu_uk_3bed_surrey_tudor_mock_semi</text></svg>