<?xml version="1.0" encoding="utf-8" ?>
<svg baseProfile="full" height="1024" version="1.1" viewBox="0 0 1024 1024" width="1024" xmlns="http://www.w3.org/2000/svg" xmlns:ev="http://www.w3.org/2001/xml-events" xmlns:xlink="http://www.w3.org/1999/xlink"><defs /><rect fill="#FAFAFA" height="1024" width="1024" x="0" y="0" /><polygon fill="white" points="388.61176470588236,968.0 635.3882352941176,968.0 635.3882352941176,56.0 388.61176470588236,56.0" stroke="#222" stroke-width="3" /><polygon fill="#F5F5F5" points="388.61176470588236,968.0 635.3882352941176,968.0 635.3882352941176,887.5294117647059 388.61176470588236,887.5294117647059" stroke="#888" stroke-width="1" /><text fill="#333" font-family="Arial, sans-serif" font-size="12" text-anchor="middle" x="512.0" y="927.7647058823529">Front Verandah</text><text fill="#666" font-family="Arial, sans-serif" font-size="10" text-anchor="middle" x="512.0" y="941.7647058823529">6.9 m²</text><polygon fill="#D5C8E0" points="388.61176470588236,887.5294117647059 576.3764705882353,887.5294117647059 576.3764705882353,699.7647058823529 388.61176470588236,699.7647058823529" stroke="#888" stroke-width="1" /><text fill="#333" font-family="Arial, sans-serif" font-size="12" text-anchor="middle" x="482.49411764705883" y="793.6470588235294">Master Bedroom</text><text fill="#666" font-family="Arial, sans-serif" font-size="10" text-anchor="middle" x="482.49411764705883" y="807.6470588235294">12.25 m²</text><polygon fill="#F5F5F5" points="576.3764705882353,887.5294117647059 635.3882352941176,887.5294117647059 635.3882352941176,485.1764705882353 576.3764705882353,485.1764705882353" stroke="#888" stroke-width="1" /><text fill="#333" font-family="Arial, sans-serif" font-size="12" text-anchor="middle" x="605.8823529411765" y="686.3529411764706">Entry Hall</text><text fill="#666" font-family="Arial, sans-serif" font-size="10" text-anchor="middle" x="605.8823529411765" y="700.3529411764706">8.25 m²</text><polygon fill="#E2D5F0" points="388.61176470588236,699.7647058823529 576.3764705882353,699.7647058823529 576.3764705882353,538.8235294117646 388.61176470588236,538.8235294117646" stroke="#888" stroke-width="1" /><text fill="#333" font-family="Arial, sans-serif" font-size="12" text-anchor="middle" x="482.49411764705883" y="619.2941176470588">Bedroom 2</text><text fill="#666" font-family="Arial, sans-serif" font-size="10" text-anchor="middle" x="482.49411764705883" y="633.2941176470588">10.5 m²</text><polygon fill="#D4EDDA" points="388.61176470588236,538.8235294117646 576.3764705882353,538.8235294117646 576.3764705882353,431.52941176470586 388.61176470588236,431.52941176470586" stroke="#888" stroke-width="1" /><text fill="#333" font-family="Arial, sans-serif" font-size="12" text-anchor="middle" x="482.49411764705883" y="485.17647058823525">Bathroom</text><text fill="#666" font-family="Arial, sans-serif" font-size="10" text-anchor="middle" x="482.49411764705883" y="499.17647058823525">7 m²</text><polygon fill="#FFF3CD" points="576.3764705882353,485.1764705882353 635.3882352941176,485.1764705882353 635.3882352941176,163.29411764705878 576.3764705882353,163.29411764705878" stroke="#888" stroke-width="1" /><text fill="#333" font-family="Arial, sans-serif" font-size="12" text-anchor="middle" x="605.8823529411765" y="324.2352941176471">Kitchen (galley)</text><text fill="#666" font-family="Arial, sans-serif" font-size="10" text-anchor="middle" x="605.8823529411765" y="338.2352941176471">6.6 m²</text><polygon fill="#D1ECF1" points="388.61176470588236,431.52941176470586 576.3764705882353,431.52941176470586 576.3764705882353,163.29411764705878 388.61176470588236,163.29411764705878" stroke="#888" stroke-width="1" /><text fill="#333" font-family="Arial, sans-serif" font-size="12" text-anchor="middle" x="482.49411764705883" y="297.4117647058823">Open Living-Dining</text><text fill="#666" font-family="Arial, sans-serif" font-size="10" text-anchor="middle" x="482.49411764705883" y="311.4117647058823">17.5 m²</text><polygon fill="#F8F9FA" points="388.61176470588236,163.29411764705878 635.3882352941176,163.29411764705878 635.3882352941176,56.0 388.61176470588236,56.0" stroke="#888" stroke-width="1" /><text fill="#333" font-family="Arial, sans-serif" font-size="12" text-anchor="middle" x="512.0" y="109.64705882352939">Rear Courtyard</text><text fill="#666" font-family="Arial, sans-serif" font-size="10" text-anchor="middle" x="512.0" y="123.64705882352939">9.2 m²</text><rect fill="#E66" height="8" stroke="#A00" stroke-width="1" width="8" x="508.0" y="964.0" /><rect fill="#E66" height="8" stroke="#A00" stroke-width="1" width="8" x="478.49411764705883" y="883.5294117647059" /><rect fill="#E66" height="8" stroke="#A00" stroke-width="1" width="8" x="599.2" y="883.5294117647059" /><rect fill="#E66" height="8" stroke="#A00" stroke-width="1" width="8" x="572.3764705882353" y="615.2941176470588" /><rect fill="#E66" height="8" stroke="#A00" stroke-width="1" width="8" x="478.49411764705883" y="534.8235294117646" /><rect fill="#E66" height="8" stroke="#A00" stroke-width="1" width="8" x="478.49411764705883" y="427.52941176470586" /><rect fill="#E66" height="8" stroke="#A00" stroke-width="1" width="8" x="601.8823529411765" y="481.1764705882353" /><rect fill="#E66" height="8" stroke="#A00" stroke-width="1" width="8" x="572.3764705882353" y="320.2352941176471" /><rect fill="#E66" height="8" stroke="#A00" stroke-width="1" width="8" x="491.9058823529412" y="159.29411764705878" /><rect fill="#E66" height="8" stroke="#A00" stroke-width="1" width="8" x="601.8823529411765" y="159.29411764705878" /><rect fill="#69E" height="6" stroke="#04A" stroke-width="1" width="12" x="463.0823529411765" y="884.5294117647059" /><rect fill="#69E" height="6" stroke="#04A" stroke-width="1" width="12" x="382.61176470588236" y="804.0588235294117" /><rect fill="#69E" height="6" stroke="#04A" stroke-width="1" width="12" x="382.61176470588236" y="616.2941176470588" /><rect fill="#69E" height="6" stroke="#04A" stroke-width="1" width="12" x="382.61176470588236" y="482.1764705882353" /><rect fill="#69E" height="6" stroke="#04A" stroke-width="1" width="12" x="382.61176470588236" y="294.4117647058823" /><rect fill="#69E" height="6" stroke="#04A" stroke-width="1" width="12" x="629.3882352941176" y="321.2352941176471" /><rect fill="#69E" height="6" stroke="#04A" stroke-width="1" width="12" x="489.9058823529412" y="53.0" /><text fill="#444" font-family="Arial, sans-serif" font-size="12" x="40" y="24">gl_au_2bed_sydney_victorian_terrace</text></svg>