<?xml version="1.0" encoding="utf-8" ?>
<svg baseProfile="full" height="1024" version="1.1" viewBox="0 0 1024 1024" width="1024" xmlns="http://www.w3.org/2000/svg" xmlns:ev="http://www.w3.org/2001/xml-events" xmlns:xlink="http://www.w3.org/1999/xlink"><defs /><rect fill="#FAFAFA" height="1024" width="1024" x="0" y="0" /><polygon fill="white" points="161.23076923076917,968.0 862.7692307692308,968.0 862.7692307692308,55.999999999999886 161.23076923076917,55.999999999999886" stroke="#222" stroke-width="3" /><polygon fill="#F5F5F5" points="161.23076923076917,968.0 371.6923076923076,968.0 371.6923076923076,715.4461538461538 161.23076923076917,715.4461538461538" stroke="#888" stroke-width="1" /><text fill="#333" font-family="Arial, sans-serif" font-size="12" text-anchor="middle" x="266.4615384615384" y="841.7230769230769">Genkan</text><text fill="#666" font-family="Arial, sans-serif" font-size="10" text-anchor="middle" x="266.4615384615384" y="855.7230769230769">2.7 m²</text><polygon fill="#D4EDDA" points="371.6923076923076,968.0 582.1538461538462,968.0 582.1538461538462,715.4461538461538 371.6923076923076,715.4461538461538" stroke="#888" stroke-width="1" /><text fill="#333" font-family="Arial, sans-serif" font-size="12" text-anchor="middle" x="476.9230769230769" y="841.7230769230769">Unit Bath</text><text fill="#666" font-family="Arial, sans-serif" font-size="10" text-anchor="middle" x="476.9230769230769" y="855.7230769230769">2.7 m²</text><polygon fill="#D4EDDA" points="582.1538461538462,968.0 722.4615384615385,968.0 722.4615384615385,715.4461538461538 582.1538461538462,715.4461538461538" stroke="#888" stroke-width="1" /><text fill="#333" font-family="Arial, sans-serif" font-size="12" text-anchor="middle" x="652.3076923076924" y="841.7230769230769">Toilet</text><text fill="#666" font-family="Arial, sans-serif" font-size="10" text-anchor="middle" x="652.3076923076924" y="855.7230769230769">1.8 m²</text><polygon fill="#E0E0E0" points="722.4615384615385,968.0 862.7692307692308,968.0 862.7692307692308,715.4461538461538 722.4615384615385,715.4461538461538" stroke="#888" stroke-width="1" /><text fill="#333" font-family="Arial, sans-serif" font-size="12" text-anchor="middle" x="792.6153846153846" y="841.7230769230769">Washroom</text><text fill="#666" font-family="Arial, sans-serif" font-size="10" text-anchor="middle" x="792.6153846153846" y="855.7230769230769">1.8 m²</text><polygon fill="#D1ECF1" points="161.23076923076917,715.4461538461538 862.7692307692308,715.4461538461538 862.7692307692308,336.6153846153845 161.23076923076917,336.6153846153845" stroke="#888" stroke-width="1" /><text fill="#333" font-family="Arial, sans-serif" font-size="12" text-anchor="middle" x="512.0" y="526.0307692307692">LDK (Living-Dining-Kitchen)</text><text fill="#666" font-family="Arial, sans-serif" font-size="10" text-anchor="middle" x="512.0" y="540.0307692307692">13.5 m²</text><polygon fill="#D5C8E0" points="161.23076923076917,336.6153846153845 862.7692307692308,336.6153846153845 862.7692307692308,55.999999999999886 161.23076923076917,55.999999999999886" stroke="#888" stroke-width="1" /><text fill="#333" font-family="Arial, sans-serif" font-size="12" text-anchor="middle" x="512.0" y="196.3076923076922">Yoshitsu</text><text fill="#666" font-family="Arial, sans-serif" font-size="10" text-anchor="middle" x="512.0" y="210.3076923076922">10 m²</text><rect fill="#E66" height="8" stroke="#A00" stroke-width="1" width="8" x="227.38461538461533" y="964.0" /><rect fill="#E66" height="8" stroke="#A00" stroke-width="1" width="8" x="262.4615384615384" y="711.4461538461538" /><rect fill="#E66" height="8" stroke="#A00" stroke-width="1" width="8" x="472.9230769230769" y="711.4461538461538" /><rect fill="#E66" height="8" stroke="#A00" stroke-width="1" width="8" x="648.3076923076923" y="711.4461538461538" /><rect fill="#E66" height="8" stroke="#A00" stroke-width="1" width="8" x="788.6153846153846" y="711.4461538461538" /><rect fill="#E66" height="8" stroke="#A00" stroke-width="1" width="8" x="508.0" y="332.6153846153845" /><rect fill="#69E" height="6" stroke="#04A" stroke-width="1" width="12" x="856.7692307692308" y="544.0769230769231" /><rect fill="#69E" height="6" stroke="#04A" stroke-width="1" width="12" x="506.0" y="52.999999999999886" /><text fill="#444" font-family="Arial, sans-serif" font-size="12" x="40" y="24">gl_jp_1ldk_tokyo_mansion</text></svg>