<?xml version="1.0" encoding="utf-8" ?>
<svg baseProfile="full" height="1024" version="1.1" viewBox="0 0 1024 1024" width="1024" xmlns="http://www.w3.org/2000/svg" xmlns:ev="http://www.w3.org/2001/xml-events" xmlns:xlink="http://www.w3.org/1999/xlink"><defs /><rect fill="#FAFAFA" height="1024" width="1024" x="0" y="0" /><polygon fill="white" points="56.0,939.5 968.0,939.5 968.0,84.5 56.0,84.5" stroke="#222" stroke-width="3" /><polygon fill="#F5F5F5" points="56.0,939.5 227.0,939.5 227.0,711.5 56.0,711.5" stroke="#888" stroke-width="1" /><text fill="#333" font-family="Arial, sans-serif" font-size="12" text-anchor="middle" x="141.5" y="825.5">Vindfang</text><text fill="#666" font-family="Arial, sans-serif" font-size="10" text-anchor="middle" x="141.5" y="839.5">3 m²</text><polygon fill="#D4EDDA" points="227.0,939.5 512.0,939.5 512.0,711.5 227.0,711.5" stroke="#888" stroke-width="1" /><text fill="#333" font-family="Arial, sans-serif" font-size="12" text-anchor="middle" x="369.5" y="825.5">Bad mit Badstu</text><text fill="#666" font-family="Arial, sans-serif" font-size="10" text-anchor="middle" x="369.5" y="839.5">5 m²</text><polygon fill="#FFF3CD" points="512.0,939.5 968.0,939.5 968.0,654.5 512.0,654.5" stroke="#888" stroke-width="1" /><text fill="#333" font-family="Arial, sans-serif" font-size="12" text-anchor="middle" x="740.0" y="797.0">Kjokken</text><text fill="#666" font-family="Arial, sans-serif" font-size="10" text-anchor="middle" x="740.0" y="811.0">10 m²</text><polygon fill="#D1ECF1" points="56.0,711.5 512.0,711.5 512.0,369.5 56.0,369.5" stroke="#888" stroke-width="1" /><text fill="#333" font-family="Arial, sans-serif" font-size="12" text-anchor="middle" x="284.0" y="540.5">Stue</text><text fill="#666" font-family="Arial, sans-serif" font-size="10" text-anchor="middle" x="284.0" y="554.5">12 m²</text><polygon fill="#FFE5E5" points="512.0,654.5 968.0,654.5 968.0,369.5 512.0,369.5" stroke="#888" stroke-width="1" /><text fill="#333" font-family="Arial, sans-serif" font-size="12" text-anchor="middle" x="740.0" y="512.0">Spisestue</text><text fill="#666" font-family="Arial, sans-serif" font-size="10" text-anchor="middle" x="740.0" y="526.0">10 m²</text><polygon fill="#D5C8E0" points="56.0,369.5 398.0,369.5 398.0,84.5 56.0,84.5" stroke="#888" stroke-width="1" /><text fill="#333" font-family="Arial, sans-serif" font-size="12" text-anchor="middle" x="227.0" y="227.0">Soverom 1</text><text fill="#666" font-family="Arial, sans-serif" font-size="10" text-anchor="middle" x="227.0" y="241.0">7.5 m²</text><polygon fill="#E2D5F0" points="398.0,369.5 683.0,369.5 683.0,84.5 398.0,84.5" stroke="#888" stroke-width="1" /><text fill="#333" font-family="Arial, sans-serif" font-size="12" text-anchor="middle" x="540.5" y="227.0">Soverom 2 (Bunk)</text><text fill="#666" font-family="Arial, sans-serif" font-size="10" text-anchor="middle" x="540.5" y="241.0">6.25 m²</text><polygon fill="#F8F9FA" points="683.0,369.5 968.0,369.5 968.0,84.5 683.0,84.5" stroke="#888" stroke-width="1" /><text fill="#333" font-family="Arial, sans-serif" font-size="12" text-anchor="middle" x="825.5" y="227.0">Veranda</text><text fill="#666" font-family="Arial, sans-serif" font-size="10" text-anchor="middle" x="825.5" y="241.0">6.25 m²</text><rect fill="#E66" height="8" stroke="#A00" stroke-width="1" width="8" x="109.0" y="935.5" /><rect fill="#E66" height="8" stroke="#A00" stroke-width="1" width="8" x="137.5" y="707.5" /><rect fill="#E66" height="8" stroke="#A00" stroke-width="1" width="8" x="223.0" y="821.5" /><rect fill="#E66" height="8" stroke="#A00" stroke-width="1" width="8" x="365.5" y="707.5" /><rect fill="#E66" height="8" stroke="#A00" stroke-width="1" width="8" x="508.0" y="679.0" /><rect fill="#E66" height="8" stroke="#A00" stroke-width="1" width="8" x="508.0" y="508.0" /><rect fill="#E66" height="8" stroke="#A00" stroke-width="1" width="8" x="736.0" y="650.5" /><rect fill="#E66" height="8" stroke="#A00" stroke-width="1" width="8" x="223.0" y="365.5" /><rect fill="#E66" height="8" stroke="#A00" stroke-width="1" width="8" x="451.0" y="365.5" /><rect fill="#E66" height="8" stroke="#A00" stroke-width="1" width="8" x="821.5" y="365.5" /><rect fill="#69E" height="6" stroke="#04A" stroke-width="1" width="12" x="278.0" y="366.5" /><rect fill="#69E" height="6" stroke="#04A" stroke-width="1" width="12" x="962.0" y="509.0" /><rect fill="#69E" height="6" stroke="#04A" stroke-width="1" width="12" x="734.0" y="936.5" /><rect fill="#69E" height="6" stroke="#04A" stroke-width="1" width="12" x="221.0" y="81.5" /><rect fill="#69E" height="6" stroke="#04A" stroke-width="1" width="12" x="534.5" y="81.5" /><rect fill="#69E" height="6" stroke="#04A" stroke-width="1" width="12" x="363.5" y="936.5" /><text fill="#444" font-family="Arial, sans-serif" font-size="12" x="40" y="24">gl_no_2bed_norwegian_hytte</text></svg>