<?xml version="1.0" encoding="utf-8" ?>
<svg baseProfile="full" height="1024" version="1.1" viewBox="0 0 1024 1024" width="1024" xmlns="http://www.w3.org/2000/svg" xmlns:ev="http://www.w3.org/2001/xml-events" xmlns:xlink="http://www.w3.org/1999/xlink"><defs /><rect fill="#FAFAFA" height="1024" width="1024" x="0" y="0" /><polygon fill="white" points="113.0,968.0 911.0,968.0 911.0,56.0 113.0,56.0" stroke="#222" stroke-width="3" /><polygon fill="#F5F5F5" points="113.0,968.0 284.0,968.0 284.0,740.0 113.0,740.0" stroke="#888" stroke-width="1" /><text fill="#333" font-family="Arial, sans-serif" font-size="12" text-anchor="middle" x="198.5" y="854.0">Farstu</text><text fill="#666" font-family="Arial, sans-serif" font-size="10" text-anchor="middle" x="198.5" y="868.0">3 m²</text><polygon fill="#F8F9FA" points="284.0,968.0 626.0,968.0 626.0,740.0 284.0,740.0" stroke="#888" stroke-width="1" /><text fill="#333" font-family="Arial, sans-serif" font-size="12" text-anchor="middle" x="455.0" y="854.0">Glasveranda</text><text fill="#666" font-family="Arial, sans-serif" font-size="10" text-anchor="middle" x="455.0" y="868.0">6 m²</text><polygon fill="#FFF3CD" points="626.0,968.0 911.0,968.0 911.0,512.0 626.0,512.0" stroke="#888" stroke-width="1" /><text fill="#333" font-family="Arial, sans-serif" font-size="12" text-anchor="middle" x="768.5" y="740.0">Kök</text><text fill="#666" font-family="Arial, sans-serif" font-size="10" text-anchor="middle" x="768.5" y="754.0">10 m²</text><polygon fill="#D1ECF1" points="113.0,740.0 626.0,740.0 626.0,170.0 113.0,170.0" stroke="#888" stroke-width="1" /><text fill="#333" font-family="Arial, sans-serif" font-size="12" text-anchor="middle" x="369.5" y="455.0">Storstuga</text><text fill="#666" font-family="Arial, sans-serif" font-size="10" text-anchor="middle" x="369.5" y="469.0">22.5 m²</text><polygon fill="#D5C8E0" points="626.0,512.0 911.0,512.0 911.0,170.0 626.0,170.0" stroke="#888" stroke-width="1" /><text fill="#333" font-family="Arial, sans-serif" font-size="12" text-anchor="middle" x="768.5" y="341.0">Sovrum</text><text fill="#666" font-family="Arial, sans-serif" font-size="10" text-anchor="middle" x="768.5" y="355.0">7.5 m²</text><polygon fill="#D4EDDA" points="113.0,170.0 341.0,170.0 341.0,56.0 113.0,56.0" stroke="#888" stroke-width="1" /><text fill="#333" font-family="Arial, sans-serif" font-size="12" text-anchor="middle" x="227.0" y="113.0">Toalett / Dusch</text><text fill="#666" font-family="Arial, sans-serif" font-size="10" text-anchor="middle" x="227.0" y="127.0">2 m²</text><polygon fill="#EEE" points="341.0,170.0 626.0,170.0 626.0,56.0 341.0,56.0" stroke="#888" stroke-width="1" /><text fill="#333" font-family="Arial, sans-serif" font-size="12" text-anchor="middle" x="483.5" y="113.0">Förråd</text><text fill="#666" font-family="Arial, sans-serif" font-size="10" text-anchor="middle" x="483.5" y="127.0">2.5 m²</text><polygon fill="#EFEFEF" points="626.0,170.0 911.0,170.0 911.0,56.0 626.0,56.0" stroke="#888" stroke-width="1" /><text fill="#333" font-family="Arial, sans-serif" font-size="12" text-anchor="middle" x="768.5" y="113.0">Sovloft (entry)</text><text fill="#666" font-family="Arial, sans-serif" font-size="10" text-anchor="middle" x="768.5" y="127.0">2.5 m²</text><rect fill="#E66" height="8" stroke="#A00" stroke-width="1" width="8" x="166.0" y="964.0" /><rect fill="#E66" height="8" stroke="#A00" stroke-width="1" width="8" x="194.5" y="736.0" /><rect fill="#E66" height="8" stroke="#A00" stroke-width="1" width="8" x="280.0" y="850.0" /><rect fill="#E66" height="8" stroke="#A00" stroke-width="1" width="8" x="451.0" y="736.0" /><rect fill="#E66" height="8" stroke="#A00" stroke-width="1" width="8" x="622.0" y="622.0" /><rect fill="#E66" height="8" stroke="#A00" stroke-width="1" width="8" x="622.0" y="337.0" /><rect fill="#E66" height="8" stroke="#A00" stroke-width="1" width="8" x="223.0" y="166.0" /><rect fill="#E66" height="8" stroke="#A00" stroke-width="1" width="8" x="479.5" y="166.0" /><rect fill="#E66" height="8" stroke="#A00" stroke-width="1" width="8" x="764.5" y="166.0" /><rect fill="#69E" height="6" stroke="#04A" stroke-width="1" width="12" x="449.0" y="965.0" /><rect fill="#69E" height="6" stroke="#04A" stroke-width="1" width="12" x="905.0" y="737.0" /><rect fill="#69E" height="6" stroke="#04A" stroke-width="1" width="12" x="107.0" y="452.0" /><rect fill="#69E" height="6" stroke="#04A" stroke-width="1" width="12" x="905.0" y="338.0" /><rect fill="#69E" height="6" stroke="#04A" stroke-width="1" width="12" x="762.5" y="509.0" /><rect fill="#69E" height="6" stroke="#04A" stroke-width="1" width="12" x="221.0" y="53.0" /><text fill="#444" font-family="Arial, sans-serif" font-size="12" x="40" y="24">gl_se_1bed_swedish_sommarstuga</text></svg>