<?xml version="1.0" encoding="utf-8" ?>
<svg baseProfile="full" height="1024" version="1.1" viewBox="0 0 1024 1024" width="1024" xmlns="http://www.w3.org/2000/svg" xmlns:ev="http://www.w3.org/2001/xml-events" xmlns:xlink="http://www.w3.org/1999/xlink"><defs /><rect fill="#FAFAFA" height="1024" width="1024" x="0" y="0" /><polygon fill="white" points="56.0,902.8571428571429 968.0,902.8571428571429 968.0,121.14285714285722 56.0,121.14285714285722" stroke="#222" stroke-width="3" /><polygon fill="#F5F5F5" points="56.0,902.8571428571429 251.42857142857142,902.8571428571429 251.42857142857142,707.4285714285714 56.0,707.4285714285714" stroke="#888" stroke-width="1" /><text fill="#333" font-family="Arial, sans-serif" font-size="12" text-anchor="middle" x="153.71428571428572" y="805.1428571428571">Foyer</text><text fill="#666" font-family="Arial, sans-serif" font-size="10" text-anchor="middle" x="153.71428571428572" y="819.1428571428571">9 m²</text><polygon fill="#D1ECF1" points="251.42857142857142,902.8571428571429 577.1428571428571,902.8571428571429 577.1428571428571,642.2857142857143 251.42857142857142,642.2857142857143" stroke="#888" stroke-width="1" /><text fill="#333" font-family="Arial, sans-serif" font-size="12" text-anchor="middle" x="414.2857142857143" y="772.5714285714287">Living Room</text><text fill="#666" font-family="Arial, sans-serif" font-size="10" text-anchor="middle" x="414.2857142857143" y="786.5714285714287">20 m²</text><polygon fill="#FFE5E5" points="577.1428571428571,902.8571428571429 772.5714285714286,902.8571428571429 772.5714285714286,642.2857142857143 577.1428571428571,642.2857142857143" stroke="#888" stroke-width="1" /><text fill="#333" font-family="Arial, sans-serif" font-size="12" text-anchor="middle" x="674.8571428571429" y="772.5714285714287">Formal Dining</text><text fill="#666" font-family="Arial, sans-serif" font-size="10" text-anchor="middle" x="674.8571428571429" y="786.5714285714287">12 m²</text><polygon fill="#FFF3CD" points="772.5714285714286,902.8571428571429 968.0,902.8571428571429 968.0,577.1428571428572 772.5714285714286,577.1428571428572" stroke="#888" stroke-width="1" /><text fill="#333" font-family="Arial, sans-serif" font-size="12" text-anchor="middle" x="870.2857142857142" y="740.0">Kitchen+Island+Breakfast</text><text fill="#666" font-family="Arial, sans-serif" font-size="10" text-anchor="middle" x="870.2857142857142" y="754.0">15 m²</text><polygon fill="#D4EDDA" points="56.0,707.4285714285714 251.42857142857142,707.4285714285714 251.42857142857142,577.1428571428572 56.0,577.1428571428572" stroke="#888" stroke-width="1" /><text fill="#333" font-family="Arial, sans-serif" font-size="12" text-anchor="middle" x="153.71428571428572" y="642.2857142857143">Powder</text><text fill="#666" font-family="Arial, sans-serif" font-size="10" text-anchor="middle" x="153.71428571428572" y="656.2857142857143">6 m²</text><polygon fill="#D1ECF1" points="251.42857142857142,642.2857142857143 772.5714285714286,642.2857142857143 772.5714285714286,381.7142857142858 251.42857142857142,381.7142857142858" stroke="#888" stroke-width="1" /><text fill="#333" font-family="Arial, sans-serif" font-size="12" text-anchor="middle" x="512.0" y="512.0">Family Room</text><text fill="#666" font-family="Arial, sans-serif" font-size="10" text-anchor="middle" x="512.0" y="526.0">32 m²</text><polygon fill="#FFE5E5" points="772.5714285714286,577.1428571428572 968.0,577.1428571428572 968.0,381.7142857142858 772.5714285714286,381.7142857142858" stroke="#888" stroke-width="1" /><text fill="#333" font-family="Arial, sans-serif" font-size="12" text-anchor="middle" x="870.2857142857142" y="479.4285714285715">Breakfast nook</text><text fill="#666" font-family="Arial, sans-serif" font-size="10" text-anchor="middle" x="870.2857142857142" y="493.4285714285715">9 m²</text><polygon fill="#E0E0E0" points="56.0,577.1428571428572 251.42857142857142,577.1428571428572 251.42857142857142,446.8571428571429 56.0,446.8571428571429" stroke="#888" stroke-width="1" /><text fill="#333" font-family="Arial, sans-serif" font-size="12" text-anchor="middle" x="153.71428571428572" y="512.0">Laundry</text><text fill="#666" font-family="Arial, sans-serif" font-size="10" text-anchor="middle" x="153.71428571428572" y="526.0">6 m²</text><polygon fill="#F5F5F5" points="56.0,446.8571428571429 251.42857142857142,446.8571428571429 251.42857142857142,316.57142857142867 56.0,316.57142857142867" stroke="#888" stroke-width="1" /><text fill="#333" font-family="Arial, sans-serif" font-size="12" text-anchor="middle" x="153.71428571428572" y="381.7142857142858">Central Hall</text><text fill="#666" font-family="Arial, sans-serif" font-size="10" text-anchor="middle" x="153.71428571428572" y="395.7142857142858">6 m²</text><polygon fill="#D5C8E0" points="56.0,316.57142857142867 381.71428571428567,316.57142857142867 381.71428571428567,121.14285714285722 56.0,121.14285714285722" stroke="#888" stroke-width="1" /><text fill="#333" font-family="Arial, sans-serif" font-size="12" text-anchor="middle" x="218.85714285714283" y="218.85714285714295">Master Bedroom</text><text fill="#666" font-family="Arial, sans-serif" font-size="10" text-anchor="middle" x="218.85714285714283" y="232.85714285714295">15 m²</text><polygon fill="#D4EDDA" points="381.71428571428567,316.57142857142867 577.1428571428571,316.57142857142867 577.1428571428571,121.14285714285722 381.71428571428567,121.14285714285722" stroke="#888" stroke-width="1" /><text fill="#333" font-family="Arial, sans-serif" font-size="12" text-anchor="middle" x="479.4285714285714" y="218.85714285714295">Master Bath</text><text fill="#666" font-family="Arial, sans-serif" font-size="10" text-anchor="middle" x="479.4285714285714" y="232.85714285714295">9 m²</text><polygon fill="#E2D5F0" points="251.42857142857142,381.7142857142858 512.0,381.7142857142858 512.0,316.57142857142867 251.42857142857142,316.57142857142867" stroke="#888" stroke-width="1" /><text fill="#333" font-family="Arial, sans-serif" font-size="12" text-anchor="middle" x="381.7142857142857" y="349.1428571428572">Bedroom 2</text><text fill="#666" font-family="Arial, sans-serif" font-size="10" text-anchor="middle" x="381.7142857142857" y="363.1428571428572">4 m²</text><polygon fill="#E2D5F0" points="577.1428571428571,381.7142857142858 772.5714285714286,381.7142857142858 772.5714285714286,121.14285714285722 577.1428571428571,121.14285714285722" stroke="#888" stroke-width="1" /><text fill="#333" font-family="Arial, sans-serif" font-size="12" text-anchor="middle" x="674.8571428571429" y="251.4285714285715">Bedroom 3</text><text fill="#666" font-family="Arial, sans-serif" font-size="10" text-anchor="middle" x="674.8571428571429" y="265.4285714285715">12 m²</text><polygon fill="#E2D5F0" points="772.5714285714286,381.7142857142858 968.0,381.7142857142858 968.0,121.14285714285722 772.5714285714286,121.14285714285722" stroke="#888" stroke-width="1" /><text fill="#333" font-family="Arial, sans-serif" font-size="12" text-anchor="middle" x="870.2857142857142" y="251.4285714285715">Bedroom 4</text><text fill="#666" font-family="Arial, sans-serif" font-size="10" text-anchor="middle" x="870.2857142857142" y="265.4285714285715">12 m²</text><polygon fill="#D4EDDA" points="512.0,381.7142857142858 577.1428571428571,381.7142857142858 577.1428571428571,316.57142857142867 512.0,316.57142857142867" stroke="#888" stroke-width="1" /><text fill="#333" font-family="Arial, sans-serif" font-size="12" text-anchor="middle" x="544.5714285714286" y="349.1428571428572">Hall Bath</text><text fill="#666" font-family="Arial, sans-serif" font-size="10" text-anchor="middle" x="544.5714285714286" y="363.1428571428572">1 m²</text><rect fill="#E66" height="8" stroke="#A00" stroke-width="1" width="8" x="117.14285714285714" y="898.8571428571429" /><rect fill="#E66" height="8" stroke="#A00" stroke-width="1" width="8" x="247.42857142857142" y="801.1428571428572" /><rect fill="#E66" height="8" stroke="#A00" stroke-width="1" width="8" x="117.14285714285714" y="703.4285714285714" /><rect fill="#E66" height="8" stroke="#A00" stroke-width="1" width="8" x="573.1428571428571" y="768.5714285714287" /><rect fill="#E66" height="8" stroke="#A00" stroke-width="1" width="8" x="768.5714285714286" y="768.5714285714287" /><rect fill="#E66" height="8" stroke="#A00" stroke-width="1" width="8" x="377.71428571428567" y="638.2857142857143" /><rect fill="#E66" height="8" stroke="#A00" stroke-width="1" width="8" x="670.8571428571428" y="638.2857142857143" /><rect fill="#E66" height="8" stroke="#A00" stroke-width="1" width="8" x="866.2857142857142" y="573.1428571428572" /><rect fill="#E66" height="8" stroke="#A00" stroke-width="1" width="8" x="768.5714285714286" y="605.7142857142858" /><rect fill="#E66" height="8" stroke="#A00" stroke-width="1" width="8" x="768.5714285714286" y="475.4285714285715" /><rect fill="#E66" height="8" stroke="#A00" stroke-width="1" width="8" x="117.14285714285714" y="573.1428571428572" /><rect fill="#E66" height="8" stroke="#A00" stroke-width="1" width="8" x="117.14285714285714" y="442.8571428571429" /><rect fill="#E66" height="8" stroke="#A00" stroke-width="1" width="8" x="117.14285714285714" y="312.57142857142867" /><rect fill="#E66" height="8" stroke="#A00" stroke-width="1" width="8" x="377.71428571428567" y="214.8571428571429" /><rect fill="#E66" height="8" stroke="#A00" stroke-width="1" width="8" x="377.71428571428567" y="377.7142857142858" /><rect fill="#E66" height="8" stroke="#A00" stroke-width="1" width="8" x="670.8571428571428" y="377.7142857142858" /><rect fill="#E66" height="8" stroke="#A00" stroke-width="1" width="8" x="866.2857142857142" y="377.7142857142858" /><rect fill="#E66" height="8" stroke="#A00" stroke-width="1" width="8" x="768.5714285714286" y="247.42857142857156" /><rect fill="#E66" height="8" stroke="#A00" stroke-width="1" width="8" x="508.0" y="345.1428571428572" /><rect fill="#E66" height="8" stroke="#A00" stroke-width="1" width="8" x="540.5714285714286" y="312.57142857142867" /><rect fill="#69E" height="6" stroke="#04A" stroke-width="1" width="12" x="147.71428571428572" y="899.8571428571429" /><rect fill="#69E" height="6" stroke="#04A" stroke-width="1" width="12" x="408.2857142857143" y="899.8571428571429" /><rect fill="#69E" height="6" stroke="#04A" stroke-width="1" width="12" x="668.8571428571428" y="899.8571428571429" /><rect fill="#69E" height="6" stroke="#04A" stroke-width="1" width="12" x="864.2857142857142" y="899.8571428571429" /><rect fill="#69E" height="6" stroke="#04A" stroke-width="1" width="12" x="962.0" y="737.0" /><rect fill="#69E" height="6" stroke="#04A" stroke-width="1" width="12" x="962.0" y="476.4285714285715" /><rect fill="#69E" height="6" stroke="#04A" stroke-width="1" width="12" x="212.85714285714283" y="118.14285714285722" /><rect fill="#69E" height="6" stroke="#04A" stroke-width="1" width="12" x="50.0" y="215.8571428571429" /><rect fill="#69E" height="6" stroke="#04A" stroke-width="1" width="12" x="473.4285714285714" y="118.14285714285722" /><rect fill="#69E" height="6" stroke="#04A" stroke-width="1" width="12" x="668.8571428571428" y="118.14285714285722" /><rect fill="#69E" height="6" stroke="#04A" stroke-width="1" width="12" x="864.2857142857142" y="118.14285714285722" /><rect fill="#69E" height="6" stroke="#04A" stroke-width="1" width="12" x="962.0" y="248.42857142857156" /><rect fill="#69E" height="6" stroke="#04A" stroke-width="1" width="12" x="50.0" y="639.2857142857143" /><rect fill="#69E" height="6" stroke="#04A" stroke-width="1" width="12" x="50.0" y="509.0" /><text fill="#444" font-family="Arial, sans-serif" font-size="12" x="40" y="24">gl_us_4bed_suburban_colonial</text></svg>