<?xml version="1.0" encoding="utf-8" ?>
<svg baseProfile="full" height="1024" version="1.1" viewBox="0 0 1024 1024" width="1024" xmlns="http://www.w3.org/2000/svg" xmlns:ev="http://www.w3.org/2001/xml-events" xmlns:xlink="http://www.w3.org/1999/xlink"><defs /><rect fill="#FAFAFA" height="1024" width="1024" x="0" y="0" /><polygon fill="white" points="284.0,968.0 740.0,968.0 740.0,56.0 284.0,56.0" stroke="#222" stroke-width="3" /><polygon fill="#D1ECF1" points="284.0,968.0 740.0,968.0 740.0,626.0 284.0,626.0" stroke="#888" stroke-width="1" /><text fill="#333" font-family="Arial, sans-serif" font-size="12" text-anchor="middle" x="512.0" y="797.0">Living Room</text><text fill="#666" font-family="Arial, sans-serif" font-size="10" text-anchor="middle" x="512.0" y="811.0">12 m²</text><polygon fill="#D4EDDA" points="284.0,626.0 455.0,626.0 455.0,341.0 284.0,341.0" stroke="#888" stroke-width="1" /><text fill="#333" font-family="Arial, sans-serif" font-size="12" text-anchor="middle" x="369.5" y="483.5">Bathroom</text><text fill="#666" font-family="Arial, sans-serif" font-size="10" text-anchor="middle" x="369.5" y="497.5">3.75 m²</text><polygon fill="#FFF3CD" points="455.0,626.0 740.0,626.0 740.0,341.0 455.0,341.0" stroke="#888" stroke-width="1" /><text fill="#333" font-family="Arial, sans-serif" font-size="12" text-anchor="middle" x="597.5" y="483.5">Kitchen</text><text fill="#666" font-family="Arial, sans-serif" font-size="10" text-anchor="middle" x="597.5" y="497.5">6.25 m²</text><polygon fill="#D5C8E0" points="284.0,341.0 740.0,341.0 740.0,56.0 284.0,56.0" stroke="#888" stroke-width="1" /><text fill="#333" font-family="Arial, sans-serif" font-size="12" text-anchor="middle" x="512.0" y="198.5">Bedroom</text><text fill="#666" font-family="Arial, sans-serif" font-size="10" text-anchor="middle" x="512.0" y="212.5">10 m²</text><rect fill="#E66" height="8" stroke="#A00" stroke-width="1" width="8" x="736.0" y="508.0" /><rect fill="#E66" height="8" stroke="#A00" stroke-width="1" width="8" x="565.0" y="622.0" /><rect fill="#E66" height="8" stroke="#A00" stroke-width="1" width="8" x="451.0" y="508.0" /><rect fill="#E66" height="8" stroke="#A00" stroke-width="1" width="8" x="565.0" y="337.0" /><rect fill="#69E" height="6" stroke="#04A" stroke-width="1" width="12" x="506.0" y="965.0" /><rect fill="#69E" height="6" stroke="#04A" stroke-width="1" width="12" x="734.0" y="395.0" /><rect fill="#69E" height="6" stroke="#04A" stroke-width="1" width="12" x="506.0" y="53.0" /><text fill="#444" font-family="Arial, sans-serif" font-size="12" x="40" y="24">gl_us_1bed_nyc_tenement_walkup</text></svg>