<?xml version="1.0" encoding="utf-8" ?>
<svg baseProfile="full" height="1024" version="1.1" viewBox="0 0 1024 1024" width="1024" xmlns="http://www.w3.org/2000/svg" xmlns:ev="http://www.w3.org/2001/xml-events" xmlns:xlink="http://www.w3.org/1999/xlink"><defs /><rect fill="#FAFAFA" height="1024" width="1024" x="0" y="0" /><polygon fill="white" points="56.0,772.5714285714286 968.0,772.5714285714286 968.0,251.42857142857144 56.0,251.42857142857144" stroke="#222" stroke-width="3" /><polygon fill="#F5F5F5" points="56.0,772.5714285714286 186.28571428571428,772.5714285714286 186.28571428571428,609.7142857142858 56.0,609.7142857142858" stroke="#888" stroke-width="1" /><text fill="#333" font-family="Arial, sans-serif" font-size="12" text-anchor="middle" x="121.14285714285714" y="691.1428571428571">Foyer</text><text fill="#666" font-family="Arial, sans-serif" font-size="10" text-anchor="middle" x="121.14285714285714" y="705.1428571428571">5 m²</text><polygon fill="#D1ECF1" points="186.28571428571428,772.5714285714286 512.0,772.5714285714286 512.0,446.8571428571429 186.28571428571428,446.8571428571429" stroke="#888" stroke-width="1" /><text fill="#333" font-family="Arial, sans-serif" font-size="12" text-anchor="middle" x="349.1428571428571" y="609.7142857142858">Great Room</text><text fill="#666" font-family="Arial, sans-serif" font-size="10" text-anchor="middle" x="349.1428571428571" y="623.7142857142858">25 m²</text><polygon fill="#FFE5E5" points="512.0,772.5714285714286 707.4285714285713,772.5714285714286 707.4285714285713,446.8571428571429 512.0,446.8571428571429" stroke="#888" stroke-width="1" /><text fill="#333" font-family="Arial, sans-serif" font-size="12" text-anchor="middle" x="609.7142857142857" y="609.7142857142858">Dining</text><text fill="#666" font-family="Arial, sans-serif" font-size="10" text-anchor="middle" x="609.7142857142857" y="623.7142857142858">15 m²</text><polygon fill="#FFF3CD" points="707.4285714285713,772.5714285714286 968.0,772.5714285714286 968.0,446.8571428571429 707.4285714285713,446.8571428571429" stroke="#888" stroke-width="1" /><text fill="#333" font-family="Arial, sans-serif" font-size="12" text-anchor="middle" x="837.7142857142857" y="609.7142857142858">Kitchen + Breakfast</text><text fill="#666" font-family="Arial, sans-serif" font-size="10" text-anchor="middle" x="837.7142857142857" y="623.7142857142858">20 m²</text><polygon fill="#D4EDDA" points="56.0,609.7142857142858 186.28571428571428,609.7142857142858 186.28571428571428,512.0 56.0,512.0" stroke="#888" stroke-width="1" /><text fill="#333" font-family="Arial, sans-serif" font-size="12" text-anchor="middle" x="121.14285714285714" y="560.8571428571429">Hall Bath</text><text fill="#666" font-family="Arial, sans-serif" font-size="10" text-anchor="middle" x="121.14285714285714" y="574.8571428571429">3 m²</text><polygon fill="#E0E0E0" points="56.0,512.0 186.28571428571428,512.0 186.28571428571428,381.7142857142857 56.0,381.7142857142857" stroke="#888" stroke-width="1" /><text fill="#333" font-family="Arial, sans-serif" font-size="12" text-anchor="middle" x="121.14285714285714" y="446.8571428571429">Laundry</text><text fill="#666" font-family="Arial, sans-serif" font-size="10" text-anchor="middle" x="121.14285714285714" y="460.8571428571429">4 m²</text><polygon fill="#F5F5F5" points="186.28571428571428,446.8571428571429 512.0,446.8571428571429 512.0,381.7142857142857 186.28571428571428,381.7142857142857" stroke="#888" stroke-width="1" /><text fill="#333" font-family="Arial, sans-serif" font-size="12" text-anchor="middle" x="349.1428571428571" y="414.28571428571433">Hall</text><text fill="#666" font-family="Arial, sans-serif" font-size="10" text-anchor="middle" x="349.1428571428571" y="428.28571428571433">5 m²</text><polygon fill="#E2D5F0" points="56.0,381.7142857142857 381.71428571428567,381.7142857142857 381.71428571428567,251.42857142857144 56.0,251.42857142857144" stroke="#888" stroke-width="1" /><text fill="#333" font-family="Arial, sans-serif" font-size="12" text-anchor="middle" x="218.85714285714283" y="316.57142857142856">Bedroom 2</text><text fill="#666" font-family="Arial, sans-serif" font-size="10" text-anchor="middle" x="218.85714285714283" y="330.57142857142856">10 m²</text><polygon fill="#E2D5F0" points="381.71428571428567,381.7142857142857 512.0,381.7142857142857 512.0,251.42857142857144 381.71428571428567,251.42857142857144" stroke="#888" stroke-width="1" /><text fill="#333" font-family="Arial, sans-serif" font-size="12" text-anchor="middle" x="446.85714285714283" y="316.57142857142856">Bedroom 3</text><text fill="#666" font-family="Arial, sans-serif" font-size="10" text-anchor="middle" x="446.85714285714283" y="330.57142857142856">4 m²</text><polygon fill="#D5C8E0" points="512.0,446.8571428571429 837.7142857142857,446.8571428571429 837.7142857142857,251.42857142857144 512.0,251.42857142857144" stroke="#888" stroke-width="1" /><text fill="#333" font-family="Arial, sans-serif" font-size="12" text-anchor="middle" x="674.8571428571429" y="349.14285714285717">Master Bedroom</text><text fill="#666" font-family="Arial, sans-serif" font-size="10" text-anchor="middle" x="674.8571428571429" y="363.14285714285717">15 m²</text><polygon fill="#D4EDDA" points="837.7142857142857,446.8571428571429 968.0,446.8571428571429 968.0,316.57142857142856 837.7142857142857,316.57142857142856" stroke="#888" stroke-width="1" /><text fill="#333" font-family="Arial, sans-serif" font-size="12" text-anchor="middle" x="902.8571428571429" y="381.7142857142857">Master Bath</text><text fill="#666" font-family="Arial, sans-serif" font-size="10" text-anchor="middle" x="902.8571428571429" y="395.7142857142857">4 m²</text><polygon fill="#EEE" points="837.7142857142857,316.57142857142856 968.0,316.57142857142856 968.0,251.42857142857144 837.7142857142857,251.42857142857144" stroke="#888" stroke-width="1" /><text fill="#333" font-family="Arial, sans-serif" font-size="12" text-anchor="middle" x="902.8571428571429" y="284.0">Closet</text><text fill="#666" font-family="Arial, sans-serif" font-size="10" text-anchor="middle" x="902.8571428571429" y="298.0">2 m²</text><rect fill="#E66" height="8" stroke="#A00" stroke-width="1" width="8" x="84.57142857142857" y="768.5714285714286" /><rect fill="#E66" height="8" stroke="#A00" stroke-width="1" width="8" x="182.28571428571428" y="687.1428571428571" /><rect fill="#E66" height="8" stroke="#A00" stroke-width="1" width="8" x="117.14285714285714" y="605.7142857142858" /><rect fill="#E66" height="8" stroke="#A00" stroke-width="1" width="8" x="117.14285714285714" y="508.0" /><rect fill="#E66" height="8" stroke="#A00" stroke-width="1" width="8" x="508.0" y="605.7142857142858" /><rect fill="#E66" height="8" stroke="#A00" stroke-width="1" width="8" x="703.4285714285713" y="605.7142857142858" /><rect fill="#E66" height="8" stroke="#A00" stroke-width="1" width="8" x="345.1428571428571" y="442.8571428571429" /><rect fill="#E66" height="8" stroke="#A00" stroke-width="1" width="8" x="182.28571428571428" y="410.2857142857143" /><rect fill="#E66" height="8" stroke="#A00" stroke-width="1" width="8" x="247.42857142857142" y="377.7142857142857" /><rect fill="#E66" height="8" stroke="#A00" stroke-width="1" width="8" x="442.85714285714283" y="377.7142857142857" /><rect fill="#E66" height="8" stroke="#A00" stroke-width="1" width="8" x="605.7142857142857" y="442.8571428571429" /><rect fill="#E66" height="8" stroke="#A00" stroke-width="1" width="8" x="768.5714285714286" y="442.8571428571429" /><rect fill="#E66" height="8" stroke="#A00" stroke-width="1" width="8" x="833.7142857142857" y="377.7142857142857" /><rect fill="#E66" height="8" stroke="#A00" stroke-width="1" width="8" x="898.8571428571428" y="312.57142857142856" /><rect fill="#E66" height="8" stroke="#A00" stroke-width="1" width="8" x="833.7142857142857" y="280.0" /><rect fill="#E66" height="8" stroke="#A00" stroke-width="1" width="8" x="377.71428571428567" y="312.57142857142856" /><rect fill="#69E" height="6" stroke="#04A" stroke-width="1" width="12" x="343.1428571428571" y="769.5714285714286" /><rect fill="#69E" height="6" stroke="#04A" stroke-width="1" width="12" x="603.7142857142857" y="769.5714285714286" /><rect fill="#69E" height="6" stroke="#04A" stroke-width="1" width="12" x="831.7142857142857" y="769.5714285714286" /><rect fill="#69E" height="6" stroke="#04A" stroke-width="1" width="12" x="962.0" y="606.7142857142858" /><rect fill="#69E" height="6" stroke="#04A" stroke-width="1" width="12" x="668.8571428571428" y="248.42857142857144" /><rect fill="#69E" height="6" stroke="#04A" stroke-width="1" width="12" x="831.7142857142857" y="378.7142857142857" /><rect fill="#69E" height="6" stroke="#04A" stroke-width="1" width="12" x="212.85714285714283" y="248.42857142857144" /><rect fill="#69E" height="6" stroke="#04A" stroke-width="1" width="12" x="50.0" y="313.57142857142856" /><rect fill="#69E" height="6" stroke="#04A" stroke-width="1" width="12" x="440.85714285714283" y="248.42857142857144" /><rect fill="#69E" height="6" stroke="#04A" stroke-width="1" width="12" x="962.0" y="378.7142857142857" /><rect fill="#69E" height="6" stroke="#04A" stroke-width="1" width="12" x="50.0" y="557.8571428571429" /><rect fill="#69E" height="6" stroke="#04A" stroke-width="1" width="12" x="50.0" y="688.1428571428571" /><text fill="#444" font-family="Arial, sans-serif" font-size="12" x="40" y="24">gl_us_3bed_suburban_ranch</text></svg>