<?xml version="1.0" encoding="utf-8" ?>
<svg baseProfile="full" height="1024" version="1.1" viewBox="0 0 1024 1024" width="1024" xmlns="http://www.w3.org/2000/svg" xmlns:ev="http://www.w3.org/2001/xml-events" xmlns:xlink="http://www.w3.org/1999/xlink"><defs /><rect fill="#FAFAFA" height="1024" width="1024" x="0" y="0" /><polygon fill="white" points="121.14285714285717,968.0 902.8571428571429,968.0 902.8571428571429,56.0 121.14285714285717,56.0" stroke="#222" stroke-width="3" /><polygon fill="#F5F5F5" points="121.14285714285717,968.0 251.42857142857144,968.0 251.42857142857144,707.4285714285714 121.14285714285717,707.4285714285714" stroke="#888" stroke-width="1" /><text fill="#333" font-family="Arial, sans-serif" font-size="12" text-anchor="middle" x="186.2857142857143" y="837.7142857142858">Foyer</text><text fill="#666" font-family="Arial, sans-serif" font-size="10" text-anchor="middle" x="186.2857142857143" y="851.7142857142858">2 m²</text><polygon fill="#D1ECF1" points="251.42857142857144,968.0 707.4285714285713,968.0 707.4285714285713,446.8571428571429 251.42857142857144,446.8571428571429" stroke="#888" stroke-width="1" /><text fill="#333" font-family="Arial, sans-serif" font-size="12" text-anchor="middle" x="479.4285714285714" y="707.4285714285714">Living/Dining</text><text fill="#666" font-family="Arial, sans-serif" font-size="10" text-anchor="middle" x="479.4285714285714" y="721.4285714285714">14 m²</text><polygon fill="#FFF3CD" points="707.4285714285713,968.0 902.8571428571429,968.0 902.8571428571429,577.1428571428571 707.4285714285713,577.1428571428571" stroke="#888" stroke-width="1" /><text fill="#333" font-family="Arial, sans-serif" font-size="12" text-anchor="middle" x="805.1428571428571" y="772.5714285714286">Kitchen</text><text fill="#666" font-family="Arial, sans-serif" font-size="10" text-anchor="middle" x="805.1428571428571" y="786.5714285714286">4.5 m²</text><polygon fill="#F8F9FA" points="707.4285714285713,577.1428571428571 902.8571428571429,577.1428571428571 902.8571428571429,381.7142857142858 707.4285714285713,381.7142857142858" stroke="#888" stroke-width="1" /><text fill="#333" font-family="Arial, sans-serif" font-size="12" text-anchor="middle" x="805.1428571428571" y="479.42857142857144">Dry Balcony</text><text fill="#666" font-family="Arial, sans-serif" font-size="10" text-anchor="middle" x="805.1428571428571" y="493.42857142857144">2.25 m²</text><polygon fill="#D4EDDA" points="121.14285714285717,707.4285714285714 251.42857142857144,707.4285714285714 251.42857142857144,316.57142857142867 121.14285714285717,316.57142857142867" stroke="#888" stroke-width="1" /><text fill="#333" font-family="Arial, sans-serif" font-size="12" text-anchor="middle" x="186.2857142857143" y="512.0">Bath</text><text fill="#666" font-family="Arial, sans-serif" font-size="10" text-anchor="middle" x="186.2857142857143" y="526.0">3 m²</text><polygon fill="#D5C8E0" points="251.42857142857144,446.8571428571429 707.4285714285713,446.8571428571429 707.4285714285713,56.0 251.42857142857144,56.0" stroke="#888" stroke-width="1" /><text fill="#333" font-family="Arial, sans-serif" font-size="12" text-anchor="middle" x="479.4285714285714" y="251.42857142857144">Bedroom</text><text fill="#666" font-family="Arial, sans-serif" font-size="10" text-anchor="middle" x="479.4285714285714" y="265.42857142857144">10.5 m²</text><polygon fill="#F5F5F5" points="707.4285714285713,381.7142857142858 902.8571428571429,381.7142857142858 902.8571428571429,56.0 707.4285714285713,56.0" stroke="#888" stroke-width="1" /><text fill="#333" font-family="Arial, sans-serif" font-size="12" text-anchor="middle" x="805.1428571428571" y="218.8571428571429">Passage</text><text fill="#666" font-family="Arial, sans-serif" font-size="10" text-anchor="middle" x="805.1428571428571" y="232.8571428571429">3.75 m²</text><polygon fill="#F5F5F5" points="121.14285714285717,316.57142857142867 251.42857142857144,316.57142857142867 251.42857142857144,56.0 121.14285714285717,56.0" stroke="#888" stroke-width="1" /><text fill="#333" font-family="Arial, sans-serif" font-size="12" text-anchor="middle" x="186.2857142857143" y="186.28571428571433">Back Hall</text><text fill="#666" font-family="Arial, sans-serif" font-size="10" text-anchor="middle" x="186.2857142857143" y="200.28571428571433">2 m²</text><rect fill="#E66" height="8" stroke="#A00" stroke-width="1" width="8" x="182.2857142857143" y="964.0" /><rect fill="#E66" height="8" stroke="#A00" stroke-width="1" width="8" x="247.42857142857144" y="833.7142857142858" /><rect fill="#E66" height="8" stroke="#A00" stroke-width="1" width="8" x="182.2857142857143" y="703.4285714285714" /><rect fill="#E66" height="8" stroke="#A00" stroke-width="1" width="8" x="703.4285714285713" y="768.5714285714286" /><rect fill="#E66" height="8" stroke="#A00" stroke-width="1" width="8" x="801.1428571428571" y="573.1428571428571" /><rect fill="#E66" height="8" stroke="#A00" stroke-width="1" width="8" x="475.42857142857144" y="442.8571428571429" /><rect fill="#E66" height="8" stroke="#A00" stroke-width="1" width="8" x="182.2857142857143" y="312.57142857142867" /><rect fill="#E66" height="8" stroke="#A00" stroke-width="1" width="8" x="247.42857142857144" y="182.28571428571433" /><rect fill="#E66" height="8" stroke="#A00" stroke-width="1" width="8" x="703.4285714285713" y="247.42857142857144" /><rect fill="#E66" height="8" stroke="#A00" stroke-width="1" width="8" x="801.1428571428571" y="377.7142857142858" /><rect fill="#69E" height="6" stroke="#04A" stroke-width="1" width="12" x="473.42857142857144" y="965.0" /><rect fill="#69E" height="6" stroke="#04A" stroke-width="1" width="12" x="245.42857142857144" y="965.0" /><rect fill="#69E" height="6" stroke="#04A" stroke-width="1" width="12" x="799.1428571428571" y="965.0" /><rect fill="#69E" height="6" stroke="#04A" stroke-width="1" width="12" x="473.42857142857144" y="53.0" /><rect fill="#69E" height="6" stroke="#04A" stroke-width="1" width="12" x="896.8571428571429" y="476.42857142857144" /><rect fill="#69E" height="6" stroke="#04A" stroke-width="1" width="12" x="799.1428571428571" y="53.0" /><rect fill="#69E" height="6" stroke="#04A" stroke-width="1" width="12" x="115.14285714285717" y="183.28571428571433" /><text fill="#444" font-family="Arial, sans-serif" font-size="12" x="40" y="24">in_1bhk_mumbai_andheri_budget</text></svg>