<?xml version="1.0" encoding="utf-8" ?>
<svg baseProfile="full" height="1024" version="1.1" viewBox="0 0 1024 1024" width="1024" xmlns="http://www.w3.org/2000/svg" xmlns:ev="http://www.w3.org/2001/xml-events" xmlns:xlink="http://www.w3.org/1999/xlink"><defs /><rect fill="#FAFAFA" height="1024" width="1024" x="0" y="0" /><polygon fill="white" points="113.0,968.0 911.0,968.0 911.0,56.0 113.0,56.0" stroke="#222" stroke-width="3" /><polygon fill="#F5F5F5" points="113.0,968.0 284.0,968.0 284.0,740.0 113.0,740.0" stroke="#888" stroke-width="1" /><text fill="#333" font-family="Arial, sans-serif" font-size="12" text-anchor="middle" x="198.5" y="854.0">Foyer</text><text fill="#666" font-family="Arial, sans-serif" font-size="10" text-anchor="middle" x="198.5" y="868.0">3 m²</text><polygon fill="#D1ECF1" points="284.0,968.0 683.0,968.0 683.0,512.0 284.0,512.0" stroke="#888" stroke-width="1" /><text fill="#333" font-family="Arial, sans-serif" font-size="12" text-anchor="middle" x="483.5" y="740.0">Living/Dining</text><text fill="#666" font-family="Arial, sans-serif" font-size="10" text-anchor="middle" x="483.5" y="754.0">14 m²</text><polygon fill="#FFF3CD" points="683.0,968.0 911.0,968.0 911.0,626.0 683.0,626.0" stroke="#888" stroke-width="1" /><text fill="#333" font-family="Arial, sans-serif" font-size="12" text-anchor="middle" x="797.0" y="797.0">Kitchen</text><text fill="#666" font-family="Arial, sans-serif" font-size="10" text-anchor="middle" x="797.0" y="811.0">6 m²</text><polygon fill="#E0E0E0" points="683.0,626.0 911.0,626.0 911.0,455.0 683.0,455.0" stroke="#888" stroke-width="1" /><text fill="#333" font-family="Arial, sans-serif" font-size="12" text-anchor="middle" x="797.0" y="540.5">Utility</text><text fill="#666" font-family="Arial, sans-serif" font-size="10" text-anchor="middle" x="797.0" y="554.5">3 m²</text><polygon fill="#D4EDDA" points="113.0,740.0 284.0,740.0 284.0,398.0 113.0,398.0" stroke="#888" stroke-width="1" /><text fill="#333" font-family="Arial, sans-serif" font-size="12" text-anchor="middle" x="198.5" y="569.0">Bath</text><text fill="#666" font-family="Arial, sans-serif" font-size="10" text-anchor="middle" x="198.5" y="583.0">4.5 m²</text><polygon fill="#D5C8E0" points="284.0,512.0 683.0,512.0 683.0,170.0 284.0,170.0" stroke="#888" stroke-width="1" /><text fill="#333" font-family="Arial, sans-serif" font-size="12" text-anchor="middle" x="483.5" y="341.0">Bedroom</text><text fill="#666" font-family="Arial, sans-serif" font-size="10" text-anchor="middle" x="483.5" y="355.0">10.5 m²</text><polygon fill="#F5F5F5" points="683.0,455.0 911.0,455.0 911.0,170.0 683.0,170.0" stroke="#888" stroke-width="1" /><text fill="#333" font-family="Arial, sans-serif" font-size="12" text-anchor="middle" x="797.0" y="312.5">Passage</text><text fill="#666" font-family="Arial, sans-serif" font-size="10" text-anchor="middle" x="797.0" y="326.5">5 m²</text><polygon fill="#F8F9FA" points="113.0,170.0 911.0,170.0 911.0,56.0 113.0,56.0" stroke="#888" stroke-width="1" /><text fill="#333" font-family="Arial, sans-serif" font-size="12" text-anchor="middle" x="512.0" y="113.0">Balcony</text><text fill="#666" font-family="Arial, sans-serif" font-size="10" text-anchor="middle" x="512.0" y="127.0">7 m²</text><polygon fill="#F5F5F5" points="113.0,398.0 284.0,398.0 284.0,170.0 113.0,170.0" stroke="#888" stroke-width="1" /><text fill="#333" font-family="Arial, sans-serif" font-size="12" text-anchor="middle" x="198.5" y="284.0">Hall back</text><text fill="#666" font-family="Arial, sans-serif" font-size="10" text-anchor="middle" x="198.5" y="298.0">3 m²</text><rect fill="#E66" height="8" stroke="#A00" stroke-width="1" width="8" x="166.0" y="964.0" /><rect fill="#E66" height="8" stroke="#A00" stroke-width="1" width="8" x="280.0" y="850.0" /><rect fill="#E66" height="8" stroke="#A00" stroke-width="1" width="8" x="194.5" y="736.0" /><rect fill="#E66" height="8" stroke="#A00" stroke-width="1" width="8" x="679.0" y="793.0" /><rect fill="#E66" height="8" stroke="#A00" stroke-width="1" width="8" x="793.0" y="622.0" /><rect fill="#E66" height="8" stroke="#A00" stroke-width="1" width="8" x="479.5" y="508.0" /><rect fill="#E66" height="8" stroke="#A00" stroke-width="1" width="8" x="280.0" y="451.0" /><rect fill="#E66" height="8" stroke="#A00" stroke-width="1" width="8" x="194.5" y="394.0" /><rect fill="#E66" height="8" stroke="#A00" stroke-width="1" width="8" x="793.0" y="451.0" /><rect fill="#E66" height="8" stroke="#A00" stroke-width="1" width="8" x="679.0" y="337.0" /><rect fill="#E66" height="8" stroke="#A00" stroke-width="1" width="8" x="194.5" y="166.0" /><rect fill="#E66" height="8" stroke="#A00" stroke-width="1" width="8" x="479.5" y="166.0" /><rect fill="#E66" height="8" stroke="#A00" stroke-width="1" width="8" x="793.0" y="166.0" /><rect fill="#69E" height="6" stroke="#04A" stroke-width="1" width="12" x="477.5" y="965.0" /><rect fill="#69E" height="6" stroke="#04A" stroke-width="1" width="12" x="278.0" y="965.0" /><rect fill="#69E" height="6" stroke="#04A" stroke-width="1" width="12" x="791.0" y="965.0" /><rect fill="#69E" height="6" stroke="#04A" stroke-width="1" width="12" x="905.0" y="794.0" /><rect fill="#69E" height="6" stroke="#04A" stroke-width="1" width="12" x="477.5" y="167.0" /><rect fill="#69E" height="6" stroke="#04A" stroke-width="1" width="12" x="506.0" y="53.0" /><rect fill="#69E" height="6" stroke="#04A" stroke-width="1" width="12" x="107.0" y="566.0" /><rect fill="#69E" height="6" stroke="#04A" stroke-width="1" width="12" x="107.0" y="281.0" /><text fill="#444" font-family="Arial, sans-serif" font-size="12" x="40" y="24">in_1bhk_hyderabad_madhapur</text></svg>