<?xml version="1.0" encoding="utf-8" ?>
<svg baseProfile="full" height="1024" version="1.1" viewBox="0 0 1024 1024" width="1024" xmlns="http://www.w3.org/2000/svg" xmlns:ev="http://www.w3.org/2001/xml-events" xmlns:xlink="http://www.w3.org/1999/xlink"><defs /><rect fill="#FAFAFA" height="1024" width="1024" x="0" y="0" /><polygon fill="white" points="55.99999999999994,968.0 968.0,968.0 968.0,55.999999999999886 55.99999999999994,55.999999999999886" stroke="#222" stroke-width="3" /><polygon fill="#D1ECF1" points="55.99999999999994,968.0 687.3846153846155,968.0 687.3846153846155,476.9230769230769 55.99999999999994,476.9230769230769" stroke="#888" stroke-width="1" /><text fill="#333" font-family="Arial, sans-serif" font-size="12" text-anchor="middle" x="371.69230769230774" y="722.4615384615385">Living/Dining</text><text fill="#666" font-family="Arial, sans-serif" font-size="10" text-anchor="middle" x="371.69230769230774" y="736.4615384615385">15.75 m²</text><polygon fill="#FFF3CD" points="687.3846153846155,968.0 968.0,968.0 968.0,617.2307692307692 687.3846153846155,617.2307692307692" stroke="#888" stroke-width="1" /><text fill="#333" font-family="Arial, sans-serif" font-size="12" text-anchor="middle" x="827.6923076923077" y="792.6153846153845">Kitchen (modular)</text><text fill="#666" font-family="Arial, sans-serif" font-size="10" text-anchor="middle" x="827.6923076923077" y="806.6153846153845">5 m²</text><polygon fill="#D4EDDA" points="687.3846153846155,617.2307692307692 968.0,617.2307692307692 968.0,336.6153846153845 687.3846153846155,336.6153846153845" stroke="#888" stroke-width="1" /><text fill="#333" font-family="Arial, sans-serif" font-size="12" text-anchor="middle" x="827.6923076923077" y="476.92307692307685">Toilet</text><text fill="#666" font-family="Arial, sans-serif" font-size="10" text-anchor="middle" x="827.6923076923077" y="490.92307692307685">4 m²</text><polygon fill="#D5C8E0" points="55.99999999999994,476.9230769230769 687.3846153846155,476.9230769230769 687.3846153846155,55.999999999999886 55.99999999999994,55.999999999999886" stroke="#888" stroke-width="1" /><text fill="#333" font-family="Arial, sans-serif" font-size="12" text-anchor="middle" x="371.69230769230774" y="266.4615384615384">Bedroom</text><text fill="#666" font-family="Arial, sans-serif" font-size="10" text-anchor="middle" x="371.69230769230774" y="280.4615384615384">13.5 m²</text><polygon fill="#F8F9FA" points="687.3846153846155,336.6153846153845 968.0,336.6153846153845 968.0,55.999999999999886 687.3846153846155,55.999999999999886" stroke="#888" stroke-width="1" /><text fill="#333" font-family="Arial, sans-serif" font-size="12" text-anchor="middle" x="827.6923076923077" y="196.3076923076922">Dry Balcony (utility)</text><text fill="#666" font-family="Arial, sans-serif" font-size="10" text-anchor="middle" x="827.6923076923077" y="210.3076923076922">4 m²</text><rect fill="#E66" height="8" stroke="#A00" stroke-width="1" width="8" x="122.1538461538461" y="964.0" /><rect fill="#E66" height="8" stroke="#A00" stroke-width="1" width="8" x="683.3846153846155" y="788.6153846153845" /><rect fill="#E66" height="8" stroke="#A00" stroke-width="1" width="8" x="367.6923076923077" y="472.9230769230769" /><rect fill="#E66" height="8" stroke="#A00" stroke-width="1" width="8" x="683.3846153846155" y="402.7692307692307" /><rect fill="#E66" height="8" stroke="#A00" stroke-width="1" width="8" x="823.6923076923076" y="332.6153846153845" /><rect fill="#E66" height="8" stroke="#A00" stroke-width="1" width="8" x="683.3846153846155" y="192.30769230769226" /><rect fill="#E66" height="8" stroke="#A00" stroke-width="1" width="8" x="823.6923076923076" y="613.2307692307692" /><rect fill="#69E" height="6" stroke="#04A" stroke-width="1" width="12" x="365.6923076923077" y="965.0" /><rect fill="#69E" height="6" stroke="#04A" stroke-width="1" width="12" x="49.99999999999994" y="719.4615384615385" /><rect fill="#69E" height="6" stroke="#04A" stroke-width="1" width="12" x="821.6923076923076" y="965.0" /><rect fill="#69E" height="6" stroke="#04A" stroke-width="1" width="12" x="365.6923076923077" y="52.999999999999886" /><rect fill="#69E" height="6" stroke="#04A" stroke-width="1" width="12" x="49.99999999999994" y="263.46153846153834" /><rect fill="#69E" height="6" stroke="#04A" stroke-width="1" width="12" x="962.0" y="473.9230769230769" /><text fill="#444" font-family="Arial, sans-serif" font-size="12" x="40" y="24">in_1bhk_pune_wakad_compact</text></svg>