<?xml version="1.0" encoding="utf-8" ?>
<svg baseProfile="full" height="1024" version="1.1" viewBox="0 0 1024 1024" width="1024" xmlns="http://www.w3.org/2000/svg" xmlns:ev="http://www.w3.org/2001/xml-events" xmlns:xlink="http://www.w3.org/1999/xlink"><defs /><rect fill="#FAFAFA" height="1024" width="1024" x="0" y="0" /><polygon fill="white" points="170.0,968.0 854.0,968.0 854.0,56.0 170.0,56.0" stroke="#222" stroke-width="3" /><polygon fill="#F5F5F5" points="170.0,968.0 341.0,968.0 341.0,740.0 170.0,740.0" stroke="#888" stroke-width="1" /><text fill="#333" font-family="Arial, sans-serif" font-size="12" text-anchor="middle" x="255.5" y="854.0">Foyer</text><text fill="#666" font-family="Arial, sans-serif" font-size="10" text-anchor="middle" x="255.5" y="868.0">3 m²</text><polygon fill="#D1ECF1" points="341.0,968.0 740.0,968.0 740.0,512.0 341.0,512.0" stroke="#888" stroke-width="1" /><text fill="#333" font-family="Arial, sans-serif" font-size="12" text-anchor="middle" x="540.5" y="740.0">Living/Dining</text><text fill="#666" font-family="Arial, sans-serif" font-size="10" text-anchor="middle" x="540.5" y="754.0">14 m²</text><polygon fill="#FFF3CD" points="740.0,968.0 854.0,968.0 854.0,626.0 740.0,626.0" stroke="#888" stroke-width="1" /><text fill="#333" font-family="Arial, sans-serif" font-size="12" text-anchor="middle" x="797.0" y="797.0">Kitchen</text><text fill="#666" font-family="Arial, sans-serif" font-size="10" text-anchor="middle" x="797.0" y="811.0">3 m²</text><polygon fill="#D4EDDA" points="170.0,740.0 341.0,740.0 341.0,398.0 170.0,398.0" stroke="#888" stroke-width="1" /><text fill="#333" font-family="Arial, sans-serif" font-size="12" text-anchor="middle" x="255.5" y="569.0">Bath</text><text fill="#666" font-family="Arial, sans-serif" font-size="10" text-anchor="middle" x="255.5" y="583.0">4.5 m²</text><polygon fill="#E0E0E0" points="740.0,626.0 854.0,626.0 854.0,398.0 740.0,398.0" stroke="#888" stroke-width="1" /><text fill="#333" font-family="Arial, sans-serif" font-size="12" text-anchor="middle" x="797.0" y="512.0">Utility</text><text fill="#666" font-family="Arial, sans-serif" font-size="10" text-anchor="middle" x="797.0" y="526.0">2 m²</text><polygon fill="#D5C8E0" points="341.0,512.0 740.0,512.0 740.0,170.0 341.0,170.0" stroke="#888" stroke-width="1" /><text fill="#333" font-family="Arial, sans-serif" font-size="12" text-anchor="middle" x="540.5" y="341.0">Bedroom</text><text fill="#666" font-family="Arial, sans-serif" font-size="10" text-anchor="middle" x="540.5" y="355.0">10.5 m²</text><polygon fill="#F5F5F5" points="740.0,398.0 854.0,398.0 854.0,170.0 740.0,170.0" stroke="#888" stroke-width="1" /><text fill="#333" font-family="Arial, sans-serif" font-size="12" text-anchor="middle" x="797.0" y="284.0">Passage</text><text fill="#666" font-family="Arial, sans-serif" font-size="10" text-anchor="middle" x="797.0" y="298.0">2 m²</text><polygon fill="#F8F9FA" points="170.0,170.0 854.0,170.0 854.0,56.0 170.0,56.0" stroke="#888" stroke-width="1" /><text fill="#333" font-family="Arial, sans-serif" font-size="12" text-anchor="middle" x="512.0" y="113.0">Balcony</text><text fill="#666" font-family="Arial, sans-serif" font-size="10" text-anchor="middle" x="512.0" y="127.0">6 m²</text><polygon fill="#F5F5F5" points="170.0,398.0 341.0,398.0 341.0,170.0 170.0,170.0" stroke="#888" stroke-width="1" /><text fill="#333" font-family="Arial, sans-serif" font-size="12" text-anchor="middle" x="255.5" y="284.0">Hall back</text><text fill="#666" font-family="Arial, sans-serif" font-size="10" text-anchor="middle" x="255.5" y="298.0">3 m²</text><rect fill="#E66" height="8" stroke="#A00" stroke-width="1" width="8" x="223.0" y="964.0" /><rect fill="#E66" height="8" stroke="#A00" stroke-width="1" width="8" x="337.0" y="850.0" /><rect fill="#E66" height="8" stroke="#A00" stroke-width="1" width="8" x="251.5" y="736.0" /><rect fill="#E66" height="8" stroke="#A00" stroke-width="1" width="8" x="736.0" y="793.0" /><rect fill="#E66" height="8" stroke="#A00" stroke-width="1" width="8" x="793.0" y="622.0" /><rect fill="#E66" height="8" stroke="#A00" stroke-width="1" width="8" x="536.5" y="508.0" /><rect fill="#E66" height="8" stroke="#A00" stroke-width="1" width="8" x="337.0" y="451.0" /><rect fill="#E66" height="8" stroke="#A00" stroke-width="1" width="8" x="251.5" y="394.0" /><rect fill="#E66" height="8" stroke="#A00" stroke-width="1" width="8" x="793.0" y="394.0" /><rect fill="#E66" height="8" stroke="#A00" stroke-width="1" width="8" x="736.0" y="280.0" /><rect fill="#E66" height="8" stroke="#A00" stroke-width="1" width="8" x="251.5" y="166.0" /><rect fill="#E66" height="8" stroke="#A00" stroke-width="1" width="8" x="536.5" y="166.0" /><rect fill="#E66" height="8" stroke="#A00" stroke-width="1" width="8" x="793.0" y="166.0" /><rect fill="#69E" height="6" stroke="#04A" stroke-width="1" width="12" x="534.5" y="965.0" /><rect fill="#69E" height="6" stroke="#04A" stroke-width="1" width="12" x="335.0" y="965.0" /><rect fill="#69E" height="6" stroke="#04A" stroke-width="1" width="12" x="791.0" y="965.0" /><rect fill="#69E" height="6" stroke="#04A" stroke-width="1" width="12" x="848.0" y="794.0" /><rect fill="#69E" height="6" stroke="#04A" stroke-width="1" width="12" x="534.5" y="167.0" /><rect fill="#69E" height="6" stroke="#04A" stroke-width="1" width="12" x="506.0" y="53.0" /><rect fill="#69E" height="6" stroke="#04A" stroke-width="1" width="12" x="164.0" y="566.0" /><rect fill="#69E" height="6" stroke="#04A" stroke-width="1" width="12" x="164.0" y="281.0" /><text fill="#444" font-family="Arial, sans-serif" font-size="12" x="40" y="24">in_1bhk_chennai_compact</text></svg>