<?xml version="1.0" encoding="utf-8" ?>
<svg baseProfile="full" height="1024" version="1.1" viewBox="0 0 1024 1024" width="1024" xmlns="http://www.w3.org/2000/svg" xmlns:ev="http://www.w3.org/2001/xml-events" xmlns:xlink="http://www.w3.org/1999/xlink"><defs /><rect fill="#FAFAFA" height="1024" width="1024" x="0" y="0" /><polygon fill="white" points="56.0,922.4000000000001 968.0,922.4000000000001 968.0,101.60000000000002 56.0,101.60000000000002" stroke="#222" stroke-width="3" /><polygon fill="#D1ECF1" points="56.0,922.4000000000001 512.0,922.4000000000001 512.0,603.2 56.0,603.2" stroke="#888" stroke-width="1" /><text fill="#333" font-family="Arial, sans-serif" font-size="12" text-anchor="middle" x="284.0" y="762.8000000000001">Living</text><text fill="#666" font-family="Arial, sans-serif" font-size="10" text-anchor="middle" x="284.0" y="776.8000000000001">17.5 m²</text><polygon fill="#FFE5E5" points="512.0,922.4000000000001 694.4,922.4000000000001 694.4,648.8000000000001 512.0,648.8000000000001" stroke="#888" stroke-width="1" /><text fill="#333" font-family="Arial, sans-serif" font-size="12" text-anchor="middle" x="603.2" y="785.6000000000001">Dining</text><text fill="#666" font-family="Arial, sans-serif" font-size="10" text-anchor="middle" x="603.2" y="799.6000000000001">6 m²</text><polygon fill="#FFF3CD" points="694.4,922.4000000000001 968.0,922.4000000000001 968.0,648.8000000000001 694.4,648.8000000000001" stroke="#888" stroke-width="1" /><text fill="#333" font-family="Arial, sans-serif" font-size="12" text-anchor="middle" x="831.2" y="785.6000000000001">Kitchen (modular)</text><text fill="#666" font-family="Arial, sans-serif" font-size="10" text-anchor="middle" x="831.2" y="799.6000000000001">9 m²</text><polygon fill="#D4EDDA" points="512.0,648.8000000000001 694.4,648.8000000000001 694.4,466.4000000000001 512.0,466.4000000000001" stroke="#888" stroke-width="1" /><text fill="#333" font-family="Arial, sans-serif" font-size="12" text-anchor="middle" x="603.2" y="557.6000000000001">Common Bath</text><text fill="#666" font-family="Arial, sans-serif" font-size="10" text-anchor="middle" x="603.2" y="571.6000000000001">4 m²</text><polygon fill="#E0E0E0" points="694.4,648.8000000000001 968.0,648.8000000000001 968.0,512.0 694.4,512.0" stroke="#888" stroke-width="1" /><text fill="#333" font-family="Arial, sans-serif" font-size="12" text-anchor="middle" x="831.2" y="580.4000000000001">Utility</text><text fill="#666" font-family="Arial, sans-serif" font-size="10" text-anchor="middle" x="831.2" y="594.4000000000001">4.5 m²</text><polygon fill="#D5C8E0" points="56.0,603.2 420.8,603.2 420.8,284.0000000000001 56.0,284.0000000000001" stroke="#888" stroke-width="1" /><text fill="#333" font-family="Arial, sans-serif" font-size="12" text-anchor="middle" x="238.4" y="443.6000000000001">Master Bedroom</text><text fill="#666" font-family="Arial, sans-serif" font-size="10" text-anchor="middle" x="238.4" y="457.6000000000001">14 m²</text><polygon fill="#D4EDDA" points="420.8,603.2 512.0,603.2 512.0,284.0000000000001 420.8,284.0000000000001" stroke="#888" stroke-width="1" /><text fill="#333" font-family="Arial, sans-serif" font-size="12" text-anchor="middle" x="466.4" y="443.6000000000001">Master Bath</text><text fill="#666" font-family="Arial, sans-serif" font-size="10" text-anchor="middle" x="466.4" y="457.6000000000001">3.5 m²</text><polygon fill="#F5F5F5" points="512.0,466.4000000000001 694.4,466.4000000000001 694.4,284.0000000000001 512.0,284.0000000000001" stroke="#888" stroke-width="1" /><text fill="#333" font-family="Arial, sans-serif" font-size="12" text-anchor="middle" x="603.2" y="375.2000000000001">Hallway</text><text fill="#666" font-family="Arial, sans-serif" font-size="10" text-anchor="middle" x="603.2" y="389.2000000000001">4 m²</text><polygon fill="#E2D5F0" points="694.4,512.0 968.0,512.0 968.0,192.80000000000007 694.4,192.80000000000007" stroke="#888" stroke-width="1" /><text fill="#333" font-family="Arial, sans-serif" font-size="12" text-anchor="middle" x="831.2" y="352.40000000000003">Bedroom 2</text><text fill="#666" font-family="Arial, sans-serif" font-size="10" text-anchor="middle" x="831.2" y="366.40000000000003">10.5 m²</text><polygon fill="#F8F9FA" points="56.0,284.0000000000001 420.8,284.0000000000001 420.8,101.60000000000002 56.0,101.60000000000002" stroke="#888" stroke-width="1" /><text fill="#333" font-family="Arial, sans-serif" font-size="12" text-anchor="middle" x="238.4" y="192.80000000000007">Balcony</text><text fill="#666" font-family="Arial, sans-serif" font-size="10" text-anchor="middle" x="238.4" y="206.80000000000007">8 m²</text><polygon fill="#F8F9FA" points="420.8,284.0000000000001 694.4,284.0000000000001 694.4,101.60000000000002 420.8,101.60000000000002" stroke="#888" stroke-width="1" /><text fill="#333" font-family="Arial, sans-serif" font-size="12" text-anchor="middle" x="557.6" y="192.80000000000007">Bedroom Balcony</text><text fill="#666" font-family="Arial, sans-serif" font-size="10" text-anchor="middle" x="557.6" y="206.80000000000007">6 m²</text><polygon fill="#EEE" points="694.4,192.80000000000007 968.0,192.80000000000007 968.0,101.60000000000002 694.4,101.60000000000002" stroke="#888" stroke-width="1" /><text fill="#333" font-family="Arial, sans-serif" font-size="12" text-anchor="middle" x="831.2" y="147.20000000000005">Storage</text><text fill="#666" font-family="Arial, sans-serif" font-size="10" text-anchor="middle" x="831.2" y="161.20000000000005">3 m²</text><rect fill="#E66" height="8" stroke="#A00" stroke-width="1" width="8" x="97.6" y="918.4000000000001" /><rect fill="#E66" height="8" stroke="#A00" stroke-width="1" width="8" x="508.0" y="758.8000000000001" /><rect fill="#E66" height="8" stroke="#A00" stroke-width="1" width="8" x="690.4" y="781.6000000000001" /><rect fill="#E66" height="8" stroke="#A00" stroke-width="1" width="8" x="599.2" y="644.8000000000001" /><rect fill="#E66" height="8" stroke="#A00" stroke-width="1" width="8" x="827.2" y="644.8000000000001" /><rect fill="#E66" height="8" stroke="#A00" stroke-width="1" width="8" x="234.4" y="599.2" /><rect fill="#E66" height="8" stroke="#A00" stroke-width="1" width="8" x="416.8" y="439.6000000000001" /><rect fill="#E66" height="8" stroke="#A00" stroke-width="1" width="8" x="599.2" y="462.4000000000001" /><rect fill="#E66" height="8" stroke="#A00" stroke-width="1" width="8" x="690.4" y="371.20000000000005" /><rect fill="#E66" height="8" stroke="#A00" stroke-width="1" width="8" x="827.2" y="508.0" /><rect fill="#E66" height="8" stroke="#A00" stroke-width="1" width="8" x="234.4" y="280.0000000000001" /><rect fill="#E66" height="8" stroke="#A00" stroke-width="1" width="8" x="599.2" y="280.0000000000001" /><rect fill="#E66" height="8" stroke="#A00" stroke-width="1" width="8" x="827.2" y="188.80000000000007" /><rect fill="#69E" height="6" stroke="#04A" stroke-width="1" width="12" x="278.0" y="919.4000000000001" /><rect fill="#69E" height="6" stroke="#04A" stroke-width="1" width="12" x="50.0" y="759.8000000000001" /><rect fill="#69E" height="6" stroke="#04A" stroke-width="1" width="12" x="597.2" y="919.4000000000001" /><rect fill="#69E" height="6" stroke="#04A" stroke-width="1" width="12" x="825.2" y="919.4000000000001" /><rect fill="#69E" height="6" stroke="#04A" stroke-width="1" width="12" x="50.0" y="463.4000000000001" /><rect fill="#69E" height="6" stroke="#04A" stroke-width="1" width="12" x="962.0" y="349.4000000000001" /><rect fill="#69E" height="6" stroke="#04A" stroke-width="1" width="12" x="232.4" y="98.60000000000002" /><rect fill="#69E" height="6" stroke="#04A" stroke-width="1" width="12" x="551.6" y="98.60000000000002" /><rect fill="#69E" height="6" stroke="#04A" stroke-width="1" width="12" x="962.0" y="577.4000000000001" /><text fill="#444" font-family="Arial, sans-serif" font-size="12" x="40" y="24">in_2bhk_hyderabad_gachibowli_it</text></svg>