<?xml version="1.0" encoding="utf-8" ?>
<svg baseProfile="full" height="1024" version="1.1" viewBox="0 0 1024 1024" width="1024" xmlns="http://www.w3.org/2000/svg" xmlns:ev="http://www.w3.org/2001/xml-events" xmlns:xlink="http://www.w3.org/1999/xlink"><defs /><rect fill="#FAFAFA" height="1024" width="1024" x="0" y="0" /><polygon fill="white" points="56.0,968.0 968.0,968.0 968.0,56.0 56.0,56.0" stroke="#222" stroke-width="3" /><polygon fill="#D1ECF1" points="56.0,968.0 626.0,968.0 626.0,512.0 56.0,512.0" stroke="#888" stroke-width="1" /><text fill="#333" font-family="Arial, sans-serif" font-size="12" text-anchor="middle" x="341.0" y="740.0">Living/Dining</text><text fill="#666" font-family="Arial, sans-serif" font-size="10" text-anchor="middle" x="341.0" y="754.0">20 m²</text><polygon fill="#FFF3CD" points="626.0,968.0 854.0,968.0 854.0,626.0 626.0,626.0" stroke="#888" stroke-width="1" /><text fill="#333" font-family="Arial, sans-serif" font-size="12" text-anchor="middle" x="740.0" y="797.0">Kitchen (modular)</text><text fill="#666" font-family="Arial, sans-serif" font-size="10" text-anchor="middle" x="740.0" y="811.0">6 m²</text><polygon fill="#E0E0E0" points="854.0,968.0 968.0,968.0 968.0,626.0 854.0,626.0" stroke="#888" stroke-width="1" /><text fill="#333" font-family="Arial, sans-serif" font-size="12" text-anchor="middle" x="911.0" y="797.0">Utility Verandah</text><text fill="#666" font-family="Arial, sans-serif" font-size="10" text-anchor="middle" x="911.0" y="811.0">3 m²</text><polygon fill="#D4EDDA" points="626.0,626.0 854.0,626.0 854.0,398.0 626.0,398.0" stroke="#888" stroke-width="1" /><text fill="#333" font-family="Arial, sans-serif" font-size="12" text-anchor="middle" x="740.0" y="512.0">Common Bath</text><text fill="#666" font-family="Arial, sans-serif" font-size="10" text-anchor="middle" x="740.0" y="526.0">4 m²</text><polygon fill="#F5F5F5" points="854.0,626.0 968.0,626.0 968.0,398.0 854.0,398.0" stroke="#888" stroke-width="1" /><text fill="#333" font-family="Arial, sans-serif" font-size="12" text-anchor="middle" x="911.0" y="512.0">Hall</text><text fill="#666" font-family="Arial, sans-serif" font-size="10" text-anchor="middle" x="911.0" y="526.0">2 m²</text><polygon fill="#D5C8E0" points="56.0,512.0 512.0,512.0 512.0,170.0 56.0,170.0" stroke="#888" stroke-width="1" /><text fill="#333" font-family="Arial, sans-serif" font-size="12" text-anchor="middle" x="284.0" y="341.0">Master Bedroom</text><text fill="#666" font-family="Arial, sans-serif" font-size="10" text-anchor="middle" x="284.0" y="355.0">12 m²</text><polygon fill="#D4EDDA" points="512.0,512.0 626.0,512.0 626.0,170.0 512.0,170.0" stroke="#888" stroke-width="1" /><text fill="#333" font-family="Arial, sans-serif" font-size="12" text-anchor="middle" x="569.0" y="341.0">Master Bath</text><text fill="#666" font-family="Arial, sans-serif" font-size="10" text-anchor="middle" x="569.0" y="355.0">3 m²</text><polygon fill="#E2D5F0" points="626.0,398.0 968.0,398.0 968.0,56.0 626.0,56.0" stroke="#888" stroke-width="1" /><text fill="#333" font-family="Arial, sans-serif" font-size="12" text-anchor="middle" x="797.0" y="227.0">Bedroom 2</text><text fill="#666" font-family="Arial, sans-serif" font-size="10" text-anchor="middle" x="797.0" y="241.0">9 m²</text><polygon fill="#F8F9FA" points="56.0,170.0 626.0,170.0 626.0,56.0 56.0,56.0" stroke="#888" stroke-width="1" /><text fill="#333" font-family="Arial, sans-serif" font-size="12" text-anchor="middle" x="341.0" y="113.0">Balcony</text><text fill="#666" font-family="Arial, sans-serif" font-size="10" text-anchor="middle" x="341.0" y="127.0">5 m²</text><rect fill="#E66" height="8" stroke="#A00" stroke-width="1" width="8" x="109.0" y="964.0" /><rect fill="#E66" height="8" stroke="#A00" stroke-width="1" width="8" x="622.0" y="793.0" /><rect fill="#E66" height="8" stroke="#A00" stroke-width="1" width="8" x="850.0" y="793.0" /><rect fill="#E66" height="8" stroke="#A00" stroke-width="1" width="8" x="736.0" y="622.0" /><rect fill="#E66" height="8" stroke="#A00" stroke-width="1" width="8" x="850.0" y="508.0" /><rect fill="#E66" height="8" stroke="#A00" stroke-width="1" width="8" x="736.0" y="394.0" /><rect fill="#E66" height="8" stroke="#A00" stroke-width="1" width="8" x="280.0" y="508.0" /><rect fill="#E66" height="8" stroke="#A00" stroke-width="1" width="8" x="508.0" y="337.0" /><rect fill="#E66" height="8" stroke="#A00" stroke-width="1" width="8" x="280.0" y="166.0" /><rect fill="#E66" height="8" stroke="#A00" stroke-width="1" width="8" x="907.0" y="622.0" /><rect fill="#69E" height="6" stroke="#04A" stroke-width="1" width="12" x="335.0" y="965.0" /><rect fill="#69E" height="6" stroke="#04A" stroke-width="1" width="12" x="50.0" y="737.0" /><rect fill="#69E" height="6" stroke="#04A" stroke-width="1" width="12" x="734.0" y="965.0" /><rect fill="#69E" height="6" stroke="#04A" stroke-width="1" width="12" x="50.0" y="338.0" /><rect fill="#69E" height="6" stroke="#04A" stroke-width="1" width="12" x="791.0" y="53.0" /><rect fill="#69E" height="6" stroke="#04A" stroke-width="1" width="12" x="962.0" y="224.0" /><rect fill="#69E" height="6" stroke="#04A" stroke-width="1" width="12" x="335.0" y="53.0" /><rect fill="#69E" height="6" stroke="#04A" stroke-width="1" width="12" x="962.0" y="794.0" /><text fill="#444" font-family="Arial, sans-serif" font-size="12" x="40" y="24">in_2bhk_ahmedabad_utility_verandah</text></svg>