<?xml version="1.0" encoding="utf-8" ?>
<svg baseProfile="full" height="1024" version="1.1" viewBox="0 0 1024 1024" width="1024" xmlns="http://www.w3.org/2000/svg" xmlns:ev="http://www.w3.org/2001/xml-events" xmlns:xlink="http://www.w3.org/1999/xlink"><defs /><rect fill="#FAFAFA" height="1024" width="1024" x="0" y="0" /><polygon fill="white" points="56.0,968.0 968.0,968.0 968.0,56.0 56.0,56.0" stroke="#222" stroke-width="3" /><polygon fill="#D1ECF1" points="56.0,968.0 562.6666666666666,968.0 562.6666666666666,562.6666666666667 56.0,562.6666666666667" stroke="#888" stroke-width="1" /><text fill="#333" font-family="Arial, sans-serif" font-size="12" text-anchor="middle" x="309.3333333333333" y="765.3333333333334">Living/Dining</text><text fill="#666" font-family="Arial, sans-serif" font-size="10" text-anchor="middle" x="309.3333333333333" y="779.3333333333334">20 m²</text><polygon fill="#FFF3CD" points="562.6666666666666,968.0 866.6666666666666,968.0 866.6666666666666,664.0 562.6666666666666,664.0" stroke="#888" stroke-width="1" /><text fill="#333" font-family="Arial, sans-serif" font-size="12" text-anchor="middle" x="714.6666666666666" y="816.0">Kitchen</text><text fill="#666" font-family="Arial, sans-serif" font-size="10" text-anchor="middle" x="714.6666666666666" y="830.0">9 m²</text><polygon fill="#F8F9FA" points="866.6666666666666,968.0 968.0,968.0 968.0,664.0 866.6666666666666,664.0" stroke="#888" stroke-width="1" /><text fill="#333" font-family="Arial, sans-serif" font-size="12" text-anchor="middle" x="917.3333333333333" y="816.0">Service Balcony</text><text fill="#666" font-family="Arial, sans-serif" font-size="10" text-anchor="middle" x="917.3333333333333" y="830.0">3 m²</text><polygon fill="#D4EDDA" points="765.3333333333333,664.0 968.0,664.0 968.0,461.33333333333337 765.3333333333333,461.33333333333337" stroke="#888" stroke-width="1" /><text fill="#333" font-family="Arial, sans-serif" font-size="12" text-anchor="middle" x="866.6666666666666" y="562.6666666666667">Common Bath</text><text fill="#666" font-family="Arial, sans-serif" font-size="10" text-anchor="middle" x="866.6666666666666" y="576.6666666666667">4 m²</text><polygon fill="#F5F5F5" points="562.6666666666666,664.0 765.3333333333333,664.0 765.3333333333333,461.33333333333337 562.6666666666666,461.33333333333337" stroke="#888" stroke-width="1" /><text fill="#333" font-family="Arial, sans-serif" font-size="12" text-anchor="middle" x="664.0" y="562.6666666666667">Passage</text><text fill="#666" font-family="Arial, sans-serif" font-size="10" text-anchor="middle" x="664.0" y="576.6666666666667">4 m²</text><polygon fill="#D5C8E0" points="56.0,562.6666666666667 461.3333333333333,562.6666666666667 461.3333333333333,258.66666666666674 56.0,258.66666666666674" stroke="#888" stroke-width="1" /><text fill="#333" font-family="Arial, sans-serif" font-size="12" text-anchor="middle" x="258.66666666666663" y="410.66666666666674">Master Bedroom</text><text fill="#666" font-family="Arial, sans-serif" font-size="10" text-anchor="middle" x="258.66666666666663" y="424.66666666666674">12 m²</text><polygon fill="#D4EDDA" points="461.3333333333333,562.6666666666667 562.6666666666666,562.6666666666667 562.6666666666666,258.66666666666674 461.3333333333333,258.66666666666674" stroke="#888" stroke-width="1" /><text fill="#333" font-family="Arial, sans-serif" font-size="12" text-anchor="middle" x="512.0" y="410.66666666666674">Master Bath</text><text fill="#666" font-family="Arial, sans-serif" font-size="10" text-anchor="middle" x="512.0" y="424.66666666666674">3 m²</text><polygon fill="#E2D5F0" points="562.6666666666666,461.33333333333337 968.0,461.33333333333337 968.0,157.33333333333337 562.6666666666666,157.33333333333337" stroke="#888" stroke-width="1" /><text fill="#333" font-family="Arial, sans-serif" font-size="12" text-anchor="middle" x="765.3333333333333" y="309.33333333333337">Bedroom 2</text><text fill="#666" font-family="Arial, sans-serif" font-size="10" text-anchor="middle" x="765.3333333333333" y="323.33333333333337">12 m²</text><polygon fill="#F8F9FA" points="56.0,258.66666666666674 562.6666666666666,258.66666666666674 562.6666666666666,56.0 56.0,56.0" stroke="#888" stroke-width="1" /><text fill="#333" font-family="Arial, sans-serif" font-size="12" text-anchor="middle" x="309.3333333333333" y="157.33333333333337">Verandah</text><text fill="#666" font-family="Arial, sans-serif" font-size="10" text-anchor="middle" x="309.3333333333333" y="171.33333333333337">10 m²</text><polygon fill="#F8F9FA" points="562.6666666666666,157.33333333333337 968.0,157.33333333333337 968.0,56.0 562.6666666666666,56.0" stroke="#888" stroke-width="1" /><text fill="#333" font-family="Arial, sans-serif" font-size="12" text-anchor="middle" x="765.3333333333333" y="106.66666666666669">Bedroom Balcony</text><text fill="#666" font-family="Arial, sans-serif" font-size="10" text-anchor="middle" x="765.3333333333333" y="120.66666666666669">4 m²</text><rect fill="#E66" height="8" stroke="#A00" stroke-width="1" width="8" x="102.66666666666666" y="964.0" /><rect fill="#E66" height="8" stroke="#A00" stroke-width="1" width="8" x="558.6666666666666" y="812.0" /><rect fill="#E66" height="8" stroke="#A00" stroke-width="1" width="8" x="862.6666666666666" y="812.0" /><rect fill="#E66" height="8" stroke="#A00" stroke-width="1" width="8" x="660.0" y="660.0" /><rect fill="#E66" height="8" stroke="#A00" stroke-width="1" width="8" x="761.3333333333333" y="558.6666666666667" /><rect fill="#E66" height="8" stroke="#A00" stroke-width="1" width="8" x="660.0" y="457.33333333333337" /><rect fill="#E66" height="8" stroke="#A00" stroke-width="1" width="8" x="254.66666666666663" y="558.6666666666667" /><rect fill="#E66" height="8" stroke="#A00" stroke-width="1" width="8" x="457.3333333333333" y="406.66666666666674" /><rect fill="#E66" height="8" stroke="#A00" stroke-width="1" width="8" x="254.66666666666663" y="254.66666666666674" /><rect fill="#E66" height="8" stroke="#A00" stroke-width="1" width="8" x="761.3333333333333" y="153.33333333333337" /><rect fill="#69E" height="6" stroke="#04A" stroke-width="1" width="12" x="303.3333333333333" y="965.0" /><rect fill="#69E" height="6" stroke="#04A" stroke-width="1" width="12" x="50.0" y="762.3333333333334" /><rect fill="#69E" height="6" stroke="#04A" stroke-width="1" width="12" x="708.6666666666666" y="965.0" /><rect fill="#69E" height="6" stroke="#04A" stroke-width="1" width="12" x="50.0" y="407.66666666666674" /><rect fill="#69E" height="6" stroke="#04A" stroke-width="1" width="12" x="962.0" y="306.33333333333337" /><rect fill="#69E" height="6" stroke="#04A" stroke-width="1" width="12" x="303.3333333333333" y="53.0" /><rect fill="#69E" height="6" stroke="#04A" stroke-width="1" width="12" x="759.3333333333333" y="53.0" /><rect fill="#69E" height="6" stroke="#04A" stroke-width="1" width="12" x="962.0" y="813.0" /><text fill="#444" font-family="Arial, sans-serif" font-size="12" x="40" y="24">in_2bhk_kolkata_salt_lake</text></svg>