<?xml version="1.0" encoding="utf-8" ?>
<svg baseProfile="full" height="1024" version="1.1" viewBox="0 0 1024 1024" width="1024" xmlns="http://www.w3.org/2000/svg" xmlns:ev="http://www.w3.org/2001/xml-events" xmlns:xlink="http://www.w3.org/1999/xlink"><defs /><rect fill="#FAFAFA" height="1024" width="1024" x="0" y="0" /><polygon fill="white" points="56.0,968.0 968.0,968.0 968.0,56.0 56.0,56.0" stroke="#222" stroke-width="3" /><polygon fill="#F5F5F5" points="56.0,968.0 238.4,968.0 238.4,785.6 56.0,785.6" stroke="#888" stroke-width="1" /><text fill="#333" font-family="Arial, sans-serif" font-size="12" text-anchor="middle" x="147.2" y="876.8">Foyer</text><text fill="#666" font-family="Arial, sans-serif" font-size="10" text-anchor="middle" x="147.2" y="890.8">4 m²</text><polygon fill="#D1ECF1" points="238.4,968.0 694.4,968.0 694.4,512.0 238.4,512.0" stroke="#888" stroke-width="1" /><text fill="#333" font-family="Arial, sans-serif" font-size="12" text-anchor="middle" x="466.4" y="740.0">Hall (Living)</text><text fill="#666" font-family="Arial, sans-serif" font-size="10" text-anchor="middle" x="466.4" y="754.0">25 m²</text><polygon fill="#FFF3CD" points="694.4,968.0 968.0,968.0 968.0,694.4 694.4,694.4" stroke="#888" stroke-width="1" /><text fill="#333" font-family="Arial, sans-serif" font-size="12" text-anchor="middle" x="831.2" y="831.2">Kitchen</text><text fill="#666" font-family="Arial, sans-serif" font-size="10" text-anchor="middle" x="831.2" y="845.2">9 m²</text><polygon fill="#FFE5B4" points="694.4,694.4 831.2,694.4 831.2,557.5999999999999 694.4,557.5999999999999" stroke="#888" stroke-width="1" /><text fill="#333" font-family="Arial, sans-serif" font-size="12" text-anchor="middle" x="762.8" y="626.0">Pooja Room (NE)</text><text fill="#666" font-family="Arial, sans-serif" font-size="10" text-anchor="middle" x="762.8" y="640.0">2.25 m²</text><polygon fill="#E0E0E0" points="831.2,694.4 968.0,694.4 968.0,512.0 831.2,512.0" stroke="#888" stroke-width="1" /><text fill="#333" font-family="Arial, sans-serif" font-size="12" text-anchor="middle" x="899.6" y="603.2">Utility</text><text fill="#666" font-family="Arial, sans-serif" font-size="10" text-anchor="middle" x="899.6" y="617.2">3 m²</text><polygon fill="#F5F5F5" points="56.0,785.6 238.4,785.6 238.4,512.0 56.0,512.0" stroke="#888" stroke-width="1" /><text fill="#333" font-family="Arial, sans-serif" font-size="12" text-anchor="middle" x="147.2" y="648.8">Foyer ext</text><text fill="#666" font-family="Arial, sans-serif" font-size="10" text-anchor="middle" x="147.2" y="662.8">6 m²</text><polygon fill="#D4EDDA" points="694.4,557.5999999999999 831.2,557.5999999999999 831.2,329.6 694.4,329.6" stroke="#888" stroke-width="1" /><text fill="#333" font-family="Arial, sans-serif" font-size="12" text-anchor="middle" x="762.8" y="443.59999999999997">Common Bath</text><text fill="#666" font-family="Arial, sans-serif" font-size="10" text-anchor="middle" x="762.8" y="457.59999999999997">3.75 m²</text><polygon fill="#EEE" points="831.2,512.0 968.0,512.0 968.0,329.6 831.2,329.6" stroke="#888" stroke-width="1" /><text fill="#333" font-family="Arial, sans-serif" font-size="12" text-anchor="middle" x="899.6" y="420.8">Storage</text><text fill="#666" font-family="Arial, sans-serif" font-size="10" text-anchor="middle" x="899.6" y="434.8">3 m²</text><polygon fill="#D5C8E0" points="56.0,512.0 512.0,512.0 512.0,238.39999999999998 56.0,238.39999999999998" stroke="#888" stroke-width="1" /><text fill="#333" font-family="Arial, sans-serif" font-size="12" text-anchor="middle" x="284.0" y="375.2">Master Bedroom</text><text fill="#666" font-family="Arial, sans-serif" font-size="10" text-anchor="middle" x="284.0" y="389.2">15 m²</text><polygon fill="#D4EDDA" points="512.0,512.0 694.4,512.0 694.4,329.6 512.0,329.6" stroke="#888" stroke-width="1" /><text fill="#333" font-family="Arial, sans-serif" font-size="12" text-anchor="middle" x="603.2" y="420.8">Master Bath</text><text fill="#666" font-family="Arial, sans-serif" font-size="10" text-anchor="middle" x="603.2" y="434.8">4 m²</text><polygon fill="#E2D5F0" points="512.0,329.6 831.2,329.6 831.2,56.0 512.0,56.0" stroke="#888" stroke-width="1" /><text fill="#333" font-family="Arial, sans-serif" font-size="12" text-anchor="middle" x="671.6" y="192.8">Bedroom 2</text><text fill="#666" font-family="Arial, sans-serif" font-size="10" text-anchor="middle" x="671.6" y="206.8">10.5 m²</text><polygon fill="#F8F9FA" points="56.0,238.39999999999998 512.0,238.39999999999998 512.0,56.0 56.0,56.0" stroke="#888" stroke-width="1" /><text fill="#333" font-family="Arial, sans-serif" font-size="12" text-anchor="middle" x="284.0" y="147.2">Balcony</text><text fill="#666" font-family="Arial, sans-serif" font-size="10" text-anchor="middle" x="284.0" y="161.2">10 m²</text><polygon fill="#F8F9FA" points="831.2,329.6 968.0,329.6 968.0,56.0 831.2,56.0" stroke="#888" stroke-width="1" /><text fill="#333" font-family="Arial, sans-serif" font-size="12" text-anchor="middle" x="899.6" y="192.8">Bedroom Balcony</text><text fill="#666" font-family="Arial, sans-serif" font-size="10" text-anchor="middle" x="899.6" y="206.8">4.5 m²</text><rect fill="#E66" height="8" stroke="#A00" stroke-width="1" width="8" x="97.6" y="964.0" /><rect fill="#E66" height="8" stroke="#A00" stroke-width="1" width="8" x="234.4" y="872.8" /><rect fill="#E66" height="8" stroke="#A00" stroke-width="1" width="8" x="143.2" y="781.6" /><rect fill="#E66" height="8" stroke="#A00" stroke-width="1" width="8" x="143.2" y="508.0" /><rect fill="#E66" height="8" stroke="#A00" stroke-width="1" width="8" x="690.4" y="827.2" /><rect fill="#E66" height="8" stroke="#A00" stroke-width="1" width="8" x="758.8000000000001" y="690.4" /><rect fill="#E66" height="8" stroke="#A00" stroke-width="1" width="8" x="895.6" y="690.4" /><rect fill="#E66" height="8" stroke="#A00" stroke-width="1" width="8" x="758.8000000000001" y="553.5999999999999" /><rect fill="#E66" height="8" stroke="#A00" stroke-width="1" width="8" x="895.6" y="508.0" /><rect fill="#E66" height="8" stroke="#A00" stroke-width="1" width="8" x="371.2" y="508.0" /><rect fill="#E66" height="8" stroke="#A00" stroke-width="1" width="8" x="599.2" y="508.0" /><rect fill="#E66" height="8" stroke="#A00" stroke-width="1" width="8" x="508.0" y="416.79999999999995" /><rect fill="#E66" height="8" stroke="#A00" stroke-width="1" width="8" x="758.8000000000001" y="325.6" /><rect fill="#E66" height="8" stroke="#A00" stroke-width="1" width="8" x="895.6" y="325.6" /><rect fill="#E66" height="8" stroke="#A00" stroke-width="1" width="8" x="280.0" y="234.39999999999998" /><rect fill="#E66" height="8" stroke="#A00" stroke-width="1" width="8" x="827.2" y="188.79999999999995" /><rect fill="#69E" height="6" stroke="#04A" stroke-width="1" width="12" x="460.40000000000003" y="965.0" /><rect fill="#69E" height="6" stroke="#04A" stroke-width="1" width="12" x="825.2" y="965.0" /><rect fill="#69E" height="6" stroke="#04A" stroke-width="1" width="12" x="50.0" y="372.19999999999993" /><rect fill="#69E" height="6" stroke="#04A" stroke-width="1" width="12" x="665.6" y="53.0" /><rect fill="#69E" height="6" stroke="#04A" stroke-width="1" width="12" x="278.0" y="53.0" /><rect fill="#69E" height="6" stroke="#04A" stroke-width="1" width="12" x="962.0" y="189.79999999999995" /><rect fill="#69E" height="6" stroke="#04A" stroke-width="1" width="12" x="962.0" y="417.79999999999995" /><text fill="#444" font-family="Arial, sans-serif" font-size="12" x="40" y="24">in_2bhk_chennai_tnagar_pooja</text></svg>