<?xml version="1.0" encoding="utf-8" ?>
<svg baseProfile="full" height="1024" version="1.1" viewBox="0 0 1024 1024" width="1024" xmlns="http://www.w3.org/2000/svg" xmlns:ev="http://www.w3.org/2001/xml-events" xmlns:xlink="http://www.w3.org/1999/xlink"><defs /><rect fill="#FAFAFA" height="1024" width="1024" x="0" y="0" /><polygon fill="white" points="56.0,892.0 968.0,892.0 968.0,132.0 56.0,132.0" stroke="#222" stroke-width="3" /><polygon fill="#D1ECF1" points="56.0,892.0 436.0,892.0 436.0,512.0 56.0,512.0" stroke="#888" stroke-width="1" /><text fill="#333" font-family="Arial, sans-serif" font-size="12" text-anchor="middle" x="246.0" y="702.0">Living (NE)</text><text fill="#666" font-family="Arial, sans-serif" font-size="10" text-anchor="middle" x="246.0" y="716.0">25 m²</text><polygon fill="#FFE5E5" points="436.0,892.0 664.0,892.0 664.0,588.0 436.0,588.0" stroke="#888" stroke-width="1" /><text fill="#333" font-family="Arial, sans-serif" font-size="12" text-anchor="middle" x="550.0" y="740.0">Dining</text><text fill="#666" font-family="Arial, sans-serif" font-size="10" text-anchor="middle" x="550.0" y="754.0">12 m²</text><polygon fill="#FFF3CD" points="664.0,892.0 892.0,892.0 892.0,664.0 664.0,664.0" stroke="#888" stroke-width="1" /><text fill="#333" font-family="Arial, sans-serif" font-size="12" text-anchor="middle" x="778.0" y="778.0">Kitchen (SE)</text><text fill="#666" font-family="Arial, sans-serif" font-size="10" text-anchor="middle" x="778.0" y="792.0">9 m²</text><polygon fill="#FFE5B4" points="892.0,892.0 968.0,892.0 968.0,740.0 892.0,740.0" stroke="#888" stroke-width="1" /><text fill="#333" font-family="Arial, sans-serif" font-size="12" text-anchor="middle" x="930.0" y="816.0">Pooja Room (NE corner)</text><text fill="#666" font-family="Arial, sans-serif" font-size="10" text-anchor="middle" x="930.0" y="830.0">2 m²</text><polygon fill="#EEE" points="892.0,740.0 968.0,740.0 968.0,588.0 892.0,588.0" stroke="#888" stroke-width="1" /><text fill="#333" font-family="Arial, sans-serif" font-size="12" text-anchor="middle" x="930.0" y="664.0">Storage</text><text fill="#666" font-family="Arial, sans-serif" font-size="10" text-anchor="middle" x="930.0" y="678.0">2 m²</text><polygon fill="#E0E0E0" points="664.0,664.0 892.0,664.0 892.0,588.0 664.0,588.0" stroke="#888" stroke-width="1" /><text fill="#333" font-family="Arial, sans-serif" font-size="12" text-anchor="middle" x="778.0" y="626.0">Utility</text><text fill="#666" font-family="Arial, sans-serif" font-size="10" text-anchor="middle" x="778.0" y="640.0">3 m²</text><polygon fill="#F5F5F5" points="436.0,588.0 968.0,588.0 968.0,512.0 436.0,512.0" stroke="#888" stroke-width="1" /><text fill="#333" font-family="Arial, sans-serif" font-size="12" text-anchor="middle" x="702.0" y="550.0">Hallway</text><text fill="#666" font-family="Arial, sans-serif" font-size="10" text-anchor="middle" x="702.0" y="564.0">7 m²</text><polygon fill="#D5C8E0" points="56.0,512.0 360.0,512.0 360.0,208.0 56.0,208.0" stroke="#888" stroke-width="1" /><text fill="#333" font-family="Arial, sans-serif" font-size="12" text-anchor="middle" x="208.0" y="360.0">Master (SW)</text><text fill="#666" font-family="Arial, sans-serif" font-size="10" text-anchor="middle" x="208.0" y="374.0">16 m²</text><polygon fill="#D4EDDA" points="360.0,512.0 512.0,512.0 512.0,360.0 360.0,360.0" stroke="#888" stroke-width="1" /><text fill="#333" font-family="Arial, sans-serif" font-size="12" text-anchor="middle" x="436.0" y="436.0">Master Bath</text><text fill="#666" font-family="Arial, sans-serif" font-size="10" text-anchor="middle" x="436.0" y="450.0">4 m²</text><polygon fill="#E2D5F0" points="512.0,512.0 816.0,512.0 816.0,284.0 512.0,284.0" stroke="#888" stroke-width="1" /><text fill="#333" font-family="Arial, sans-serif" font-size="12" text-anchor="middle" x="664.0" y="398.0">Bedroom 2 (NW)</text><text fill="#666" font-family="Arial, sans-serif" font-size="10" text-anchor="middle" x="664.0" y="412.0">12 m²</text><polygon fill="#D4EDDA" points="816.0,512.0 968.0,512.0 968.0,360.0 816.0,360.0" stroke="#888" stroke-width="1" /><text fill="#333" font-family="Arial, sans-serif" font-size="12" text-anchor="middle" x="892.0" y="436.0">Bath 2</text><text fill="#666" font-family="Arial, sans-serif" font-size="10" text-anchor="middle" x="892.0" y="450.0">4 m²</text><polygon fill="#D4EDDA" points="816.0,360.0 968.0,360.0 968.0,208.0 816.0,208.0" stroke="#888" stroke-width="1" /><text fill="#333" font-family="Arial, sans-serif" font-size="12" text-anchor="middle" x="892.0" y="284.0">Bath 3</text><text fill="#666" font-family="Arial, sans-serif" font-size="10" text-anchor="middle" x="892.0" y="298.0">4 m²</text><polygon fill="#E2D5F0" points="512.0,284.0 816.0,284.0 816.0,132.0 512.0,132.0" stroke="#888" stroke-width="1" /><text fill="#333" font-family="Arial, sans-serif" font-size="12" text-anchor="middle" x="664.0" y="208.0">Bedroom 3</text><text fill="#666" font-family="Arial, sans-serif" font-size="10" text-anchor="middle" x="664.0" y="222.0">8 m²</text><polygon fill="#F8F9FA" points="56.0,208.0 512.0,208.0 512.0,132.0 56.0,132.0" stroke="#888" stroke-width="1" /><text fill="#333" font-family="Arial, sans-serif" font-size="12" text-anchor="middle" x="284.0" y="170.0">Balcony</text><text fill="#666" font-family="Arial, sans-serif" font-size="10" text-anchor="middle" x="284.0" y="184.0">6 m²</text><polygon fill="#F8F9FA" points="816.0,208.0 968.0,208.0 968.0,132.0 816.0,132.0" stroke="#888" stroke-width="1" /><text fill="#333" font-family="Arial, sans-serif" font-size="12" text-anchor="middle" x="892.0" y="170.0">Bedroom Balcony</text><text fill="#666" font-family="Arial, sans-serif" font-size="10" text-anchor="middle" x="892.0" y="184.0">2 m²</text><polygon fill="#F5F5F5" points="360.0,360.0 512.0,360.0 512.0,284.0 360.0,284.0" stroke="#888" stroke-width="1" /><text fill="#333" font-family="Arial, sans-serif" font-size="12" text-anchor="middle" x="436.0" y="322.0">Bath passage</text><text fill="#666" font-family="Arial, sans-serif" font-size="10" text-anchor="middle" x="436.0" y="336.0">2 m²</text><polygon fill="#EEE" points="360.0,284.0 512.0,284.0 512.0,208.0 360.0,208.0" stroke="#888" stroke-width="1" /><text fill="#333" font-family="Arial, sans-serif" font-size="12" text-anchor="middle" x="436.0" y="246.0">Back Storage</text><text fill="#666" font-family="Arial, sans-serif" font-size="10" text-anchor="middle" x="436.0" y="260.0">2 m²</text><rect fill="#E66" height="8" stroke="#A00" stroke-width="1" width="8" x="90.0" y="888.0" /><rect fill="#E66" height="8" stroke="#A00" stroke-width="1" width="8" x="432.0" y="698.0" /><rect fill="#E66" height="8" stroke="#A00" stroke-width="1" width="8" x="660.0" y="736.0" /><rect fill="#E66" height="8" stroke="#A00" stroke-width="1" width="8" x="888.0" y="812.0" /><rect fill="#E66" height="8" stroke="#A00" stroke-width="1" width="8" x="774.0" y="660.0" /><rect fill="#E66" height="8" stroke="#A00" stroke-width="1" width="8" x="926.0" y="736.0" /><rect fill="#E66" height="8" stroke="#A00" stroke-width="1" width="8" x="888.0" y="622.0" /><rect fill="#E66" height="8" stroke="#A00" stroke-width="1" width="8" x="546.0" y="584.0" /><rect fill="#E66" height="8" stroke="#A00" stroke-width="1" width="8" x="774.0" y="584.0" /><rect fill="#E66" height="8" stroke="#A00" stroke-width="1" width="8" x="204.0" y="508.0" /><rect fill="#E66" height="8" stroke="#A00" stroke-width="1" width="8" x="356.0" y="432.0" /><rect fill="#E66" height="8" stroke="#A00" stroke-width="1" width="8" x="660.0" y="508.0" /><rect fill="#E66" height="8" stroke="#A00" stroke-width="1" width="8" x="812.0" y="432.0" /><rect fill="#E66" height="8" stroke="#A00" stroke-width="1" width="8" x="660.0" y="280.0" /><rect fill="#E66" height="8" stroke="#A00" stroke-width="1" width="8" x="812.0" y="280.0" /><rect fill="#E66" height="8" stroke="#A00" stroke-width="1" width="8" x="888.0" y="356.0" /><rect fill="#E66" height="8" stroke="#A00" stroke-width="1" width="8" x="204.0" y="204.0" /><rect fill="#E66" height="8" stroke="#A00" stroke-width="1" width="8" x="812.0" y="204.0" /><rect fill="#E66" height="8" stroke="#A00" stroke-width="1" width="8" x="432.0" y="356.0" /><rect fill="#E66" height="8" stroke="#A00" stroke-width="1" width="8" x="432.0" y="280.0" /><rect fill="#E66" height="8" stroke="#A00" stroke-width="1" width="8" x="432.0" y="204.0" /><rect fill="#69E" height="6" stroke="#04A" stroke-width="1" width="12" x="240.0" y="889.0" /><rect fill="#69E" height="6" stroke="#04A" stroke-width="1" width="12" x="50.0" y="699.0" /><rect fill="#69E" height="6" stroke="#04A" stroke-width="1" width="12" x="544.0" y="889.0" /><rect fill="#69E" height="6" stroke="#04A" stroke-width="1" width="12" x="772.0" y="889.0" /><rect fill="#69E" height="6" stroke="#04A" stroke-width="1" width="12" x="50.0" y="357.0" /><rect fill="#69E" height="6" stroke="#04A" stroke-width="1" width="12" x="658.0" y="281.0" /><rect fill="#69E" height="6" stroke="#04A" stroke-width="1" width="12" x="810.0" y="395.0" /><rect fill="#69E" height="6" stroke="#04A" stroke-width="1" width="12" x="658.0" y="129.0" /><rect fill="#69E" height="6" stroke="#04A" stroke-width="1" width="12" x="278.0" y="129.0" /><rect fill="#69E" height="6" stroke="#04A" stroke-width="1" width="12" x="886.0" y="129.0" /><rect fill="#69E" height="6" stroke="#04A" stroke-width="1" width="12" x="962.0" y="433.0" /><text fill="#444" font-family="Arial, sans-serif" font-size="12" x="40" y="24">in_3bhk_chennai_vastu</text></svg>