<?xml version="1.0" encoding="utf-8" ?>
<svg baseProfile="full" height="1024" version="1.1" viewBox="0 0 1024 1024" width="1024" xmlns="http://www.w3.org/2000/svg" xmlns:ev="http://www.w3.org/2001/xml-events" xmlns:xlink="http://www.w3.org/1999/xlink"><defs /><rect fill="#FAFAFA" height="1024" width="1024" x="0" y="0" /><polygon fill="white" points="55.99999999999994,932.9230769230769 968.0,932.9230769230769 968.0,91.07692307692298 55.99999999999994,91.07692307692298" stroke="#222" stroke-width="3" /><polygon fill="#F5F5F5" points="55.99999999999994,932.9230769230769 196.30769230769226,932.9230769230769 196.30769230769226,792.6153846153845 55.99999999999994,792.6153846153845" stroke="#888" stroke-width="1" /><text fill="#333" font-family="Arial, sans-serif" font-size="12" text-anchor="middle" x="126.1538461538461" y="862.7692307692307">Foyer</text><text fill="#666" font-family="Arial, sans-serif" font-size="10" text-anchor="middle" x="126.1538461538461" y="876.7692307692307">4 m²</text><polygon fill="#D1ECF1" points="196.30769230769226,932.9230769230769 617.2307692307693,932.9230769230769 617.2307692307693,582.1538461538461 196.30769230769226,582.1538461538461" stroke="#888" stroke-width="1" /><text fill="#333" font-family="Arial, sans-serif" font-size="12" text-anchor="middle" x="406.7692307692308" y="757.5384615384614">Living</text><text fill="#666" font-family="Arial, sans-serif" font-size="10" text-anchor="middle" x="406.7692307692308" y="771.5384615384614">30 m²</text><polygon fill="#FFE5E5" points="617.2307692307693,932.9230769230769 897.8461538461538,932.9230769230769 897.8461538461538,652.3076923076923 617.2307692307693,652.3076923076923" stroke="#888" stroke-width="1" /><text fill="#333" font-family="Arial, sans-serif" font-size="12" text-anchor="middle" x="757.5384615384615" y="792.6153846153845">Dining</text><text fill="#666" font-family="Arial, sans-serif" font-size="10" text-anchor="middle" x="757.5384615384615" y="806.6153846153845">16 m²</text><polygon fill="#FFF3CD" points="897.8461538461538,932.9230769230769 968.0,932.9230769230769 968.0,652.3076923076923 897.8461538461538,652.3076923076923" stroke="#888" stroke-width="1" /><text fill="#333" font-family="Arial, sans-serif" font-size="12" text-anchor="middle" x="932.9230769230769" y="792.6153846153845">Kitchen</text><text fill="#666" font-family="Arial, sans-serif" font-size="10" text-anchor="middle" x="932.9230769230769" y="806.6153846153845">4 m²</text><polygon fill="#F5F5F5" points="55.99999999999994,792.6153846153845 196.30769230769226,792.6153846153845 196.30769230769226,582.1538461538461 55.99999999999994,582.1538461538461" stroke="#888" stroke-width="1" /><text fill="#333" font-family="Arial, sans-serif" font-size="12" text-anchor="middle" x="126.1538461538461" y="687.3846153846152">Foyer ext</text><text fill="#666" font-family="Arial, sans-serif" font-size="10" text-anchor="middle" x="126.1538461538461" y="701.3846153846152">6 m²</text><polygon fill="#FFF3CD" points="617.2307692307693,652.3076923076923 897.8461538461538,652.3076923076923 897.8461538461538,511.99999999999994 617.2307692307693,511.99999999999994" stroke="#888" stroke-width="1" /><text fill="#333" font-family="Arial, sans-serif" font-size="12" text-anchor="middle" x="757.5384615384615" y="582.1538461538461">Kitchen Main</text><text fill="#666" font-family="Arial, sans-serif" font-size="10" text-anchor="middle" x="757.5384615384615" y="596.1538461538461">8 m²</text><polygon fill="#E0E0E0" points="897.8461538461538,652.3076923076923 968.0,652.3076923076923 968.0,511.99999999999994 897.8461538461538,511.99999999999994" stroke="#888" stroke-width="1" /><text fill="#333" font-family="Arial, sans-serif" font-size="12" text-anchor="middle" x="932.9230769230769" y="582.1538461538461">Utility</text><text fill="#666" font-family="Arial, sans-serif" font-size="10" text-anchor="middle" x="932.9230769230769" y="596.1538461538461">2 m²</text><polygon fill="#D5C8E0" points="55.99999999999994,582.1538461538461 406.7692307692308,582.1538461538461 406.7692307692308,301.53846153846143 55.99999999999994,301.53846153846143" stroke="#888" stroke-width="1" /><text fill="#333" font-family="Arial, sans-serif" font-size="12" text-anchor="middle" x="231.38461538461536" y="441.84615384615375">Master Bedroom</text><text fill="#666" font-family="Arial, sans-serif" font-size="10" text-anchor="middle" x="231.38461538461536" y="455.84615384615375">20 m²</text><polygon fill="#D4EDDA" points="406.7692307692308,582.1538461538461 617.2307692307693,582.1538461538461 617.2307692307693,371.6923076923076 406.7692307692308,371.6923076923076" stroke="#888" stroke-width="1" /><text fill="#333" font-family="Arial, sans-serif" font-size="12" text-anchor="middle" x="512.0" y="476.92307692307685">Master Bath</text><text fill="#666" font-family="Arial, sans-serif" font-size="10" text-anchor="middle" x="512.0" y="490.92307692307685">9 m²</text><polygon fill="#F5F5F5" points="406.7692307692308,371.6923076923076 617.2307692307693,371.6923076923076 617.2307692307693,301.53846153846143 406.7692307692308,301.53846153846143" stroke="#888" stroke-width="1" /><text fill="#333" font-family="Arial, sans-serif" font-size="12" text-anchor="middle" x="512.0" y="336.6153846153845">Hallway</text><text fill="#666" font-family="Arial, sans-serif" font-size="10" text-anchor="middle" x="512.0" y="350.6153846153845">3 m²</text><polygon fill="#E2D5F0" points="617.2307692307693,511.99999999999994 897.8461538461538,511.99999999999994 897.8461538461538,301.53846153846143 617.2307692307693,301.53846153846143" stroke="#888" stroke-width="1" /><text fill="#333" font-family="Arial, sans-serif" font-size="12" text-anchor="middle" x="757.5384615384615" y="406.7692307692307">Bedroom 2</text><text fill="#666" font-family="Arial, sans-serif" font-size="10" text-anchor="middle" x="757.5384615384615" y="420.7692307692307">12 m²</text><polygon fill="#D4EDDA" points="897.8461538461538,511.99999999999994 968.0,511.99999999999994 968.0,301.53846153846143 897.8461538461538,301.53846153846143" stroke="#888" stroke-width="1" /><text fill="#333" font-family="Arial, sans-serif" font-size="12" text-anchor="middle" x="932.9230769230769" y="406.7692307692307">Bath 2</text><text fill="#666" font-family="Arial, sans-serif" font-size="10" text-anchor="middle" x="932.9230769230769" y="420.7692307692307">3 m²</text><polygon fill="#E2D5F0" points="55.99999999999994,301.53846153846143 336.6153846153846,301.53846153846143 336.6153846153846,91.07692307692298 55.99999999999994,91.07692307692298" stroke="#888" stroke-width="1" /><text fill="#333" font-family="Arial, sans-serif" font-size="12" text-anchor="middle" x="196.30769230769226" y="196.3076923076922">Bedroom 3</text><text fill="#666" font-family="Arial, sans-serif" font-size="10" text-anchor="middle" x="196.30769230769226" y="210.3076923076922">12 m²</text><polygon fill="#D4EDDA" points="336.6153846153846,301.53846153846143 476.9230769230769,301.53846153846143 476.9230769230769,161.23076923076917 336.6153846153846,161.23076923076917" stroke="#888" stroke-width="1" /><text fill="#333" font-family="Arial, sans-serif" font-size="12" text-anchor="middle" x="406.7692307692307" y="231.3846153846153">Bath 3</text><text fill="#666" font-family="Arial, sans-serif" font-size="10" text-anchor="middle" x="406.7692307692307" y="245.3846153846153">4 m²</text><polygon fill="#E2D5F0" points="476.9230769230769,301.53846153846143 687.3846153846155,301.53846153846143 687.3846153846155,161.23076923076917 476.9230769230769,161.23076923076917" stroke="#888" stroke-width="1" /><text fill="#333" font-family="Arial, sans-serif" font-size="12" text-anchor="middle" x="582.1538461538462" y="231.3846153846153">Servant Room</text><text fill="#666" font-family="Arial, sans-serif" font-size="10" text-anchor="middle" x="582.1538461538462" y="245.3846153846153">6 m²</text><polygon fill="#D4EDDA" points="476.9230769230769,161.23076923076917 617.2307692307693,161.23076923076917 617.2307692307693,91.07692307692298 476.9230769230769,91.07692307692298" stroke="#888" stroke-width="1" /><text fill="#333" font-family="Arial, sans-serif" font-size="12" text-anchor="middle" x="547.0769230769231" y="126.15384615384608">Servant WC</text><text fill="#666" font-family="Arial, sans-serif" font-size="10" text-anchor="middle" x="547.0769230769231" y="140.15384615384608">2 m²</text><polygon fill="#F8F9FA" points="687.3846153846155,301.53846153846143 968.0,301.53846153846143 968.0,91.07692307692298 687.3846153846155,91.07692307692298" stroke="#888" stroke-width="1" /><text fill="#333" font-family="Arial, sans-serif" font-size="12" text-anchor="middle" x="827.6923076923077" y="196.3076923076922">Main Balcony</text><text fill="#666" font-family="Arial, sans-serif" font-size="10" text-anchor="middle" x="827.6923076923077" y="210.3076923076922">12 m²</text><polygon fill="#F8F9FA" points="336.6153846153846,161.23076923076917 476.9230769230769,161.23076923076917 476.9230769230769,91.07692307692298 336.6153846153846,91.07692307692298" stroke="#888" stroke-width="1" /><text fill="#333" font-family="Arial, sans-serif" font-size="12" text-anchor="middle" x="406.7692307692307" y="126.15384615384608">Bedroom Balcony</text><text fill="#666" font-family="Arial, sans-serif" font-size="10" text-anchor="middle" x="406.7692307692307" y="140.15384615384608">2 m²</text><polygon fill="#EEE" points="617.2307692307693,161.23076923076917 687.3846153846155,161.23076923076917 687.3846153846155,91.07692307692298 617.2307692307693,91.07692307692298" stroke="#888" stroke-width="1" /><text fill="#333" font-family="Arial, sans-serif" font-size="12" text-anchor="middle" x="652.3076923076924" y="126.15384615384608">Back Storage</text><text fill="#666" font-family="Arial, sans-serif" font-size="10" text-anchor="middle" x="652.3076923076924" y="140.15384615384608">1 m²</text><rect fill="#E66" height="8" stroke="#A00" stroke-width="1" width="8" x="87.07692307692302" y="928.9230769230769" /><rect fill="#E66" height="8" stroke="#A00" stroke-width="1" width="8" x="192.30769230769226" y="858.7692307692307" /><rect fill="#E66" height="8" stroke="#A00" stroke-width="1" width="8" x="122.1538461538461" y="788.6153846153845" /><rect fill="#E66" height="8" stroke="#A00" stroke-width="1" width="8" x="122.1538461538461" y="578.1538461538461" /><rect fill="#E66" height="8" stroke="#A00" stroke-width="1" width="8" x="613.2307692307693" y="753.5384615384614" /><rect fill="#E66" height="8" stroke="#A00" stroke-width="1" width="8" x="893.8461538461538" y="788.6153846153845" /><rect fill="#E66" height="8" stroke="#A00" stroke-width="1" width="8" x="753.5384615384617" y="648.3076923076923" /><rect fill="#E66" height="8" stroke="#A00" stroke-width="1" width="8" x="928.9230769230769" y="648.3076923076923" /><rect fill="#E66" height="8" stroke="#A00" stroke-width="1" width="8" x="893.8461538461538" y="578.1538461538461" /><rect fill="#E66" height="8" stroke="#A00" stroke-width="1" width="8" x="402.7692307692308" y="472.92307692307685" /><rect fill="#E66" height="8" stroke="#A00" stroke-width="1" width="8" x="508.0" y="367.6923076923076" /><rect fill="#E66" height="8" stroke="#A00" stroke-width="1" width="8" x="753.5384615384617" y="507.99999999999994" /><rect fill="#E66" height="8" stroke="#A00" stroke-width="1" width="8" x="613.2307692307693" y="332.6153846153845" /><rect fill="#E66" height="8" stroke="#A00" stroke-width="1" width="8" x="893.8461538461538" y="402.7692307692307" /><rect fill="#E66" height="8" stroke="#A00" stroke-width="1" width="8" x="192.30769230769226" y="297.53846153846143" /><rect fill="#E66" height="8" stroke="#A00" stroke-width="1" width="8" x="332.6153846153846" y="227.38461538461524" /><rect fill="#E66" height="8" stroke="#A00" stroke-width="1" width="8" x="472.9230769230769" y="227.38461538461524" /><rect fill="#E66" height="8" stroke="#A00" stroke-width="1" width="8" x="543.0769230769231" y="157.23076923076917" /><rect fill="#E66" height="8" stroke="#A00" stroke-width="1" width="8" x="753.5384615384617" y="297.53846153846143" /><rect fill="#E66" height="8" stroke="#A00" stroke-width="1" width="8" x="402.7692307692308" y="157.23076923076917" /><rect fill="#E66" height="8" stroke="#A00" stroke-width="1" width="8" x="613.2307692307693" y="122.15384615384608" /><rect fill="#69E" height="6" stroke="#04A" stroke-width="1" width="12" x="400.7692307692308" y="929.9230769230769" /><rect fill="#69E" height="6" stroke="#04A" stroke-width="1" width="12" x="751.5384615384617" y="929.9230769230769" /><rect fill="#69E" height="6" stroke="#04A" stroke-width="1" width="12" x="926.9230769230769" y="929.9230769230769" /><rect fill="#69E" height="6" stroke="#04A" stroke-width="1" width="12" x="49.99999999999994" y="438.8461538461538" /><rect fill="#69E" height="6" stroke="#04A" stroke-width="1" width="12" x="225.38461538461536" y="298.53846153846143" /><rect fill="#69E" height="6" stroke="#04A" stroke-width="1" width="12" x="751.5384615384617" y="298.53846153846143" /><rect fill="#69E" height="6" stroke="#04A" stroke-width="1" width="12" x="891.8461538461538" y="403.7692307692307" /><rect fill="#69E" height="6" stroke="#04A" stroke-width="1" width="12" x="190.30769230769226" y="88.07692307692298" /><rect fill="#69E" height="6" stroke="#04A" stroke-width="1" width="12" x="49.99999999999994" y="193.30769230769226" /><rect fill="#69E" height="6" stroke="#04A" stroke-width="1" width="12" x="576.1538461538462" y="158.23076923076917" /><rect fill="#69E" height="6" stroke="#04A" stroke-width="1" width="12" x="821.6923076923076" y="88.07692307692298" /><rect fill="#69E" height="6" stroke="#04A" stroke-width="1" width="12" x="962.0" y="193.30769230769226" /><rect fill="#69E" height="6" stroke="#04A" stroke-width="1" width="12" x="962.0" y="579.1538461538461" /><text fill="#444" font-family="Arial, sans-serif" font-size="12" x="40" y="24">in_3bhk_gurgaon_dlf_phasev_tower</text></svg>