<?xml version="1.0" encoding="utf-8" ?>
<svg baseProfile="full" height="1024" version="1.1" viewBox="0 0 1024 1024" width="1024" xmlns="http://www.w3.org/2000/svg" xmlns:ev="http://www.w3.org/2001/xml-events" xmlns:xlink="http://www.w3.org/1999/xlink"><defs /><rect fill="#FAFAFA" height="1024" width="1024" x="0" y="0" /><polygon fill="white" points="56.0,885.090909090909 968.0,885.090909090909 968.0,138.90909090909088 56.0,138.90909090909088" stroke="#222" stroke-width="3" /><polygon fill="#D1ECF1" points="56.0,885.090909090909 470.5454545454545,885.090909090909 470.5454545454545,553.4545454545454 56.0,553.4545454545454" stroke="#888" stroke-width="1" /><text fill="#333" font-family="Arial, sans-serif" font-size="12" text-anchor="middle" x="263.27272727272725" y="719.2727272727273">Living</text><text fill="#666" font-family="Arial, sans-serif" font-size="10" text-anchor="middle" x="263.27272727272725" y="733.2727272727273">20 m²</text><polygon fill="#FFE5E5" points="470.5454545454545,885.090909090909 719.2727272727273,885.090909090909 719.2727272727273,636.3636363636363 470.5454545454545,636.3636363636363" stroke="#888" stroke-width="1" /><text fill="#333" font-family="Arial, sans-serif" font-size="12" text-anchor="middle" x="594.9090909090909" y="760.7272727272726">Dining</text><text fill="#666" font-family="Arial, sans-serif" font-size="10" text-anchor="middle" x="594.9090909090909" y="774.7272727272726">9 m²</text><polygon fill="#FFF3CD" points="719.2727272727273,885.090909090909 968.0,885.090909090909 968.0,636.3636363636363 719.2727272727273,636.3636363636363" stroke="#888" stroke-width="1" /><text fill="#333" font-family="Arial, sans-serif" font-size="12" text-anchor="middle" x="843.6363636363636" y="760.7272727272726">Kitchen</text><text fill="#666" font-family="Arial, sans-serif" font-size="10" text-anchor="middle" x="843.6363636363636" y="774.7272727272726">9 m²</text><polygon fill="#D4EDDA" points="470.5454545454545,636.3636363636363 636.3636363636364,636.3636363636363 636.3636363636364,470.5454545454545 470.5454545454545,470.5454545454545" stroke="#888" stroke-width="1" /><text fill="#333" font-family="Arial, sans-serif" font-size="12" text-anchor="middle" x="553.4545454545455" y="553.4545454545454">Common Bath</text><text fill="#666" font-family="Arial, sans-serif" font-size="10" text-anchor="middle" x="553.4545454545455" y="567.4545454545454">4 m²</text><polygon fill="#E0E0E0" points="636.3636363636364,636.3636363636363 968.0,636.3636363636363 968.0,511.99999999999994 636.3636363636364,511.99999999999994" stroke="#888" stroke-width="1" /><text fill="#333" font-family="Arial, sans-serif" font-size="12" text-anchor="middle" x="802.1818181818182" y="574.1818181818181">Utility</text><text fill="#666" font-family="Arial, sans-serif" font-size="10" text-anchor="middle" x="802.1818181818182" y="588.1818181818181">6 m²</text><polygon fill="#F5F5F5" points="636.3636363636364,511.99999999999994 968.0,511.99999999999994 968.0,429.090909090909 636.3636363636364,429.090909090909" stroke="#888" stroke-width="1" /><text fill="#333" font-family="Arial, sans-serif" font-size="12" text-anchor="middle" x="802.1818181818182" y="470.5454545454545">Passage</text><text fill="#666" font-family="Arial, sans-serif" font-size="10" text-anchor="middle" x="802.1818181818182" y="484.5454545454545">4 m²</text><polygon fill="#D5C8E0" points="56.0,553.4545454545454 387.6363636363636,553.4545454545454 387.6363636363636,304.72727272727263 56.0,304.72727272727263" stroke="#888" stroke-width="1" /><text fill="#333" font-family="Arial, sans-serif" font-size="12" text-anchor="middle" x="221.8181818181818" y="429.090909090909">Master</text><text fill="#666" font-family="Arial, sans-serif" font-size="10" text-anchor="middle" x="221.8181818181818" y="443.090909090909">12 m²</text><polygon fill="#D4EDDA" points="387.6363636363636,553.4545454545454 470.5454545454545,553.4545454545454 470.5454545454545,304.72727272727263 387.6363636363636,304.72727272727263" stroke="#888" stroke-width="1" /><text fill="#333" font-family="Arial, sans-serif" font-size="12" text-anchor="middle" x="429.09090909090907" y="429.090909090909">Master Bath</text><text fill="#666" font-family="Arial, sans-serif" font-size="10" text-anchor="middle" x="429.09090909090907" y="443.090909090909">3 m²</text><polygon fill="#E2D5F0" points="470.5454545454545,470.5454545454545 636.3636363636364,470.5454545454545 636.3636363636364,221.81818181818176 470.5454545454545,221.81818181818176" stroke="#888" stroke-width="1" /><text fill="#333" font-family="Arial, sans-serif" font-size="12" text-anchor="middle" x="553.4545454545455" y="346.18181818181813">Bedroom 2</text><text fill="#666" font-family="Arial, sans-serif" font-size="10" text-anchor="middle" x="553.4545454545455" y="360.18181818181813">6 m²</text><polygon fill="#E2D5F0" points="636.3636363636364,429.090909090909 968.0,429.090909090909 968.0,221.81818181818176 636.3636363636364,221.81818181818176" stroke="#888" stroke-width="1" /><text fill="#333" font-family="Arial, sans-serif" font-size="12" text-anchor="middle" x="802.1818181818182" y="325.4545454545454">Bedroom 3</text><text fill="#666" font-family="Arial, sans-serif" font-size="10" text-anchor="middle" x="802.1818181818182" y="339.4545454545454">10 m²</text><polygon fill="#D4EDDA" points="470.5454545454545,221.81818181818176 636.3636363636364,221.81818181818176 636.3636363636364,138.90909090909088 470.5454545454545,138.90909090909088" stroke="#888" stroke-width="1" /><text fill="#333" font-family="Arial, sans-serif" font-size="12" text-anchor="middle" x="553.4545454545455" y="180.36363636363632">Bath 2</text><text fill="#666" font-family="Arial, sans-serif" font-size="10" text-anchor="middle" x="553.4545454545455" y="194.36363636363632">2 m²</text><polygon fill="#F8F9FA" points="56.0,304.72727272727263 470.5454545454545,304.72727272727263 470.5454545454545,138.90909090909088 56.0,138.90909090909088" stroke="#888" stroke-width="1" /><text fill="#333" font-family="Arial, sans-serif" font-size="12" text-anchor="middle" x="263.27272727272725" y="221.81818181818176">Balcony</text><text fill="#666" font-family="Arial, sans-serif" font-size="10" text-anchor="middle" x="263.27272727272725" y="235.81818181818176">10 m²</text><polygon fill="#F8F9FA" points="636.3636363636364,221.81818181818176 968.0,221.81818181818176 968.0,138.90909090909088 636.3636363636364,138.90909090909088" stroke="#888" stroke-width="1" /><text fill="#333" font-family="Arial, sans-serif" font-size="12" text-anchor="middle" x="802.1818181818182" y="180.36363636363632">Bedroom Balcony</text><text fill="#666" font-family="Arial, sans-serif" font-size="10" text-anchor="middle" x="802.1818181818182" y="194.36363636363632">4 m²</text><rect fill="#E66" height="8" stroke="#A00" stroke-width="1" width="8" x="93.45454545454545" y="881.090909090909" /><rect fill="#E66" height="8" stroke="#A00" stroke-width="1" width="8" x="466.5454545454545" y="715.2727272727273" /><rect fill="#E66" height="8" stroke="#A00" stroke-width="1" width="8" x="715.2727272727273" y="756.7272727272726" /><rect fill="#E66" height="8" stroke="#A00" stroke-width="1" width="8" x="549.4545454545455" y="632.3636363636363" /><rect fill="#E66" height="8" stroke="#A00" stroke-width="1" width="8" x="839.6363636363636" y="632.3636363636363" /><rect fill="#E66" height="8" stroke="#A00" stroke-width="1" width="8" x="798.1818181818181" y="507.99999999999994" /><rect fill="#E66" height="8" stroke="#A00" stroke-width="1" width="8" x="217.8181818181818" y="549.4545454545454" /><rect fill="#E66" height="8" stroke="#A00" stroke-width="1" width="8" x="383.6363636363636" y="425.090909090909" /><rect fill="#E66" height="8" stroke="#A00" stroke-width="1" width="8" x="549.4545454545455" y="466.5454545454545" /><rect fill="#E66" height="8" stroke="#A00" stroke-width="1" width="8" x="798.1818181818181" y="425.090909090909" /><rect fill="#E66" height="8" stroke="#A00" stroke-width="1" width="8" x="549.4545454545455" y="217.81818181818176" /><rect fill="#E66" height="8" stroke="#A00" stroke-width="1" width="8" x="632.3636363636364" y="342.18181818181813" /><rect fill="#E66" height="8" stroke="#A00" stroke-width="1" width="8" x="217.8181818181818" y="300.72727272727263" /><rect fill="#E66" height="8" stroke="#A00" stroke-width="1" width="8" x="798.1818181818181" y="217.81818181818176" /><rect fill="#69E" height="6" stroke="#04A" stroke-width="1" width="12" x="257.27272727272725" y="882.090909090909" /><rect fill="#69E" height="6" stroke="#04A" stroke-width="1" width="12" x="50.0" y="716.2727272727273" /><rect fill="#69E" height="6" stroke="#04A" stroke-width="1" width="12" x="588.9090909090909" y="882.090909090909" /><rect fill="#69E" height="6" stroke="#04A" stroke-width="1" width="12" x="837.6363636363636" y="882.090909090909" /><rect fill="#69E" height="6" stroke="#04A" stroke-width="1" width="12" x="50.0" y="426.090909090909" /><rect fill="#69E" height="6" stroke="#04A" stroke-width="1" width="12" x="962.0" y="322.4545454545454" /><rect fill="#69E" height="6" stroke="#04A" stroke-width="1" width="12" x="257.27272727272725" y="135.90909090909088" /><rect fill="#69E" height="6" stroke="#04A" stroke-width="1" width="12" x="796.1818181818181" y="135.90909090909088" /><rect fill="#69E" height="6" stroke="#04A" stroke-width="1" width="12" x="962.0" y="571.1818181818181" /><text fill="#444" font-family="Arial, sans-serif" font-size="12" x="40" y="24">in_3bhk_bangalore_whitefield</text></svg>