<?xml version="1.0" encoding="utf-8" ?>
<svg baseProfile="full" height="1024" version="1.1" viewBox="0 0 1024 1024" width="1024" xmlns="http://www.w3.org/2000/svg" xmlns:ev="http://www.w3.org/2001/xml-events" xmlns:xlink="http://www.w3.org/1999/xlink"><defs /><rect fill="#FAFAFA" height="1024" width="1024" x="0" y="0" /><polygon fill="white" points="56.0,892.0 968.0,892.0 968.0,132.0 56.0,132.0" stroke="#222" stroke-width="3" /><polygon fill="#F5F5F5" points="56.0,892.0 208.0,892.0 208.0,740.0 56.0,740.0" stroke="#888" stroke-width="1" /><text fill="#333" font-family="Arial, sans-serif" font-size="12" text-anchor="middle" x="132.0" y="816.0">Foyer</text><text fill="#666" font-family="Arial, sans-serif" font-size="10" text-anchor="middle" x="132.0" y="830.0">4 m²</text><polygon fill="#D1ECF1" points="208.0,892.0 588.0,892.0 588.0,588.0 208.0,588.0" stroke="#888" stroke-width="1" /><text fill="#333" font-family="Arial, sans-serif" font-size="12" text-anchor="middle" x="398.0" y="740.0">Living</text><text fill="#666" font-family="Arial, sans-serif" font-size="10" text-anchor="middle" x="398.0" y="754.0">20 m²</text><polygon fill="#FFE5E5" points="588.0,892.0 816.0,892.0 816.0,588.0 588.0,588.0" stroke="#888" stroke-width="1" /><text fill="#333" font-family="Arial, sans-serif" font-size="12" text-anchor="middle" x="702.0" y="740.0">Dining</text><text fill="#666" font-family="Arial, sans-serif" font-size="10" text-anchor="middle" x="702.0" y="754.0">12 m²</text><polygon fill="#FFF3CD" points="816.0,892.0 968.0,892.0 968.0,588.0 816.0,588.0" stroke="#888" stroke-width="1" /><text fill="#333" font-family="Arial, sans-serif" font-size="12" text-anchor="middle" x="892.0" y="740.0">Kitchen (modular)</text><text fill="#666" font-family="Arial, sans-serif" font-size="10" text-anchor="middle" x="892.0" y="754.0">8 m²</text><polygon fill="#F5F5F5" points="56.0,740.0 208.0,740.0 208.0,588.0 56.0,588.0" stroke="#888" stroke-width="1" /><text fill="#333" font-family="Arial, sans-serif" font-size="12" text-anchor="middle" x="132.0" y="664.0">Foyer ext</text><text fill="#666" font-family="Arial, sans-serif" font-size="10" text-anchor="middle" x="132.0" y="678.0">4 m²</text><polygon fill="#D4EDDA" points="816.0,588.0 968.0,588.0 968.0,436.0 816.0,436.0" stroke="#888" stroke-width="1" /><text fill="#333" font-family="Arial, sans-serif" font-size="12" text-anchor="middle" x="892.0" y="512.0">Common Bath</text><text fill="#666" font-family="Arial, sans-serif" font-size="10" text-anchor="middle" x="892.0" y="526.0">4 m²</text><polygon fill="#E0E0E0" points="588.0,588.0 816.0,588.0 816.0,436.0 588.0,436.0" stroke="#888" stroke-width="1" /><text fill="#333" font-family="Arial, sans-serif" font-size="12" text-anchor="middle" x="702.0" y="512.0">Utility</text><text fill="#666" font-family="Arial, sans-serif" font-size="10" text-anchor="middle" x="702.0" y="526.0">6 m²</text><polygon fill="#D5C8E0" points="56.0,588.0 436.0,588.0 436.0,360.0 56.0,360.0" stroke="#888" stroke-width="1" /><text fill="#333" font-family="Arial, sans-serif" font-size="12" text-anchor="middle" x="246.0" y="474.0">Master Bedroom</text><text fill="#666" font-family="Arial, sans-serif" font-size="10" text-anchor="middle" x="246.0" y="488.0">15 m²</text><polygon fill="#D4EDDA" points="436.0,588.0 588.0,588.0 588.0,436.0 436.0,436.0" stroke="#888" stroke-width="1" /><text fill="#333" font-family="Arial, sans-serif" font-size="12" text-anchor="middle" x="512.0" y="512.0">Master Bath</text><text fill="#666" font-family="Arial, sans-serif" font-size="10" text-anchor="middle" x="512.0" y="526.0">4 m²</text><polygon fill="#F5F5F5" points="436.0,436.0 816.0,436.0 816.0,360.0 436.0,360.0" stroke="#888" stroke-width="1" /><text fill="#333" font-family="Arial, sans-serif" font-size="12" text-anchor="middle" x="626.0" y="398.0">Hallway</text><text fill="#666" font-family="Arial, sans-serif" font-size="10" text-anchor="middle" x="626.0" y="412.0">5 m²</text><polygon fill="#E2D5F0" points="56.0,360.0 436.0,360.0 436.0,132.0 56.0,132.0" stroke="#888" stroke-width="1" /><text fill="#333" font-family="Arial, sans-serif" font-size="12" text-anchor="middle" x="246.0" y="246.0">Bedroom 2</text><text fill="#666" font-family="Arial, sans-serif" font-size="10" text-anchor="middle" x="246.0" y="260.0">15 m²</text><polygon fill="#D4EDDA" points="436.0,360.0 588.0,360.0 588.0,132.0 436.0,132.0" stroke="#888" stroke-width="1" /><text fill="#333" font-family="Arial, sans-serif" font-size="12" text-anchor="middle" x="512.0" y="246.0">Bath 2</text><text fill="#666" font-family="Arial, sans-serif" font-size="10" text-anchor="middle" x="512.0" y="260.0">6 m²</text><polygon fill="#E2D5F0" points="588.0,360.0 816.0,360.0 816.0,132.0 588.0,132.0" stroke="#888" stroke-width="1" /><text fill="#333" font-family="Arial, sans-serif" font-size="12" text-anchor="middle" x="702.0" y="246.0">Bedroom 3</text><text fill="#666" font-family="Arial, sans-serif" font-size="10" text-anchor="middle" x="702.0" y="260.0">9 m²</text><polygon fill="#F8F9FA" points="816.0,436.0 968.0,436.0 968.0,284.0 816.0,284.0" stroke="#888" stroke-width="1" /><text fill="#333" font-family="Arial, sans-serif" font-size="12" text-anchor="middle" x="892.0" y="360.0">Dry Balcony</text><text fill="#666" font-family="Arial, sans-serif" font-size="10" text-anchor="middle" x="892.0" y="374.0">4 m²</text><polygon fill="#F8F9FA" points="816.0,284.0 968.0,284.0 968.0,132.0 816.0,132.0" stroke="#888" stroke-width="1" /><text fill="#333" font-family="Arial, sans-serif" font-size="12" text-anchor="middle" x="892.0" y="208.0">Powai Lake Deck</text><text fill="#666" font-family="Arial, sans-serif" font-size="10" text-anchor="middle" x="892.0" y="222.0">4 m²</text><rect fill="#E66" height="8" stroke="#A00" stroke-width="1" width="8" x="90.0" y="888.0" /><rect fill="#E66" height="8" stroke="#A00" stroke-width="1" width="8" x="204.0" y="812.0" /><rect fill="#E66" height="8" stroke="#A00" stroke-width="1" width="8" x="128.0" y="736.0" /><rect fill="#E66" height="8" stroke="#A00" stroke-width="1" width="8" x="128.0" y="584.0" /><rect fill="#E66" height="8" stroke="#A00" stroke-width="1" width="8" x="584.0" y="736.0" /><rect fill="#E66" height="8" stroke="#A00" stroke-width="1" width="8" x="812.0" y="736.0" /><rect fill="#E66" height="8" stroke="#A00" stroke-width="1" width="8" x="698.0" y="584.0" /><rect fill="#E66" height="8" stroke="#A00" stroke-width="1" width="8" x="888.0" y="584.0" /><rect fill="#E66" height="8" stroke="#A00" stroke-width="1" width="8" x="888.0" y="432.0" /><rect fill="#E66" height="8" stroke="#A00" stroke-width="1" width="8" x="432.0" y="508.0" /><rect fill="#E66" height="8" stroke="#A00" stroke-width="1" width="8" x="698.0" y="432.0" /><rect fill="#E66" height="8" stroke="#A00" stroke-width="1" width="8" x="508.0" y="432.0" /><rect fill="#E66" height="8" stroke="#A00" stroke-width="1" width="8" x="242.0" y="356.0" /><rect fill="#E66" height="8" stroke="#A00" stroke-width="1" width="8" x="432.0" y="280.0" /><rect fill="#E66" height="8" stroke="#A00" stroke-width="1" width="8" x="698.0" y="356.0" /><rect fill="#E66" height="8" stroke="#A00" stroke-width="1" width="8" x="812.0" y="204.0" /><rect fill="#69E" height="6" stroke="#04A" stroke-width="1" width="12" x="392.0" y="889.0" /><rect fill="#69E" height="6" stroke="#04A" stroke-width="1" width="12" x="696.0" y="889.0" /><rect fill="#69E" height="6" stroke="#04A" stroke-width="1" width="12" x="886.0" y="889.0" /><rect fill="#69E" height="6" stroke="#04A" stroke-width="1" width="12" x="962.0" y="737.0" /><rect fill="#69E" height="6" stroke="#04A" stroke-width="1" width="12" x="240.0" y="585.0" /><rect fill="#69E" height="6" stroke="#04A" stroke-width="1" width="12" x="50.0" y="471.0" /><rect fill="#69E" height="6" stroke="#04A" stroke-width="1" width="12" x="240.0" y="129.0" /><rect fill="#69E" height="6" stroke="#04A" stroke-width="1" width="12" x="696.0" y="129.0" /><rect fill="#69E" height="6" stroke="#04A" stroke-width="1" width="12" x="886.0" y="129.0" /><rect fill="#69E" height="6" stroke="#04A" stroke-width="1" width="12" x="962.0" y="357.0" /><text fill="#444" font-family="Arial, sans-serif" font-size="12" x="40" y="24">in_3bhk_mumbai_powai_hiranandani</text></svg>