<?xml version="1.0" encoding="utf-8" ?>
<svg baseProfile="full" height="1024" version="1.1" viewBox="0 0 1024 1024" width="1024" xmlns="http://www.w3.org/2000/svg" xmlns:ev="http://www.w3.org/2001/xml-events" xmlns:xlink="http://www.w3.org/1999/xlink"><defs /><rect fill="#FAFAFA" height="1024" width="1024" x="0" y="0" /><polygon fill="white" points="56.0,930.0 968.0,930.0 968.0,94.0 56.0,94.0" stroke="#222" stroke-width="3" /><polygon fill="#F5F5F5" points="56.0,930.0 208.0,930.0 208.0,778.0 56.0,778.0" stroke="#888" stroke-width="1" /><text fill="#333" font-family="Arial, sans-serif" font-size="12" text-anchor="middle" x="132.0" y="854.0">Foyer</text><text fill="#666" font-family="Arial, sans-serif" font-size="10" text-anchor="middle" x="132.0" y="868.0">4 m²</text><polygon fill="#D1ECF1" points="208.0,930.0 664.0,930.0 664.0,626.0 208.0,626.0" stroke="#888" stroke-width="1" /><text fill="#333" font-family="Arial, sans-serif" font-size="12" text-anchor="middle" x="436.0" y="778.0">Living</text><text fill="#666" font-family="Arial, sans-serif" font-size="10" text-anchor="middle" x="436.0" y="792.0">24 m²</text><polygon fill="#FFE5E5" points="664.0,930.0 892.0,930.0 892.0,626.0 664.0,626.0" stroke="#888" stroke-width="1" /><text fill="#333" font-family="Arial, sans-serif" font-size="12" text-anchor="middle" x="778.0" y="778.0">Dining</text><text fill="#666" font-family="Arial, sans-serif" font-size="10" text-anchor="middle" x="778.0" y="792.0">12 m²</text><polygon fill="#FFE5B4" points="892.0,930.0 968.0,930.0 968.0,778.0 892.0,778.0" stroke="#888" stroke-width="1" /><text fill="#333" font-family="Arial, sans-serif" font-size="12" text-anchor="middle" x="930.0" y="854.0">Pooja Room</text><text fill="#666" font-family="Arial, sans-serif" font-size="10" text-anchor="middle" x="930.0" y="868.0">2 m²</text><polygon fill="#FFF3CD" points="892.0,778.0 968.0,778.0 968.0,626.0 892.0,626.0" stroke="#888" stroke-width="1" /><text fill="#333" font-family="Arial, sans-serif" font-size="12" text-anchor="middle" x="930.0" y="702.0">Kitchen</text><text fill="#666" font-family="Arial, sans-serif" font-size="10" text-anchor="middle" x="930.0" y="716.0">2 m²</text><polygon fill="#F5F5F5" points="56.0,778.0 208.0,778.0 208.0,626.0 56.0,626.0" stroke="#888" stroke-width="1" /><text fill="#333" font-family="Arial, sans-serif" font-size="12" text-anchor="middle" x="132.0" y="702.0">Foyer ext</text><text fill="#666" font-family="Arial, sans-serif" font-size="10" text-anchor="middle" x="132.0" y="716.0">4 m²</text><polygon fill="#FFF3CD" points="664.0,626.0 968.0,626.0 968.0,474.0 664.0,474.0" stroke="#888" stroke-width="1" /><text fill="#333" font-family="Arial, sans-serif" font-size="12" text-anchor="middle" x="816.0" y="550.0">Kitchen Main</text><text fill="#666" font-family="Arial, sans-serif" font-size="10" text-anchor="middle" x="816.0" y="564.0">8 m²</text><polygon fill="#D5C8E0" points="56.0,626.0 436.0,626.0 436.0,398.0 56.0,398.0" stroke="#888" stroke-width="1" /><text fill="#333" font-family="Arial, sans-serif" font-size="12" text-anchor="middle" x="246.0" y="512.0">Master Bedroom</text><text fill="#666" font-family="Arial, sans-serif" font-size="10" text-anchor="middle" x="246.0" y="526.0">15 m²</text><polygon fill="#D4EDDA" points="436.0,626.0 664.0,626.0 664.0,474.0 436.0,474.0" stroke="#888" stroke-width="1" /><text fill="#333" font-family="Arial, sans-serif" font-size="12" text-anchor="middle" x="550.0" y="550.0">Master Bath</text><text fill="#666" font-family="Arial, sans-serif" font-size="10" text-anchor="middle" x="550.0" y="564.0">6 m²</text><polygon fill="#F5F5F5" points="436.0,474.0 664.0,474.0 664.0,398.0 436.0,398.0" stroke="#888" stroke-width="1" /><text fill="#333" font-family="Arial, sans-serif" font-size="12" text-anchor="middle" x="550.0" y="436.0">Hallway</text><text fill="#666" font-family="Arial, sans-serif" font-size="10" text-anchor="middle" x="550.0" y="450.0">3 m²</text><polygon fill="#E2D5F0" points="664.0,474.0 968.0,474.0 968.0,246.0 664.0,246.0" stroke="#888" stroke-width="1" /><text fill="#333" font-family="Arial, sans-serif" font-size="12" text-anchor="middle" x="816.0" y="360.0">Bedroom 2</text><text fill="#666" font-family="Arial, sans-serif" font-size="10" text-anchor="middle" x="816.0" y="374.0">12 m²</text><polygon fill="#E2D5F0" points="56.0,398.0 360.0,398.0 360.0,94.0 56.0,94.0" stroke="#888" stroke-width="1" /><text fill="#333" font-family="Arial, sans-serif" font-size="12" text-anchor="middle" x="208.0" y="246.0">Bedroom 3</text><text fill="#666" font-family="Arial, sans-serif" font-size="10" text-anchor="middle" x="208.0" y="260.0">16 m²</text><polygon fill="#D4EDDA" points="360.0,398.0 512.0,398.0 512.0,246.0 360.0,246.0" stroke="#888" stroke-width="1" /><text fill="#333" font-family="Arial, sans-serif" font-size="12" text-anchor="middle" x="436.0" y="322.0">Bath 2</text><text fill="#666" font-family="Arial, sans-serif" font-size="10" text-anchor="middle" x="436.0" y="336.0">4 m²</text><polygon fill="#E2D5F0" points="512.0,398.0 664.0,398.0 664.0,94.0 512.0,94.0" stroke="#888" stroke-width="1" /><text fill="#333" font-family="Arial, sans-serif" font-size="12" text-anchor="middle" x="588.0" y="246.0">Bedroom 4</text><text fill="#666" font-family="Arial, sans-serif" font-size="10" text-anchor="middle" x="588.0" y="260.0">8 m²</text><polygon fill="#D4EDDA" points="360.0,246.0 512.0,246.0 512.0,94.0 360.0,94.0" stroke="#888" stroke-width="1" /><text fill="#333" font-family="Arial, sans-serif" font-size="12" text-anchor="middle" x="436.0" y="170.0">Bath 3</text><text fill="#666" font-family="Arial, sans-serif" font-size="10" text-anchor="middle" x="436.0" y="184.0">4 m²</text><polygon fill="#F8F9FA" points="664.0,246.0 968.0,246.0 968.0,94.0 664.0,94.0" stroke="#888" stroke-width="1" /><text fill="#333" font-family="Arial, sans-serif" font-size="12" text-anchor="middle" x="816.0" y="170.0">Service Balcony</text><text fill="#666" font-family="Arial, sans-serif" font-size="10" text-anchor="middle" x="816.0" y="184.0">8 m²</text><rect fill="#E66" height="8" stroke="#A00" stroke-width="1" width="8" x="90.0" y="926.0" /><rect fill="#E66" height="8" stroke="#A00" stroke-width="1" width="8" x="204.0" y="850.0" /><rect fill="#E66" height="8" stroke="#A00" stroke-width="1" width="8" x="128.0" y="774.0" /><rect fill="#E66" height="8" stroke="#A00" stroke-width="1" width="8" x="128.0" y="622.0" /><rect fill="#E66" height="8" stroke="#A00" stroke-width="1" width="8" x="660.0" y="774.0" /><rect fill="#E66" height="8" stroke="#A00" stroke-width="1" width="8" x="888.0" y="850.0" /><rect fill="#E66" height="8" stroke="#A00" stroke-width="1" width="8" x="888.0" y="698.0" /><rect fill="#E66" height="8" stroke="#A00" stroke-width="1" width="8" x="926.0" y="622.0" /><rect fill="#E66" height="8" stroke="#A00" stroke-width="1" width="8" x="812.0" y="622.0" /><rect fill="#E66" height="8" stroke="#A00" stroke-width="1" width="8" x="432.0" y="546.0" /><rect fill="#E66" height="8" stroke="#A00" stroke-width="1" width="8" x="546.0" y="470.0" /><rect fill="#E66" height="8" stroke="#A00" stroke-width="1" width="8" x="660.0" y="432.0" /><rect fill="#E66" height="8" stroke="#A00" stroke-width="1" width="8" x="812.0" y="470.0" /><rect fill="#E66" height="8" stroke="#A00" stroke-width="1" width="8" x="204.0" y="394.0" /><rect fill="#E66" height="8" stroke="#A00" stroke-width="1" width="8" x="356.0" y="318.0" /><rect fill="#E66" height="8" stroke="#A00" stroke-width="1" width="8" x="584.0" y="394.0" /><rect fill="#E66" height="8" stroke="#A00" stroke-width="1" width="8" x="508.0" y="166.0" /><rect fill="#E66" height="8" stroke="#A00" stroke-width="1" width="8" x="812.0" y="242.0" /><rect fill="#69E" height="6" stroke="#04A" stroke-width="1" width="12" x="430.0" y="927.0" /><rect fill="#69E" height="6" stroke="#04A" stroke-width="1" width="12" x="772.0" y="927.0" /><rect fill="#69E" height="6" stroke="#04A" stroke-width="1" width="12" x="962.0" y="547.0" /><rect fill="#69E" height="6" stroke="#04A" stroke-width="1" width="12" x="50.0" y="509.0" /><rect fill="#69E" height="6" stroke="#04A" stroke-width="1" width="12" x="810.0" y="243.0" /><rect fill="#69E" height="6" stroke="#04A" stroke-width="1" width="12" x="962.0" y="357.0" /><rect fill="#69E" height="6" stroke="#04A" stroke-width="1" width="12" x="202.0" y="91.0" /><rect fill="#69E" height="6" stroke="#04A" stroke-width="1" width="12" x="50.0" y="243.0" /><rect fill="#69E" height="6" stroke="#04A" stroke-width="1" width="12" x="582.0" y="91.0" /><rect fill="#69E" height="6" stroke="#04A" stroke-width="1" width="12" x="810.0" y="91.0" /><rect fill="#69E" height="6" stroke="#04A" stroke-width="1" width="12" x="50.0" y="699.0" /><text fill="#444" font-family="Arial, sans-serif" font-size="12" x="40" y="24">in_4bhk_kolkata_new_town_pooja</text></svg>