<?xml version="1.0" encoding="utf-8" ?>
<svg baseProfile="full" height="1024" version="1.1" viewBox="0 0 1024 1024" width="1024" xmlns="http://www.w3.org/2000/svg" xmlns:ev="http://www.w3.org/2001/xml-events" xmlns:xlink="http://www.w3.org/1999/xlink"><defs /><rect fill="#FAFAFA" height="1024" width="1024" x="0" y="0" /><polygon fill="white" points="56.0,968.0 968.0,968.0 968.0,56.0 56.0,56.0" stroke="#222" stroke-width="3" /><polygon fill="#F5F5F5" points="56.0,968.0 186.28571428571428,968.0 186.28571428571428,837.7142857142858 56.0,837.7142857142858" stroke="#888" stroke-width="1" /><text fill="#333" font-family="Arial, sans-serif" font-size="12" text-anchor="middle" x="121.14285714285714" y="902.8571428571429">Foyer</text><text fill="#666" font-family="Arial, sans-serif" font-size="10" text-anchor="middle" x="121.14285714285714" y="916.8571428571429">4 m²</text><polygon fill="#D1ECF1" points="186.28571428571428,968.0 707.4285714285713,968.0 707.4285714285713,642.2857142857143 186.28571428571428,642.2857142857143" stroke="#888" stroke-width="1" /><text fill="#333" font-family="Arial, sans-serif" font-size="12" text-anchor="middle" x="446.8571428571428" y="805.1428571428571">Living (sea-facing)</text><text fill="#666" font-family="Arial, sans-serif" font-size="10" text-anchor="middle" x="446.8571428571428" y="819.1428571428571">40 m²</text><polygon fill="#FFE5E5" points="707.4285714285713,968.0 968.0,968.0 968.0,642.2857142857143 707.4285714285713,642.2857142857143" stroke="#888" stroke-width="1" /><text fill="#333" font-family="Arial, sans-serif" font-size="12" text-anchor="middle" x="837.7142857142857" y="805.1428571428571">Formal Dining</text><text fill="#666" font-family="Arial, sans-serif" font-size="10" text-anchor="middle" x="837.7142857142857" y="819.1428571428571">20 m²</text><polygon fill="#F5F5F5" points="56.0,837.7142857142858 186.28571428571428,837.7142857142858 186.28571428571428,642.2857142857143 56.0,642.2857142857143" stroke="#888" stroke-width="1" /><text fill="#333" font-family="Arial, sans-serif" font-size="12" text-anchor="middle" x="121.14285714285714" y="740.0">Foyer ext</text><text fill="#666" font-family="Arial, sans-serif" font-size="10" text-anchor="middle" x="121.14285714285714" y="754.0">6 m²</text><polygon fill="#D1ECF1" points="707.4285714285713,642.2857142857143 968.0,642.2857142857143 968.0,381.7142857142858 707.4285714285713,381.7142857142858" stroke="#888" stroke-width="1" /><text fill="#333" font-family="Arial, sans-serif" font-size="12" text-anchor="middle" x="837.7142857142857" y="512.0">Family Room</text><text fill="#666" font-family="Arial, sans-serif" font-size="10" text-anchor="middle" x="837.7142857142857" y="526.0">16 m²</text><polygon fill="#FFF3CD" points="446.85714285714283,642.2857142857143 707.4285714285713,642.2857142857143 707.4285714285713,446.8571428571429 446.85714285714283,446.8571428571429" stroke="#888" stroke-width="1" /><text fill="#333" font-family="Arial, sans-serif" font-size="12" text-anchor="middle" x="577.1428571428571" y="544.5714285714287">Kitchen</text><text fill="#666" font-family="Arial, sans-serif" font-size="10" text-anchor="middle" x="577.1428571428571" y="558.5714285714287">12 m²</text><polygon fill="#E0E0E0" points="446.85714285714283,446.8571428571429 707.4285714285713,446.8571428571429 707.4285714285713,381.7142857142858 446.85714285714283,381.7142857142858" stroke="#888" stroke-width="1" /><text fill="#333" font-family="Arial, sans-serif" font-size="12" text-anchor="middle" x="577.1428571428571" y="414.28571428571433">Utility</text><text fill="#666" font-family="Arial, sans-serif" font-size="10" text-anchor="middle" x="577.1428571428571" y="428.28571428571433">4 m²</text><polygon fill="#D5C8E0" points="56.0,642.2857142857143 446.85714285714283,642.2857142857143 446.85714285714283,381.7142857142858 56.0,381.7142857142858" stroke="#888" stroke-width="1" /><text fill="#333" font-family="Arial, sans-serif" font-size="12" text-anchor="middle" x="251.42857142857142" y="512.0">Master Bedroom</text><text fill="#666" font-family="Arial, sans-serif" font-size="10" text-anchor="middle" x="251.42857142857142" y="526.0">24 m²</text><polygon fill="#EEE" points="56.0,381.7142857142858 251.42857142857142,381.7142857142858 251.42857142857142,251.42857142857144 56.0,251.42857142857144" stroke="#888" stroke-width="1" /><text fill="#333" font-family="Arial, sans-serif" font-size="12" text-anchor="middle" x="153.71428571428572" y="316.5714285714286">Walk-in Wardrobe</text><text fill="#666" font-family="Arial, sans-serif" font-size="10" text-anchor="middle" x="153.71428571428572" y="330.5714285714286">6 m²</text><polygon fill="#D4EDDA" points="251.42857142857142,381.7142857142858 446.85714285714283,381.7142857142858 446.85714285714283,251.42857142857144 251.42857142857142,251.42857142857144" stroke="#888" stroke-width="1" /><text fill="#333" font-family="Arial, sans-serif" font-size="12" text-anchor="middle" x="349.1428571428571" y="316.5714285714286">Master Bath</text><text fill="#666" font-family="Arial, sans-serif" font-size="10" text-anchor="middle" x="349.1428571428571" y="330.5714285714286">6 m²</text><polygon fill="#F5F5F5" points="446.85714285714283,381.7142857142858 707.4285714285713,381.7142857142858 707.4285714285713,316.57142857142867 446.85714285714283,316.57142857142867" stroke="#888" stroke-width="1" /><text fill="#333" font-family="Arial, sans-serif" font-size="12" text-anchor="middle" x="577.1428571428571" y="349.1428571428572">Hallway</text><text fill="#666" font-family="Arial, sans-serif" font-size="10" text-anchor="middle" x="577.1428571428571" y="363.1428571428572">4 m²</text><polygon fill="#E2D5F0" points="707.4285714285713,381.7142857142858 968.0,381.7142857142858 968.0,186.28571428571433 707.4285714285713,186.28571428571433" stroke="#888" stroke-width="1" /><text fill="#333" font-family="Arial, sans-serif" font-size="12" text-anchor="middle" x="837.7142857142857" y="284.00000000000006">Bedroom 2</text><text fill="#666" font-family="Arial, sans-serif" font-size="10" text-anchor="middle" x="837.7142857142857" y="298.00000000000006">12 m²</text><polygon fill="#D4EDDA" points="446.85714285714283,316.57142857142867 577.1428571428571,316.57142857142867 577.1428571428571,186.28571428571433 446.85714285714283,186.28571428571433" stroke="#888" stroke-width="1" /><text fill="#333" font-family="Arial, sans-serif" font-size="12" text-anchor="middle" x="512.0" y="251.4285714285715">Bath 2</text><text fill="#666" font-family="Arial, sans-serif" font-size="10" text-anchor="middle" x="512.0" y="265.4285714285715">4 m²</text><polygon fill="#E2D5F0" points="577.1428571428571,316.57142857142867 707.4285714285713,316.57142857142867 707.4285714285713,186.28571428571433 577.1428571428571,186.28571428571433" stroke="#888" stroke-width="1" /><text fill="#333" font-family="Arial, sans-serif" font-size="12" text-anchor="middle" x="642.2857142857142" y="251.4285714285715">Bedroom 3</text><text fill="#666" font-family="Arial, sans-serif" font-size="10" text-anchor="middle" x="642.2857142857142" y="265.4285714285715">4 m²</text><polygon fill="#E2D5F0" points="56.0,251.42857142857144 251.42857142857142,251.42857142857144 251.42857142857142,56.0 56.0,56.0" stroke="#888" stroke-width="1" /><text fill="#333" font-family="Arial, sans-serif" font-size="12" text-anchor="middle" x="153.71428571428572" y="153.71428571428572">Bedroom 4</text><text fill="#666" font-family="Arial, sans-serif" font-size="10" text-anchor="middle" x="153.71428571428572" y="167.71428571428572">9 m²</text><polygon fill="#E5F0FF" points="251.42857142857142,251.42857142857144 446.85714285714283,251.42857142857144 446.85714285714283,56.0 251.42857142857142,56.0" stroke="#888" stroke-width="1" /><text fill="#333" font-family="Arial, sans-serif" font-size="12" text-anchor="middle" x="349.1428571428571" y="153.71428571428572">Bedroom 5 / Study</text><text fill="#666" font-family="Arial, sans-serif" font-size="10" text-anchor="middle" x="349.1428571428571" y="167.71428571428572">9 m²</text><polygon fill="#E2D5F0" points="446.85714285714283,186.28571428571433 707.4285714285713,186.28571428571433 707.4285714285713,56.0 446.85714285714283,56.0" stroke="#888" stroke-width="1" /><text fill="#333" font-family="Arial, sans-serif" font-size="12" text-anchor="middle" x="577.1428571428571" y="121.14285714285717">Servant Room</text><text fill="#666" font-family="Arial, sans-serif" font-size="10" text-anchor="middle" x="577.1428571428571" y="135.14285714285717">8 m²</text><polygon fill="#D4EDDA" points="707.4285714285713,186.28571428571433 837.7142857142857,186.28571428571433 837.7142857142857,56.0 707.4285714285713,56.0" stroke="#888" stroke-width="1" /><text fill="#333" font-family="Arial, sans-serif" font-size="12" text-anchor="middle" x="772.5714285714284" y="121.14285714285717">Servant WC</text><text fill="#666" font-family="Arial, sans-serif" font-size="10" text-anchor="middle" x="772.5714285714284" y="135.14285714285717">4 m²</text><polygon fill="#F8F9FA" points="837.7142857142857,186.28571428571433 968.0,186.28571428571433 968.0,56.0 837.7142857142857,56.0" stroke="#888" stroke-width="1" /><text fill="#333" font-family="Arial, sans-serif" font-size="12" text-anchor="middle" x="902.8571428571429" y="121.14285714285717">Sea-view Deck</text><text fill="#666" font-family="Arial, sans-serif" font-size="10" text-anchor="middle" x="902.8571428571429" y="135.14285714285717">4 m²</text><rect fill="#E66" height="8" stroke="#A00" stroke-width="1" width="8" x="84.57142857142857" y="964.0" /><rect fill="#E66" height="8" stroke="#A00" stroke-width="1" width="8" x="182.28571428571428" y="898.8571428571429" /><rect fill="#E66" height="8" stroke="#A00" stroke-width="1" width="8" x="117.14285714285714" y="833.7142857142858" /><rect fill="#E66" height="8" stroke="#A00" stroke-width="1" width="8" x="117.14285714285714" y="638.2857142857143" /><rect fill="#E66" height="8" stroke="#A00" stroke-width="1" width="8" x="703.4285714285713" y="801.1428571428571" /><rect fill="#E66" height="8" stroke="#A00" stroke-width="1" width="8" x="573.1428571428571" y="638.2857142857143" /><rect fill="#E66" height="8" stroke="#A00" stroke-width="1" width="8" x="573.1428571428571" y="442.8571428571429" /><rect fill="#E66" height="8" stroke="#A00" stroke-width="1" width="8" x="833.7142857142857" y="638.2857142857143" /><rect fill="#E66" height="8" stroke="#A00" stroke-width="1" width="8" x="149.71428571428572" y="377.7142857142858" /><rect fill="#E66" height="8" stroke="#A00" stroke-width="1" width="8" x="345.1428571428571" y="377.7142857142858" /><rect fill="#E66" height="8" stroke="#A00" stroke-width="1" width="8" x="573.1428571428571" y="377.7142857142858" /><rect fill="#E66" height="8" stroke="#A00" stroke-width="1" width="8" x="833.7142857142857" y="377.7142857142858" /><rect fill="#E66" height="8" stroke="#A00" stroke-width="1" width="8" x="508.0" y="312.57142857142867" /><rect fill="#E66" height="8" stroke="#A00" stroke-width="1" width="8" x="638.2857142857142" y="312.57142857142867" /><rect fill="#E66" height="8" stroke="#A00" stroke-width="1" width="8" x="703.4285714285713" y="247.42857142857144" /><rect fill="#E66" height="8" stroke="#A00" stroke-width="1" width="8" x="149.71428571428572" y="247.42857142857144" /><rect fill="#E66" height="8" stroke="#A00" stroke-width="1" width="8" x="345.1428571428571" y="247.42857142857144" /><rect fill="#E66" height="8" stroke="#A00" stroke-width="1" width="8" x="508.0" y="182.28571428571433" /><rect fill="#E66" height="8" stroke="#A00" stroke-width="1" width="8" x="638.2857142857142" y="182.28571428571433" /><rect fill="#E66" height="8" stroke="#A00" stroke-width="1" width="8" x="768.5714285714286" y="182.28571428571433" /><rect fill="#E66" height="8" stroke="#A00" stroke-width="1" width="8" x="833.7142857142857" y="117.14285714285722" /><rect fill="#69E" height="6" stroke="#04A" stroke-width="1" width="12" x="440.85714285714283" y="965.0" /><rect fill="#69E" height="6" stroke="#04A" stroke-width="1" width="12" x="831.7142857142857" y="965.0" /><rect fill="#69E" height="6" stroke="#04A" stroke-width="1" width="12" x="962.0" y="802.1428571428571" /><rect fill="#69E" height="6" stroke="#04A" stroke-width="1" width="12" x="571.1428571428571" y="639.2857142857143" /><rect fill="#69E" height="6" stroke="#04A" stroke-width="1" width="12" x="50.0" y="509.0" /><rect fill="#69E" height="6" stroke="#04A" stroke-width="1" width="12" x="962.0" y="509.0" /><rect fill="#69E" height="6" stroke="#04A" stroke-width="1" width="12" x="831.7142857142857" y="378.7142857142858" /><rect fill="#69E" height="6" stroke="#04A" stroke-width="1" width="12" x="962.0" y="281.0" /><rect fill="#69E" height="6" stroke="#04A" stroke-width="1" width="12" x="147.71428571428572" y="53.0" /><rect fill="#69E" height="6" stroke="#04A" stroke-width="1" width="12" x="50.0" y="150.71428571428578" /><rect fill="#69E" height="6" stroke="#04A" stroke-width="1" width="12" x="343.1428571428571" y="53.0" /><rect fill="#69E" height="6" stroke="#04A" stroke-width="1" width="12" x="571.1428571428571" y="53.0" /><rect fill="#69E" height="6" stroke="#04A" stroke-width="1" width="12" x="896.8571428571428" y="53.0" /><rect fill="#69E" height="6" stroke="#04A" stroke-width="1" width="12" x="571.1428571428571" y="378.7142857142858" /><text fill="#444" font-family="Arial, sans-serif" font-size="12" x="40" y="24">in_5bhk_mumbai_bandra_seaview</text></svg>