<?xml version="1.0" encoding="utf-8" ?>
<svg baseProfile="full" height="1024" version="1.1" viewBox="0 0 1024 1024" width="1024" xmlns="http://www.w3.org/2000/svg" xmlns:ev="http://www.w3.org/2001/xml-events" xmlns:xlink="http://www.w3.org/1999/xlink"><defs /><rect fill="#FAFAFA" height="1024" width="1024" x="0" y="0" /><polygon fill="white" points="56.0,968.0 968.0,968.0 968.0,56.0 56.0,56.0" stroke="#222" stroke-width="3" /><polygon fill="#F5F5F5" points="56.0,968.0 186.28571428571428,968.0 186.28571428571428,837.7142857142858 56.0,837.7142857142858" stroke="#888" stroke-width="1" /><text fill="#333" font-family="Arial, sans-serif" font-size="12" text-anchor="middle" x="121.14285714285714" y="902.8571428571429">Foyer</text><text fill="#666" font-family="Arial, sans-serif" font-size="10" text-anchor="middle" x="121.14285714285714" y="916.8571428571429">4 m²</text><polygon fill="#D1ECF1" points="186.28571428571428,968.0 577.1428571428571,968.0 577.1428571428571,642.2857142857143 186.28571428571428,642.2857142857143" stroke="#888" stroke-width="1" /><text fill="#333" font-family="Arial, sans-serif" font-size="12" text-anchor="middle" x="381.71428571428567" y="805.1428571428571">Living</text><text fill="#666" font-family="Arial, sans-serif" font-size="10" text-anchor="middle" x="381.71428571428567" y="819.1428571428571">30 m²</text><polygon fill="#FFE5E5" points="577.1428571428571,968.0 837.7142857142857,968.0 837.7142857142857,707.4285714285714 577.1428571428571,707.4285714285714" stroke="#888" stroke-width="1" /><text fill="#333" font-family="Arial, sans-serif" font-size="12" text-anchor="middle" x="707.4285714285713" y="837.7142857142858">Dining</text><text fill="#666" font-family="Arial, sans-serif" font-size="10" text-anchor="middle" x="707.4285714285713" y="851.7142857142858">16 m²</text><polygon fill="#FFE5B4" points="837.7142857142857,968.0 968.0,968.0 968.0,837.7142857142858 837.7142857142857,837.7142857142858" stroke="#888" stroke-width="1" /><text fill="#333" font-family="Arial, sans-serif" font-size="12" text-anchor="middle" x="902.8571428571429" y="902.8571428571429">Pooja Room</text><text fill="#666" font-family="Arial, sans-serif" font-size="10" text-anchor="middle" x="902.8571428571429" y="916.8571428571429">4 m²</text><polygon fill="#D4EDDA" points="837.7142857142857,837.7142857142858 968.0,837.7142857142858 968.0,707.4285714285714 837.7142857142857,707.4285714285714" stroke="#888" stroke-width="1" /><text fill="#333" font-family="Arial, sans-serif" font-size="12" text-anchor="middle" x="902.8571428571429" y="772.5714285714287">Powder</text><text fill="#666" font-family="Arial, sans-serif" font-size="10" text-anchor="middle" x="902.8571428571429" y="786.5714285714287">4 m²</text><polygon fill="#F5F5F5" points="56.0,837.7142857142858 186.28571428571428,837.7142857142858 186.28571428571428,642.2857142857143 56.0,642.2857142857143" stroke="#888" stroke-width="1" /><text fill="#333" font-family="Arial, sans-serif" font-size="12" text-anchor="middle" x="121.14285714285714" y="740.0">Foyer ext</text><text fill="#666" font-family="Arial, sans-serif" font-size="10" text-anchor="middle" x="121.14285714285714" y="754.0">6 m²</text><polygon fill="#FFF3CD" points="577.1428571428571,707.4285714285714 837.7142857142857,707.4285714285714 837.7142857142857,512.0 577.1428571428571,512.0" stroke="#888" stroke-width="1" /><text fill="#333" font-family="Arial, sans-serif" font-size="12" text-anchor="middle" x="707.4285714285713" y="609.7142857142858">Kitchen</text><text fill="#666" font-family="Arial, sans-serif" font-size="10" text-anchor="middle" x="707.4285714285713" y="623.7142857142858">12 m²</text><polygon fill="#E0E0E0" points="837.7142857142857,707.4285714285714 968.0,707.4285714285714 968.0,512.0 837.7142857142857,512.0" stroke="#888" stroke-width="1" /><text fill="#333" font-family="Arial, sans-serif" font-size="12" text-anchor="middle" x="902.8571428571429" y="609.7142857142858">Utility</text><text fill="#666" font-family="Arial, sans-serif" font-size="10" text-anchor="middle" x="902.8571428571429" y="623.7142857142858">6 m²</text><polygon fill="#D1ECF1" points="577.1428571428571,512.0 968.0,512.0 968.0,316.57142857142867 577.1428571428571,316.57142857142867" stroke="#888" stroke-width="1" /><text fill="#333" font-family="Arial, sans-serif" font-size="12" text-anchor="middle" x="772.5714285714286" y="414.28571428571433">Family Hall</text><text fill="#666" font-family="Arial, sans-serif" font-size="10" text-anchor="middle" x="772.5714285714286" y="428.28571428571433">18 m²</text><polygon fill="#E2D5F0" points="56.0,642.2857142857143 381.71428571428567,642.2857142857143 381.71428571428567,446.8571428571429 56.0,446.8571428571429" stroke="#888" stroke-width="1" /><text fill="#333" font-family="Arial, sans-serif" font-size="12" text-anchor="middle" x="218.85714285714283" y="544.5714285714287">Guest Bedroom</text><text fill="#666" font-family="Arial, sans-serif" font-size="10" text-anchor="middle" x="218.85714285714283" y="558.5714285714287">15 m²</text><polygon fill="#D4EDDA" points="381.71428571428567,642.2857142857143 577.1428571428571,642.2857142857143 577.1428571428571,446.8571428571429 381.71428571428567,446.8571428571429" stroke="#888" stroke-width="1" /><text fill="#333" font-family="Arial, sans-serif" font-size="12" text-anchor="middle" x="479.4285714285714" y="544.5714285714287">Guest Bath</text><text fill="#666" font-family="Arial, sans-serif" font-size="10" text-anchor="middle" x="479.4285714285714" y="558.5714285714287">9 m²</text><polygon fill="#D5C8E0" points="56.0,446.8571428571429 381.71428571428567,446.8571428571429 381.71428571428567,186.28571428571433 56.0,186.28571428571433" stroke="#888" stroke-width="1" /><text fill="#333" font-family="Arial, sans-serif" font-size="12" text-anchor="middle" x="218.85714285714283" y="316.5714285714286">Master Bedroom</text><text fill="#666" font-family="Arial, sans-serif" font-size="10" text-anchor="middle" x="218.85714285714283" y="330.5714285714286">20 m²</text><polygon fill="#EEE" points="381.71428571428567,446.8571428571429 512.0,446.8571428571429 512.0,251.42857142857144 381.71428571428567,251.42857142857144" stroke="#888" stroke-width="1" /><text fill="#333" font-family="Arial, sans-serif" font-size="12" text-anchor="middle" x="446.85714285714283" y="349.14285714285717">Walk-in Wardrobe</text><text fill="#666" font-family="Arial, sans-serif" font-size="10" text-anchor="middle" x="446.85714285714283" y="363.14285714285717">6 m²</text><polygon fill="#D4EDDA" points="512.0,446.8571428571429 577.1428571428571,446.8571428571429 577.1428571428571,251.42857142857144 512.0,251.42857142857144" stroke="#888" stroke-width="1" /><text fill="#333" font-family="Arial, sans-serif" font-size="12" text-anchor="middle" x="544.5714285714286" y="349.14285714285717">Master Bath</text><text fill="#666" font-family="Arial, sans-serif" font-size="10" text-anchor="middle" x="544.5714285714286" y="363.14285714285717">3 m²</text><polygon fill="#E2D5F0" points="577.1428571428571,316.57142857142867 968.0,316.57142857142867 968.0,121.14285714285722 577.1428571428571,121.14285714285722" stroke="#888" stroke-width="1" /><text fill="#333" font-family="Arial, sans-serif" font-size="12" text-anchor="middle" x="772.5714285714286" y="218.85714285714295">Bedroom 2</text><text fill="#666" font-family="Arial, sans-serif" font-size="10" text-anchor="middle" x="772.5714285714286" y="232.85714285714295">18 m²</text><polygon fill="#E2D5F0" points="381.71428571428567,251.42857142857144 577.1428571428571,251.42857142857144 577.1428571428571,56.0 381.71428571428567,56.0" stroke="#888" stroke-width="1" /><text fill="#333" font-family="Arial, sans-serif" font-size="12" text-anchor="middle" x="479.4285714285714" y="153.71428571428572">Servant Room</text><text fill="#666" font-family="Arial, sans-serif" font-size="10" text-anchor="middle" x="479.4285714285714" y="167.71428571428572">9 m²</text><polygon fill="#E2D5F0" points="56.0,186.28571428571433 381.71428571428567,186.28571428571433 381.71428571428567,56.0 56.0,56.0" stroke="#888" stroke-width="1" /><text fill="#333" font-family="Arial, sans-serif" font-size="12" text-anchor="middle" x="218.85714285714283" y="121.14285714285717">Bedroom 3</text><text fill="#666" font-family="Arial, sans-serif" font-size="10" text-anchor="middle" x="218.85714285714283" y="135.14285714285717">10 m²</text><polygon fill="#D4EDDA" points="577.1428571428571,121.14285714285722 707.4285714285713,121.14285714285722 707.4285714285713,56.0 577.1428571428571,56.0" stroke="#888" stroke-width="1" /><text fill="#333" font-family="Arial, sans-serif" font-size="12" text-anchor="middle" x="642.2857142857142" y="88.57142857142861">Servant WC</text><text fill="#666" font-family="Arial, sans-serif" font-size="10" text-anchor="middle" x="642.2857142857142" y="102.57142857142861">2 m²</text><polygon fill="#F8F9FA" points="707.4285714285713,121.14285714285722 968.0,121.14285714285722 968.0,56.0 707.4285714285713,56.0" stroke="#888" stroke-width="1" /><text fill="#333" font-family="Arial, sans-serif" font-size="12" text-anchor="middle" x="837.7142857142857" y="88.57142857142861">Open Terrace</text><text fill="#666" font-family="Arial, sans-serif" font-size="10" text-anchor="middle" x="837.7142857142857" y="102.57142857142861">4 m²</text><rect fill="#E66" height="8" stroke="#A00" stroke-width="1" width="8" x="84.57142857142857" y="964.0" /><rect fill="#E66" height="8" stroke="#A00" stroke-width="1" width="8" x="182.28571428571428" y="898.8571428571429" /><rect fill="#E66" height="8" stroke="#A00" stroke-width="1" width="8" x="117.14285714285714" y="833.7142857142858" /><rect fill="#E66" height="8" stroke="#A00" stroke-width="1" width="8" x="117.14285714285714" y="638.2857142857143" /><rect fill="#E66" height="8" stroke="#A00" stroke-width="1" width="8" x="573.1428571428571" y="801.1428571428571" /><rect fill="#E66" height="8" stroke="#A00" stroke-width="1" width="8" x="833.7142857142857" y="898.8571428571429" /><rect fill="#E66" height="8" stroke="#A00" stroke-width="1" width="8" x="833.7142857142857" y="768.5714285714286" /><rect fill="#E66" height="8" stroke="#A00" stroke-width="1" width="8" x="703.4285714285713" y="703.4285714285714" /><rect fill="#E66" height="8" stroke="#A00" stroke-width="1" width="8" x="833.7142857142857" y="605.7142857142858" /><rect fill="#E66" height="8" stroke="#A00" stroke-width="1" width="8" x="703.4285714285713" y="508.0" /><rect fill="#E66" height="8" stroke="#A00" stroke-width="1" width="8" x="898.8571428571428" y="508.0" /><rect fill="#E66" height="8" stroke="#A00" stroke-width="1" width="8" x="475.4285714285714" y="638.2857142857143" /><rect fill="#E66" height="8" stroke="#A00" stroke-width="1" width="8" x="377.71428571428567" y="540.5714285714287" /><rect fill="#E66" height="8" stroke="#A00" stroke-width="1" width="8" x="540.5714285714286" y="442.8571428571429" /><rect fill="#E66" height="8" stroke="#A00" stroke-width="1" width="8" x="573.1428571428571" y="377.7142857142858" /><rect fill="#E66" height="8" stroke="#A00" stroke-width="1" width="8" x="768.5714285714286" y="312.57142857142867" /><rect fill="#E66" height="8" stroke="#A00" stroke-width="1" width="8" x="214.85714285714283" y="442.8571428571429" /><rect fill="#E66" height="8" stroke="#A00" stroke-width="1" width="8" x="377.71428571428567" y="345.1428571428572" /><rect fill="#E66" height="8" stroke="#A00" stroke-width="1" width="8" x="508.0" y="345.1428571428572" /><rect fill="#E66" height="8" stroke="#A00" stroke-width="1" width="8" x="214.85714285714283" y="182.28571428571433" /><rect fill="#E66" height="8" stroke="#A00" stroke-width="1" width="8" x="442.85714285714283" y="247.42857142857144" /><rect fill="#E66" height="8" stroke="#A00" stroke-width="1" width="8" x="540.5714285714286" y="247.42857142857144" /><rect fill="#E66" height="8" stroke="#A00" stroke-width="1" width="8" x="377.71428571428567" y="117.14285714285722" /><rect fill="#E66" height="8" stroke="#A00" stroke-width="1" width="8" x="638.2857142857142" y="117.14285714285722" /><rect fill="#E66" height="8" stroke="#A00" stroke-width="1" width="8" x="573.1428571428571" y="84.57142857142867" /><rect fill="#E66" height="8" stroke="#A00" stroke-width="1" width="8" x="833.7142857142857" y="117.14285714285722" /><rect fill="#69E" height="6" stroke="#04A" stroke-width="1" width="12" x="375.71428571428567" y="965.0" /><rect fill="#69E" height="6" stroke="#04A" stroke-width="1" width="12" x="701.4285714285713" y="965.0" /><rect fill="#69E" height="6" stroke="#04A" stroke-width="1" width="12" x="701.4285714285713" y="509.0" /><rect fill="#69E" height="6" stroke="#04A" stroke-width="1" width="12" x="962.0" y="411.28571428571433" /><rect fill="#69E" height="6" stroke="#04A" stroke-width="1" width="12" x="50.0" y="541.5714285714287" /><rect fill="#69E" height="6" stroke="#04A" stroke-width="1" width="12" x="50.0" y="313.57142857142867" /><rect fill="#69E" height="6" stroke="#04A" stroke-width="1" width="12" x="212.85714285714283" y="183.28571428571433" /><rect fill="#69E" height="6" stroke="#04A" stroke-width="1" width="12" x="766.5714285714286" y="118.14285714285722" /><rect fill="#69E" height="6" stroke="#04A" stroke-width="1" width="12" x="962.0" y="215.8571428571429" /><rect fill="#69E" height="6" stroke="#04A" stroke-width="1" width="12" x="212.85714285714283" y="53.0" /><rect fill="#69E" height="6" stroke="#04A" stroke-width="1" width="12" x="50.0" y="118.14285714285722" /><rect fill="#69E" height="6" stroke="#04A" stroke-width="1" width="12" x="473.4285714285714" y="53.0" /><rect fill="#69E" height="6" stroke="#04A" stroke-width="1" width="12" x="831.7142857142857" y="53.0" /><rect fill="#69E" height="6" stroke="#04A" stroke-width="1" width="12" x="962.0" y="606.7142857142858" /><text fill="#444" font-family="Arial, sans-serif" font-size="12" x="40" y="24">in_5bhk_bangalore_sarjapur_villa</text></svg>